<svg width="48" height="55" viewBox="0 0 48 55" fill="none" xmlns="http://www.w3.org/2000/svg">
<path d="M47.2421 7.81606C47.1113 7.93084 46.9579 8.07427 46.7905 8.24723C46.2918 8.7624 45.6664 9.54224 45.1478 10.6093C44.103 12.7588 43.5189 16.0178 45.1696 20.5215L45.1696 20.5216C46.9704 25.4308 48.0893 31.3522 45.6379 37.3083C43.1998 43.2322 37.1796 49.3099 24.4646 54.4608C11.7492 49.3099 5.72895 43.2322 3.29072 37.3083C0.839276 31.3522 1.95817 25.4308 3.75895 20.5216L3.759 20.5215C5.40971 16.0179 4.82586 12.7589 3.78139 10.6094C3.26286 9.54228 2.63761 8.76244 2.13906 8.24727C1.97167 8.0743 1.81827 7.93086 1.68753 7.81607L7.97936 0.697094C8.22641 0.886856 8.58631 1.14736 9.04425 1.43597C9.9588 2.01236 11.2723 2.7059 12.8648 3.16887C15.9916 4.07784 20.176 4.0881 24.4645 0.647252C28.7526 4.08811 32.9369 4.07783 36.0636 3.16887C37.6562 2.7059 38.9697 2.01236 39.8843 1.43597C40.3423 1.14734 40.7022 0.886826 40.9492 0.697061L47.2421 7.81606Z" stroke="#58585A"/>
<path d="M33.979 29.0967C33.4238 34.1072 29.2741 38 24.2373 38C19.2006 38 15.0509 34.1072 14.4957 29.0967M24.2991 18.9127V38M19.8205 23.8658H28.7778M12.9648 32.3926L14.2404 28.3333L17.4997 31.2025M35.6335 32.3926L34.3579 28.3333L31.0986 31.2025M26.7349 16.4966C26.7349 17.8755 25.6444 18.9933 24.2992 18.9933C22.9539 18.9933 21.8634 17.8755 21.8634 16.4966C21.8634 15.1178 22.9539 14 24.2992 14C25.6444 14 26.7349 15.1178 26.7349 16.4966Z" stroke="#58585A"/>
</svg>
