<svg width="70" height="51" viewBox="0 0 70 51" fill="none" xmlns="http://www.w3.org/2000/svg">
<path d="M4.99173 7.13639V6.63639H4.49173V7.13639H4.99173ZM11.3961 7.13639H11.8961V6.63639H11.3961V7.13639ZM58.9703 49.5883L58.7222 49.1541L58.7131 49.1595L58.9703 49.5883ZM56.0426 49.5883L55.7776 50.0123L55.7854 50.017L56.0426 49.5883ZM51.1021 49.5883L51.3594 50.0171L51.3671 50.0123L51.1021 49.5883ZM48.1743 49.5883L47.9093 50.0123L47.9171 50.017L48.1743 49.5883ZM43.2338 49.5883L43.4911 50.0171L43.4988 50.0123L43.2338 49.5883ZM40.3061 49.5883L40.0411 50.0123L40.0489 50.017L40.3061 49.5883ZM35.3656 49.5883L35.6229 50.0171L35.6306 50.0123L35.3656 49.5883ZM32.4378 49.5883L32.1728 50.0123L32.1806 50.017L32.4378 49.5883ZM27.4973 49.5883L27.7546 50.0171L27.7623 50.0123L27.4973 49.5883ZM24.5696 49.5883L24.3046 50.0123L24.3123 50.017L24.5696 49.5883ZM19.6291 49.5883L19.8771 50.0224L19.8857 50.0175L19.8941 50.0123L19.6291 49.5883ZM11.7608 49.5883V50.0883H11.8838L11.9928 50.0312L11.7608 49.5883ZM8.8331 49.5883L9.09809 49.1643L9.08973 49.159L9.08116 49.1542L8.8331 49.5883ZM9.20033 43.7329V43.2329H8.94871L8.79878 43.435L9.20033 43.7329ZM8.72218 43.8835C8.80533 44.1468 9.08621 44.2928 9.34954 44.2097C9.61286 44.1265 9.75892 43.8456 9.67576 43.5823L8.72218 43.8835ZM2.6116 22.8729H2.1116C2.1116 22.924 2.11942 22.9747 2.13481 23.0234L2.6116 22.8729ZM21.0928 22.8729L21.5055 22.5905C21.4123 22.4543 21.2579 22.3729 21.0928 22.3729V22.8729ZM25.8504 29.8262L25.4377 30.1086C25.5309 30.2448 25.6853 30.3262 25.8504 30.3262V29.8262ZM69.0343 29.8262L69.4651 30.0799C69.5104 30.003 69.5343 29.9154 69.5343 29.8262L69.0343 29.8262ZM57.0755 49.1517C56.9354 49.3896 57.0147 49.6961 57.2527 49.8362C57.4906 49.9763 57.7971 49.897 57.9372 49.659L57.0755 49.1517ZM2.6116 12.6258V12.1258H2.1116V12.6258H2.6116ZM13.5906 12.6258L14.028 12.3837L13.8853 12.1258H13.5906V12.6258ZM25.85 6.2214V5.7214H25.35L25.35 6.22141L25.85 6.2214ZM54.9442 6.2214H55.4442V5.7214H54.9442V6.2214ZM69.0339 13.7237L69.5339 13.7237L69.5338 13.2237H69.0339V13.7237ZM5.49173 12.6259V7.13639H4.49173V12.6259H5.49173ZM4.99173 7.63639H11.3961V6.63639H4.99173V7.63639ZM10.8961 7.13639V12.6259H11.8961V7.13639H10.8961ZM8.60141 7.13632V0H7.60141V7.13632H8.60141ZM66.5905 49.1542C65.5596 49.7432 64.8133 49.3369 63.5673 48.8483C62.9689 48.6136 62.2779 48.3807 61.4686 48.3678C60.6508 48.3548 59.7513 48.5661 58.7222 49.1542L59.2184 50.0224C60.1107 49.5125 60.8351 49.3579 61.4526 49.3677C62.0786 49.3777 62.6341 49.5565 63.2022 49.7793C64.2893 50.2056 65.5558 50.8972 67.0866 50.0224L66.5905 49.1542ZM58.7131 49.1595C57.9565 49.6135 57.0564 49.6135 56.2998 49.1595L55.7854 50.017C56.8586 50.661 58.1543 50.661 59.2276 50.017L58.7131 49.1595ZM56.3076 49.1643C54.6816 48.148 52.4631 48.148 50.8371 49.1643L51.3671 50.0123C52.6688 49.1987 54.4759 49.1987 55.7776 50.0123L56.3076 49.1643ZM50.8448 49.1595C50.0882 49.6135 49.1882 49.6135 48.4316 49.1595L47.9171 50.017C48.9904 50.661 50.2861 50.661 51.3593 50.017L50.8448 49.1595ZM48.4393 49.1643C46.8134 48.148 44.5948 48.148 42.9688 49.1643L43.4988 50.0123C44.8005 49.1987 46.6076 49.1987 47.9093 50.0123L48.4393 49.1643ZM42.9766 49.1595C42.22 49.6135 41.3199 49.6135 40.5633 49.1595L40.0489 50.017C41.1221 50.661 42.4178 50.661 43.4911 50.017L42.9766 49.1595ZM40.5711 49.1643C38.9451 48.148 36.7266 48.148 35.1006 49.1643L35.6306 50.0123C36.9323 49.1987 38.7394 49.1987 40.0411 50.0123L40.5711 49.1643ZM35.1083 49.1595C34.3517 49.6135 33.4517 49.6135 32.6951 49.1595L32.1806 50.017C33.2539 50.661 34.5496 50.661 35.6228 50.017L35.1083 49.1595ZM32.7028 49.1643C31.0768 48.148 28.8583 48.148 27.2323 49.1643L27.7623 50.0123C29.064 49.1987 30.8711 49.1987 32.1728 50.0123L32.7028 49.1643ZM27.2401 49.1595C26.4835 49.6135 25.5834 49.6135 24.8268 49.1595L24.3123 50.017C25.3856 50.661 26.6813 50.661 27.7546 50.017L27.2401 49.1595ZM24.8346 49.1643C23.2086 48.148 20.9901 48.148 19.3641 49.1643L19.8941 50.0123C21.1958 49.1987 23.0029 49.1987 24.3046 50.0123L24.8346 49.1643ZM19.381 49.1542C18.3414 49.7482 17.5824 49.3731 16.3498 48.9139C15.754 48.6919 15.0676 48.4676 14.265 48.4452C13.4543 48.4226 12.5582 48.6062 11.5288 49.1454L11.9928 50.0312C12.8848 49.564 13.6127 49.4274 14.2372 49.4448C14.8698 49.4624 15.43 49.6383 16.0007 49.851C17.1011 50.2609 18.355 50.8922 19.8771 50.0224L19.381 49.1542ZM11.7608 49.0883C11.6654 49.0883 11.5862 49.114 11.5583 49.1231C11.519 49.136 11.4802 49.1517 11.4492 49.1647C11.4179 49.1778 11.2798 49.2384 11.2369 49.2566C11.0817 49.3223 10.8909 49.395 10.6711 49.4428C10.2409 49.5363 9.69483 49.5372 9.09809 49.1643L8.5681 50.0123C9.43522 50.5542 10.2615 50.5552 10.8835 50.42C11.1897 50.3534 11.445 50.2545 11.6271 50.1773C11.7529 50.124 11.7564 50.1202 11.8359 50.0869C11.847 50.0822 11.8554 50.0788 11.8617 50.0764C11.8681 50.0739 11.8704 50.0732 11.8694 50.0735C11.869 50.0736 11.8607 50.0764 11.8467 50.0795C11.8346 50.0821 11.8035 50.0883 11.7608 50.0883V49.0883ZM9.08116 49.1542C8.05215 48.5661 7.15257 48.3548 6.33485 48.3678C5.52554 48.3807 4.83451 48.6136 4.2361 48.8483C2.99014 49.3369 2.2438 49.7432 1.21291 49.1542L0.716774 50.0224C2.24764 50.8972 3.51411 50.2056 4.60118 49.7793C5.16929 49.5565 5.72483 49.3777 6.35078 49.3677C6.96834 49.3579 7.69273 49.5125 8.58503 50.0224L9.08116 49.1542ZM5.39328 49.7033L9.60188 44.0308L8.79878 43.435L4.59018 49.1074L5.39328 49.7033ZM9.20033 44.2329H60.8014V43.2329H9.20033V44.2329ZM9.67576 43.5823L3.08839 22.7223L2.13481 23.0234L8.72218 43.8835L9.67576 43.5823ZM2.6116 23.3729H21.0928V22.3729H2.6116V23.3729ZM20.6802 23.1552L25.4377 30.1086L26.263 29.5439L21.5055 22.5905L20.6802 23.1552ZM25.8504 30.3262H69.0343V29.3262H25.8504V30.3262ZM68.6034 29.5725L57.0755 49.1517L57.9372 49.659L69.4651 30.0799L68.6034 29.5725ZM3.1116 22.8729V12.6258H2.1116V22.8729H3.1116ZM2.6116 13.1258H13.5906V12.1258H2.6116V13.1258ZM13.1531 12.868L18.8256 23.115L19.7005 22.6307L14.028 12.3837L13.1531 12.868ZM26.3504 29.8262L26.35 6.22139L25.35 6.22141L25.3504 29.8262L26.3504 29.8262ZM25.85 6.7214H54.9442V5.7214H25.85V6.7214ZM54.4442 6.2214V29.8262H55.4442V6.2214H54.4442ZM25.85 14.2237H69.0339V13.2237H25.85V14.2237ZM68.5339 13.7237L68.5343 29.8262L69.5343 29.8262L69.5339 13.7237L68.5339 13.7237ZM25.85 22.8239H69.0339V21.8239H25.85V22.8239ZM7.0023 18.4323H11.3939V17.4323H7.0023V18.4323Z" fill="#58585A"/>
</svg>
