<svg width="57" height="53" viewBox="0 0 57 53" fill="none" xmlns="http://www.w3.org/2000/svg">
<path d="M55.6983 33.814L56.0915 34.1229L56.1982 33.9871L56.1983 33.8144L55.6983 33.814ZM55.7147 12.3524L56.2147 12.3528L56.2146 12.3458L55.7147 12.3524ZM51.1835 12.4015L51.6835 12.3968L51.6835 12.3949L51.1835 12.4015ZM51.298 24.7844L51.6516 25.138L51.7999 24.9896L51.798 24.7798L51.298 24.7844ZM38.8987 37.1838L38.5451 36.8302L38.3987 36.9767V37.1838H38.8987ZM38.8987 52.4457H38.3987V52.9457H38.8987V52.4457ZM47.4866 52.4457V52.9457H47.9866V52.4457H47.4866ZM47.4866 44.2668L47.0934 43.9579L46.9866 44.0939V44.2668H47.4866ZM51.0698 28.2687L51.4266 27.9185L51.4266 27.9184L51.0698 28.2687ZM51.0371 31.4749L50.6868 31.1181L50.6865 31.1184L51.0371 31.4749ZM0.981202 33.814L0.481202 33.8144L0.481333 33.9871L0.588021 34.1229L0.981202 33.814ZM0.964844 12.3524L0.464839 12.3458L0.464844 12.3528L0.964844 12.3524ZM5.496 12.4015L4.99604 12.3949L4.99602 12.3968L5.496 12.4015ZM5.38149 24.7844L4.88152 24.7798L4.87957 24.9896L5.02794 25.138L5.38149 24.7844ZM17.7808 37.1838H18.2808V36.9767L18.1344 36.8302L17.7808 37.1838ZM17.7808 52.4457V52.9457H18.2808V52.4457H17.7808ZM9.1929 52.4457H8.6929V52.9457H9.1929V52.4457ZM9.1929 44.2668H9.6929V44.0939L9.58608 43.9579L9.1929 44.2668ZM5.6105 28.2687L5.25372 27.9184L5.25366 27.9185L5.6105 28.2687ZM5.64321 31.4749L5.99377 31.1184L5.99351 31.1181L5.64321 31.4749ZM28.3479 16.1312L28.5823 15.6896L28.3485 15.5654L28.1144 15.6891L28.3479 16.1312ZM25.1581 17.8161L24.6652 17.7321L24.4947 18.732L25.3916 18.2582L25.1581 17.8161ZM25.7633 14.2664L26.2562 14.3505L26.3003 14.0916L26.1123 13.9083L25.7633 14.2664ZM23.1951 11.7637L23.1222 11.269L22.1224 11.4164L22.8462 12.1217L23.1951 11.7637ZM26.7448 11.2402L26.8177 11.7349L27.0755 11.6968L27.192 11.4638L26.7448 11.2402ZM28.3479 8.03404L28.796 7.81226L28.3502 6.91141L27.9007 7.81043L28.3479 8.03404ZM29.9346 11.2402L29.4865 11.462L29.6026 11.6967L29.8617 11.7349L29.9346 11.2402ZM33.4843 11.7637L33.8332 12.1217L34.557 11.4164L33.5572 11.269L33.4843 11.7637ZM30.9161 14.2664L30.5671 13.9083L30.3791 14.0916L30.4232 14.3505L30.9161 14.2664ZM31.5213 17.8161L31.2869 18.2577L32.1852 18.7347L32.0142 17.7321L31.5213 17.8161ZM28.3649 1.5C28.6411 1.5 28.8649 1.27614 28.8649 1C28.8649 0.723858 28.6411 0.5 28.3649 0.5V1.5ZM26.2384 1.70339L26.0055 1.26086L25.9974 1.26528L26.2384 1.70339ZM25.3224 2.1287L25.4308 2.61679C25.4418 2.61436 25.4527 2.61155 25.4634 2.60838L25.3224 2.1287ZM24.2754 2.22685L24.2873 2.72679L24.2963 2.72641L24.2754 2.22685ZM22.1325 2.66851L21.8845 2.23438L21.8812 2.23626L22.1325 2.66851ZM20.6767 4.32067L21.1055 4.57793L21.1086 4.5726L20.6767 4.32067ZM19.2208 5.77653L19.4817 6.20333L19.4933 6.19575L19.2208 5.77653ZM17.5687 7.24874L17.1364 6.99742L17.1346 7.00067L17.5687 7.24874ZM17.127 9.39163L17.6267 9.41245L17.6269 9.40354L17.127 9.39163ZM17.0289 10.4549L17.5156 10.5694L17.517 10.5634L17.0289 10.4549ZM16.6036 11.3709L16.1654 11.13L16.1637 11.1332L16.6036 11.3709ZM16.6036 15.624L16.1637 15.8618L16.1654 15.865L16.6036 15.624ZM17.0289 16.5401L17.5106 16.4062C17.5092 16.4011 17.5077 16.396 17.5061 16.3909L17.0289 16.5401ZM17.127 17.6033H16.6269L16.6272 17.6152L17.127 17.6033ZM17.5687 19.7462L18.0028 19.4982L17.5687 19.7462ZM17.7977 20.0734L18.193 19.7673C18.1894 19.7626 18.1856 19.7579 18.1818 19.7533L17.7977 20.0734ZM19.2208 21.2184L18.9532 21.641L18.9636 21.6472L19.2208 21.2184ZM19.8915 21.6765L19.5714 22.0606C19.578 22.066 19.5847 22.0713 19.5915 22.0765L19.8915 21.6765ZM20.5785 22.5434L20.1587 22.8151L20.1625 22.8208L20.5785 22.5434ZM20.6603 22.6743L21.087 22.4136C21.0664 22.3799 21.0418 22.3487 21.0139 22.3207L20.6603 22.6743ZM22.1325 24.3265L21.8812 24.7587L21.8845 24.7606L22.1325 24.3265ZM24.2754 24.7845L24.2963 24.2848L24.2873 24.2846L24.2754 24.7845ZM25.3224 24.9153L25.4635 24.4356L25.4562 24.4336L25.3224 24.9153ZM26.2384 25.3897L25.9974 25.8278L26.0006 25.8296L26.2384 25.3897ZM30.4915 25.3897L30.7292 25.8296L30.7324 25.8278L30.4915 25.3897ZM31.4075 24.9153L31.2737 24.4335L31.2664 24.4357L31.4075 24.9153ZM32.4544 24.7845L32.4425 24.2845L32.4336 24.2849L32.4544 24.7845ZM34.5973 24.3265L34.8454 24.7606L34.8486 24.7587L34.5973 24.3265ZM36.0695 22.6743L35.6534 22.3968L35.6462 22.4082L36.0695 22.6743ZM36.1513 22.5434L36.5049 22.897C36.5298 22.8721 36.552 22.8446 36.5711 22.8151L36.1513 22.5434ZM36.8384 21.6765L36.5384 21.2765C36.5194 21.2907 36.5015 21.3062 36.4848 21.3229L36.8384 21.6765ZM37.509 21.2184L37.2518 20.7897C37.245 20.7938 37.2383 20.798 37.2317 20.8024L37.509 21.2184ZM38.9322 20.0734L38.548 19.7533L38.543 19.7595L38.9322 20.0734ZM39.1612 19.7462L38.7271 19.4982L39.1612 19.7462ZM39.6029 17.6033L39.1032 17.5825L39.103 17.5911L39.6029 17.6033ZM39.701 16.5401L40.1847 16.6674L40.1877 16.6546L39.701 16.5401ZM40.1263 15.624L40.5644 15.865L40.5662 15.8618L40.1263 15.624ZM40.1263 11.3709L40.5662 11.1332L40.5644 11.13L40.1263 11.3709ZM39.701 10.4549L39.2192 10.5887C39.2207 10.5939 39.2222 10.599 39.2238 10.604L39.701 10.4549ZM39.6029 9.39163H40.103L40.1027 9.37973L39.6029 9.39163ZM39.1612 7.24874L39.5953 7.00067L39.5934 6.99743L39.1612 7.24874ZM37.509 5.77653L37.7698 5.34987L37.7663 5.34778L37.509 5.77653ZM36.0532 4.32067L35.6264 4.58149L35.634 4.59316L36.0532 4.32067ZM34.581 2.66851L34.3284 3.10002L34.3296 3.10077L34.581 2.66851ZM32.4708 2.22685L32.45 2.72649L32.4586 2.7267L32.4708 2.22685ZM31.4239 2.1287L31.3093 2.61545L31.3154 2.61679L31.4239 2.1287ZM30.5078 1.70339L30.7488 1.26527L30.7456 1.26354L30.5078 1.70339ZM28.3813 0.5C28.1051 0.5 27.8813 0.723858 27.8813 1C27.8813 1.27614 28.1051 1.5 28.3813 1.5V0.5ZM25.7355 25.1253C25.8605 24.8791 25.7622 24.5781 25.516 24.4531C25.2697 24.3281 24.9688 24.4264 24.8438 24.6727L25.7355 25.1253ZM22.018 31.344L21.572 31.1176L21.5662 31.13L22.018 31.344ZM20.3822 31.2949L19.9252 31.4978L19.9263 31.5001L20.3822 31.2949ZM19.2208 28.6777L19.6779 28.4749C19.5813 28.2573 19.3447 28.1379 19.1124 28.1896L19.2208 28.6777ZM16.4236 29.2993L16.3151 28.811L16.3024 28.8142L16.4236 29.2993ZM15.4749 27.9088L15.8909 28.1862C15.902 28.1695 15.9121 28.1522 15.9212 28.1343L15.4749 27.9088ZM19.2589 21.5261C19.3834 21.2796 19.2845 20.9789 19.038 20.8544C18.7915 20.7299 18.4908 20.8288 18.3663 21.0752L19.2589 21.5261ZM31.837 24.6727C31.712 24.4264 31.4111 24.3281 31.1648 24.4531C30.9186 24.5781 30.8203 24.8791 30.9453 25.1253L31.837 24.6727ZM34.6627 31.344L35.1148 31.1299L35.1086 31.1177L34.6627 31.344ZM36.2985 31.2949L36.7545 31.5001L36.7556 31.4978L36.2985 31.2949ZM37.46 28.6777L37.5678 28.1894C37.3356 28.1381 37.0994 28.2575 37.0029 28.4749L37.46 28.6777ZM40.2735 29.2993L40.3948 28.814L40.3814 28.811L40.2735 29.2993ZM41.2223 27.9088L40.7762 28.1347C40.7852 28.1525 40.7952 28.1697 40.8063 28.1862L41.2223 27.9088ZM38.4295 21.287C38.3047 21.0406 38.0039 20.9421 37.7575 21.0668C37.5112 21.1916 37.4126 21.4924 37.5373 21.7388L38.4295 21.287ZM56.1983 33.8144L56.2147 12.3528L55.2147 12.352L55.1983 33.8136L56.1983 33.8144ZM56.2146 12.3458C56.1947 10.8295 54.9403 9.59136 53.418 9.61139L53.4311 10.6113C54.3952 10.5986 55.202 11.3888 55.2147 12.359L56.2146 12.3458ZM53.418 9.61139C51.9017 9.63134 50.6635 10.8857 50.6836 12.408L51.6835 12.3949C51.6708 11.4308 52.461 10.6241 53.4311 10.6113L53.418 9.61139ZM50.6835 12.4061L50.798 24.7891L51.798 24.7798L51.6835 12.3968L50.6835 12.4061ZM50.9445 24.4309L38.5451 36.8302L39.2522 37.5373L51.6516 25.138L50.9445 24.4309ZM38.3987 37.1838V52.4457H39.3987V37.1838H38.3987ZM38.8987 52.9457H47.4866V51.9457H38.8987V52.9457ZM47.9866 52.4457V44.2668H46.9866V52.4457H47.9866ZM47.8798 44.5756L56.0915 34.1229L55.3051 33.5051L47.0934 43.9579L47.8798 44.5756ZM48.2139 28.5929C48.9016 27.9178 50.0246 27.9179 50.713 28.619L51.4266 27.9184C50.3483 26.8202 48.5923 26.8203 47.5134 27.8792L48.2139 28.5929ZM50.7129 28.619C51.388 29.3067 51.388 30.4297 50.6868 31.1181L51.3874 31.8317C52.4856 30.7534 52.4855 28.9974 51.4266 27.9185L50.7129 28.619ZM50.6865 31.1184L44.8304 36.8764L45.5315 37.5894L51.3876 31.8314L50.6865 31.1184ZM1.4812 33.8136L1.46484 12.352L0.464844 12.3528L0.481202 33.8144L1.4812 33.8136ZM1.4648 12.359C1.47757 11.3888 2.28431 10.5986 3.24838 10.6113L3.26154 9.61139C1.73919 9.59136 0.484838 10.8295 0.464887 12.3458L1.4648 12.359ZM3.24838 10.6113C4.2185 10.6241 5.00873 11.4308 4.99604 12.3949L5.99596 12.408C6.01599 10.8857 4.77783 9.63134 3.26154 9.61139L3.24838 10.6113ZM4.99602 12.3968L4.88152 24.7798L5.88147 24.7891L5.99598 12.4061L4.99602 12.3968ZM5.02794 25.138L17.4273 37.5373L18.1344 36.8302L5.73505 24.4309L5.02794 25.138ZM17.2808 37.1838V52.4457H18.2808V37.1838H17.2808ZM17.7808 51.9457H9.1929V52.9457H17.7808V51.9457ZM9.6929 52.4457V44.2668H8.6929V52.4457H9.6929ZM9.58608 43.9579L1.37438 33.5051L0.588021 34.1229L8.79972 44.5756L9.58608 43.9579ZM9.16689 27.8792C8.088 26.8203 6.33195 26.8202 5.25372 27.9184L5.96728 28.619C6.65571 27.9179 7.77866 27.9178 8.46643 28.5929L9.16689 27.8792ZM5.25366 27.9185C4.19474 28.9974 4.19472 30.7534 5.29292 31.8317L5.99351 31.1181C5.29233 30.4297 5.29231 29.3067 5.96734 28.619L5.25366 27.9185ZM5.29266 31.8314L11.1488 37.5894L11.8499 36.8764L5.99377 31.1184L5.29266 31.8314ZM28.1144 15.6891L24.9245 17.374L25.3916 18.2582L28.5814 16.5733L28.1144 15.6891ZM25.651 17.9001L26.2562 14.3505L25.2704 14.1824L24.6652 17.7321L25.651 17.9001ZM26.1123 13.9083L23.5441 11.4056L22.8462 12.1217L25.4144 14.6245L26.1123 13.9083ZM23.2681 12.2583L26.8177 11.7349L26.6719 10.7455L23.1222 11.269L23.2681 12.2583ZM27.192 11.4638L28.7951 8.25765L27.9007 7.81043L26.2976 11.0166L27.192 11.4638ZM27.8998 8.25582L29.4865 11.462L30.3827 11.0184L28.796 7.81226L27.8998 8.25582ZM29.8617 11.7349L33.4113 12.2583L33.5572 11.269L30.0075 10.7455L29.8617 11.7349ZM33.1353 11.4056L30.5671 13.9083L31.265 14.6245L33.8332 12.1217L33.1353 11.4056ZM30.4232 14.3505L31.0284 17.9001L32.0142 17.7321L31.409 14.1824L30.4232 14.3505ZM31.7558 17.3745L28.5823 15.6896L28.1134 16.5728L31.2869 18.2577L31.7558 17.3745ZM28.3649 0.5C27.4022 0.5 26.6047 0.945553 26.0055 1.26093L26.4713 2.14585C27.1153 1.80691 27.6918 1.5 28.3649 1.5V0.5ZM25.9974 1.26528C25.6632 1.44912 25.3989 1.58502 25.1813 1.64902L25.4634 2.60838C25.802 2.5088 26.1593 2.31754 26.4794 2.1415L25.9974 1.26528ZM25.2139 1.64061C24.9714 1.69449 24.6595 1.71041 24.2546 1.72728L24.2963 2.72641C24.6766 2.71057 25.0844 2.69377 25.4308 2.61679L25.2139 1.64061ZM24.2635 1.72699C23.5854 1.74313 22.6948 1.77134 21.8845 2.23439L22.3806 3.10263C22.9443 2.78051 23.5914 2.74328 24.2873 2.72671L24.2635 1.72699ZM21.8812 2.23626C21.0526 2.71802 20.5877 3.48099 20.2448 4.06873L21.1086 4.5726C21.4528 3.98257 21.8057 3.4369 22.3839 3.10077L21.8812 2.23626ZM20.2479 4.06342C20.0475 4.39748 19.8804 4.65523 19.7179 4.81773L20.425 5.52483C20.6878 5.26202 20.9133 4.89817 21.1054 4.57791L20.2479 4.06342ZM19.7179 4.81773C19.5539 4.98168 19.3148 5.11913 18.9483 5.3573L19.4933 6.19575C19.7812 6.00861 20.1636 5.78619 20.425 5.52483L19.7179 4.81773ZM18.9601 5.34988C18.3806 5.70401 17.6172 6.17048 17.1364 6.99743L18.0009 7.50005C18.338 6.92022 18.8833 6.56879 19.4816 6.20317L18.9601 5.34988ZM17.1346 7.00067C16.6715 7.81102 16.6433 8.70161 16.6272 9.37973L17.6269 9.40354C17.6434 8.70759 17.6807 8.06053 18.0028 7.49681L17.1346 7.00067ZM16.6274 9.37082C16.6105 9.77756 16.5945 10.1045 16.5408 10.3464L17.517 10.5634C17.5941 10.2164 17.6108 9.79089 17.6266 9.41245L16.6274 9.37082ZM16.5422 10.3404C16.4965 10.5345 16.363 10.7708 16.1654 11.13L17.0417 11.6119C17.204 11.3167 17.4304 10.9314 17.5156 10.5694L16.5422 10.3404ZM16.1637 11.1332C15.8439 11.7248 15.4002 12.535 15.4002 13.4975H16.4002C16.4002 12.8242 16.7089 12.2276 17.0434 11.6087L16.1637 11.1332ZM15.4002 13.4975C15.4002 14.46 15.8439 15.2702 16.1637 15.8618L17.0434 15.3863C16.7089 14.7674 16.4002 14.1708 16.4002 13.4975H15.4002ZM16.1654 15.865C16.3446 16.1907 16.4861 16.4796 16.5516 16.6892L17.5061 16.3909C17.408 16.0771 17.2224 15.7117 17.0417 15.3831L16.1654 15.865ZM16.5471 16.6739C16.6088 16.8959 16.627 17.2105 16.627 17.6033H17.627C17.627 17.211 17.6125 16.7731 17.5106 16.4062L16.5471 16.6739ZM16.6272 17.6152C16.6433 18.2934 16.6715 19.1839 17.1346 19.9943L18.0028 19.4982C17.6807 18.9344 17.6434 18.2874 17.6269 17.5914L16.6272 17.6152ZM17.1346 19.9943C17.2165 20.1377 17.3158 20.2762 17.4136 20.3935L18.1818 19.7533C18.116 19.6743 18.0517 19.5837 18.0028 19.4982L17.1346 19.9943ZM17.4023 20.3795C17.8591 20.9694 18.4823 21.3425 18.9533 21.6409L19.4884 20.796C18.9779 20.4728 18.5215 20.1915 18.193 19.7673L17.4023 20.3795ZM18.9636 21.6472C19.2038 21.7913 19.4058 21.9226 19.5714 22.0606L20.2116 21.2924C19.9846 21.1032 19.7286 20.94 19.4781 20.7897L18.9636 21.6472ZM19.5915 22.0765C19.6251 22.1016 19.6514 22.1271 19.7015 22.1772L20.4086 21.4701C20.3607 21.4221 20.2888 21.3494 20.1915 21.2765L19.5915 22.0765ZM19.7015 22.1772C19.8345 22.3102 19.9646 22.515 20.1588 22.8151L20.9983 22.2718C20.8326 22.0157 20.6355 21.697 20.4086 21.4701L19.7015 22.1772ZM20.1625 22.8208C20.1602 22.8173 20.16 22.8166 20.163 22.822C20.1646 22.8248 20.1664 22.8282 20.1694 22.8338C20.1719 22.8385 20.1762 22.8466 20.1805 22.8544C20.1948 22.8806 20.2357 22.9567 20.3068 23.0279L21.0139 22.3207C21.035 22.3419 21.0482 22.3603 21.0544 22.3696C21.06 22.3781 21.0622 22.3826 21.0584 22.3756C21.0565 22.3721 21.0547 22.3687 21.0509 22.3617C21.0477 22.3557 21.0431 22.3472 21.038 22.338C21.0278 22.3194 21.0132 22.2941 20.9946 22.2661L20.1625 22.8208ZM20.2337 22.935C20.5878 23.5145 21.0543 24.2779 21.8812 24.7587L22.3839 23.8942C21.804 23.5571 21.4526 23.0119 21.087 22.4136L20.2337 22.935ZM21.8845 24.7606C22.691 25.2215 23.5749 25.2679 24.2635 25.2843L24.2873 24.2846C23.602 24.2683 22.9481 24.2166 22.3806 23.8923L21.8845 24.7606ZM24.2546 25.284C24.6409 25.3001 24.9525 25.3315 25.1885 25.3971L25.4562 24.4336C25.1033 24.3356 24.6951 24.3015 24.2963 24.2849L24.2546 25.284ZM25.1813 25.395C25.2638 25.4193 25.3706 25.4696 25.5177 25.552C25.5892 25.592 25.6625 25.6351 25.7438 25.6827C25.8233 25.7292 25.9092 25.7793 25.9974 25.8278L26.4794 24.9516C26.404 24.9102 26.3284 24.8662 26.2489 24.8197C26.1712 24.7742 26.0881 24.7253 26.0063 24.6795C25.8467 24.5901 25.659 24.4932 25.4634 24.4357L25.1813 25.395ZM26.0006 25.8296C26.5438 26.1232 27.3709 26.6749 28.3649 26.6749V25.6749C27.6905 25.6749 27.1435 25.3106 26.4762 24.9499L26.0006 25.8296ZM28.3649 26.6749C29.359 26.6749 30.1861 26.1232 30.7292 25.8296L30.2537 24.9499C29.5864 25.3106 29.0394 25.6749 28.3649 25.6749V26.6749ZM30.7324 25.8278C30.8207 25.7793 30.9066 25.7292 30.986 25.6827C31.0674 25.6351 31.1407 25.592 31.2122 25.552C31.3593 25.4696 31.466 25.4193 31.5486 25.395L31.2664 24.4357C31.0709 24.4932 30.8832 24.5901 30.7236 24.6795C30.6418 24.7253 30.5586 24.7742 30.481 24.8197C30.4015 24.8662 30.3258 24.9102 30.2505 24.9516L30.7324 25.8278ZM31.5413 25.3971C31.7773 25.3315 32.0889 25.3001 32.4752 25.284L32.4336 24.2849C32.0347 24.3015 31.6266 24.3356 31.2737 24.4336L31.5413 25.3971ZM32.4663 25.2843C33.155 25.2679 34.0388 25.2215 34.8454 24.7606L34.3492 23.8923C33.7817 24.2166 33.1279 24.2683 32.4425 24.2846L32.4663 25.2843ZM34.8486 24.7587C35.6763 24.2775 36.1454 23.4932 36.4928 22.9404L35.6462 22.4082C35.2739 23.0005 34.9252 23.5575 34.346 23.8942L34.8486 24.7587ZM36.4856 22.9516C36.5042 22.9237 36.5187 22.8984 36.529 22.8798C36.5341 22.8706 36.5387 22.8621 36.5419 22.856C36.5457 22.849 36.5475 22.8456 36.5494 22.8422C36.5532 22.8352 36.551 22.8397 36.5454 22.8481C36.5392 22.8574 36.526 22.8759 36.5049 22.897L35.7978 22.1899C35.7267 22.261 35.6858 22.3371 35.6715 22.3633C35.6672 22.3711 35.6629 22.3792 35.6604 22.3839C35.6574 22.3895 35.6556 22.3929 35.654 22.3957C35.651 22.4012 35.6512 22.4004 35.6535 22.3969L36.4856 22.9516ZM36.5711 22.8151C36.7653 22.515 36.8953 22.3102 37.0283 22.1772L36.3212 21.4701C36.0943 21.697 35.8972 22.0157 35.7315 22.2718L36.5711 22.8151ZM37.0283 22.1772C37.0368 22.1688 37.05 22.1571 37.082 22.1297C37.1072 22.108 37.1513 22.0707 37.1919 22.03L36.4848 21.3229C36.4764 21.3313 36.4631 21.343 36.4312 21.3704C36.4059 21.3921 36.3619 21.4295 36.3212 21.4701L37.0283 22.1772ZM37.1384 22.0765C37.32 21.9402 37.5301 21.8053 37.7864 21.6345L37.2317 20.8024C36.9972 20.9587 36.7493 21.1183 36.5384 21.2765L37.1384 22.0765ZM37.7663 21.6472C38.264 21.3485 38.8534 20.9675 39.3214 20.3873L38.543 19.7595C38.193 20.1934 37.7355 20.4995 37.2518 20.7897L37.7663 21.6472ZM39.3163 20.3935C39.414 20.2762 39.5133 20.1377 39.5953 19.9943L38.7271 19.4982C38.6782 19.5837 38.6139 19.6743 38.5481 19.7533L39.3163 20.3935ZM39.5953 19.9943C40.0585 19.1837 40.0866 18.276 40.1027 17.6155L39.103 17.5911C39.0864 18.272 39.049 18.9347 38.7271 19.4982L39.5953 19.9943ZM40.1024 17.6241C40.1204 17.1934 40.1205 16.9105 40.1845 16.6673L39.2175 16.4128C39.1179 16.7912 39.1181 17.228 39.1033 17.5825L40.1024 17.6241ZM40.1877 16.6546C40.2334 16.4604 40.3669 16.2241 40.5644 15.865L39.6882 15.3831C39.5259 15.6782 39.2995 16.0635 39.2143 16.4255L40.1877 16.6546ZM40.5662 15.8618C40.8859 15.2702 41.3297 14.46 41.3297 13.4975H40.3297C40.3297 14.1708 40.021 14.7674 39.6865 15.3863L40.5662 15.8618ZM41.3297 13.4975C41.3297 12.5179 40.885 11.7231 40.5662 11.1332L39.6865 11.6087C40.0219 12.2293 40.3297 12.8085 40.3297 13.4975H41.3297ZM40.5644 11.13C40.3853 10.8043 40.2437 10.5154 40.1782 10.3058L39.2238 10.604C39.3218 10.9179 39.5075 11.2833 39.6882 11.6119L40.5644 11.13ZM40.1828 10.3211C40.1211 10.0991 40.1029 9.78448 40.1029 9.39163H39.1029C39.1029 9.78397 39.1173 10.2218 39.2192 10.5887L40.1828 10.3211ZM40.1027 9.37973C40.0866 8.70161 40.0584 7.81102 39.5953 7.00067L38.7271 7.49681C39.0492 8.06053 39.0864 8.70759 39.103 9.40354L40.1027 9.37973ZM39.5934 6.99743C39.1127 6.17048 38.3492 5.70401 37.7698 5.34988L37.2483 6.20317C37.8466 6.56879 38.3918 6.92022 38.7289 7.50005L39.5934 6.99743ZM37.7663 5.34778C37.4322 5.14734 37.1745 4.98022 37.012 4.81773L36.3049 5.52483C36.5677 5.78765 36.9315 6.01312 37.2518 6.20527L37.7663 5.34778ZM37.012 4.81773C36.848 4.65378 36.7106 4.41459 36.4724 4.04817L35.634 4.59316C35.8211 4.88106 36.0435 5.26348 36.3049 5.52483L37.012 4.81773ZM36.4798 4.05994C36.1257 3.48047 35.6592 2.71704 34.8323 2.23626L34.3296 3.10077C34.9095 3.43788 35.2609 3.98309 35.6265 4.58139L36.4798 4.05994ZM34.8335 2.237C34.0373 1.77089 33.143 1.74309 32.483 1.727L32.4586 2.7267C33.1399 2.74332 33.7833 2.78095 34.3284 3.10002L34.8335 2.237ZM32.4916 1.72728C32.0868 1.71041 31.7748 1.69449 31.5323 1.64061L31.3154 2.61679C31.6618 2.69377 32.0696 2.71057 32.45 2.72641L32.4916 1.72728ZM31.5384 1.64199C31.3442 1.59631 31.1079 1.46282 30.7488 1.26528L30.2669 2.1415C30.562 2.30384 30.9473 2.53023 31.3094 2.61541L31.5384 1.64199ZM30.7456 1.26354C30.1557 0.944684 29.3608 0.5 28.3813 0.5V1.5C29.0702 1.5 29.6495 1.80778 30.2701 2.14325L30.7456 1.26354ZM28.3649 21.4894C32.7156 21.4894 36.2424 17.9435 36.2424 13.5956H35.2424C35.2424 17.3941 32.1605 20.4894 28.3649 20.4894V21.4894ZM36.2424 13.5956C36.2424 9.2478 32.7156 5.70183 28.3649 5.70183V6.70183C32.1605 6.70183 35.2424 9.7972 35.2424 13.5956H36.2424ZM28.3649 5.70183C24.0142 5.70183 20.4875 9.2478 20.4875 13.5956H21.4875C21.4875 9.7972 24.5694 6.70183 28.3649 6.70183V5.70183ZM20.4875 13.5956C20.4875 17.9442 24.0313 21.4894 28.3649 21.4894V20.4894C24.585 20.4894 21.4875 17.3933 21.4875 13.5956H20.4875ZM24.8438 24.6727L21.5722 31.1177L22.4639 31.5703L25.7355 25.1253L24.8438 24.6727ZM21.5662 31.13C21.5158 31.2362 21.4023 31.3184 21.2165 31.3184V32.3184C21.7178 32.3184 22.2258 32.0734 22.4699 31.5581L21.5662 31.13ZM21.2165 31.3184H21.1838V32.3184H21.2165V31.3184ZM21.1838 31.3184C21.0373 31.3184 20.9048 31.2377 20.8382 31.0898L19.9263 31.5001C20.1541 32.0065 20.6432 32.3184 21.1838 32.3184V31.3184ZM20.8393 31.0921L19.6779 28.4749L18.7638 28.8805L19.9252 31.4978L20.8393 31.0921ZM19.1124 28.1896L16.3152 28.8112L16.5321 29.7874L19.3293 29.1658L19.1124 28.1896ZM16.3024 28.8142C16.3076 28.8129 16.3067 28.8138 16.2943 28.8146C16.2797 28.8155 16.2626 28.8156 16.2273 28.8156V29.8156C16.2835 29.8156 16.4102 29.818 16.5449 29.7843L16.3024 28.8142ZM16.2273 28.8156C16.0023 28.8156 15.8276 28.6365 15.8276 28.4159H14.8276C14.8276 29.1769 15.4382 29.8156 16.2273 29.8156V28.8156ZM15.8276 28.4159C15.8276 28.3235 15.8534 28.2424 15.8909 28.1862L15.0588 27.6315C14.9 27.8697 14.8276 28.1485 14.8276 28.4159H15.8276ZM15.9212 28.1343L19.2589 21.5261L18.3663 21.0752L15.0286 27.6834L15.9212 28.1343ZM30.9453 25.1253L34.2169 31.5703L35.1086 31.1177L31.837 24.6727L30.9453 25.1253ZM34.2109 31.5581C34.455 32.0734 34.963 32.3184 35.4643 32.3184V31.3184C35.2785 31.3184 35.1649 31.2362 35.1146 31.13L34.2109 31.5581ZM35.4643 32.3184H35.497V31.3184H35.4643V32.3184ZM35.497 32.3184C36.0375 32.3184 36.5266 32.0065 36.7545 31.5001L35.8426 31.0898C35.776 31.2377 35.6435 31.3184 35.497 31.3184V32.3184ZM36.7556 31.4978L37.917 28.8805L37.0029 28.4749L35.8415 31.0921L36.7556 31.4978ZM37.3521 29.1659L40.1657 29.7875L40.3814 28.811L37.5678 28.1894L37.3521 29.1659ZM40.1523 29.7843C40.2869 29.818 40.4137 29.8156 40.4698 29.8156V28.8156C40.4345 28.8156 40.4174 28.8155 40.4029 28.8146C40.3905 28.8138 40.3896 28.8129 40.3948 28.8142L40.1523 29.7843ZM40.4698 29.8156C41.2367 29.8156 41.8695 29.1828 41.8695 28.4159H40.8695C40.8695 28.6305 40.6844 28.8156 40.4698 28.8156V29.8156ZM41.8695 28.4159C41.8695 28.1485 41.7971 27.8697 41.6383 27.6315L40.8063 28.1862C40.8437 28.2424 40.8695 28.3235 40.8695 28.4159H41.8695ZM41.6684 27.683L38.4295 21.287L37.5373 21.7388L40.7762 28.1347L41.6684 27.683Z" fill="#58585A"/>
</svg>
