<svg width="98" height="105" viewBox="0 0 98 105" fill="none" xmlns="http://www.w3.org/2000/svg">
<path d="M90.1789 65.4797C87.8078 86.8798 70.084 103.506 48.5716 103.506C27.0592 103.506 9.33547 86.8798 6.96431 65.4797M48.8361 21.9828V103.506M29.707 43.1379H67.9643M1 81.4443L6.448 64.1066L20.3687 76.3614M96.1798 81.4443L90.7318 64.1066L76.8111 76.3614M59.2389 11.6636C59.2389 17.5528 54.5812 22.3269 48.8356 22.3269C43.0901 22.3269 38.4324 17.5528 38.4324 11.6636C38.4324 5.77438 43.0901 1.00024 48.8356 1.00024C54.5812 1.00024 59.2389 5.77438 59.2389 11.6636Z" stroke="white" stroke-width="2"/>
</svg>
