<svg width="46" height="49" viewBox="0 0 46 49" fill="none" xmlns="http://www.w3.org/2000/svg">
<path d="M34.2902 48.0584H0.765625V6.0269H9.46754M34.2902 48.0584L27.814 43.741C25.4268 42.1495 23.9929 39.4702 23.9929 36.6011V28.0494H25.5707C28.8895 28.0494 32.0048 26.4499 33.9388 23.7529L34.2902 23.2629L34.6416 23.7529C36.5756 26.4499 39.6909 28.0494 43.0096 28.0494H44.5875V36.6011C44.5875 39.4702 43.1536 42.1495 40.7663 43.741L34.2902 48.0584ZM25.5578 6.0269H34.2901V23.2784M4.00827 26.3113H7.4407M4.00827 31.1006H7.4407M8.81334 31.1006H17.9888H20.8214M4.00827 35.8899H7.4407M8.81334 35.8899H20.8214M4.00827 40.6791H7.4407M8.81334 40.6791H21.4901M29.1415 36.3383L32.574 39.7708L39.4388 32.9059M15.8122 13.0871H19.2446V16.541H22.6982V19.9734H19.2446V23.4273H15.8122V19.9734H12.3579V16.541H15.8122V13.0871ZM19.9923 5.48658C19.9923 6.84763 18.889 7.95099 17.5279 7.95099C16.1669 7.95099 15.0635 6.84763 15.0635 5.48658C15.0635 4.12553 16.1669 3.02218 17.5279 3.02218C18.889 3.02218 19.9923 4.12553 19.9923 5.48658ZM25.8042 6.07678V10.0726H9.25186V6.07678C9.25186 5.12894 10.0202 4.36056 10.9681 4.36056H12.8192C13.33 2.23368 15.2444 0.644043 17.528 0.644043C19.8116 0.644043 21.726 2.23368 22.2368 4.36056H24.088C25.0358 4.36056 25.8042 5.12894 25.8042 6.07678Z" stroke="black"/>
</svg>
