<svg width="50" height="56" viewBox="0 0 50 56" fill="none" xmlns="http://www.w3.org/2000/svg">
<path d="M16.7441 25.512C17.2953 23.0385 19.679 16.8101 24.8049 11.6843C29.3467 16.5033 31.5816 20.8716 32.5037 25.512" stroke="black"/>
<path d="M24.9142 43.297C35.2588 43.297 43.6448 34.911 43.6448 24.5664C37.4013 24.3585 24.8244 25.7381 24.8244 32.5952C24.8244 25.7513 12.4271 24.3911 6.18359 24.5664C6.18359 34.911 14.5696 43.297 24.9142 43.297Z" stroke="black"/>
<path d="M24.8164 11.6461V43.3509" stroke="black"/>
<path d="M28.5768 3.51878C28.352 3.67918 28.2998 3.99143 28.4602 4.21621L31.0741 7.87921C31.2345 8.10399 31.5467 8.15618 31.7715 7.99578C31.9963 7.83537 32.0485 7.52312 31.8881 7.29834L29.5646 4.04235L32.8206 1.71888C33.0454 1.55848 33.0976 1.24623 32.9372 1.02145C32.7768 0.796671 32.4645 0.744482 32.2398 0.904884L28.5768 3.51878ZM28.7848 4.41894C40.0976 6.30973 48.7198 16.1466 48.7198 27.9962H49.7198C49.7198 15.6499 40.7365 5.40264 28.9496 3.43262L28.7848 4.41894ZM48.7198 27.9962C48.7198 39.582 40.4773 49.2438 29.5361 51.4355L29.7325 52.416C41.1318 50.1326 49.7198 40.0679 49.7198 27.9962H48.7198Z" fill="black"/>
<path d="M21.2768 52.3328C21.5015 52.1724 21.5537 51.8601 21.3933 51.6353L18.7794 47.9724C18.619 47.7476 18.3068 47.6954 18.082 47.8558C17.8572 48.0162 17.805 48.3284 17.9654 48.5532L20.2889 51.8092L17.0329 54.1327C16.8081 54.2931 16.7559 54.6053 16.9163 54.8301C17.0767 55.0549 17.389 55.1071 17.6138 54.9467L21.2768 52.3328ZM21.0688 51.4326C9.75591 49.5418 1.13374 39.705 1.13374 27.8553L0.13374 27.8553C0.133739 40.2017 9.11705 50.4489 20.9039 52.4189L21.0688 51.4326ZM1.13374 27.8553C1.13374 16.2695 9.37626 6.60772 20.3175 4.41605L20.121 3.43552C8.7217 5.71897 0.133741 15.7837 0.13374 27.8553L1.13374 27.8553Z" fill="black"/>
</svg>
