<svg width="48" height="64" viewBox="0 0 48 64" fill="none" xmlns="http://www.w3.org/2000/svg">
<path d="M5.3438 28.0345V36.307M9.78588 28.0345V37.1908M42.2651 28.0345V36.4257M37.8234 28.0345V37.1708M21.5836 28.0345V37.4883M26.0258 28.0345V37.4458M6.70117 40.6156L10.399 42.4645C11.6601 43.0951 13.1445 43.0951 14.4056 42.4645L16.1002 41.6172C17.3613 40.9867 18.8457 40.9867 20.1068 41.6172L23.8047 43.4662M35.207 43.4662L38.9049 41.6172C40.166 40.9867 41.6504 40.9867 42.9115 41.6172L46.6094 43.4662M1 22.7725H46.6094V28.3456H1V22.7725ZM46.6094 38.5961V46.6632H1V38.5961L4.75859 36.7168C5.98147 36.1053 7.42087 36.1053 8.64375 36.7168L10.4598 37.6248C11.6826 38.2362 13.122 38.2362 14.3449 37.6248L16.1609 36.7168C17.3838 36.1053 18.8232 36.1053 20.0461 36.7168L21.8621 37.6248C23.085 38.2362 24.5244 38.2362 25.7473 37.6248L27.5633 36.7168C28.7861 36.1053 30.2255 36.1053 31.4484 36.7168L33.2644 37.6248C34.4873 38.2362 35.9267 38.2362 37.1496 37.6248L38.9656 36.7168C40.1885 36.1053 41.6279 36.1053 42.8508 36.7168L46.6094 38.5961Z" stroke="black"/>
<path d="M17.1932 58.004C16.5372 58.004 16.0132 57.8 15.6212 57.392C15.2372 56.984 15.0452 56.428 15.0452 55.724C15.0452 55.028 15.2372 54.476 15.6212 54.068C16.0132 53.66 16.5372 53.456 17.1932 53.456C17.8412 53.456 18.3572 53.66 18.7412 54.068C19.1332 54.476 19.3292 55.028 19.3292 55.724C19.3292 56.42 19.1332 56.976 18.7412 57.392C18.3572 57.8 17.8412 58.004 17.1932 58.004ZM12.6452 61.34V53.6H13.7132V62H11.8532L8.1092 54.26V62H7.0412V53.6H8.9012L12.6452 61.34ZM18.0932 54.608C17.8772 54.32 17.5772 54.176 17.1932 54.176C16.8092 54.176 16.5052 54.316 16.2812 54.596C16.0652 54.876 15.9572 55.252 15.9572 55.724C15.9572 56.196 16.0652 56.576 16.2812 56.864C16.5052 57.144 16.8092 57.284 17.1932 57.284C17.5772 57.284 17.8772 57.144 18.0932 56.864C18.3172 56.576 18.4292 56.196 18.4292 55.724C18.4292 55.26 18.3172 54.888 18.0932 54.608ZM15.2012 59.456V58.748H19.1732V59.456H15.2012ZM25.4871 59.168H26.7591V60.032H25.4871V62H24.4311V60.032H20.2551V59.24L23.7591 53.6H25.4871V59.168ZM21.2991 59.168H24.4311V54.176L21.2991 59.168ZM28.3783 60.992C27.8423 60.216 27.5743 59.152 27.5743 57.8C27.5743 56.448 27.8423 55.388 28.3783 54.62C28.9143 53.844 29.6743 53.456 30.6583 53.456C31.6343 53.456 32.3903 53.844 32.9263 54.62C33.4623 55.388 33.7303 56.448 33.7303 57.8C33.7303 59.152 33.4623 60.216 32.9263 60.992C32.3903 61.76 31.6343 62.144 30.6583 62.144C29.6743 62.144 28.9143 61.76 28.3783 60.992ZM29.1583 55.244C28.8063 55.86 28.6303 56.712 28.6303 57.8C28.6303 58.888 28.8063 59.74 29.1583 60.356C29.5183 60.972 30.0183 61.28 30.6583 61.28C31.2903 61.28 31.7823 60.972 32.1343 60.356C32.4943 59.74 32.6743 58.888 32.6743 57.8C32.6743 56.712 32.4943 55.86 32.1343 55.244C31.7823 54.628 31.2903 54.32 30.6583 54.32C30.0183 54.32 29.5183 54.628 29.1583 55.244ZM34.8143 60.356C34.8143 59.228 35.6383 58.584 37.2863 58.424L39.1583 58.244V57.644C39.1583 57.252 39.0303 56.936 38.7743 56.696C38.5263 56.448 38.1583 56.328 37.6703 56.336C37.2223 56.336 36.8543 56.44 36.5663 56.648C36.2783 56.848 36.1223 57.152 36.0983 57.56H35.1263C35.1503 56.88 35.3943 56.38 35.8583 56.06C36.3223 55.732 36.9263 55.568 37.6703 55.568C38.4943 55.568 39.1223 55.764 39.5543 56.156C39.9863 56.548 40.2023 57.112 40.2023 57.848V62H39.2423V60.704C39.0423 61.16 38.7383 61.516 38.3303 61.772C37.9223 62.02 37.4263 62.144 36.8423 62.144C36.1703 62.144 35.6623 61.98 35.3183 61.652C34.9823 61.316 34.8143 60.884 34.8143 60.356ZM35.8583 60.32C35.8583 60.632 35.9663 60.888 36.1823 61.088C36.3983 61.288 36.7223 61.388 37.1543 61.388C37.7703 61.388 38.2583 61.196 38.6183 60.812C38.9783 60.42 39.1583 59.916 39.1583 59.3V58.916L37.4063 59.096C36.3743 59.192 35.8583 59.6 35.8583 60.32Z" fill="black"/>
<path d="M30.6888 12.5886C30.2743 16.3293 27.1762 19.2356 23.4158 19.2356C19.6555 19.2356 16.5574 16.3293 16.1429 12.5886M23.4619 4.98537V19.2356M20.1183 8.68323H26.8057M15 15.0492L15.9523 12.0186L18.3856 14.1607M31.924 15.0492L30.9717 12.0186L28.5384 14.1607M25.2805 3.18157C25.2805 4.211 24.4663 5.04552 23.462 5.04552C22.4577 5.04552 21.6435 4.211 21.6435 3.18157C21.6435 2.15214 22.4577 1.31763 23.462 1.31763C24.4663 1.31763 25.2805 2.15214 25.2805 3.18157Z" stroke="black"/>
</svg>
