<svg width="68" height="22" viewBox="0 0 68 22" fill="none" xmlns="http://www.w3.org/2000/svg">
<path d="M6.09383 6.13235V2.03819M3.57115 2.03819H13.4507M4.57687 12.1867V6.13235H13.0897L14.1411 12.1867H4.57687ZM10.9778 6.13235V2.03819H6.03974V6.13235H10.9778ZM1.42578 12.1822L3.62724 18.5007V21.4259H58.7763L66.4258 10.8951H51.5951L49.2701 14.5224H18.5198L17.4391 12.1822H1.42578ZM26.0176 1.4259H41.0023V6.15486H26.0176V1.4259ZM34.4056 8.16755L49.3535 8.22685V10.4509L48.0025 12.4973L34.4056 12.438V8.16755ZM32.3988 8.22706L17.6998 8.2269V10.18H18.7275L19.8619 12.4975H32.3988V8.22706Z" stroke="black"/>
</svg>
