<svg width="54" height="34" viewBox="0 0 54 34" fill="none" xmlns="http://www.w3.org/2000/svg">
<path d="M2.21396 10.447L1.99337 9.99833L1.71396 10.1357V10.447H2.21396ZM20.0444 10.447H20.5444V10.1357L20.265 9.99833L20.0444 10.447ZM11.1292 6.0643L11.3498 5.61559L11.1292 5.50714L10.9086 5.61559L11.1292 6.0643ZM23.9963 10.447L23.7757 9.99833L23.4963 10.1357V10.447H23.9963ZM41.8267 10.447H42.3267V10.1357L42.0473 9.99833L41.8267 10.447ZM32.9115 6.0643L33.1321 5.61559L32.9115 5.50714L32.6909 5.61559L32.9115 6.0643ZM7.89314 1V0.5H7.39314V1H7.89314ZM7.89314 3.6471H7.39314V4.1471H7.89314V3.6471ZM51.7858 1H52.2858V0.5H51.7858V1ZM52.1484 1.40152C52.3385 1.20128 52.3304 0.884807 52.1301 0.694645C51.9299 0.504483 51.6134 0.512648 51.4232 0.712881L52.1484 1.40152ZM45.7185 7.44587L45.3559 7.10155C45.1727 7.29452 45.1727 7.59722 45.3559 7.79019L45.7185 7.44587ZM51.7858 13.8344L52.1484 14.1787C52.3316 13.9858 52.3316 13.683 52.1484 13.4901L51.7858 13.8344ZM45.7185 20.2229L45.3559 19.8786C45.1727 20.0716 45.1727 20.3743 45.3559 20.5673L45.7185 20.2229ZM51.7858 26.6115L52.1484 26.9558C52.3316 26.7628 52.3316 26.4601 52.1484 26.2671L51.7858 26.6115ZM45.3559 32.6557C45.1658 32.8559 45.1739 33.1724 45.3741 33.3625C45.5744 33.5527 45.8909 33.5446 46.081 33.3443L45.3559 32.6557ZM0 33.5H54V32.5H0V33.5ZM2.71396 33V10.447H1.71396V33H2.71396ZM19.5444 10.447V33H20.5444V10.447H19.5444ZM2.43455 10.8958L11.3498 6.51301L10.9086 5.61559L1.99337 9.99833L2.43455 10.8958ZM10.9086 6.51301L19.8238 10.8958L20.265 9.99833L11.3498 5.61559L10.9086 6.51301ZM24.4963 33V10.447H23.4963V33H24.4963ZM41.3267 10.447V33H42.3267V10.447H41.3267ZM24.2169 10.8958L33.1321 6.51301L32.6909 5.61559L23.7757 9.99833L24.2169 10.8958ZM32.6909 6.51301L41.6061 10.8958L42.0473 9.99833L33.1321 5.61559L32.6909 6.51301ZM7.89314 1.5H45.5452V0.5H7.89314V1.5ZM45.5452 3.1471H7.89314V4.1471H45.5452V3.1471ZM8.39314 3.6471V1H7.39314V3.6471H8.39314ZM51.7858 0.5H45.5452V1.5H51.7858V0.5ZM45.0452 0.999997L45.045 33L46.045 33L46.0452 1L45.0452 0.999997ZM52.2858 33V1H51.2858V33H52.2858ZM11.612 6.10639V3.64709H10.612V6.10639H11.612ZM11.612 3.4593V1H10.612V3.4593H11.612ZM18.8786 3.4593V1H17.8786V3.4593H18.8786ZM26.1452 3.4593V1H25.1452V3.4593H26.1452ZM33.412 3.4593V1H32.412V3.4593H33.412ZM40.2295 3.4593V1H39.2295V3.4593H40.2295ZM33.4117 6.10639V3.64709H32.4117V6.10639H33.4117ZM51.4232 0.712881L45.3559 7.10155L46.081 7.79018L52.1484 1.40152L51.4232 0.712881ZM45.3559 7.79019L51.4233 14.1787L52.1484 13.4901L46.081 7.10154L45.3559 7.79019ZM51.4233 13.4901L45.3559 19.8786L46.081 20.5673L52.1484 14.1787L51.4233 13.4901ZM45.3559 20.5673L51.4233 26.9558L52.1484 26.2671L46.081 19.8786L45.3559 20.5673ZM51.4233 26.2671L45.3559 32.6557L46.081 33.3443L52.1484 26.9558L51.4233 26.2671ZM15.6958 11.8836V14.6601H16.6958V11.8836H15.6958ZM15.6958 16.6905V28.9696H16.6958V16.6905H15.6958ZM37.4806 12.184V25.41H38.4806V12.184H37.4806Z" fill="black"/>
</svg>
