<svg width="59" height="33" viewBox="0 0 59 33" fill="none" xmlns="http://www.w3.org/2000/svg">
<path d="M0.607572 9.19983V8.69983H0.107575L0.107572 9.19983L0.607572 9.19983ZM5.16744 9.19983H5.66744V8.69983H5.16744V9.19983ZM0.607422 32L0.107422 32C0.107421 32.1326 0.160099 32.2597 0.253867 32.3535C0.347636 32.4473 0.474813 32.5 0.607422 32.5L0.607422 32ZM5.16744 32V32.5H5.66744V32H5.16744ZM5.52564 9.58944C5.71831 9.39161 5.71412 9.07506 5.5163 8.88239C5.31847 8.68972 5.00192 8.69391 4.80925 8.89173L5.52564 9.58944ZM0.734193 13.7925L0.376 13.4437C0.186922 13.6378 0.186924 13.9473 0.376004 14.1414L0.734193 13.7925ZM5.16745 18.3444L5.52564 18.6932C5.71472 18.4991 5.71472 18.1897 5.52564 17.9955L5.16745 18.3444ZM0.734193 22.8962L0.376004 22.5474C0.186923 22.7415 0.186923 23.051 0.376004 23.2451L0.734193 22.8962ZM5.16745 27.4481L5.52068 27.802C5.71442 27.6086 5.71663 27.2953 5.52564 27.0992L5.16745 27.4481ZM5.16744 8.69983H0.607572V9.69983H5.16744V8.69983ZM0.107572 9.19983L0.107422 32L1.10742 32L1.10757 9.19983L0.107572 9.19983ZM5.66744 32V9.19983H4.66744V32H5.66744ZM4.80925 8.89173L0.376 13.4437L1.09239 14.1414L5.52564 9.58944L4.80925 8.89173ZM0.376004 14.1414L4.80926 18.6932L5.52564 17.9955L1.09238 13.4437L0.376004 14.1414ZM4.80926 17.9955L0.376004 22.5474L1.09238 23.2451L5.52564 18.6932L4.80926 17.9955ZM0.376004 23.2451L4.80926 27.797L5.52564 27.0992L1.09238 22.5474L0.376004 23.2451ZM4.81421 27.0942L0.254186 31.6461L0.960658 32.3538L5.52068 27.802L4.81421 27.0942ZM5.16744 31.5H0.607422V32.5H5.16744V31.5Z" fill="black"/>
<path d="M57.7274 9.12854V8.62854H58.2274L58.2274 9.12854L57.7274 9.12854ZM53.1675 9.12854H52.6675V8.62854H53.1675V9.12854ZM57.7275 31.9287L58.2275 31.9287C58.2275 32.0613 58.1749 32.1884 58.0811 32.2822C57.9873 32.376 57.8601 32.4287 57.7275 32.4287V31.9287ZM53.1675 31.9287V32.4287H52.6675V31.9287H53.1675ZM52.8093 9.51815C52.6167 9.32032 52.6208 9.00377 52.8187 8.8111C53.0165 8.61844 53.333 8.62262 53.5257 8.82044L52.8093 9.51815ZM57.6008 13.7212L57.959 13.3724C58.148 13.5665 58.148 13.876 57.959 14.0701L57.6008 13.7212ZM53.1675 18.2731L52.8093 18.622C52.6202 18.4278 52.6202 18.1184 52.8093 17.9242L53.1675 18.2731ZM57.6008 22.825L57.959 22.4761C58.148 22.6702 58.148 22.9797 57.959 23.1738L57.6008 22.825ZM53.1675 27.3768L52.8143 27.7307C52.6205 27.5373 52.6183 27.2241 52.8093 27.028L53.1675 27.3768ZM53.1675 8.62854H57.7274V9.62854H53.1675V8.62854ZM58.2274 9.12854L58.2275 31.9287L57.2275 31.9287L57.2274 9.12854L58.2274 9.12854ZM52.6675 31.9287V9.12854H53.6675V31.9287H52.6675ZM53.5257 8.82044L57.959 13.3724L57.2426 14.0701L52.8093 9.51815L53.5257 8.82044ZM57.959 14.0701L53.5257 18.622L52.8093 17.9242L57.2426 13.3724L57.959 14.0701ZM53.5257 17.9242L57.959 22.4761L57.2426 23.1738L52.8093 18.622L53.5257 17.9242ZM57.959 23.1738L53.5257 27.7257L52.8093 27.028L57.2426 22.4761L57.959 23.1738ZM53.5208 27.0229L58.0808 31.5748L57.3743 32.2825L52.8143 27.7307L53.5208 27.0229ZM53.1675 31.4287H57.7275V32.4287H53.1675V31.4287Z" fill="black"/>
<rect x="0.5" y="0.5" width="57.403" height="8.73383" stroke="black"/>
<path d="M20.5213 3.65021H14.8212V5.93022H20.5213M20.5213 3.65021V5.93022M20.5213 3.65021H26.2213V5.93022H20.5213M36.4813 3.65021H30.7813V5.93022H36.4813M36.4813 3.65021V5.93022M36.4813 3.65021H42.1814V5.93022H36.4813M5.70117 3.65021H11.4012V5.93022H5.70117V3.65021ZM46.6194 3.65021H52.3195V5.93022H46.6194V3.65021Z" stroke="black"/>
</svg>
