<svg width="60" height="33" viewBox="0 0 60 33" fill="none" xmlns="http://www.w3.org/2000/svg">
<path d="M1 29.3135V28.8135H0.5V29.3135H1ZM59 29.3135H59.5V28.8135H59V29.3135ZM56.3526 3.64511L56.8526 3.64511L56.8526 3.14511H56.3526V3.64511ZM3.64794 1V0.5H3.14794V1H3.64794ZM56.3387 1H56.8387V0.5H56.3387V1ZM56.3387 21.5566V22.0566H56.8387V21.5566H56.3387ZM3.64794 21.5566H3.14794V22.0566H3.64794V21.5566ZM20.8382 3.64511C20.8382 3.36897 20.6144 3.14511 20.3382 3.14511C20.0621 3.14511 19.8382 3.36897 19.8382 3.64511H20.8382ZM20.3382 18.9118L19.9002 19.1529C20.0102 19.3528 20.2416 19.4529 20.4627 19.3961C20.6837 19.3393 20.8382 19.14 20.8382 18.9118H20.3382ZM11.9377 3.64511L12.3757 3.40407C12.2657 3.20413 12.0343 3.10405 11.8132 3.16085C11.5922 3.21764 11.4377 3.4169 11.4377 3.64511H11.9377ZM11.9377 18.9118L11.4976 19.1492C11.6063 19.3507 11.838 19.4527 12.0601 19.3966C12.2821 19.3405 12.4377 19.1408 12.4377 18.9118H11.9377ZM3.70344 3.64511L4.14351 3.40776C4.0348 3.20621 3.80306 3.10427 3.58103 3.16033C3.359 3.21639 3.20344 3.41612 3.20344 3.64511H3.70344ZM3.70344 18.9118H3.20344C3.20344 19.188 3.42729 19.4118 3.70344 19.4118V18.9118ZM56.3526 18.9118V19.4118C56.4852 19.4118 56.6124 19.3591 56.7061 19.2654C56.7999 19.1716 56.8526 19.0444 56.8526 18.9118H56.3526ZM48.1045 18.9118H47.6045C47.6045 19.1408 47.76 19.3404 47.9819 19.3966C48.2039 19.4527 48.4356 19.3509 48.5444 19.1495L48.1045 18.9118ZM48.1045 3.64511H48.6045C48.6045 3.41683 48.4499 3.21754 48.2288 3.1608C48.0076 3.10407 47.7762 3.2043 47.6663 3.40438L48.1045 3.64511ZM39.7178 18.9118H39.2178C39.2178 19.1401 39.3724 19.3394 39.5935 19.3961C39.8146 19.4529 40.0461 19.3526 40.156 19.1526L39.7178 18.9118ZM40.2178 3.64511C40.2178 3.36897 39.9939 3.14511 39.7178 3.14511C39.4416 3.14511 39.2178 3.36897 39.2178 3.64511H40.2178ZM20.3382 10.7782C20.0621 10.7782 19.8382 11.002 19.8382 11.2782C19.8382 11.5543 20.0621 11.7782 20.3382 11.7782V10.7782ZM39.7178 11.7782C39.9939 11.7782 40.2178 11.5543 40.2178 11.2782C40.2178 11.002 39.9939 10.7782 39.7178 10.7782V11.7782ZM6.66902 25.2981C6.66902 27.649 8.5895 29.5394 10.9534 29.5394V28.5394C9.13095 28.5394 7.66902 27.086 7.66902 25.2981H6.66902ZM10.9534 29.5394C13.3174 29.5394 15.2379 27.649 15.2379 25.2981H14.2379C14.2379 27.086 12.7759 28.5394 10.9534 28.5394V29.5394ZM15.2379 25.2981C15.2379 22.9621 13.3186 21.0568 10.9534 21.0568V22.0568C12.7747 22.0568 14.2379 23.5228 14.2379 25.2981H15.2379ZM10.9534 21.0568C8.5895 21.0568 6.66902 22.9472 6.66902 25.2981H7.66902C7.66902 23.5103 9.13095 22.0568 10.9534 22.0568V21.0568ZM44.7769 25.2979C44.7769 27.6488 46.6974 29.5392 49.0613 29.5392V28.5392C47.2388 28.5392 45.7769 27.0858 45.7769 25.2979H44.7769ZM49.0613 29.5392C51.4253 29.5392 53.3457 27.6488 53.3457 25.2979H52.3457C52.3457 27.0858 50.8838 28.5392 49.0613 28.5392V29.5392ZM53.3457 25.2979C53.3457 22.9619 51.4265 21.0566 49.0613 21.0566V22.0566C50.8826 22.0566 52.3457 23.5226 52.3457 25.2979H53.3457ZM49.0613 21.0566C46.6974 21.0566 44.7769 22.9471 44.7769 25.2979H45.7769C45.7769 23.5101 47.2388 22.0566 49.0613 22.0566V21.0566ZM0.5 29.3135V33H1.5V29.3135H0.5ZM4.1321 29.3131V32.9996H5.1321V29.3131H4.1321ZM7.74997 29.3131V32.9996H8.74997V29.3131H7.74997ZM11.3821 29.3131V32.9996H12.3821V29.3131H11.3821ZM14.9999 29.3131V32.9996H15.9999V29.3131H14.9999ZM18.6178 29.3131V32.9996H19.6178V29.3131H18.6178ZM22.2499 29.3131V32.9996H23.2499V29.3131H22.2499ZM25.8678 29.3131V32.9996H26.8678V29.3131H25.8678ZM29.4999 29.3131V32.9996H30.4999V29.3131H29.4999ZM33.132 29.3131V32.9996H34.132V29.3131H33.132ZM36.7499 29.3131V32.9996H37.7499V29.3131H36.7499ZM40.382 29.3131V32.9996H41.382V29.3131H40.382ZM43.9998 29.3131V32.9996H44.9998V29.3131H43.9998ZM47.6184 29.3131V32.9996H48.6184V29.3131H47.6184ZM51.2498 29.3131V32.9996H52.2498V29.3131H51.2498ZM54.8684 29.3131V32.9996H55.8684V29.3131H54.8684ZM1 29.8135H59V28.8135H1V29.8135ZM58.5 29.3135V33H59.5V29.3135H58.5ZM3.64797 4.14511H56.3526V3.14511H3.64797V4.14511ZM3.64794 1.5H56.3387V0.5H3.64794V1.5ZM55.8387 1V21.5566H56.8387V1H55.8387ZM56.3387 21.0566H3.64794V22.0566H56.3387V21.0566ZM4.14794 21.5566V1H3.14794V21.5566H4.14794ZM19.8382 3.64511V18.9118H20.8382V3.64511H19.8382ZM20.7763 18.6708L12.3757 3.40407L11.4996 3.88616L19.9002 19.1529L20.7763 18.6708ZM11.4377 3.64511V18.9118H12.4377V3.64511H11.4377ZM12.3777 18.6745L4.14351 3.40776L3.26337 3.88247L11.4976 19.1492L12.3777 18.6745ZM3.20344 3.64511V18.9118H4.20344V3.64511H3.20344ZM3.70344 19.4118H56.3526V18.4118H3.70344V19.4118ZM56.8526 18.9118L56.8526 3.64511L55.8526 3.64512L55.8526 18.9118H56.8526ZM55.9127 3.40745L47.6646 18.6742L48.5444 19.1495L56.7925 3.88278L55.9127 3.40745ZM48.6045 18.9118V3.64511H47.6045V18.9118H48.6045ZM47.6663 3.40438L39.2795 18.6711L40.156 19.1526L48.5427 3.88585L47.6663 3.40438ZM40.2178 18.9118V3.64511H39.2178V18.9118H40.2178ZM20.3382 11.7782H39.7178V10.7782H20.3382V11.7782Z" fill="black"/>
</svg>
