<svg width="48" height="64" viewBox="0 0 48 64" fill="none" xmlns="http://www.w3.org/2000/svg">
<path d="M5.3438 28.0345V36.307M9.78588 28.0345V37.1908M42.2651 28.0345V36.4257M37.8234 28.0345V37.1708M21.5836 28.0345V37.4883M26.0258 28.0345V37.4458M6.70117 40.6156L10.399 42.4645C11.6601 43.0951 13.1445 43.0951 14.4056 42.4645L16.1002 41.6172C17.3613 40.9867 18.8457 40.9867 20.1068 41.6172L23.8047 43.4662M35.207 43.4662L38.9049 41.6172C40.166 40.9867 41.6504 40.9867 42.9115 41.6172L46.6094 43.4662M1 22.7725H46.6094V28.3456H1V22.7725ZM46.6094 38.5961V46.6632H1V38.5961L4.75859 36.7168C5.98147 36.1053 7.42087 36.1053 8.64375 36.7168L10.4598 37.6248C11.6826 38.2362 13.122 38.2362 14.3449 37.6248L16.1609 36.7168C17.3838 36.1053 18.8232 36.1053 20.0461 36.7168L21.8621 37.6248C23.085 38.2362 24.5244 38.2362 25.7473 37.6248L27.5633 36.7168C28.7861 36.1053 30.2255 36.1053 31.4484 36.7168L33.2644 37.6248C34.4873 38.2362 35.9267 38.2362 37.1496 37.6248L38.9656 36.7168C40.1885 36.1053 41.6279 36.1053 42.8508 36.7168L46.6094 38.5961Z" stroke="black"/>
<path d="M21.0155 58.004C20.3595 58.004 19.8355 57.8 19.4435 57.392C19.0595 56.984 18.8675 56.428 18.8675 55.724C18.8675 55.028 19.0595 54.476 19.4435 54.068C19.8355 53.66 20.3595 53.456 21.0155 53.456C21.6635 53.456 22.1795 53.66 22.5635 54.068C22.9555 54.476 23.1515 55.028 23.1515 55.724C23.1515 56.42 22.9555 56.976 22.5635 57.392C22.1795 57.8 21.6635 58.004 21.0155 58.004ZM16.4675 61.34V53.6H17.5355V62H15.6755L11.9315 54.26V62H10.8635V53.6H12.7235L16.4675 61.34ZM21.9155 54.608C21.6995 54.32 21.3995 54.176 21.0155 54.176C20.6315 54.176 20.3275 54.316 20.1035 54.596C19.8875 54.876 19.7795 55.252 19.7795 55.724C19.7795 56.196 19.8875 56.576 20.1035 56.864C20.3275 57.144 20.6315 57.284 21.0155 57.284C21.3995 57.284 21.6995 57.144 21.9155 56.864C22.1395 56.576 22.2515 56.196 22.2515 55.724C22.2515 55.26 22.1395 54.888 21.9155 54.608ZM19.0235 59.456V58.748H22.9955V59.456H19.0235ZM29.3093 59.168H30.5813V60.032H29.3093V62H28.2533V60.032H24.0773V59.24L27.5813 53.6H29.3093V59.168ZM25.1213 59.168H28.2533V54.176L25.1213 59.168ZM32.2006 60.992C31.6646 60.216 31.3966 59.152 31.3966 57.8C31.3966 56.448 31.6646 55.388 32.2006 54.62C32.7366 53.844 33.4966 53.456 34.4806 53.456C35.4566 53.456 36.2126 53.844 36.7486 54.62C37.2846 55.388 37.5526 56.448 37.5526 57.8C37.5526 59.152 37.2846 60.216 36.7486 60.992C36.2126 61.76 35.4566 62.144 34.4806 62.144C33.4966 62.144 32.7366 61.76 32.2006 60.992ZM32.9806 55.244C32.6286 55.86 32.4526 56.712 32.4526 57.8C32.4526 58.888 32.6286 59.74 32.9806 60.356C33.3406 60.972 33.8406 61.28 34.4806 61.28C35.1126 61.28 35.6046 60.972 35.9566 60.356C36.3166 59.74 36.4966 58.888 36.4966 57.8C36.4966 56.712 36.3166 55.86 35.9566 55.244C35.6046 54.628 35.1126 54.32 34.4806 54.32C33.8406 54.32 33.3406 54.628 32.9806 55.244Z" fill="black"/>
<path d="M30.6888 12.5886C30.2743 16.3293 27.1762 19.2356 23.4158 19.2356C19.6555 19.2356 16.5574 16.3293 16.1429 12.5886M23.4619 4.98537V19.2356M20.1183 8.68323H26.8057M15 15.0492L15.9523 12.0186L18.3856 14.1607M31.924 15.0492L30.9717 12.0186L28.5384 14.1607M25.2805 3.18157C25.2805 4.211 24.4663 5.04552 23.462 5.04552C22.4577 5.04552 21.6435 4.211 21.6435 3.18157C21.6435 2.15214 22.4577 1.31763 23.462 1.31763C24.4663 1.31763 25.2805 2.15214 25.2805 3.18157Z" stroke="black"/>
</svg>
