<svg width="33" height="38" viewBox="0 0 33 38" fill="none" xmlns="http://www.w3.org/2000/svg">
<path d="M8.17188 19C8.17188 21.2091 6.38101 23 4.17188 23C1.96274 23 0.171875 21.2091 0.171875 19C0.171875 16.7909 1.96274 15 4.17188 15C6.38101 15 8.17188 16.7909 8.17188 19Z" fill="white"/>
<path d="M32.2446 4.50244C32.2446 6.71158 30.4538 8.50244 28.2446 8.50244C26.0355 8.50244 24.2446 6.71158 24.2446 4.50244C24.2446 2.2933 26.0355 0.502441 28.2446 0.502441C30.4538 0.502441 32.2446 2.2933 32.2446 4.50244Z" fill="white"/>
<path d="M32.2446 33.4971C32.2446 35.7062 30.4538 37.4971 28.2446 37.4971C26.0355 37.4971 24.2446 35.7062 24.2446 33.4971C24.2446 31.2879 26.0355 29.4971 28.2446 29.4971C30.4538 29.4971 32.2446 31.2879 32.2446 33.4971Z" fill="white"/>
</svg>
