<svg width="33" height="37" viewBox="0 0 33 37" fill="none" xmlns="http://www.w3.org/2000/svg">
<path d="M8 18.4976C8 20.7067 6.20914 22.4976 4 22.4976C1.79086 22.4976 0 20.7067 0 18.4976C0 16.2884 1.79086 14.4976 4 14.4976C6.20914 14.4976 8 16.2884 8 18.4976Z" fill="white"/>
<path d="M32.0728 4C32.0728 6.20914 30.2819 8 28.0728 8C25.8636 8 24.0728 6.20914 24.0728 4C24.0728 1.79086 25.8636 0 28.0728 0C30.2819 0 32.0728 1.79086 32.0728 4Z" fill="white"/>
<path d="M32.0728 32.9946C32.0728 35.2038 30.2819 36.9946 28.0728 36.9946C25.8636 36.9946 24.0728 35.2038 24.0728 32.9946C24.0728 30.7855 25.8636 28.9946 28.0728 28.9946C30.2819 28.9946 32.0728 30.7855 32.0728 32.9946Z" fill="white"/>
<path d="M27.7412 32.9946L4 18.4973L27.7412 3.99994" stroke="white"/>
</svg>
