<svg width="87" height="28" fill="none" xmlns="http://www.w3.org/2000/svg"><path d="M32.635 4.68c.848.048 1.524.244 2.028.588s.756.86.756 1.548c0 .768-.312 1.348-.936 1.74-.624.392-1.44.588-2.448.588-1.08 0-1.912-.22-2.496-.66-.584-.448-.928-1.136-1.032-2.064l1.608-.084c.12 1 .76 1.5 1.92 1.5.56 0 .984-.108 1.272-.324.288-.216.432-.528.432-.936 0-.816-.576-1.224-1.728-1.224h-.936V4.104h.816c1.064 0 1.596-.392 1.596-1.176 0-.368-.128-.652-.384-.852-.256-.208-.612-.312-1.068-.312-.464 0-.852.112-1.164.336-.312.224-.5.572-.564 1.044l-1.596-.12c.096-.864.432-1.508 1.008-1.932.576-.424 1.348-.636 2.316-.636.584 0 1.104.072 1.56.216.456.144.832.384 1.128.72.296.336.444.756.444 1.26 0 1.248-.844 1.924-2.532 2.028zm3.656 1.176c0-1.088.292-1.908.876-2.46.592-.552 1.38-.828 2.364-.828 2.048 0 3.072 1.192 3.072 3.576v.18h-4.692c.056.56.232.98.528 1.26.304.28.696.42 1.176.42.656 0 1.112-.272 1.368-.816l1.536.096a2.309 2.309 0 01-.996 1.38c-.504.32-1.14.48-1.908.48-1.024 0-1.836-.272-2.436-.816-.592-.552-.888-1.376-.888-2.472zm1.62-.552h3.108c-.032-.504-.18-.896-.444-1.176-.256-.28-.604-.42-1.044-.42-.44 0-.804.136-1.092.408-.28.264-.456.66-.528 1.188zm5.84 6.096V2.712h1.5v1.152C45.7 3 46.409 2.568 47.377 2.568c.791 0 1.436.296 1.931.888.505.584.756 1.384.756 2.4s-.252 1.82-.756 2.412c-.495.584-1.136.876-1.92.876-.895 0-1.572-.38-2.028-1.14V11.4h-1.608zm1.968-7.02c-.288.376-.431.868-.431 1.476s.144 1.1.431 1.476c.288.376.676.564 1.164.564.488 0 .877-.188 1.164-.564.289-.376.433-.868.433-1.476s-.144-1.1-.432-1.476c-.288-.376-.677-.564-1.165-.564s-.876.188-1.164.564zM51.24 9V2.712h1.609v2.424H55.5V2.712h1.608V9H55.5V6.456h-2.652V9H51.24zm7.9-.732c-.575-.592-.863-1.396-.863-2.412s.288-1.816.864-2.4c.584-.592 1.372-.888 2.364-.888.992 0 1.776.296 2.352.888.584.584.876 1.384.876 2.4s-.292 1.82-.876 2.412c-.576.584-1.36.876-2.352.876-.992 0-1.78-.292-2.364-.876zm1.177-3.888c-.296.376-.444.868-.444 1.476s.148 1.1.444 1.476c.296.376.692.564 1.188.564.504 0 .904-.188 1.2-.564.296-.376.444-.868.444-1.476s-.148-1.1-.444-1.476c-.296-.376-.696-.564-1.2-.564-.496 0-.892.188-1.188.564zm9.412 1.356c1.28.136 1.92.644 1.92 1.524 0 .488-.196.9-.588 1.236-.384.336-1.02.504-1.908.504h-3.24V2.712h3.072c.824 0 1.436.144 1.836.432.408.288.612.672.612 1.152 0 .8-.568 1.28-1.704 1.44zM67.52 3.9v1.38h1.356c.632 0 .948-.232.948-.696 0-.456-.34-.684-1.02-.684H67.52zm1.5 3.912c.688 0 1.032-.252 1.032-.756 0-.496-.364-.744-1.092-.744h-1.44v1.5h1.5zm4.323.456c-.576-.592-.864-1.396-.864-2.412s.288-1.816.864-2.4c.584-.592 1.372-.888 2.364-.888.992 0 1.776.296 2.352.888.584.584.876 1.384.876 2.4s-.292 1.82-.876 2.412c-.576.584-1.36.876-2.352.876-.992 0-1.78-.292-2.364-.876zm1.176-3.888c-.296.376-.444.868-.444 1.476s.148 1.1.444 1.476c.296.376.692.564 1.188.564.504 0 .904-.188 1.2-.564.296-.376.444-.868.444-1.476s-.148-1.1-.444-1.476c-.296-.376-.696-.564-1.2-.564-.496 0-.892.188-1.188.564zm10.084-2.916c-.312.32-.78.48-1.404.48-.624 0-1.096-.16-1.416-.48-.32-.32-.488-.756-.504-1.308h1.044c.024.24.104.448.24.624s.348.264.636.264c.28 0 .488-.088.624-.264.136-.176.216-.384.24-.624h1.044c-.016.552-.184.988-.504 1.308zm-.72 1.248h2.388V9h-1.548V3.936L82.503 9h-2.388V2.712h1.548v5.064l2.22-5.064zM.439 20.032v-1.32h5.808v1.32H4.16V25H2.551v-4.968H.44zm6.321 1.824c0-1.088.292-1.908.876-2.46.592-.552 1.38-.828 2.364-.828 2.048 0 3.072 1.192 3.072 3.576v.18H8.38c.056.56.232.98.528 1.26.304.28.696.42 1.176.42.656 0 1.112-.272 1.368-.816l1.536.096a2.309 2.309 0 01-.996 1.38c-.504.32-1.14.48-1.908.48-1.024 0-1.836-.272-2.436-.816-.592-.552-.888-1.376-.888-2.472zm1.62-.552h3.108c-.032-.504-.18-.896-.444-1.176-.256-.28-.604-.42-1.044-.42-.44 0-.804.136-1.092.408-.28.264-.456.66-.528 1.188zm5.84 6.096v-8.688h1.5v1.152c.448-.864 1.156-1.296 2.124-1.296.792 0 1.436.296 1.932.888.504.584.756 1.384.756 2.4s-.252 1.82-.756 2.412c-.496.584-1.136.876-1.92.876-.896 0-1.572-.38-2.028-1.14V27.4H14.22zm1.968-7.02c-.288.376-.432.868-.432 1.476s.144 1.1.432 1.476c.288.376.676.564 1.164.564.488 0 .876-.188 1.164-.564.288-.376.432-.868.432-1.476s-.144-1.1-.432-1.476c-.288-.376-.676-.564-1.164-.564-.488 0-.876.188-1.164.564zm11.065-1.668h2.64V25h-1.536v-5.148L26.773 25H24.84l-1.584-5.148V25h-1.548v-6.288h2.664l1.452 5.328 1.428-5.328zm7.88 0h2.388V25h-1.548v-5.064L33.753 25h-2.388v-6.288h1.548v5.064l2.22-5.064zM38.982 25v-6.288h1.608v2.424h2.652v-2.424h1.608V25h-1.608v-2.544H40.59V25h-1.608zm7.06-1.716c0-1.16.88-1.824 2.64-1.992l1.644-.168v-.312c0-.336-.1-.604-.3-.804-.2-.2-.504-.3-.912-.3-.36 0-.656.08-.888.24-.224.16-.348.396-.372.708H46.39c.024-.728.288-1.256.792-1.584.504-.336 1.148-.504 1.932-.504.904 0 1.6.216 2.088.648.488.432.732 1.076.732 1.932V25h-1.5v-1.14c-.44.856-1.204 1.284-2.292 1.284-.68 0-1.2-.172-1.56-.516-.36-.344-.54-.792-.54-1.344zm1.596-.084a.77.77 0 00.252.6c.176.152.432.228.768.228.496 0 .896-.156 1.2-.468a1.62 1.62 0 00.468-1.176v-.276l-1.44.144c-.832.08-1.248.396-1.248.948zm6.443-4.488h4.956V25H57.43v-4.968h-1.944c-.016.208-.036.512-.06.912-.032.576-.06.996-.084 1.26a21.41 21.41 0 01-.12.996c-.056.392-.124.676-.204.852a2.983 2.983 0 01-.312.54.985.985 0 01-.492.396 2.215 2.215 0 01-.696.096 4 4 0 01-.672-.048v-1.308c.088.016.184.024.288.024.112 0 .212-.04.3-.12.088-.08.16-.212.216-.396a3.79 3.79 0 00.144-.576c.04-.192.072-.456.096-.792.032-.344.056-.648.072-.912.016-.272.036-.636.06-1.092l.06-1.152zM70.761 25h-2.003l-2.676-3.588h-.876V25h-1.68v-8.4h1.68v3.528h.84l2.496-3.528h1.956l-3.12 4.068L70.762 25zm-.038-4.2c0-1.312.335-2.364 1.008-3.156.68-.792 1.624-1.188 2.832-1.188 1 0 1.811.26 2.436.78.624.512 1.004 1.208 1.14 2.088l-1.608.144c-.089-.496-.313-.892-.672-1.188-.352-.304-.784-.456-1.296-.456-.713 0-1.252.288-1.62.864-.36.568-.54 1.272-.54 2.112 0 .88.2 1.596.6 2.148.407.552.963.828 1.668.828.543 0 .987-.164 1.331-.492a2.2 2.2 0 00.636-1.272l1.608.108c-.12.944-.487 1.684-1.103 2.22-.609.536-1.433.804-2.472.804-1.249 0-2.22-.392-2.917-1.176-.688-.784-1.032-1.84-1.032-3.168zM86.804 25H84.8l-2.676-3.588h-.876V25h-1.68v-8.4h1.68v3.528h.84l2.496-3.528h1.956l-3.12 4.068L86.805 25z" fill="#fff"/></svg>