<svg width="56" height="36" viewBox="0 0 56 36" fill="none" xmlns="http://www.w3.org/2000/svg">
<path d="M2.29891 11.1057L2.07715 10.6576L1.79891 10.7953V11.1057H2.29891ZM20.7348 11.1057H21.2348V10.7953L20.9565 10.6576L20.7348 11.1057ZM11.5168 6.54429L11.7386 6.09616L11.5168 5.98642L11.2951 6.09616L11.5168 6.54429ZM24.8209 11.1057L24.5991 10.6576L24.3209 10.7953V11.1057H24.8209ZM43.2567 11.1057H43.7567V10.7953L43.4785 10.6576L43.2567 11.1057ZM34.0388 6.54429L34.2606 6.09616L34.0388 5.98642L33.817 6.09616L34.0388 6.54429ZM8.17093 1.27354V0.773544H7.67093V1.27354H8.17093ZM8.17093 4.02856H7.67093V4.52856H8.17093V4.02856ZM53.554 1.27354H54.054V0.773544H53.554V1.27354ZM53.9177 1.6762C54.1072 1.47535 54.098 1.1589 53.8972 0.969395C53.6963 0.77989 53.3799 0.789092 53.1904 0.989947L53.9177 1.6762ZM47.2807 7.98218L46.917 7.63906C46.7352 7.8317 46.7352 8.13267 46.917 8.32531L47.2807 7.98218ZM53.554 14.6312L53.9177 14.9743C54.0995 14.7816 54.0995 14.4807 53.9177 14.288L53.554 14.6312ZM47.2807 21.2801L46.917 20.937C46.7352 21.1296 46.7352 21.4306 46.917 21.6233L47.2807 21.2801ZM53.554 27.9291L53.9177 28.2722C54.0995 28.0796 54.0995 27.7786 53.9177 27.586L53.554 27.9291ZM46.917 34.2349C46.7275 34.4358 46.7367 34.7522 46.9375 34.9417C47.1384 35.1312 47.4548 35.122 47.6444 34.9212L46.917 34.2349ZM0.00976562 35.0781H55.8434V34.0781H0.00976562V35.0781ZM2.79891 34.5781V11.1057H1.79891V34.5781H2.79891ZM20.2348 11.1057V34.5781H21.2348V11.1057H20.2348ZM2.52066 11.5538L11.7386 6.99243L11.2951 6.09616L2.07715 10.6576L2.52066 11.5538ZM11.2951 6.99243L20.513 11.5538L20.9565 10.6576L11.7386 6.09616L11.2951 6.99243ZM25.3209 34.5781V11.1057H24.3209V34.5781H25.3209ZM42.7567 11.1057V34.5781H43.7567V11.1057H42.7567ZM25.0426 11.5538L34.2606 6.99243L33.817 6.09616L24.5991 10.6576L25.0426 11.5538ZM33.817 6.99243L43.035 11.5538L43.4785 10.6576L34.2606 6.09616L33.817 6.99243ZM8.17093 1.77354H47.1015V0.773544H8.17093V1.77354ZM47.1015 3.52856H8.17093V4.52856H47.1015V3.52856ZM8.67093 4.02856V1.27354H7.67093V4.02856H8.67093ZM53.554 0.773544H47.1015V1.77354H53.554V0.773544ZM46.6015 1.27354L46.6013 34.5781L47.6013 34.5781L47.6015 1.27355L46.6015 1.27354ZM54.054 34.5781V1.27354H53.054V34.5781H54.054ZM11.9991 6.58811V4.02855H10.9991V6.58811H11.9991ZM11.9991 3.8331V1.27354H10.9991V3.8331H11.9991ZM19.5124 3.8331V1.27354H18.5124V3.8331H19.5124ZM27.0258 3.8331V1.27354H26.0258V3.8331H27.0258ZM34.5394 3.8331V1.27354H33.5394V3.8331H34.5394ZM41.5884 3.8331V1.27354H40.5884V3.8331H41.5884ZM34.5391 6.58811V4.02855H33.5391V6.58811H34.5391ZM53.1904 0.989947L46.917 7.63906L47.6444 8.32531L53.9177 1.6762L53.1904 0.989947ZM46.917 8.32531L53.1904 14.9743L53.9177 14.288L47.6444 7.63905L46.917 8.32531ZM53.1904 14.288L46.917 20.937L47.6444 21.6233L53.9177 14.9743L53.1904 14.288ZM46.917 21.6233L53.1904 28.2722L53.9177 27.586L47.6444 20.937L46.917 21.6233ZM53.1904 27.586L46.917 34.2349L47.6444 34.9212L53.9177 28.2722L53.1904 27.586ZM16.2555 12.6008V15.4905H17.2555V12.6008H16.2555ZM16.2555 17.6037V30.3834H17.2555V17.6037H16.2555ZM38.7801 12.9135V26.6787H39.7801V12.9135H38.7801Z" fill="black"/>
</svg>
