<svg width="56" height="30" viewBox="0 0 56 30" fill="none" xmlns="http://www.w3.org/2000/svg">
<path d="M47.137 6.51542L46.8049 6.1416C46.6981 6.23649 46.637 6.37253 46.637 6.51541C46.637 6.65828 46.6981 6.79433 46.8049 6.88922L47.137 6.51542ZM53.4807 12.1508L53.8127 12.5246C53.9196 12.4297 53.9807 12.2937 53.9807 12.1508C53.9807 12.0079 53.9196 11.8719 53.8127 11.777L53.4807 12.1508ZM47.137 17.7862L46.8049 17.4124C46.6981 17.5073 46.637 17.6433 46.637 17.7862C46.637 17.9291 46.6981 18.0651 46.8049 18.16L47.137 17.7862ZM53.4807 23.4216L53.8127 23.7954C53.9196 23.7005 53.9807 23.5645 53.9807 23.4216C53.9807 23.2787 53.9196 23.1427 53.8127 23.0478L53.4807 23.4216ZM47.137 29.057L47.1369 29.557H47.137V29.057ZM8.17093 0.67572V0.17572H7.67093V0.67572H8.17093ZM47.1015 3.43073L47.6015 3.43074V3.43073H47.1015ZM8.17093 3.43073H7.67093V3.93073H8.17093V3.43073ZM53.554 0.67572H54.054V0.17572H53.554V0.67572ZM5.49748 9.11034L5.26852 8.66585L4.99748 8.80546V9.11034H5.49748ZM11.2235 6.16083L11.4428 5.71148L11.2174 5.60151L10.9945 5.71633L11.2235 6.16083ZM17.2676 9.11034H17.7676V8.79798L17.4869 8.66099L17.2676 9.11034ZM19.4121 9.11034L19.1831 8.66585L18.9121 8.80546V9.11034H19.4121ZM25.1381 6.16083L25.3574 5.71148L25.132 5.60151L24.9091 5.71633L25.1381 6.16083ZM31.1822 9.11034H31.6822V8.79798L31.4015 8.66099L31.1822 9.11034ZM33.3266 9.11034L33.0976 8.66585L32.8266 8.80546V9.11034H33.3266ZM39.0526 6.16083L39.2718 5.71148L39.0465 5.60151L38.8236 5.71633L39.0526 6.16083ZM45.0967 9.11034H45.5967V8.79798L45.3159 8.66099L45.0967 9.11034ZM53.1486 0.506503L46.8049 6.1416L47.469 6.88923L53.8127 1.25413L53.1486 0.506503ZM46.8049 6.88922L53.1486 12.5246L53.8127 11.777L47.469 6.14161L46.8049 6.88922ZM53.1486 11.777L46.8049 17.4124L47.469 18.16L53.8127 12.5246L53.1486 11.777ZM46.8049 18.16L53.1486 23.7954L53.8127 23.0478L47.469 17.4124L46.8049 18.16ZM53.1486 23.0478L46.8049 28.6832L47.469 29.4308L53.8127 23.7954L53.1486 23.0478ZM47.1013 29.557L47.1369 29.557L47.137 28.557L47.1013 28.557L47.1013 29.557ZM47.137 29.557L53.554 29.557V28.557L47.137 28.557V29.557ZM53.554 29.557H55.8434V28.557H53.554V29.557ZM8.17093 1.17572H11.2518V0.17572H8.17093V1.17572ZM11.2518 1.17572H19.0124V0.17572H11.2518V1.17572ZM19.0124 1.17572H26.5258V0.17572H19.0124V1.17572ZM26.5258 1.17572H34.0394V0.17572H26.5258V1.17572ZM34.0394 1.17572H41.0884V0.17572H34.0394V1.17572ZM41.0884 1.17572H47.1015V0.17572H41.0884V1.17572ZM8.67093 3.43073V0.67572H7.67093V3.43073H8.67093ZM53.554 0.17572H47.1015V1.17572H53.554V0.17572ZM46.6015 0.67572V3.43073H47.6015V0.67572H46.6015ZM46.6015 3.43073L46.6013 29.057L47.6013 29.057L47.6015 3.43074L46.6015 3.43073ZM54.054 29.057V0.67572H53.054V29.057H54.054ZM11.7518 3.23528V0.67572H10.7518V3.23528H11.7518ZM19.5124 3.23528V0.67572H18.5124V3.23528H19.5124ZM27.0258 3.23528V0.67572H26.0258V3.23528H27.0258ZM34.5394 3.23528V0.67572H33.5394V3.23528H34.5394ZM41.5884 3.23528V0.67572H40.5884V3.23528H41.5884ZM5.99748 29.1759V9.11034H4.99748V29.1759H5.99748ZM5.72645 9.55484L11.4524 6.60532L10.9945 5.71633L5.26852 8.66585L5.72645 9.55484ZM11.0042 6.61018L17.0483 9.55969L17.4869 8.66099L11.4428 5.71148L11.0042 6.61018ZM16.7676 9.11034V28.6759H17.7676V9.11034H16.7676ZM19.9121 29.1759V9.11034H18.9121V29.1759H19.9121ZM19.6411 9.55484L25.3671 6.60532L24.9091 5.71633L19.1831 8.66585L19.6411 9.55484ZM24.9188 6.61018L30.9629 9.55969L31.4015 8.66099L25.3574 5.71148L24.9188 6.61018ZM30.6822 9.11034V28.6759H31.6822V9.11034H30.6822ZM33.8266 29.1759V9.11034H32.8266V29.1759H33.8266ZM33.5555 9.55484L39.2815 6.60532L38.8236 5.71633L33.0976 8.66585L33.5555 9.55484ZM38.8333 6.61018L44.8774 9.55969L45.3159 8.66099L39.2718 5.71148L38.8333 6.61018ZM44.5967 9.11034V28.6759H45.5967V9.11034H44.5967ZM14.2129 11.9601V14.8664H15.2129V11.9601H14.2129ZM28.1578 11.9601V14.8664H29.1578V11.9601H28.1578ZM42.0049 11.9601V14.8664H43.0049V11.9601H42.0049ZM10.7344 3.25464V6.16086H11.7344V3.25464H10.7344ZM24.6426 3.25464V6.16086H25.6426V3.25464H24.6426ZM38.5497 3.25464V6.16086H39.5497V3.25464H38.5497ZM14.2129 17.0019V24.7943H15.2129V17.0019H14.2129ZM28.1578 17.0019V24.7943H29.1578V17.0019H28.1578ZM42.0049 17.0019V24.7943H43.0049V17.0019H42.0049ZM0.00976562 29.557H47.1013V28.557H0.00976562V29.557ZM47.1015 2.93073H8.17093V3.93073H47.1015V2.93073Z" fill="black"/>
</svg>
