<svg width="60" height="42" viewBox="0 0 60 42" fill="none" xmlns="http://www.w3.org/2000/svg">
<path d="M34.1681 33.4486H13.4766L13.4767 30.4682L14.9094 29.0355H32.7354L34.1681 30.4682L34.1681 33.4486Z" stroke="black"/>
<path d="M25.666 28.9995V10.2802" stroke="black"/>
<path d="M29.6512 28.9996L29.6512 0.925781L27.4004 0.925781L27.4004 10.2239" stroke="black"/>
<path d="M25.6876 19.6398L1.18945 19.6867V23.6266H25.6874" stroke="black"/>
<path d="M29.472 10.2803H58.6618L54.5298 6.14837H33.6039L29.472 10.2803ZM29.472 10.2803H24.368M24.368 10.2803H18.4941V4.97485H24.368V10.2803Z" stroke="black"/>
<path d="M18.5273 6.69019H24.367" stroke="black"/>
<path d="M18.5273 8.5802H24.367" stroke="black"/>
<path d="M33.6465 6.2229L36.926 10.2721L40.2058 6.2229L43.4855 10.2721L46.7653 6.2229L50.7051 10.2721L54.6448 6.2229" stroke="black" stroke-linejoin="round"/>
<path d="M29.6523 17.6989H33.7763L35.9838 14.0078L33.7763 10.2804" stroke="black"/>
<path d="M34.6802 11.8727H32.3281V14.0801H35.6212" stroke="black"/>
<path d="M25.9141 28.8119L29.6527 26.1809L25.9141 23.5499L29.6527 20.919L25.9141 18.288L29.6527 15.657" stroke="black" stroke-linejoin="round"/>
<path d="M29.6527 15.6571L25.9141 13.0261L29.6527 10.3951" stroke="black" stroke-linejoin="round"/>
<path d="M25.666 23.6272L21.622 19.8885L17.5781 23.6272L13.5342 19.8885L9.4902 23.6272L5.44632 19.8885L1.40234 23.6272" stroke="black" stroke-linejoin="round"/>
<path d="M19.6738 4.9841L27.3482 1.1908" stroke="black"/>
<path d="M29.6523 1.18408L40.4866 6.16456" stroke="black"/>
<rect x="7.59375" y="38.3005" width="5.42559" height="2.62522" stroke="black"/>
<path d="M8.76953 38.3355V36.6996L13.3667 32.1024" stroke="black"/>
<path d="M12.9453 38.4173L19.2843 33.4689" stroke="black"/>
<rect width="5.42559" height="2.62522" transform="matrix(-1 0 0 1 39.9512 38.3005)" stroke="black"/>
<path d="M38.7754 38.3355V36.6996L34.1782 32.1024" stroke="black"/>
<path d="M34.6016 38.4173L28.2625 33.4689" stroke="black"/>
<path d="M56.5254 10.3615V26.8914L58.2326 28.5986" stroke="black"/>
<rect x="13.4395" y="25.2491" width="10.3796" height="3.75029" stroke="black"/>
</svg>
