<svg width="47" height="47" viewBox="0 0 47 47" fill="none" xmlns="http://www.w3.org/2000/svg">
<rect x="1.38867" y="36.8103" width="45.0735" height="9.61539" stroke="black"/>
<rect x="6.4707" y="1.42578" width="9.6154" height="4.3613" stroke="black"/>
<path d="M8.33789 5.70752V28.2452C8.33789 29.8687 9.65404 31.1849 11.2776 31.1849V31.1849C12.9011 31.1849 14.2173 29.8687 14.2173 28.2452V5.70752" stroke="black"/>
<rect x="19.1172" y="1.42578" width="9.6154" height="4.3613" stroke="black"/>
<path d="M20.9844 5.70752V28.2452C20.9844 29.8687 22.3005 31.1849 23.9241 31.1849V31.1849C25.5476 31.1849 26.8638 29.8687 26.8638 28.2452V5.70752" stroke="black"/>
<rect x="31.7637" y="1.42578" width="9.6154" height="4.3613" stroke="black"/>
<path d="M33.6309 5.70752V28.2452C33.6309 29.8687 34.947 31.1849 36.5706 31.1849V31.1849C38.1941 31.1849 39.5103 29.8687 39.5103 28.2452V5.70752" stroke="black"/>
<path d="M3.83398 36.7884V8.19385H8.8032M40.0756 8.19385H45.0392V36.7884" stroke="black"/>
<path d="M14.3809 8.19385H20.9799" stroke="black"/>
<path d="M26.8633 8.19385H33.4623" stroke="black"/>
<path d="M26.8633 14.9839H33.4623" stroke="black"/>
<path d="M14.3848 14.9839H20.9838" stroke="black"/>
<path d="M3.83398 14.9839H8.3258" stroke="black"/>
<path d="M20.9844 20.9143L26.8637 20.9143" stroke="black"/>
<path d="M8.50195 25.2563L14.3813 25.2563" stroke="black"/>
<path d="M33.6309 18.446L39.5102 18.446" stroke="black"/>
<path d="M39.5098 14.9839L45.2686 14.9839" stroke="black"/>
</svg>
