<svg width="54" height="58" viewBox="0 0 54 58" fill="none" xmlns="http://www.w3.org/2000/svg">
<path d="M44.7551 26.8349V51.9552L42.1465 53.3009V57.3259H53.0008V53.3009L49.9515 51.9552L50.0061 26.8349H44.7551Z" stroke="black"/>
<path d="M49.7852 27.6372L44.9883 30.3668L49.7852 33.0962L44.9883 35.8257L49.7852 38.5553L44.9883 41.2848L49.7852 44.0144L44.9883 46.7439H49.7852" stroke="black" stroke-linejoin="round"/>
<path d="M44.9908 26.8349L49.7877 24.1054L44.9908 21.3758L49.7877 18.6463L44.9908 15.9168L49.7877 13.1872L44.9908 10.4578L49.7877 7.72825H44.627L50.0844 1.32593" stroke="black" stroke-linejoin="round"/>
<path d="M44.7109 26.8351V1.39673H49.999V27.2803" stroke="black"/>
<rect x="4.56445" y="38.1492" width="2.44829" height="18.6768" stroke="black"/>
<path d="M23.8842 29.127L44.3638 37.9702H3.40454L23.8842 29.127Z" stroke="black" stroke-linejoin="round"/>
<path d="M11.8926 42.003V40.9836C11.8926 39.3268 13.2357 37.9836 14.8926 37.9836H38.502C40.1588 37.9836 41.502 39.3268 41.502 40.9836V47.0451C41.502 48.106 41.9234 49.1234 42.6735 49.8735L44.6505 51.8505" stroke="black"/>
<path d="M11.1615 44.8813L10.0605 42.0508H13.9928L12.9202 44.8813H11.1615Z" stroke="black"/>
<path d="M21.6791 44.8813L20.5781 42.0508H24.5104L23.4377 44.8813H21.6791Z" stroke="black"/>
<path d="M32.3764 44.8813L31.2754 42.0508H35.2076L34.135 44.8813H32.3764Z" stroke="black"/>
<path d="M22.5723 42.0803V41.2684C22.5723 40.6527 22.7617 40.0519 23.1149 39.5476L24.2415 37.9387" stroke="black"/>
<path d="M33.2695 42.0803V41.2684C33.2695 40.6527 33.459 40.0519 33.8121 39.5476L34.9387 37.9387" stroke="black"/>
</svg>
