<svg width="50" height="50" viewBox="0 0 50 50" fill="none" xmlns="http://www.w3.org/2000/svg">
<path d="M3.10115 22.7907V44.3224L0.865234 45.4759V48.9258H10.1689V45.4759L7.55528 44.3224L7.60204 22.7907H3.10115Z" stroke="black"/>
<path d="M7.4144 23.4783L3.30273 25.8179L7.4144 28.1574L3.30273 30.497L7.4144 32.8366L3.30273 35.1762L7.4144 37.5158L3.30273 39.8554H7.4144" stroke="black" stroke-linejoin="round"/>
<path d="M48.7301 20.451L44.6185 18.1114L48.7301 15.7718L44.6185 13.4322L48.7301 11.0926L44.6185 8.7531L48.7301 6.41348H44.3066L48.9844 0.925781" stroke="black" stroke-linejoin="round"/>
<path d="M3.30206 22.7907L7.41372 20.451L3.30206 18.1114L7.41372 15.7718L3.30206 13.4322L7.41372 11.0926L3.30206 8.7531L7.41373 6.41348H2.99023L7.66801 0.925781" stroke="black" stroke-linejoin="round"/>
<path d="M44.3789 0.986328V20.7262H48.9115V0.986328H44.3789Z" stroke="black"/>
<path d="M3.06445 22.7906V0.986328H7.59706V23.1723" stroke="black"/>
<path d="M26.7032 26.0449L44.2571 33.6248H9.1492L26.7032 26.0449Z" stroke="black" stroke-linejoin="round"/>
<path d="M39.2969 37.0817V36.6365C39.2969 34.9796 37.9537 33.6365 36.2969 33.6365L15.9352 33.6365C14.2783 33.6365 12.9352 34.9796 12.9352 36.6365V40.102C12.9352 42.3111 11.1443 44.102 8.93519 44.102H7.8515" stroke="black"/>
<path d="M39.9235 39.5485L40.8672 37.1223H37.4967L38.4161 39.5485H39.9235Z" stroke="black"/>
<path d="M31.1715 39.5485L32.1152 37.1223H28.7447L29.6641 39.5485H31.1715Z" stroke="black"/>
<path d="M22.6598 39.5485L23.6035 37.1223H20.233L21.1524 39.5485H22.6598Z" stroke="black"/>
<path d="M30.4062 37.1478V36.587C30.4062 35.9713 30.2168 35.3706 29.8637 34.8662L28.9755 33.5979" stroke="black"/>
<path d="M21.8945 37.1478V36.587C21.8945 35.9713 21.7051 35.3706 21.3519 34.8662L20.4638 33.5979" stroke="black"/>
<path d="M7.75195 20.7649H44.3003" stroke="black"/>
<path d="M7.75195 26.0449H46.9732V48.7558H48.9381V20.7649" stroke="black"/>
<path d="M44.3926 25.9365V30.0581C44.3926 31.3669 45.4536 32.4279 46.7624 32.4279V32.4279" stroke="black"/>
</svg>
