<svg width="52" height="50" viewBox="0 0 52 50" fill="none" xmlns="http://www.w3.org/2000/svg">
<path d="M45.6269 19.1794H47.2553C47.2553 19.1794 49.4962 16.4097 50.6167 15.0249V7.16624L44.0824 5.44379L39.6686 8.22819H8.23633C4.37033 8.22819 1.23633 11.3622 1.23633 15.2282L1.23633 19.1515H6.01903" stroke="black"/>
<path d="M45.6269 19.1794H47.2553C47.2553 19.1794 49.4962 16.4097 50.6167 15.0249V7.16624L44.0824 5.44379L39.6686 8.22819H8.23633C4.37033 8.22819 1.23633 11.3622 1.23633 15.2282L1.23633 19.1515H6.01903" stroke="black"/>
<path d="M44.0917 5.40006C42.2789 4.03008 36.7433 1.2901 29.1031 1.2901C25.6175 1.24144 17.51 2.56093 12.9648 8.22821" stroke="black"/>
<path d="M29.1387 1.30927V19.207" stroke="black"/>
<circle cx="40.3067" cy="19.1525" r="1.46879" stroke="black"/>
<circle cx="11.2637" cy="19.1525" r="1.46879" stroke="black"/>
<circle cx="40.3069" cy="19.1525" r="5.11358" stroke="black"/>
<circle cx="11.264" cy="19.1525" r="5.11358" stroke="black"/>
<path d="M16.4082 19.1525H34.9603" stroke="black"/>
<path d="M3.7304 15.1796V15.6796H3.98148L4.13143 15.4782L3.7304 15.1796ZM6.50254 11.4567L6.90358 11.7553C7.0165 11.6037 7.03422 11.4013 6.94937 11.2323C6.86452 11.0634 6.69162 10.9567 6.50254 10.9567V11.4567ZM1.35352 15.6796H3.7304V14.6796H1.35352V15.6796ZM4.13143 15.4782L6.90358 11.7553L6.10151 11.1581L3.32937 14.881L4.13143 15.4782ZM6.50254 10.9567H2.38363V11.9567H6.50254V10.9567Z" fill="black"/>
<path d="M50.6163 10.8804H46.125" stroke="black"/>
<path d="M26.5112 10.8804H23.0918" stroke="black"/>
<path d="M39.0891 31.2623H44.6167C47.9304 31.2623 50.6167 28.576 50.6167 25.2623V24.2661H1.23633V25.2623C1.23633 28.576 3.92262 31.2623 7.23633 31.2623H21.9441" stroke="black"/>
<rect x="39.5996" y="31.301" width="10.1496" height="10.9784" stroke="black"/>
<path d="M28.1428 36.2162H20.4653C19.0973 36.2162 17.9883 35.1072 17.9883 33.7392V33.7392C17.9883 32.3712 19.0973 31.2622 20.4653 31.2622H28.1428C29.8237 29.9849 34.4904 28.2531 39.711 31.5448" stroke="black"/>
<path d="M19.9633 36.1966L9.60134 31.7811C8.04289 31.117 6.24352 31.8686 5.6205 33.4439V33.4439C5.01623 34.9718 5.74825 36.7021 7.2656 37.3324L18.4775 41.9898C18.9869 42.2014 19.5331 42.3104 20.0847 42.3104L39.6542 42.3103" stroke="black"/>
</svg>
