<svg width="66" height="50" viewBox="0 0 66 50" fill="none" xmlns="http://www.w3.org/2000/svg">
<rect x="0.794922" y="41.5397" width="29.9075" height="3.55128" rx="1.77564" stroke="black"/>
<path d="M3.78711 45.091L3.78711 47C3.78711 48.1046 4.68254 49 5.78711 49L6.27323 49C7.37781 49 8.27324 48.1046 8.27323 47L8.27323 45.091" stroke="black"/>
<path d="M23.2266 45.091L23.2266 47C23.2266 48.1046 24.122 49 25.2266 49L25.7127 49C26.8173 49 27.7127 48.1046 27.7127 47L27.7127 45.091" stroke="black"/>
<path d="M26.4406 34.0357L28.8242 34.0357C29.6666 34.0357 30.3496 33.3527 30.3496 32.5103V32.5103C30.3496 31.6678 29.6666 30.9848 28.8242 30.9848L26.4406 30.9848" stroke="black"/>
<path d="M5.00077 34.0357L2.61724 34.0357C1.77476 34.0357 1.0918 33.3527 1.0918 32.5103V32.5103C1.0918 31.6678 1.77476 30.9848 2.61724 30.9848L5.00077 30.9848" stroke="black"/>
<path d="M1.68359 41.445V37.3683L3.86309 34.0357H27.5853L29.8118 37.3683V41.445" stroke="black"/>
<path d="M3.78711 34.2599L5.82164 29.4435C6.44723 27.9625 7.89869 27 9.50639 27H22.0447C23.6655 27 25.1261 27.9781 25.7433 29.4768L27.7131 34.2599" stroke="black"/>
<path d="M9.76562 37.7864H21.7286" stroke="black"/>
<path d="M1.68164 37.4097L6.77672 38.9828V41.4997" stroke="black"/>
<path d="M29.8125 37.4097L24.7174 38.9828V41.4997" stroke="black"/>
<rect x="35.1484" y="41.5397" width="29.9075" height="3.55128" rx="1.77564" stroke="black"/>
<path d="M38.1406 45.091L38.1406 47C38.1406 48.1046 39.0361 49 40.1406 49L40.6267 49C41.7313 49 42.6268 48.1046 42.6267 47L42.6267 45.091" stroke="black"/>
<path d="M57.5801 45.091L57.5801 47C57.5801 48.1046 58.4755 49 59.5801 49L60.0662 49C61.1708 49 62.0662 48.1046 62.0662 47L62.0662 45.091" stroke="black"/>
<path d="M60.7942 34.0357L63.1777 34.0357C64.0202 34.0357 64.7031 33.3527 64.7031 32.5103V32.5103C64.7031 31.6678 64.0202 30.9848 63.1777 30.9848L60.7942 30.9848" stroke="black"/>
<path d="M39.3543 34.0357L36.9708 34.0357C36.1283 34.0357 35.4453 33.3527 35.4453 32.5103V32.5103C35.4453 31.6678 36.1283 30.9848 36.9708 30.9848L39.3543 30.9848" stroke="black"/>
<path d="M36.0371 41.445V37.3683L38.2166 34.0357H61.9388L64.1653 37.3683V41.445" stroke="black"/>
<path d="M38.1406 34.2599L40.1752 29.4435C40.8007 27.9625 42.2522 27 43.8599 27H56.3982C58.019 27 59.4796 27.9781 60.0968 29.4768L62.0666 34.2599" stroke="black"/>
<path d="M44.1191 37.7864H56.0821" stroke="black"/>
<path d="M36.0352 37.4097L41.1302 38.9828V41.4997" stroke="black"/>
<path d="M64.166 37.4097L59.0709 38.9828V41.4997" stroke="black"/>
<rect x="17.9707" y="15.5397" width="29.9075" height="3.55128" rx="1.77564" stroke="black"/>
<path d="M20.9629 19.091L20.9629 21C20.9629 22.1046 21.8583 23 22.9629 23L23.449 23C24.5536 23 25.449 22.1046 25.449 21L25.449 19.091" stroke="black"/>
<path d="M40.4023 19.091L40.4023 21C40.4023 22.1046 41.2978 23 42.4023 23L42.8885 23C43.993 23 44.8885 22.1046 44.8885 21L44.8885 19.091" stroke="black"/>
<path d="M43.6164 8.03571L46 8.0357C46.8424 8.0357 47.5254 7.35274 47.5254 6.51026V6.51026C47.5254 5.66779 46.8424 4.98482 45.9999 4.98483L43.6164 4.98483" stroke="black"/>
<path d="M22.1766 8.03571L19.793 8.0357C18.9505 8.0357 18.2676 7.35274 18.2676 6.51026V6.51026C18.2676 5.66779 18.9505 4.98482 19.793 4.98483L22.1766 4.98483" stroke="black"/>
<path d="M18.8594 15.445V11.3683L21.0389 8.03571H44.761L46.9876 11.3683V15.445" stroke="black"/>
<path d="M20.9629 8.25994L22.9974 3.44351C23.623 1.96253 25.0745 1 26.6822 1H39.2204C40.8413 1 42.3019 1.9781 42.9191 3.4768L44.8889 8.25994" stroke="black"/>
<path d="M26.9414 11.7864H38.9044" stroke="black"/>
<path d="M18.8574 11.4097L23.9525 12.9828V15.4997" stroke="black"/>
<path d="M46.9883 11.4097L41.8932 12.9828V15.4997" stroke="black"/>
</svg>
