<svg width="33" height="62" viewBox="0 0 33 62" fill="none" xmlns="http://www.w3.org/2000/svg">
<path d="M32.4465 2.71357L32.9465 2.71357V2.21357H32.4465V2.71357ZM1.4043 1.15564V0.65564H0.904297V1.15564H1.4043ZM32.4383 1.15564H32.9383V0.65564H32.4383V1.15564ZM32.4383 13.2632V13.7632H32.9383V13.2632H32.4383ZM1.4043 13.2632H0.904297V13.7632H1.4043V13.2632ZM11.7346 2.71357C11.7346 2.43743 11.5108 2.21357 11.2346 2.21357C10.9585 2.21357 10.7346 2.43743 10.7346 2.71357H11.7346ZM11.2346 11.7054L10.7966 11.9465C10.9066 12.1464 11.138 12.2465 11.3591 12.1897C11.5801 12.1329 11.7346 11.9336 11.7346 11.7054H11.2346ZM6.28681 2.71357L6.72487 2.47252C6.61485 2.27258 6.38341 2.1725 6.16237 2.2293C5.94134 2.2861 5.78681 2.48535 5.78681 2.71357H6.28681ZM6.28681 11.7054L5.84674 11.9428C5.95545 12.1443 6.18718 12.2463 6.40921 12.1902C6.63124 12.1341 6.78681 11.9344 6.78681 11.7054H6.28681ZM1.43698 2.71357L1.87705 2.47621C1.76835 2.27466 1.53661 2.17272 1.31458 2.22878C1.09255 2.28484 0.936984 2.48457 0.936984 2.71357H1.43698ZM1.43698 11.7054H0.936984C0.936984 11.9816 1.16084 12.2054 1.43698 12.2054V11.7054ZM32.4465 11.7054V12.2054C32.5791 12.2054 32.7063 12.1527 32.8 12.059C32.8938 11.9652 32.9465 11.838 32.9465 11.7054H32.4465ZM27.5885 11.7054H27.0885C27.0885 11.9343 27.244 12.134 27.4659 12.1902C27.6879 12.2463 27.9196 12.1445 28.0284 11.9431L27.5885 11.7054ZM27.5885 2.71357H28.0885C28.0885 2.48529 27.9339 2.286 27.7128 2.22926C27.4916 2.17252 27.2602 2.27275 27.1503 2.47283L27.5885 2.71357ZM22.6489 11.7054H22.1489C22.1489 11.9337 22.3035 12.133 22.5246 12.1897C22.7457 12.2465 22.9772 12.1462 23.0871 11.9462L22.6489 11.7054ZM23.1489 2.71357C23.1489 2.43743 22.925 2.21357 22.6489 2.21357C22.3727 2.21357 22.1489 2.43743 22.1489 2.71357H23.1489ZM11.2346 6.70932C10.9585 6.70932 10.7346 6.93318 10.7346 7.20932C10.7346 7.48546 10.9585 7.70932 11.2346 7.70932V6.70932ZM22.6489 7.70932C22.925 7.70932 23.1489 7.48546 23.1489 7.20932C23.1489 6.93318 22.925 6.70932 22.6489 6.70932V7.70932ZM2.97816 15.4668C2.97816 16.9672 4.20353 18.1704 5.70712 18.1704V17.1704C4.74498 17.1704 3.97816 16.4041 3.97816 15.4668H2.97816ZM5.70712 18.1704C7.21072 18.1704 8.43608 16.9672 8.43608 15.4668H7.43608C7.43608 16.4041 6.66926 17.1704 5.70712 17.1704V18.1704ZM8.43608 15.4668C8.43608 13.9757 7.21191 12.7633 5.70712 12.7633V13.7633C6.66807 13.7633 7.43608 14.5364 7.43608 15.4668H8.43608ZM5.70712 12.7633C4.20353 12.7633 2.97816 13.9665 2.97816 15.4668H3.97816C3.97816 14.5295 4.74498 13.7633 5.70712 13.7633V12.7633ZM25.4231 15.4667C25.4231 16.9671 26.6485 18.1703 28.1521 18.1703V17.1703C27.1899 17.1703 26.4231 16.404 26.4231 15.4667H25.4231ZM28.1521 18.1703C29.6556 18.1703 30.881 16.9671 30.881 15.4667H29.881C29.881 16.404 29.1142 17.1703 28.1521 17.1703V18.1703ZM30.881 15.4667C30.881 13.9756 29.6568 12.7632 28.1521 12.7632V13.7632C29.113 13.7632 29.881 14.5363 29.881 15.4667H30.881ZM28.1521 12.7632C26.6485 12.7632 25.4231 13.9664 25.4231 15.4667H26.4231C26.4231 14.5294 27.1899 13.7632 28.1521 13.7632V12.7632ZM1.40431 3.21357H32.4465V2.21357H1.40431V3.21357ZM1.4043 1.65564H32.4383V0.65564H1.4043V1.65564ZM31.9383 1.15564V13.2632H32.9383V1.15564H31.9383ZM32.4383 12.7632H1.4043V13.7632H32.4383V12.7632ZM1.9043 13.2632V1.15564H0.904297V13.2632H1.9043ZM10.7346 2.71357V11.7054H11.7346V2.71357H10.7346ZM11.6727 11.4644L6.72487 2.47252L5.84875 2.95461L10.7966 11.9465L11.6727 11.4644ZM5.78681 2.71357V11.7054H6.78681V2.71357H5.78681ZM6.72688 11.4681L1.87705 2.47621L0.996914 2.95093L5.84674 11.9428L6.72688 11.4681ZM0.936984 2.71357V11.7054H1.93698V2.71357H0.936984ZM1.43698 12.2054H32.4465V11.2054H1.43698V12.2054ZM32.9465 11.7054L32.9465 2.71357L31.9465 2.71357L31.9465 11.7054L32.9465 11.7054ZM32.0066 2.47591L27.1486 11.4677L28.0284 11.9431L32.8864 2.95123L32.0066 2.47591ZM28.0885 11.7054V2.71357H27.0885V11.7054H28.0885ZM27.1503 2.47283L22.2106 11.4647L23.0871 11.9462L28.0267 2.95431L27.1503 2.47283ZM23.1489 11.7054V2.71357H22.1489V11.7054H23.1489ZM11.2346 7.70932H22.6489V6.70932H11.2346V7.70932Z" fill="black"/>
<path d="M32.4465 24.2263L32.9465 24.2263V23.7263H32.4465V24.2263ZM1.4043 22.6684V22.1684H0.904297V22.6684H1.4043ZM32.4383 22.6684H32.9383V22.1684H32.4383V22.6684ZM32.4383 34.7759V35.2759H32.9383V34.7759H32.4383ZM1.4043 34.7759H0.904297V35.2759H1.4043V34.7759ZM11.7346 24.2263C11.7346 23.9502 11.5108 23.7263 11.2346 23.7263C10.9585 23.7263 10.7346 23.9502 10.7346 24.2263H11.7346ZM11.2346 33.2182L10.7966 33.4592C10.9066 33.6592 11.138 33.7592 11.3591 33.7024C11.5801 33.6456 11.7346 33.4464 11.7346 33.2182H11.2346ZM6.28681 24.2263L6.72487 23.9853C6.61485 23.7853 6.38341 23.6853 6.16237 23.7421C5.94134 23.7989 5.78681 23.9981 5.78681 24.2263H6.28681ZM6.28681 33.2182L5.84674 33.4555C5.95545 33.6571 6.18718 33.759 6.40921 33.703C6.63124 33.6469 6.78681 33.4472 6.78681 33.2182H6.28681ZM1.43698 24.2263L1.87705 23.989C1.76835 23.7874 1.53661 23.6855 1.31458 23.7415C1.09255 23.7976 0.936984 23.9973 0.936984 24.2263H1.43698ZM1.43698 33.2182H0.936984C0.936984 33.4943 1.16084 33.7182 1.43698 33.7182V33.2182ZM32.4465 33.2182V33.7182C32.5791 33.7182 32.7063 33.6655 32.8 33.5717C32.8938 33.478 32.9465 33.3508 32.9465 33.2182H32.4465ZM27.5885 33.2182H27.0885C27.0885 33.4471 27.244 33.6468 27.4659 33.7029C27.6879 33.759 27.9196 33.6573 28.0284 33.4558L27.5885 33.2182ZM27.5885 24.2263H28.0885C28.0885 23.998 27.9339 23.7988 27.7128 23.742C27.4916 23.6853 27.2602 23.7855 27.1503 23.9856L27.5885 24.2263ZM22.6489 33.2182H22.1489C22.1489 33.4465 22.3035 33.6457 22.5246 33.7025C22.7457 33.7592 22.9772 33.659 23.0871 33.4589L22.6489 33.2182ZM23.1489 24.2263C23.1489 23.9502 22.925 23.7263 22.6489 23.7263C22.3727 23.7263 22.1489 23.9502 22.1489 24.2263H23.1489ZM11.2346 28.2221C10.9585 28.2221 10.7346 28.4459 10.7346 28.7221C10.7346 28.9982 10.9585 29.2221 11.2346 29.2221V28.2221ZM22.6489 29.2221C22.925 29.2221 23.1489 28.9982 23.1489 28.7221C23.1489 28.4459 22.925 28.2221 22.6489 28.2221V29.2221ZM2.97816 36.9796C2.97816 38.4799 4.20353 39.6832 5.70712 39.6832V38.6832C4.74498 38.6832 3.97816 37.9169 3.97816 36.9796H2.97816ZM5.70712 39.6832C7.21072 39.6832 8.43608 38.4799 8.43608 36.9796H7.43608C7.43608 37.9169 6.66926 38.6832 5.70712 38.6832V39.6832ZM8.43608 36.9796C8.43608 35.4885 7.21191 34.276 5.70712 34.276V35.276C6.66807 35.276 7.43608 36.0492 7.43608 36.9796H8.43608ZM5.70712 34.276C4.20353 34.276 2.97816 35.4792 2.97816 36.9796H3.97816C3.97816 36.0423 4.74498 35.276 5.70712 35.276V34.276ZM25.4231 36.9795C25.4231 38.4798 26.6485 39.6831 28.1521 39.6831V38.6831C27.1899 38.6831 26.4231 37.9168 26.4231 36.9795H25.4231ZM28.1521 39.6831C29.6556 39.6831 30.881 38.4798 30.881 36.9795H29.881C29.881 37.9168 29.1142 38.6831 28.1521 38.6831V39.6831ZM30.881 36.9795C30.881 35.4884 29.6568 34.2759 28.1521 34.2759V35.2759C29.113 35.2759 29.881 36.0491 29.881 36.9795H30.881ZM28.1521 34.2759C26.6485 34.2759 25.4231 35.4791 25.4231 36.9795H26.4231C26.4231 36.0422 27.1899 35.2759 28.1521 35.2759V34.2759ZM1.40431 24.7263H32.4465V23.7263H1.40431V24.7263ZM1.4043 23.1684H32.4383V22.1684H1.4043V23.1684ZM31.9383 22.6684V34.7759H32.9383V22.6684H31.9383ZM32.4383 34.2759H1.4043V35.2759H32.4383V34.2759ZM1.9043 34.7759V22.6684H0.904297V34.7759H1.9043ZM10.7346 24.2263V33.2182H11.7346V24.2263H10.7346ZM11.6727 32.9771L6.72487 23.9853L5.84875 24.4674L10.7966 33.4592L11.6727 32.9771ZM5.78681 24.2263V33.2182H6.78681V24.2263H5.78681ZM6.72688 32.9808L1.87705 23.989L0.996914 24.4637L5.84674 33.4555L6.72688 32.9808ZM0.936984 24.2263V33.2182H1.93698V24.2263H0.936984ZM1.43698 33.7182H32.4465V32.7182H1.43698V33.7182ZM32.9465 33.2182L32.9465 24.2263L31.9465 24.2263L31.9465 33.2182L32.9465 33.2182ZM32.0066 23.9887L27.1486 32.9805L28.0284 33.4558L32.8864 24.464L32.0066 23.9887ZM28.0885 33.2182V24.2263H27.0885V33.2182H28.0885ZM27.1503 23.9856L22.2106 32.9774L23.0871 33.4589L28.0267 24.4671L27.1503 23.9856ZM23.1489 33.2182V24.2263H22.1489V33.2182H23.1489ZM11.2346 29.2221H22.6489V28.2221H11.2346V29.2221Z" fill="black"/>
<path d="M32.4465 45.7392L32.9465 45.7392V45.2392H32.4465V45.7392ZM1.4043 44.1813V43.6813H0.904297V44.1813H1.4043ZM32.4383 44.1813H32.9383V43.6813H32.4383V44.1813ZM32.4383 56.2888V56.7888H32.9383V56.2888H32.4383ZM1.4043 56.2888H0.904297V56.7888H1.4043V56.2888ZM11.7346 45.7392C11.7346 45.4631 11.5108 45.2392 11.2346 45.2392C10.9585 45.2392 10.7346 45.4631 10.7346 45.7392H11.7346ZM11.2346 54.731L10.7966 54.9721C10.9066 55.172 11.138 55.2721 11.3591 55.2153C11.5801 55.1585 11.7346 54.9593 11.7346 54.731H11.2346ZM6.28681 45.7392L6.72487 45.4982C6.61485 45.2982 6.38341 45.1981 6.16237 45.2549C5.94134 45.3117 5.78681 45.511 5.78681 45.7392H6.28681ZM6.28681 54.731L5.84674 54.9684C5.95545 55.17 6.18718 55.2719 6.40921 55.2158C6.63124 55.1598 6.78681 54.96 6.78681 54.731H6.28681ZM1.43698 45.7392L1.87705 45.5018C1.76835 45.3003 1.53661 45.1984 1.31458 45.2544C1.09255 45.3105 0.936984 45.5102 0.936984 45.7392H1.43698ZM1.43698 54.731H0.936984C0.936984 55.0072 1.16084 55.231 1.43698 55.231V54.731ZM32.4465 54.731V55.231C32.5791 55.231 32.7063 55.1784 32.8 55.0846C32.8938 54.9908 32.9465 54.8637 32.9465 54.731H32.4465ZM27.5885 54.731H27.0885C27.0885 54.96 27.244 55.1597 27.4659 55.2158C27.6879 55.2719 27.9196 55.1701 28.0284 54.9687L27.5885 54.731ZM27.5885 45.7392H28.0885C28.0885 45.5109 27.9339 45.3116 27.7128 45.2549C27.4916 45.1982 27.2602 45.2984 27.1503 45.4985L27.5885 45.7392ZM22.6489 54.731H22.1489C22.1489 54.9593 22.3035 55.1586 22.5246 55.2154C22.7457 55.2721 22.9772 55.1719 23.0871 54.9718L22.6489 54.731ZM23.1489 45.7392C23.1489 45.4631 22.925 45.2392 22.6489 45.2392C22.3727 45.2392 22.1489 45.4631 22.1489 45.7392H23.1489ZM11.2346 49.735C10.9585 49.735 10.7346 49.9588 10.7346 50.235C10.7346 50.5111 10.9585 50.735 11.2346 50.735V49.735ZM22.6489 50.735C22.925 50.735 23.1489 50.5111 23.1489 50.235C23.1489 49.9588 22.925 49.735 22.6489 49.735V50.735ZM2.97816 58.4925C2.97816 59.9928 4.20353 61.196 5.70712 61.196V60.196C4.74498 60.196 3.97816 59.4298 3.97816 58.4925H2.97816ZM5.70712 61.196C7.21072 61.196 8.43608 59.9928 8.43608 58.4925H7.43608C7.43608 59.4298 6.66926 60.196 5.70712 60.196V61.196ZM8.43608 58.4925C8.43608 57.0014 7.21191 55.7889 5.70712 55.7889V56.7889C6.66807 56.7889 7.43608 57.5621 7.43608 58.4925H8.43608ZM5.70712 55.7889C4.20353 55.7889 2.97816 56.9921 2.97816 58.4925H3.97816C3.97816 57.5552 4.74498 56.7889 5.70712 56.7889V55.7889ZM25.4231 58.4924C25.4231 59.9927 26.6485 61.1959 28.1521 61.1959V60.1959C27.1899 60.1959 26.4231 59.4297 26.4231 58.4924H25.4231ZM28.1521 61.1959C29.6556 61.1959 30.881 59.9927 30.881 58.4924H29.881C29.881 59.4297 29.1142 60.1959 28.1521 60.1959V61.1959ZM30.881 58.4924C30.881 57.0013 29.6568 55.7888 28.1521 55.7888V56.7888C29.113 56.7888 29.881 57.562 29.881 58.4924H30.881ZM28.1521 55.7888C26.6485 55.7888 25.4231 56.992 25.4231 58.4924H26.4231C26.4231 57.5551 27.1899 56.7888 28.1521 56.7888V55.7888ZM1.40431 46.2392H32.4465V45.2392H1.40431V46.2392ZM1.4043 44.6813H32.4383V43.6813H1.4043V44.6813ZM31.9383 44.1813V56.2888H32.9383V44.1813H31.9383ZM32.4383 55.7888H1.4043V56.7888H32.4383V55.7888ZM1.9043 56.2888V44.1813H0.904297V56.2888H1.9043ZM10.7346 45.7392V54.731H11.7346V45.7392H10.7346ZM11.6727 54.49L6.72487 45.4982L5.84875 45.9802L10.7966 54.9721L11.6727 54.49ZM5.78681 45.7392V54.731H6.78681V45.7392H5.78681ZM6.72688 54.4937L1.87705 45.5018L0.996914 45.9766L5.84674 54.9684L6.72688 54.4937ZM0.936984 45.7392V54.731H1.93698V45.7392H0.936984ZM1.43698 55.231H32.4465V54.231H1.43698V55.231ZM32.9465 54.731L32.9465 45.7392L31.9465 45.7392L31.9465 54.7311L32.9465 54.731ZM32.0066 45.5015L27.1486 54.4934L28.0284 54.9687L32.8864 45.9769L32.0066 45.5015ZM28.0885 54.731V45.7392H27.0885V54.731H28.0885ZM27.1503 45.4985L22.2106 54.4903L23.0871 54.9718L28.0267 45.9799L27.1503 45.4985ZM23.1489 54.731V45.7392H22.1489V54.731H23.1489ZM11.2346 50.735H22.6489V49.735H11.2346V50.735Z" fill="black"/>
</svg>
