<svg width="60" height="34" viewBox="0 0 60 34" fill="none" xmlns="http://www.w3.org/2000/svg">
<path d="M0.925781 29.423V28.923H0.425781V29.423H0.925781ZM58.9258 29.423H59.4258V28.923H58.9258V29.423ZM56.2783 3.75461L56.7783 3.75461L56.7783 3.25461H56.2783V3.75461ZM3.57372 1.1095V0.609497H3.07372V1.1095H3.57372ZM56.2644 1.1095H56.7644V0.609497H56.2644V1.1095ZM56.2644 21.6661V22.1661H56.7644V21.6661H56.2644ZM3.57372 21.6661H3.07372V22.1661H3.57372V21.6661ZM20.764 3.75461C20.764 3.47847 20.5402 3.25461 20.264 3.25461C19.9879 3.25461 19.764 3.47847 19.764 3.75461H20.764ZM20.264 19.0213L19.826 19.2624C19.936 19.4623 20.1674 19.5624 20.3885 19.5056C20.6095 19.4488 20.764 19.2495 20.764 19.0213H20.264ZM11.8634 3.75461L12.3015 3.51357C12.1915 3.31362 11.96 3.21355 11.739 3.27034C11.518 3.32714 11.3634 3.5264 11.3634 3.75461H11.8634ZM11.8634 19.0213L11.4234 19.2587C11.5321 19.4602 11.7638 19.5622 11.9858 19.5061C12.2079 19.45 12.3634 19.2503 12.3634 19.0213H11.8634ZM3.62922 3.75461L4.06929 3.51726C3.96058 3.31571 3.72884 3.21377 3.50681 3.26983C3.28478 3.32589 3.12922 3.52561 3.12922 3.75461H3.62922ZM3.62922 19.0213H3.12922C3.12922 19.2975 3.35307 19.5213 3.62922 19.5213V19.0213ZM56.2784 19.0213V19.5213C56.411 19.5213 56.5381 19.4686 56.6319 19.3749C56.7257 19.2811 56.7784 19.1539 56.7784 19.0213H56.2784ZM48.0303 19.0213H47.5303C47.5303 19.2502 47.6857 19.4499 47.9077 19.5061C48.1296 19.5622 48.3614 19.4604 48.4702 19.259L48.0303 19.0213ZM48.0303 3.75461H48.5303C48.5303 3.52633 48.3757 3.32704 48.1545 3.2703C47.9334 3.21356 47.702 3.31379 47.592 3.51387L48.0303 3.75461ZM39.6436 19.0213H39.1436C39.1436 19.2496 39.2982 19.4489 39.5193 19.5056C39.7404 19.5624 39.9719 19.4621 40.0818 19.2621L39.6436 19.0213ZM40.1436 3.75461C40.1436 3.47847 39.9197 3.25461 39.6436 3.25461C39.3674 3.25461 39.1436 3.47847 39.1436 3.75461H40.1436ZM20.264 10.8877C19.9879 10.8877 19.764 11.1115 19.764 11.3877C19.764 11.6638 19.9879 11.8877 20.264 11.8877V10.8877ZM39.6436 11.8877C39.9197 11.8877 40.1436 11.6638 40.1436 11.3877C40.1436 11.1115 39.9197 10.8877 39.6436 10.8877V11.8877ZM6.5948 25.4076C6.5948 27.7585 8.51528 29.6489 10.8792 29.6489V28.6489C9.05673 28.6489 7.5948 27.1954 7.5948 25.4076H6.5948ZM10.8792 29.6489C13.2432 29.6489 15.1636 27.7585 15.1636 25.4076H14.1636C14.1636 27.1954 12.7017 28.6489 10.8792 28.6489V29.6489ZM15.1636 25.4076C15.1636 23.0716 13.2444 21.1663 10.8792 21.1663V22.1663C12.7005 22.1663 14.1636 23.6323 14.1636 25.4076H15.1636ZM10.8792 21.1663C8.51528 21.1663 6.5948 23.0567 6.5948 25.4076H7.5948C7.5948 23.6198 9.05673 22.1663 10.8792 22.1663V21.1663ZM44.7027 25.4074C44.7027 27.7583 46.6232 29.6487 48.9871 29.6487V28.6487C47.1646 28.6487 45.7027 27.1953 45.7027 25.4074H44.7027ZM48.9871 29.6487C51.351 29.6487 53.2715 27.7583 53.2715 25.4074H52.2715C52.2715 27.1953 50.8096 28.6487 48.9871 28.6487V29.6487ZM53.2715 25.4074C53.2715 23.0714 51.3522 21.1661 48.9871 21.1661V22.1661C50.8084 22.1661 52.2715 23.6321 52.2715 25.4074H53.2715ZM48.9871 21.1661C46.6232 21.1661 44.7027 23.0565 44.7027 25.4074H45.7027C45.7027 23.6196 47.1646 22.1661 48.9871 22.1661V21.1661ZM0.425781 29.423V33.1095H1.42578V29.423H0.425781ZM4.05788 29.4226V33.1091H5.05788V29.4226H4.05788ZM7.67575 29.4226V33.1091H8.67575V29.4226H7.67575ZM11.3079 29.4226V33.1091H12.3079V29.4226H11.3079ZM14.9257 29.4226V33.1091H15.9257V29.4226H14.9257ZM18.5436 29.4226V33.1091H19.5436V29.4226H18.5436ZM22.1757 29.4226V33.1091H23.1757V29.4226H22.1757ZM25.7936 29.4226V33.1091H26.7936V29.4226H25.7936ZM29.4257 29.4226V33.1091H30.4257V29.4226H29.4257ZM33.0578 29.4226V33.1091H34.0578V29.4226H33.0578ZM36.6756 29.4226V33.1091H37.6756V29.4226H36.6756ZM40.3078 29.4226V33.1091H41.3078V29.4226H40.3078ZM43.9256 29.4226V33.1091H44.9256V29.4226H43.9256ZM47.5442 29.4226V33.1091H48.5442V29.4226H47.5442ZM51.1756 29.4226V33.1091H52.1756V29.4226H51.1756ZM54.7942 29.4226V33.1091H55.7942V29.4226H54.7942ZM0.925781 29.923H58.9258V28.923H0.925781V29.923ZM58.4258 29.423V33.1095H59.4258V29.423H58.4258ZM3.57375 4.25461H56.2783V3.25461H3.57375V4.25461ZM3.57372 1.6095H56.2644V0.609497H3.57372V1.6095ZM55.7644 1.1095V21.6661H56.7644V1.1095H55.7644ZM56.2644 21.1661H3.57372V22.1661H56.2644V21.1661ZM4.07372 21.6661V1.1095H3.07372V21.6661H4.07372ZM19.764 3.75461V19.0213H20.764V3.75461H19.764ZM20.7021 18.7803L12.3015 3.51357L11.4254 3.99566L19.826 19.2624L20.7021 18.7803ZM11.3634 3.75461V19.0213H12.3634V3.75461H11.3634ZM12.3035 18.784L4.06929 3.51726L3.18915 3.99197L11.4234 19.2587L12.3035 18.784ZM3.12922 3.75461V19.0213H4.12922V3.75461H3.12922ZM3.62922 19.5213H56.2784V18.5213H3.62922V19.5213ZM56.7784 19.0213L56.7783 3.75461L55.7783 3.75461L55.7784 19.0213H56.7784ZM55.8384 3.51695L47.5904 18.7837L48.4702 19.259L56.7182 3.99228L55.8384 3.51695ZM48.5303 19.0213V3.75461H47.5303V19.0213H48.5303ZM47.592 3.51387L39.2053 18.7806L40.0818 19.2621L48.4685 3.99535L47.592 3.51387ZM40.1436 19.0213V3.75461H39.1436V19.0213H40.1436ZM20.264 11.8877H39.6436V10.8877H20.264V11.8877Z" fill="black"/>
</svg>
