<svg width="52" height="48" viewBox="0 0 52 48" fill="none" xmlns="http://www.w3.org/2000/svg">
<path d="M39.0891 29.262H44.6167C47.9304 29.262 50.6167 26.5758 50.6167 23.2621V22.2659H1.23633V23.262C1.23633 26.5758 3.92262 29.262 7.23633 29.262H21.9441" stroke="black"/>
<rect x="39.5996" y="29.3008" width="10.1496" height="10.9784" stroke="black"/>
<path d="M28.1428 34.216H20.4653C19.0973 34.216 17.9883 33.107 17.9883 31.739V31.739C17.9883 30.371 19.0973 29.262 20.4653 29.262H28.1428C29.8237 27.9846 34.4904 26.2528 39.711 29.5446" stroke="black"/>
<path d="M19.9633 34.1963L9.60134 29.7808C8.04289 29.1167 6.24352 29.8683 5.6205 31.4437V31.4437C5.01623 32.9716 5.74825 34.7018 7.2656 35.3322L18.4775 39.9896C18.9869 40.2012 19.5331 40.3101 20.0847 40.3101L39.6542 40.31" stroke="black"/>
<path d="M45.9994 2.84649L46.4994 2.84649V2.34649H45.9994V2.84649ZM5.69531 0.82373V0.32373H5.19531V0.82373H5.69531ZM45.9887 0.82373H46.4887V0.32373H45.9887V0.82373ZM45.9887 16.5437V17.0437H46.4887V16.5437H45.9887ZM5.69531 16.5437H5.19531V17.0437H5.69531V16.5437ZM18.9586 2.84649C18.9586 2.57035 18.7348 2.34649 18.4586 2.34649C18.1825 2.34649 17.9586 2.57035 17.9586 2.84649H18.9586ZM18.4586 14.5212L18.0206 14.7622C18.1306 14.9622 18.362 15.0622 18.5831 15.0054C18.8041 14.9486 18.9586 14.7494 18.9586 14.5212H18.4586ZM12.0346 2.84649L12.4727 2.60545C12.3626 2.4055 12.1312 2.30543 11.9102 2.36222C11.6891 2.41902 11.5346 2.61828 11.5346 2.84649H12.0346ZM12.0346 14.5212L11.5945 14.7585C11.7032 14.9601 11.935 15.062 12.157 15.006C12.379 14.9499 12.5346 14.7502 12.5346 14.5212H12.0346ZM5.73775 2.84649L6.17782 2.60913C6.06912 2.40758 5.83738 2.30564 5.61535 2.3617C5.39332 2.41776 5.23775 2.61749 5.23775 2.84649H5.73775ZM5.73775 14.5212H5.23775C5.23775 14.7973 5.46161 15.0212 5.73775 15.0212V14.5212ZM45.9994 14.5212V15.0212C46.132 15.0212 46.2592 14.9685 46.3529 14.8747C46.4467 14.781 46.4994 14.6538 46.4994 14.5212L45.9994 14.5212ZM39.6919 14.5212H39.1919C39.1919 14.7501 39.3474 14.9498 39.5694 15.0059C39.7913 15.062 40.023 14.9603 40.1318 14.7588L39.6919 14.5212ZM39.6919 2.84649H40.1919C40.1919 2.61821 40.0373 2.41892 39.8162 2.36218C39.5951 2.30544 39.3636 2.40567 39.2537 2.60575L39.6919 2.84649ZM33.2785 14.5212H32.7785C32.7785 14.7495 32.9331 14.9487 33.1542 15.0055C33.3753 15.0622 33.6068 14.962 33.7167 14.7619L33.2785 14.5212ZM33.7785 2.84649C33.7785 2.57035 33.5546 2.34649 33.2785 2.34649C33.0023 2.34649 32.7785 2.57035 32.7785 2.84649H33.7785ZM18.4586 8.18361C18.1825 8.18361 17.9586 8.40747 17.9586 8.68361C17.9586 8.95975 18.1825 9.18361 18.4586 9.18361V8.18361ZM33.2785 9.18361C33.5546 9.18361 33.7785 8.95975 33.7785 8.68361C33.7785 8.40747 33.5546 8.18361 33.2785 8.18361V9.18361ZM7.88794 19.4049C7.88794 21.2689 9.41051 22.7659 11.2819 22.7659V21.7659C9.95196 21.7659 8.88794 20.7058 8.88794 19.4049H7.88794ZM11.2819 22.7659C13.1534 22.7659 14.6759 21.2689 14.6759 19.4049H13.6759C13.6759 20.7058 12.6119 21.7659 11.2819 21.7659V22.7659ZM14.6759 19.4049C14.6759 17.5525 13.1546 16.0438 11.2819 16.0438V17.0438C12.6107 17.0438 13.6759 18.1132 13.6759 19.4049H14.6759ZM11.2819 16.0438C9.41051 16.0438 7.88794 17.5409 7.88794 19.4049H8.88794C8.88794 18.1039 9.95196 17.0438 11.2819 17.0438V16.0438ZM37.0296 19.4047C37.0296 21.2687 38.5522 22.7658 40.4236 22.7658V21.7658C39.0936 21.7658 38.0296 20.7057 38.0296 19.4047H37.0296ZM40.4236 22.7658C42.2951 22.7658 43.8176 21.2687 43.8176 19.4047H42.8176C42.8176 20.7057 41.7536 21.7658 40.4236 21.7658V22.7658ZM43.8176 19.4047C43.8176 17.5524 42.2963 16.0437 40.4236 16.0437V17.0437C41.7524 17.0437 42.8176 18.1131 42.8176 19.4047H43.8176ZM40.4236 16.0437C38.5522 16.0437 37.0296 17.5407 37.0296 19.4047H38.0296C38.0296 18.1038 39.0936 17.0437 40.4236 17.0437V16.0437ZM5.69533 3.34649H45.9994V2.34649H5.69533V3.34649ZM5.69531 1.32373H45.9887V0.32373H5.69531V1.32373ZM45.4887 0.82373V16.5437H46.4887V0.82373H45.4887ZM45.9887 16.0437H5.69531V17.0437H45.9887V16.0437ZM6.19531 16.5437V0.82373H5.19531V16.5437H6.19531ZM17.9586 2.84649V14.5212H18.9586V2.84649H17.9586ZM18.8967 14.2801L12.4727 2.60545L11.5965 3.08754L18.0206 14.7622L18.8967 14.2801ZM11.5346 2.84649V14.5212H12.5346V2.84649H11.5346ZM12.4747 14.2838L6.17782 2.60913L5.29768 3.08385L11.5945 14.7585L12.4747 14.2838ZM5.23775 2.84649V14.5212H6.23775V2.84649H5.23775ZM5.73775 15.0212H45.9994V14.0212H5.73775V15.0212ZM46.4994 14.5212L46.4994 2.84649L45.4994 2.84649L45.4994 14.5212L46.4994 14.5212ZM45.5594 2.60883L39.252 14.2835L40.1318 14.7588L46.4393 3.08416L45.5594 2.60883ZM40.1919 14.5212V2.84649H39.1919V14.5212H40.1919ZM39.2537 2.60575L32.8402 14.2804L33.7167 14.7619L40.1301 3.08723L39.2537 2.60575ZM33.7785 14.5212V2.84649H32.7785V14.5212H33.7785ZM18.4586 9.18361H33.2785V8.18361H18.4586V9.18361Z" fill="black"/>
</svg>
