<svg width="50" height="50" viewBox="0 0 50 50" fill="none" xmlns="http://www.w3.org/2000/svg">
<path d="M26.5525 16.245H21.8633V23.9046H26.4759C27.7673 23.9046 28.7508 23.6681 29.4269 23.0217C30.1045 22.3772 30.443 21.5092 30.443 20.3327C30.443 19.0413 30.0937 18.1022 29.3988 17.3301C28.7033 16.5585 27.7545 16.245 26.5525 16.245Z" stroke="black"/>
<path d="M42.286 0.925781H7.6994C4.02689 0.925781 0.925781 4.01412 0.925781 7.68765V42.2742C0.925781 45.9477 4.02689 48.9258 7.6994 48.9258H42.286C45.9595 48.9258 48.9258 45.9477 48.9258 42.2747V7.68765C48.9258 4.01412 45.9595 0.925781 42.286 0.925781ZM34.3047 26.6951C32.3745 28.3088 29.7258 29.0109 26.3607 29.0109H21.862V38.713H15.2237V11.1385H26.4745C28.5871 11.1385 30.4585 11.4388 32.0829 12.2175C33.7098 12.9952 34.968 14.0584 35.8606 15.4943C36.7506 16.9307 37.1974 18.4846 37.1974 20.3071C37.1979 23.0022 36.2339 25.0831 34.3047 26.6951Z" stroke="black"/>
</svg>
