<svg width="62" height="35" viewBox="0 0 62 35" fill="none" xmlns="http://www.w3.org/2000/svg">
<rect x="1.27539" y="1.42578" width="38.967" height="19.8981" stroke="black"/>
<path d="M6.7168 5.2298H10.7053V17.5198H6.7168V5.2298ZM14.5464 5.2298H18.535V17.5198H14.5464V5.2298ZM23.0697 5.2298H27.0583V17.5198H23.0697V5.2298ZM30.6857 5.2298H34.6743V17.5198H30.6857V5.2298Z" stroke="black"/>
<circle cx="14.2887" cy="31.1742" r="3.25156" stroke="black"/>
<circle cx="24.8394" cy="31.1742" r="3.25156" stroke="black"/>
<circle cx="51.0816" cy="31.1742" r="3.25156" stroke="black"/>
<path d="M5.06283 21.4579V25.8916H1.11719V30.8386H6.64013L9.88394 25.8916H28.9961L32.8536 30.8386H44.5138L47.7576 25.8916H36.2728V21.4579" stroke="black"/>
<path d="M44.0938 5.6449V23.0504H53.5695C55.7787 23.0504 57.5695 24.8413 57.5695 27.0504V29.6946H61.0743V16.2195L56.6408 8.22093C55.7596 6.63123 54.0852 5.6449 52.2676 5.6449H44.0938Z" stroke="black"/>
<path d="M46.6934 8.54541H52.8616C53.6007 8.54541 54.2795 8.95298 54.6269 9.6053L57.2699 14.5682C57.6247 15.2343 57.142 16.0383 56.3873 16.0383H46.6934V8.54541Z" stroke="black"/>
</svg>
