<svg width="56" height="30" viewBox="0 0 56 30" fill="none" xmlns="http://www.w3.org/2000/svg">
<path d="M47.137 6.57486L46.8049 6.20105C46.6981 6.29593 46.637 6.43198 46.637 6.57486C46.637 6.71773 46.6981 6.85378 46.8049 6.94867L47.137 6.57486ZM53.4807 12.2103L53.8127 12.5841C53.9196 12.4892 53.9807 12.3531 53.9807 12.2103C53.9807 12.0674 53.9196 11.9313 53.8127 11.8365L53.4807 12.2103ZM47.137 17.8457L46.8049 17.4719C46.6981 17.5667 46.637 17.7028 46.637 17.8457C46.637 17.9885 46.6981 18.1246 46.8049 18.2195L47.137 17.8457ZM53.4807 23.4811L53.8127 23.8549C53.9196 23.76 53.9807 23.6239 53.9807 23.4811C53.9807 23.3382 53.9196 23.2021 53.8127 23.1073L53.4807 23.4811ZM2.29891 29.1165L2.29891 29.6165H2.29891V29.1165ZM43.2567 29.1165V29.6165V29.1165ZM2.29891 10.5673L2.07715 10.1192L1.79891 10.2569V10.5673H2.29891ZM20.7348 10.5673H21.2348V10.2569L20.9565 10.1192L20.7348 10.5673ZM11.5168 6.00592L11.7386 5.55778L11.5168 5.44805L11.2951 5.55778L11.5168 6.00592ZM24.8209 10.5673L24.5991 10.1192L24.3209 10.2569V10.5673H24.8209ZM43.2567 10.5673H43.7567V10.2569L43.4785 10.1192L43.2567 10.5673ZM8.17093 0.735168V0.235168H7.67093V0.735168H8.17093ZM47.1015 3.49018L47.6015 3.49018V3.49018H47.1015ZM34.0391 3.49018V2.99018V3.49018ZM11.4991 3.49018V2.99018V3.49018ZM8.17093 3.49018H7.67093V3.99018L8.17093 3.99018L8.17093 3.49018ZM53.554 0.735168H54.054V0.235168H53.554V0.735168ZM53.1486 0.565952L46.8049 6.20105L47.469 6.94868L53.8127 1.31358L53.1486 0.565952ZM46.8049 6.94867L53.1486 12.5841L53.8127 11.8365L47.469 6.20106L46.8049 6.94867ZM53.1486 11.8365L46.8049 17.4719L47.469 18.2195L53.8127 12.5841L53.1486 11.8365ZM46.8049 18.2195L53.1486 23.8549L53.8127 23.1073L47.469 17.4719L46.8049 18.2195ZM53.1486 23.1073L46.8049 28.7426L47.469 29.4903L53.8127 23.8549L53.1486 23.1073ZM0.00976496 29.6165L2.29891 29.6165L2.29891 28.6165L0.00976629 28.6165L0.00976496 29.6165ZM2.29891 29.6165H20.7348V28.6165H2.29891V29.6165ZM20.7348 29.6165H24.8209V28.6165H20.7348V29.6165ZM24.8209 29.6165H43.2567V28.6165H24.8209V29.6165ZM43.2567 29.6165L47.1013 29.6165L47.1013 28.6165L43.2567 28.6165V29.6165ZM47.1013 29.6165H53.554V28.6165H47.1013V29.6165ZM53.554 29.6165H55.8434V28.6165H53.554V29.6165ZM2.79891 29.1165V10.5673H1.79891V29.1165H2.79891ZM20.2348 10.5673V29.1165H21.2348V10.5673H20.2348ZM2.52066 11.0155L11.7209 6.46282L11.2774 5.56655L2.07715 10.1192L2.52066 11.0155ZM11.7209 6.46282L11.7386 6.45405L11.2951 5.55778L11.2774 5.56655L11.7209 6.46282ZM11.2951 6.45405L20.513 11.0155L20.9565 10.1192L11.7386 5.55778L11.2951 6.45405ZM25.3209 29.1165V10.5673H24.3209V29.1165H25.3209ZM42.7567 10.5673V29.1165H43.7567V10.5673H42.7567ZM25.0426 11.0155L34.2606 6.45405L33.817 5.55778L24.5991 10.1192L25.0426 11.0155ZM33.817 6.45405L43.035 11.0155L43.4785 10.1192L34.2606 5.55778L33.817 6.45405ZM8.17093 1.23517H11.4991V0.235168H8.17093V1.23517ZM11.4991 1.23517H19.0124V0.235168H11.4991V1.23517ZM19.0124 1.23517H26.5258V0.235168H19.0124V1.23517ZM26.5258 1.23517H34.0394V0.235168H26.5258V1.23517ZM34.0394 1.23517H41.0884V0.235168H34.0394V1.23517ZM41.0884 1.23517H47.1015V0.235168H41.0884V1.23517ZM47.1015 2.99018L34.0391 2.99018V3.99018L47.1015 3.99018V2.99018ZM34.0391 2.99018H11.4991V3.99018H34.0391V2.99018ZM11.4991 2.99018L8.17093 2.99018L8.17093 3.99018L11.4991 3.99018L11.4991 2.99018ZM8.67093 3.49018V0.735168H7.67093V3.49018H8.67093ZM53.554 0.235168H47.1015V1.23517H53.554V0.235168ZM46.6015 0.735168V3.49018H47.6015V0.735168H46.6015ZM46.6015 3.49018L46.6013 29.1164L47.6013 29.1165L47.6015 3.49018L46.6015 3.49018ZM54.054 29.1165V0.735168H53.054V29.1165H54.054ZM11.9991 6.04973V6.01469H10.9991V6.04973H11.9991ZM11.9991 6.01469V3.49018H10.9991V6.01469H11.9991ZM11.9991 3.29472V0.735168H10.9991V3.29472H11.9991ZM19.5124 3.29472V0.735168H18.5124V3.29472H19.5124ZM27.0258 3.29472V0.735168H26.0258V3.29472H27.0258ZM34.5394 3.29472V0.735168H33.5394V3.29472H34.5394ZM41.5884 3.29472V0.735168H40.5884V3.29472H41.5884ZM34.5391 6.04655L34.5388 6.00274L33.5388 6.00909L33.5391 6.05291L34.5391 6.04655ZM34.5388 6.00597L34.5391 3.49023L33.5391 3.49012L33.5388 6.00586L34.5388 6.00597ZM16.2555 12.0624V14.9521H17.2555V12.0624H16.2555ZM16.2555 17.0653V24.9218H17.2555V17.0653H16.2555ZM38.7801 12.3751V21.2171H39.7801V12.3751H38.7801Z" fill="black"/>
</svg>
