<svg width="48" height="55" fill="none" xmlns="http://www.w3.org/2000/svg"><path d="M47.242 7.816c-.13.115-.284.258-.451.431a9.158 9.158 0 00-1.643 2.362c-1.045 2.15-1.63 5.409.022 9.912h0c1.8 4.91 2.92 10.831.468 16.787C43.2 43.232 37.18 49.31 24.465 54.461 11.749 49.31 5.729 43.232 3.29 37.308c-2.452-5.956-1.333-11.877.468-16.786h0c1.65-4.504 1.067-7.763.022-9.913a9.16 9.16 0 00-1.64-2.362 7.704 7.704 0 00-.451-.43L7.979.696a15.218 15.218 0 004.885 2.472c3.128.909 7.312.92 11.6-2.522 4.289 3.441 8.473 3.43 11.6 2.522A15.219 15.219 0 0040.949.697l6.293 7.12z" stroke="#58585A"/><path d="M33.979 29.097C33.424 34.107 29.274 38 24.237 38c-5.036 0-9.186-3.893-9.741-8.903m9.803-10.184V38M19.82 23.866h8.958m-15.813 8.527l1.275-4.06 3.26 2.87m18.133 1.19l-1.275-4.06-3.26 2.87m-4.363-14.706c0 1.378-1.09 2.496-2.436 2.496-1.345 0-2.436-1.117-2.436-2.496 0-1.38 1.09-2.497 2.436-2.497 1.345 0 2.436 1.118 2.436 2.497z" stroke="#58585A"/></svg>