<svg width="70" height="51" fill="none" xmlns="http://www.w3.org/2000/svg"><path d="M4.992 7.136v-.5h-.5v.5h.5zm6.404 0h.5v-.5h-.5v.5zM58.97 49.588l-.248-.434-.009.005.257.43zm-2.927 0l-.265.424.007.005.258-.429zm-4.94 0l.256.43.008-.006-.265-.424zm-2.929 0l-.265.424.008.005.257-.429zm-4.94 0l.257.43.008-.006-.265-.424zm-2.928 0l-.265.424.008.005.257-.429zm-4.94 0l.257.43.008-.006-.265-.424zm-2.928 0l-.265.424.008.005.257-.429zm-4.94 0l.257.43.007-.006-.265-.424zm-2.928 0l-.265.424.007.005.258-.429zm-4.94 0l.247.434.009-.005.008-.005-.265-.424zm-7.87 0v.5h.124l.109-.057-.232-.443zm-2.927 0l.265-.424-.008-.005-.009-.005-.248.434zm.367-5.855v-.5h-.25l-.15.202.401.298zm-.478.15a.5.5 0 00.954-.3l-.954.3zm-6.11-21.01h-.5a.5.5 0 00.023.15l.477-.15zm18.48 0l.414-.283a.5.5 0 00-.413-.217v.5zm4.758 6.953l-.412.283a.5.5 0 00.412.217v-.5zm43.184 0l.431.254a.5.5 0 00.07-.254h-.5zM57.075 49.152a.5.5 0 10.862.507l-.861-.507zM2.612 12.626v-.5h-.5v.5h.5zm10.979 0l.437-.242-.143-.258h-.294v.5zM25.85 6.22v-.5h-.5v.5h.5zm29.094 0h.5v-.5h-.5v.5zm14.09 7.503h.5v-.5h-.5v.5zM5.492 12.626v-5.49h-1v5.49h1zm-.5-4.99h6.404v-1H4.992v1zm5.904-.5v5.49h1v-5.49h-1zm-2.295 0V0h-1v7.136h1zm57.99 42.018c-1.031.59-1.778.183-3.024-.306-.598-.234-1.29-.467-2.098-.48-.818-.013-1.718.198-2.747.786l.496.868c.893-.51 1.617-.664 2.235-.654.626.01 1.181.188 1.75.411 1.086.427 2.353 1.118 3.884.243l-.496-.868zm-7.878.005a2.308 2.308 0 01-2.413 0l-.515.858a3.308 3.308 0 003.443 0l-.515-.858zm-2.405.005c-1.626-1.016-3.845-1.016-5.47 0l.53.848c1.3-.813 3.108-.813 4.41 0l.53-.848zm-5.463-.005a2.308 2.308 0 01-2.413 0l-.515.858a3.308 3.308 0 003.442 0l-.514-.858zm-2.406.005c-1.626-1.016-3.844-1.016-5.47 0l.53.848c1.301-.813 3.109-.813 4.41 0l.53-.848zm-5.462-.005a2.308 2.308 0 01-2.414 0l-.514.858a3.308 3.308 0 003.442 0l-.514-.858zm-2.406.005c-1.626-1.016-3.844-1.016-5.47 0l.53.848c1.301-.813 3.108-.813 4.41 0l.53-.848zm-5.463-.005a2.308 2.308 0 01-2.413 0l-.514.858a3.308 3.308 0 003.442 0l-.515-.858zm-2.405.005c-1.626-1.016-3.845-1.016-5.47 0l.53.848c1.301-.813 3.108-.813 4.41 0l.53-.848zm-5.463-.005a2.308 2.308 0 01-2.413 0l-.515.858a3.308 3.308 0 003.443 0l-.515-.858zm-2.405.005c-1.626-1.016-3.845-1.016-5.47 0l.53.848c1.3-.813 3.108-.813 4.41 0l.53-.848zm-5.454-.01c-1.04.594-1.799.22-3.031-.24-.596-.222-1.282-.446-2.085-.469-.81-.022-1.707.161-2.736.7l.464.886c.892-.467 1.62-.604 2.244-.586.633.017 1.193.193 1.764.406 1.1.41 2.354 1.041 3.876.171l-.496-.868zm-7.62-.066a.655.655 0 00-.203.035 1.578 1.578 0 00-.109.042l-.212.092a3.17 3.17 0 01-.566.186c-.43.093-.976.094-1.573-.279l-.53.848a3.032 3.032 0 002.316.408c.306-.067.561-.166.743-.243.126-.053.13-.057.209-.09a.79.79 0 01.026-.01l.007-.003-.022.006a.407.407 0 01-.086.008v-1zm-2.68.066c-1.029-.588-1.928-.8-2.746-.786-.81.013-1.5.246-2.099.48-1.246.489-1.992.895-3.023.306l-.496.868c1.53.875 2.797.184 3.884-.243.568-.223 1.124-.401 1.75-.411.617-.01 1.342.145 2.234.654l.496-.868zm-3.688.55l4.209-5.673-.803-.596-4.209 5.672.803.596zM9.2 44.232h51.601v-1h-51.6v1zm.476-.65l-6.588-20.86-.953.3 6.587 20.86.954-.3zm-7.064-20.21h18.48v-1H2.613v1zm18.068-.218l4.758 6.954.825-.565-4.758-6.954-.825.565zm5.17 7.171h43.184v-1H25.85v1zm42.753-.753L57.076 49.151l.861.507 11.528-19.58-.862-.506zm-65.491-6.7V12.626h-1v10.247h1zm-.5-9.747H13.59v-1H2.61v1zm10.541-.258l5.673 10.247.875-.484-5.673-10.247-.875.484zM26.35 29.826V6.221h-1v23.605h1zm-.5-23.105h29.094v-1H25.85v1zm28.594-.5v23.605h1V6.221h-1zM25.85 14.224h43.184v-1H25.85v1zm42.684-.5v16.102h1V13.724h-1zm-42.684 9.1h43.184v-1H25.85v1zM7.002 18.432h4.392v-1H7.002v1z" fill="#58585A"/></svg>