<svg width="57" height="53" fill="none" xmlns="http://www.w3.org/2000/svg"><path d="M55.698 33.814l.394.309.106-.136v-.173h-.5zm.017-21.462h.5v-.006l-.5.006zm-4.532.05l.5-.005v-.002l-.5.007zm.115 12.382l.354.354.148-.148-.002-.21-.5.004zm-12.4 12.4l-.353-.354-.146.147v.207h.5zm0 15.262h-.5v.5h.5v-.5zm8.589 0v.5h.5v-.5h-.5zm0-8.18l-.394-.308-.106.136v.173h.5zM51.07 28.27l.357-.35-.357.35zm-.033 3.206l-.35-.357.35.357zM.981 33.814h-.5v.173l.107.136.393-.309zM.965 12.352l-.5-.006v.007h.5zm4.531.05l-.5-.007v.002l.5.005zm-.115 12.382l-.5-.004-.001.21.148.148.353-.354zm12.4 12.4h.5v-.207l-.147-.147-.353.354zm0 15.262v.5h.5v-.5h-.5zm-8.588 0h-.5v.5h.5v-.5zm0-8.18h.5v-.172l-.107-.136-.393.309zM5.61 28.27l-.357-.35.357.35zm.032 3.206l.35-.357-.35.357zM28.348 16.13l.234-.441-.233-.125-.235.124.234.442zm-3.19 1.685l-.493-.084-.17 1 .897-.474-.234-.442zm.605-3.55l.493.085.044-.26-.188-.183-.349.358zm-2.568-2.502l-.073-.495-1 .147.724.706.35-.358zm3.55-.524l.073.495.258-.038.116-.233-.447-.224zm1.603-3.206l.448-.222-.446-.9-.45.898.448.224zm1.587 3.206l-.448.222.116.235.259.038.073-.495zm3.55.524l.348.358.724-.706-1-.147-.073.495zm-2.569 2.502l-.349-.358-.188.184.044.258.493-.084zm.605 3.55l-.234.442.898.477-.17-1.003-.494.084zM28.365 1.5a.5.5 0 100-1v1zm-2.127.203l-.232-.442-.009.004.241.438zm-.916.426l.109.488a.478.478 0 00.032-.009l-.14-.48zm-1.047.098l.012.5h.01l-.022-.5zm-2.142.442l-.248-.435-.004.002.252.433zM20.677 4.32l.428.257.004-.005-.432-.252zM19.22 5.777l.26.426.012-.007-.272-.42zm-1.652 1.472l-.433-.252-.001.004.434.248zm-.442 2.143l.5.02v-.008l-.5-.012zm-.098 1.063l.487.114.001-.006-.488-.108zm-.425.916l-.439-.241-.001.003.44.238zm0 4.253l-.44.238.001.003.439-.241zm.425.916l.482-.134a.442.442 0 00-.005-.015l-.477.15zm.098 1.063h-.5v.012l.5-.012zm.442 2.143l.434-.248-.434.248zm.229.327l.395-.306a.49.49 0 00-.011-.014l-.384.32zm1.423 1.145l-.268.423.01.006.258-.429zm.67.459l-.32.384a.78.78 0 00.02.015l.3-.4zm.688.866l-.42.272.004.006.415-.278zm.081.131l.427-.26a.505.505 0 00-.073-.093l-.354.353zm1.473 1.652l-.252.433.003.002.248-.434zm2.142.459l.021-.5h-.009l-.012.5zm1.047.13l.142-.48-.008-.001-.134.481zm.916.475l-.24.438.003.002.237-.44zm4.253 0l.238.44.003-.002-.24-.438zm.916-.475l-.133-.482-.008.003.142.48zm1.047-.13l-.011-.5h-.01l.021.5zm2.143-.459l.248.435.004-.002-.252-.433zm1.472-1.652l-.416-.277-.007.011.423.266zm.082-.13l.354.353a.5.5 0 00.066-.082l-.42-.272zm.687-.867l-.3-.4a.494.494 0 00-.053.046l.353.354zm.671-.459l-.257-.428a.523.523 0 00-.02.012l.277.416zm1.423-1.145l-.384-.32-.005.006.39.314zm.23-.327l-.435-.248.434.248zm.44-2.143l-.499-.02v.008l.5.012zm.099-1.063l.484.127.003-.012-.487-.115zm.425-.916l.438.241.002-.003-.44-.238zm0-4.253l.44-.238-.002-.003-.438.24zm-.425-.916l-.482.134.005.015.477-.15zm-.098-1.063h.5V9.38l-.5.012zm-.442-2.143L39.595 7l-.002-.004-.432.252zm-1.65-1.472l.26-.427-.003-.002-.257.429zM36.053 4.32l-.427.26.008.012.42-.272zm-1.472-1.652l-.253.431h.002l.251-.431zm-2.11-.442l-.021.5h.009l.012-.5zm-1.047-.098l-.115.486.006.002.109-.488zm-.916-.426l.24-.438-.002-.001-.238.44zM28.38.5a.5.5 0 100 1v-1zm-2.646 24.625a.5.5 0 00-.891-.452l.891.452zm-3.717 6.219l-.446-.226-.006.012.452.214zm-1.636-.05l-.457.204.001.002.456-.205zm-1.161-2.616l.457-.203a.5.5 0 00-.566-.285l.109.488zm-2.797.621l-.109-.488-.013.003.122.485zm-.95-1.39l.417.277a.517.517 0 00.03-.052l-.446-.225zm3.785-6.383a.5.5 0 00-.893-.45l.893.45zm12.578 3.147a.5.5 0 10-.892.452l.892-.452zm2.826 6.671l.452-.214-.006-.012-.446.226zm1.636-.05l.456.206v-.002l-.457-.203zm1.161-2.616l.108-.489a.5.5 0 00-.565.286l.457.203zm2.813.621l.122-.485-.014-.003-.108.488zm.95-1.39l-.447.226a.48.48 0 00.03.051l.416-.277zm-2.794-6.622a.5.5 0 00-.892.452l.892-.452zM56.2 33.814l.016-21.461-1-.001-.017 21.462h1zm.016-21.468c-.02-1.517-1.275-2.755-2.797-2.735l.013 1a1.776 1.776 0 011.784 1.748l1-.013zM53.418 9.61c-1.516.02-2.755 1.275-2.734 2.797l1-.013a1.776 1.776 0 011.747-1.784l-.013-1zm-2.734 2.795l.114 12.383 1-.01-.114-12.382-1 .01zm.26 12.025l-12.399 12.4.707.706 12.4-12.399-.708-.707zM38.4 37.184v15.262h1V37.184h-1zm.5 15.762h8.588v-1H38.9v1zm9.088-.5v-8.18h-1v8.18h1zm-.107-7.87l8.212-10.453-.787-.618-8.212 10.453.787.618zm.334-15.983a1.771 1.771 0 012.499.026l.714-.7a2.771 2.771 0 00-3.914-.04l.7.714zm2.499.026a1.77 1.77 0 01-.026 2.5l.7.713a2.771 2.771 0 00.04-3.913l-.714.7zm-.026 2.5l-5.857 5.757.702.713 5.856-5.758-.701-.713zM1.48 33.813l-.016-21.462h-1L.48 33.815h1zm-.016-21.455c.013-.97.82-1.76 1.783-1.748l.014-1C1.739 9.591.485 10.83.465 12.346l1 .013zm1.783-1.748c.97.013 1.76.82 1.748 1.784l1 .013c.02-1.522-1.218-2.777-2.734-2.797l-.014 1zm1.748 1.786L4.882 24.78l1 .01.114-12.384-1-.01zm.032 12.741l12.4 12.4.706-.708-12.399-12.4-.707.708zM17.28 37.184v15.262h1V37.184h-1zm.5 14.762H9.193v1h8.588v-1zm-8.088.5v-8.18h-1v8.18h1zm-.107-8.488L1.374 33.505l-.786.618L8.8 44.576l.786-.618zm-.42-16.079a2.771 2.771 0 00-3.912.04l.713.7a1.771 1.771 0 012.5-.026l.7-.714zm-3.912.04a2.771 2.771 0 00.039 3.913l.7-.714a1.771 1.771 0 01-.026-2.499l-.713-.7zm.039 3.912l5.856 5.758.7-.713-5.855-5.758-.701.713zM28.114 15.69l-3.19 1.685.468.884 3.19-1.685-.468-.884zm-2.463 2.21l.605-3.55-.986-.168-.605 3.55.986.168zm.461-3.992l-2.568-2.502-.698.716 2.568 2.502.698-.716zm-2.844-1.65l3.55-.523-.146-.99-3.55.524.146.99zm3.924-.794l1.603-3.206-.894-.448-1.603 3.207.894.447zm.708-3.208l1.587 3.206.896-.444-1.587-3.206-.896.444zm1.962 3.479l3.55.523.145-.989-3.55-.524-.145.99zm3.273-.33l-2.568 2.503.698.716 2.568-2.502-.698-.716zm-2.712 2.946l.605 3.55.986-.169-.605-3.55-.986.168zm1.333 3.024l-3.174-1.685-.469.883 3.174 1.685.469-.883zM28.365.5c-.963 0-1.76.446-2.36.76l.466.886c.644-.34 1.22-.646 1.894-.646v-1zm-2.368.765c-.334.184-.598.32-.816.384l.282.96c.339-.1.696-.291 1.016-.467l-.482-.877zm-.783.376c-.243.053-.554.07-.96.086l.042 1c.38-.016.788-.033 1.135-.11l-.217-.976zm-.95.086c-.679.016-1.57.044-2.38.507l.497.869c.563-.322 1.21-.36 1.906-.376l-.023-1zm-2.383.51c-.828.481-1.293 1.244-1.636 1.832l.864.504c.344-.59.697-1.136 1.275-1.472l-.503-.865zm-1.633 1.826c-.2.334-.368.592-.53.755l.707.707c.263-.263.488-.627.68-.947l-.857-.515zm-.53.755c-.164.164-.403.301-.77.54l.545.838c.288-.187.67-.41.932-.671l-.707-.707zm-.758.532c-.58.354-1.343.82-1.824 1.647l.865.503c.337-.58.882-.931 1.48-1.297l-.52-.853zM17.135 7c-.463.811-.492 1.702-.508 2.38l1 .024c.016-.696.054-1.343.376-1.907L17.135 7zm-.508 2.37c-.017.408-.032.735-.086.976l.976.217c.077-.347.094-.772.11-1.15l-1-.042zm-.085.97c-.046.194-.179.43-.377.79l.877.482c.162-.295.388-.68.474-1.043l-.974-.229zm-.378.793c-.32.592-.764 1.402-.764 2.365h1c0-.674.309-1.27.643-1.89l-.88-.475zm-.764 2.365c0 .962.444 1.772.764 2.364l.88-.476c-.335-.619-.644-1.215-.644-1.888h-1zm.765 2.367c.18.326.321.615.387.824l.954-.298c-.098-.314-.284-.68-.464-1.008l-.877.482zm.382.809c.062.222.08.537.08.93h1c0-.393-.014-.83-.116-1.198l-.964.268zm.08.941c.016.678.045 1.569.508 2.38l.868-.497c-.322-.564-.36-1.21-.376-1.907l-1 .024zm.508 2.38c.081.143.18.281.279.398l.768-.64a1.846 1.846 0 01-.18-.255l-.867.496zm.267.384c.457.59 1.08.963 1.551 1.262l.535-.845c-.51-.323-.966-.604-1.295-1.029l-.79.613zm1.562 1.268c.24.144.442.276.607.414l.64-.769a5.818 5.818 0 00-.733-.502l-.514.857zm.628.43c.033.025.06.05.11.1l.707-.707a2.09 2.09 0 00-.217-.194l-.6.8zm.11.1c.132.133.263.338.457.638l.84-.543c-.166-.256-.363-.575-.59-.802l-.707.707zm.46.644c-.002-.004-.002-.004.001.001l.006.012.011.02c.015.027.056.103.127.174l.707-.707a.33.33 0 01.04.049l.004.006-.007-.014a1.728 1.728 0 00-.056-.096l-.832.555zm.072.114c.354.58.82 1.343 1.647 1.824l.503-.865c-.58-.337-.931-.882-1.297-1.48l-.853.521zm1.65 1.826c.807.46 1.69.507 2.38.523l.023-1c-.685-.016-1.339-.067-1.906-.392l-.497.869zm2.37.523c.387.016.698.047.934.113l.268-.963c-.353-.098-.76-.133-1.16-.15l-.041 1zm.927.111c.083.024.19.075.337.157l.226.13c.08.047.165.097.253.146l.482-.876a9.833 9.833 0 01-.23-.132c-.078-.046-.16-.095-.243-.14a2.699 2.699 0 00-.543-.244l-.282.959zm.82.435c.543.293 1.37.845 2.364.845v-1c-.674 0-1.221-.364-1.889-.725l-.475.88zm2.364.845c.994 0 1.821-.552 2.364-.845l-.475-.88c-.668.36-1.215.725-1.89.725v1zm2.367-.847c.089-.049.175-.099.254-.145l.226-.131c.147-.082.254-.133.337-.157l-.283-.96a2.7 2.7 0 00-.542.245c-.082.045-.165.094-.243.14l-.23.132.481.876zm.81-.43c.235-.067.547-.098.933-.114l-.041-1c-.4.018-.807.052-1.16.15l.267.963zm.924-.114c.689-.016 1.573-.063 2.38-.523l-.497-.869c-.567.325-1.221.376-1.906.393l.023 1zm2.383-.525c.827-.482 1.296-1.266 1.644-1.819l-.847-.532c-.372.592-.72 1.15-1.3 1.486l.503.865zm1.637-1.807a1.012 1.012 0 00.056-.096l.007-.014-.004.006a.325.325 0 01-.04.049l-.707-.707c-.071.071-.112.147-.127.173l-.01.02-.007.013c-.003.005-.003.004 0 0l.832.556zm.085-.137c.194-.3.324-.505.457-.638l-.707-.707c-.227.227-.424.546-.59.802l.84.543zm.457-.638l.054-.047c.025-.022.07-.06.11-.1l-.707-.707-.054.047c-.025.022-.07.06-.11.1l.707.707zm.11-.1c.182-.137.392-.272.648-.443l-.554-.832c-.235.157-.483.316-.694.474l.6.8zm.628-.43c.498-.298 1.087-.68 1.555-1.26l-.778-.628c-.35.434-.807.74-1.291 1.03l.514.858zm1.55-1.253c.098-.118.197-.256.28-.4l-.869-.496a1.846 1.846 0 01-.179.255l.768.64zm.28-.4c.463-.81.49-1.718.507-2.378l-1-.025c-.017.681-.054 1.344-.376 1.907l.868.496zm.506-2.37c.018-.43.019-.713.083-.957l-.968-.254c-.1.378-.099.815-.114 1.17l1 .041zm.086-.97c.045-.194.179-.43.376-.789l-.876-.482c-.162.295-.389.68-.474 1.043l.974.229zm.378-.792c.32-.592.764-1.402.764-2.364h-1c0 .673-.309 1.27-.643 1.888l.88.476zm.764-2.364c0-.98-.445-1.775-.764-2.365l-.88.476c.336.62.644 1.2.644 1.889h1zm-.766-2.368c-.179-.326-.32-.615-.386-.824l-.954.298c.098.314.284.68.464 1.008l.876-.482zm-.381-.809c-.062-.222-.08-.537-.08-.93h-1c0 .393.014.83.116 1.198l.964-.268zm-.08-.941c-.016-.678-.045-1.569-.508-2.38l-.868.497c.322.564.36 1.21.376 1.907l1-.024zm-.51-2.383c-.48-.827-1.244-1.293-1.823-1.647l-.522.853c.599.366 1.144.717 1.48 1.297l.865-.503zm-1.827-1.65c-.334-.2-.591-.367-.754-.53l-.707.708c.263.263.627.488.947.68l.514-.857zm-.754-.53c-.164-.163-.301-.402-.54-.769l-.838.545c.187.288.41.67.67.932l.708-.707zm-.532-.757c-.354-.58-.82-1.343-1.648-1.824l-.502.865c.58.337.93.882 1.297 1.48l.853-.521zm-1.646-1.823c-.797-.466-1.691-.494-2.351-.51l-.024 1c.68.016 1.324.054 1.87.373l.505-.863zm-2.342-.51c-.405-.017-.717-.033-.96-.086l-.217.976c.347.077.755.094 1.135.11l.042-1zm-.954-.085c-.194-.046-.43-.18-.79-.377l-.481.877c.295.162.68.388 1.042.473l.23-.973zm-.792-.378C30.156.944 29.36.5 28.38.5v1c.69 0 1.268.308 1.89.643l.475-.88zm-2.381 20.225c4.35 0 7.877-3.546 7.877-7.893h-1c0 3.798-3.081 6.893-6.877 6.893v1zm7.877-7.893c0-4.348-3.526-7.894-7.877-7.894v1c3.796 0 6.877 3.095 6.877 6.894h1zm-7.877-7.894c-4.35 0-7.877 3.546-7.877 7.894h1c0-3.799 3.081-6.894 6.877-6.894v-1zm-7.877 7.894c0 4.348 3.543 7.893 7.877 7.893v-1c-3.78 0-6.877-3.096-6.877-6.893h-1zm4.356 11.077l-3.272 6.445.892.452 3.271-6.445-.891-.452zm-3.278 6.457c-.05.106-.164.188-.35.188v1c.502 0 1.01-.245 1.254-.76l-.904-.428zm-.35.188h-.032v1h.032v-1zm-.032 0a.373.373 0 01-.346-.228l-.912.41c.228.507.717.818 1.258.818v-1zm-.345-.226l-1.161-2.617-.914.405 1.161 2.618.914-.406zm-1.727-2.902l-2.797.621.217.976 2.797-.621-.217-.976zm-2.81.624h-.008a.53.53 0 01-.067.002v1c.056 0 .183.002.318-.032l-.243-.97zm-.075.002c-.225 0-.4-.18-.4-.4h-1c0 .76.611 1.4 1.4 1.4v-1zm-.4-.4a.42.42 0 01.064-.23l-.832-.555a1.418 1.418 0 00-.231.785h1zm.094-.282l3.338-6.608-.893-.45-3.337 6.607.892.451zm15.024-3.009l3.272 6.445.892-.452-3.272-6.445-.892.452zm3.266 6.433c.244.515.752.76 1.253.76v-1c-.185 0-.3-.082-.35-.188l-.903.428zm1.253.76h.033v-1h-.033v1zm.033 0c.54 0 1.03-.311 1.258-.818l-.912-.41a.373.373 0 01-.346.228v1zm1.259-.82l1.161-2.617-.914-.406-1.161 2.617.914.406zm.596-2.332l2.814.622.215-.977-2.813-.622-.216.977zm2.8.618c.135.034.262.032.318.032v-1l-.067-.001c-.012-.001-.013-.002-.008 0l-.243.97zm.318.032c.767 0 1.4-.633 1.4-1.4h-1c0 .215-.186.4-.4.4v1zm1.4-1.4a1.42 1.42 0 00-.232-.785l-.832.555a.42.42 0 01.064.23h1zm-.202-.733l-3.239-6.396-.892.452 3.24 6.396.891-.452z" fill="#58585A"/></svg>