<svg width="317" height="756" fill="none" xmlns="http://www.w3.org/2000/svg"><circle class="line_cikle" cx="121.422" cy="462.687" r="16.187" transform="rotate(-180 121.422 462.687)" stroke="#fff"/><path d="M113.234 462.465a8 8 0 018-8 8 8 0 018 8 8 8 0 11-16 0z" fill="#fff" stroke="#fff"/><path class="line_line" d="M122.047 479.374V564h-3.313" stroke="#fff"/><path d="M31.315 523.432H33.2v3.432l3.348-3.432H38.9l-3.696 3.588 4.02 4.98H36.86l-3.024-3.804-.636.684V532h-1.884v-8.568zm11.132 8.724c-.488 0-.928-.076-1.32-.228a2.876 2.876 0 01-1.008-.648 2.978 2.978 0 01-.648-1.032 3.76 3.76 0 01-.227-1.344c0-.496.075-.944.227-1.344a2.836 2.836 0 011.657-1.692c.392-.16.831-.24 1.32-.24.487 0 .928.08 1.32.24.4.152.74.372 1.02.66.28.28.495.624.648 1.032.151.4.227.848.227 1.344 0 .496-.075.944-.227 1.344-.153.4-.368.744-.648 1.032-.28.28-.62.496-1.02.648a3.626 3.626 0 01-1.32.228zm0-1.272c.288 0 .528-.056.72-.168.2-.112.356-.26.468-.444.12-.192.205-.404.253-.636a3.723 3.723 0 000-1.464 1.797 1.797 0 00-.252-.636 1.25 1.25 0 00-.469-.444c-.192-.12-.431-.18-.72-.18-.288 0-.528.06-.72.18-.191.112-.347.26-.467.444a1.947 1.947 0 00-.24.636 3.723 3.723 0 000 1.464c.047.232.127.444.24.636.12.184.276.332.468.444.191.112.431.168.72.168zm3.964-5.088h1.704v2.256h2.412v-2.256h1.704V532h-1.704v-2.604h-2.412V532h-1.704v-6.204zm8.266 1.284h-2.04v-1.284h5.784v1.284h-2.04V532h-1.704v-4.92zm7.02 5.076c-.489 0-.929-.076-1.32-.228a2.81 2.81 0 01-.997-.672 3.073 3.073 0 01-.636-1.032c-.144-.4-.216-.84-.216-1.32 0-.464.076-.896.228-1.296.152-.4.368-.744.648-1.032.28-.296.612-.528.996-.696a3.256 3.256 0 011.296-.252c.496 0 .932.092 1.308.276.384.184.7.432.948.744.256.304.448.66.576 1.068.128.408.192.832.192 1.272v.168c0 .048-.004.1-.012.156h-4.476c.024.552.164.952.42 1.2s.624.372 1.104.372c.344 0 .64-.084.888-.252.248-.176.4-.36.456-.552h1.5c-.24.744-.608 1.276-1.104 1.596-.496.32-1.096.48-1.8.48zm1.307-3.924c-.08-.432-.224-.76-.432-.984-.2-.224-.508-.336-.924-.336-.28 0-.508.048-.684.144-.176.088-.32.2-.432.336-.104.136-.18.28-.228.432a2.2 2.2 0 00-.072.408h2.772zm2.355-2.436h1.632v4.2l2.34-4.2h1.932V532H69.63v-4.2l-2.34 4.2h-1.932v-6.204zm2.94-.744a3.16 3.16 0 01-.792-.096 1.868 1.868 0 01-.636-.3 1.626 1.626 0 01-.444-.54 1.815 1.815 0 01-.156-.792h1.272c.016.272.08.472.192.6s.3.192.564.192c.256 0 .444-.06.564-.18.12-.128.184-.332.192-.612h1.272c0 .312-.056.576-.168.792a1.504 1.504 0 01-.432.54c-.184.136-.4.236-.648.3a3.11 3.11 0 01-.78.096zm3.895.744h1.704v2.256h2.412v-2.256h1.704V532H76.31v-2.604h-2.412V532h-1.704v-6.204zm9.621 6.36c-.488 0-.928-.076-1.32-.228a2.81 2.81 0 01-.996-.672 3.073 3.073 0 01-.636-1.032c-.144-.4-.216-.84-.216-1.32 0-.464.076-.896.228-1.296.152-.4.368-.744.648-1.032.28-.296.612-.528.996-.696a3.256 3.256 0 011.296-.252c.496 0 .932.092 1.308.276.384.184.7.432.948.744.256.304.448.66.576 1.068.128.408.192.832.192 1.272v.168c0 .048-.004.1-.012.156h-4.476c.024.552.164.952.42 1.2s.624.372 1.104.372c.344 0 .64-.084.888-.252.248-.176.4-.36.456-.552h1.5c-.24.744-.608 1.276-1.104 1.596-.496.32-1.096.48-1.8.48zm1.308-3.924c-.08-.432-.224-.76-.432-.984-.2-.224-.508-.336-.924-.336-.28 0-.508.048-.684.144-.176.088-.32.2-.432.336-.104.136-.18.28-.228.432a2.2 2.2 0 00-.072.408h2.772zm2.355-2.436h1.62v.792h.024c.208-.336.472-.58.792-.732a2.43 2.43 0 011.056-.228c.488 0 .908.092 1.26.276.352.184.644.428.876.732.232.304.404.66.516 1.068.112.4.168.82.168 1.26 0 .416-.056.816-.168 1.2a2.994 2.994 0 01-.516 1.02 2.452 2.452 0 01-.852.708c-.336.176-.732.264-1.188.264-.384 0-.74-.076-1.068-.228a2.069 2.069 0 01-.792-.696h-.024v2.94h-1.704v-8.376zm3.132 5.088c.28 0 .512-.056.696-.168.192-.112.344-.256.456-.432.12-.184.204-.392.252-.624.048-.24.072-.488.072-.744a3.21 3.21 0 00-.084-.732 1.797 1.797 0 00-.252-.636 1.343 1.343 0 00-.468-.456 1.227 1.227 0 00-.684-.18c-.28 0-.516.06-.708.18-.184.112-.336.26-.456.444-.112.184-.192.4-.24.648a3.785 3.785 0 000 1.476c.056.232.14.44.252.624.12.176.272.32.456.432.192.112.428.168.708.168zm3.844-5.088h1.704v2.256h2.412v-2.256h1.704V532H96.57v-2.604h-2.412V532h-1.704v-6.204zm6.753 0h1.704v2.136h1.644c.312 0 .604.044.876.132.28.08.52.208.72.384.208.168.372.38.492.636.12.248.18.54.18.876 0 .344-.06.644-.18.9a1.609 1.609 0 01-.492.636 2.186 2.186 0 01-.744.384c-.28.08-.588.12-.924.12h-3.276v-6.204zm2.868 5.028c.312 0 .56-.068.744-.204.192-.136.288-.356.288-.66 0-.304-.1-.524-.3-.66-.2-.144-.448-.216-.744-.216h-1.152v1.74h1.164zm3.48-5.028h1.692V532h-1.692v-6.204zm2.632 0h1.632v4.2l2.34-4.2h1.932V532h-1.632v-4.2l-2.34 4.2h-1.932v-6.204zm2.94-.744a3.16 3.16 0 01-.792-.096 1.868 1.868 0 01-.636-.3 1.626 1.626 0 01-.444-.54 1.815 1.815 0 01-.156-.792h1.272c.016.272.08.472.192.6s.3.192.564.192c.256 0 .444-.06.564-.18.12-.128.184-.332.192-.612h1.272c0 .312-.056.576-.168.792a1.504 1.504 0 01-.432.54c-.184.136-.4.236-.648.3a3.11 3.11 0 01-.78.096zM61.922 543.08h-2.04v-1.284h5.784v1.284h-2.04V548h-1.704v-4.92zm7.02 5.076c-.488 0-.928-.076-1.32-.228a2.81 2.81 0 01-.996-.672 3.073 3.073 0 01-.636-1.032c-.144-.4-.216-.84-.216-1.32 0-.464.076-.896.228-1.296.152-.4.368-.744.648-1.032.28-.296.612-.528.996-.696a3.256 3.256 0 011.296-.252c.496 0 .932.092 1.308.276.384.184.7.432.948.744.256.304.448.66.576 1.068.128.408.192.832.192 1.272v.168c0 .048-.004.1-.012.156h-4.476c.024.552.164.952.42 1.2s.624.372 1.104.372c.344 0 .64-.084.888-.252.248-.176.4-.36.456-.552h1.5c-.24.744-.608 1.276-1.104 1.596-.496.32-1.096.48-1.8.48zm1.308-3.924c-.08-.432-.224-.76-.432-.984-.2-.224-.508-.336-.924-.336-.28 0-.508.048-.684.144-.176.088-.32.2-.432.336-.104.136-.18.28-.228.432a2.2 2.2 0 00-.072.408h2.772zm2.354-2.436h1.62v.792h.024c.208-.336.472-.58.792-.732a2.43 2.43 0 011.056-.228c.488 0 .908.092 1.26.276.352.184.644.428.876.732.232.304.404.66.516 1.068.112.4.168.82.168 1.26 0 .416-.056.816-.168 1.2a2.994 2.994 0 01-.516 1.02 2.452 2.452 0 01-.852.708c-.336.176-.732.264-1.188.264-.384 0-.74-.076-1.068-.228a2.069 2.069 0 01-.792-.696h-.024v2.94h-1.704v-8.376zm3.132 5.088c.28 0 .512-.056.696-.168.192-.112.344-.256.456-.432.12-.184.204-.392.252-.624.048-.24.072-.488.072-.744a3.21 3.21 0 00-.084-.732 1.797 1.797 0 00-.252-.636 1.343 1.343 0 00-.468-.456 1.227 1.227 0 00-.684-.18c-.28 0-.516.06-.708.18-.184.112-.336.26-.456.444-.112.184-.192.4-.24.648a3.785 3.785 0 000 1.476c.056.232.14.44.252.624.12.176.272.32.456.432.192.112.428.168.708.168zm3.844-5.088h2.472l1.284 4.512h.048l1.284-4.512h2.472V548h-1.608v-4.716h-.036L84.164 548h-1.608l-1.332-4.716h-.036V548H79.58v-6.204zm8.5 0h1.632v4.2l2.34-4.2h1.932V548h-1.632v-4.2l-2.34 4.2H88.08v-6.204zm6.835 0h1.704v2.256h2.412v-2.256h1.704V548h-1.704v-2.604h-2.412V548h-1.704v-6.204zm8.601 6.36c-.296 0-.572-.036-.828-.108a1.896 1.896 0 01-.672-.336 1.622 1.622 0 01-.456-.576 2.012 2.012 0 01-.156-.828c0-.352.06-.64.18-.864.128-.232.288-.416.48-.552.2-.136.424-.236.672-.3.256-.072.512-.128.768-.168.256-.04.508-.072.756-.096.248-.024.468-.06.66-.108s.344-.116.456-.204c.112-.096.164-.232.156-.408a.864.864 0 00-.096-.432.564.564 0 00-.24-.252.783.783 0 00-.348-.12 2.283 2.283 0 00-.42-.036c-.336 0-.6.072-.792.216-.192.144-.304.384-.336.72h-1.704c.024-.392.124-.72.3-.984a2 2 0 01.672-.648c.272-.16.576-.272.912-.336.336-.072.68-.108 1.032-.108.312 0 .628.024.948.072.32.04.612.124.876.252s.48.308.648.54c.168.232.252.532.252.9v3.228c0 .28.016.548.048.804s.088.448.168.576h-1.728a3.908 3.908 0 01-.084-.288 4.139 4.139 0 01-.036-.312 2.22 2.22 0 01-.96.588 3.853 3.853 0 01-1.128.168zm.636-1.128c.336 0 .596-.056.78-.168.184-.112.32-.244.408-.396.088-.16.14-.32.156-.48.024-.16.036-.288.036-.384v-.636a.854.854 0 01-.264.156c-.104.032-.22.06-.348.084-.128.024-.26.044-.396.06a7.164 7.164 0 00-.408.06 2.694 2.694 0 00-.384.096c-.12.04-.228.096-.324.168a.739.739 0 00-.216.252.83.83 0 00-.084.396c0 .16.028.292.084.396a.725.725 0 00.228.24c.096.056.208.096.336.12.128.024.26.036.396.036zm4.311 1.068c-.072 0-.184-.012-.336-.036a2.013 2.013 0 01-.36-.084v-1.284a.88.88 0 00.168.036h.192a.605.605 0 00.384-.132c.12-.096.216-.276.288-.54.08-.264.14-.64.18-1.128.048-.488.072-1.128.072-1.92v-1.212h5.04V548h-1.704v-4.92h-1.752c-.032.88-.084 1.636-.156 2.268-.072.632-.188 1.152-.348 1.56-.152.408-.364.708-.636.9-.264.192-.608.288-1.032.288zm-33.11 7.336h1.885v3.288h3.468v-3.288h1.884V564h-1.884v-3.696h-3.468V564h-1.884v-8.568zm10.192 8.724c-.209 0-.397-.028-.564-.084a2.057 2.057 0 01-.36-.156v-1.524c.088.048.192.092.312.132.127.032.283.048.467.048.569 0 .912-.236 1.032-.708l-3.431-6.432h2.111l2.329 4.464 1.74-4.464h1.968l-2.677 6.288c-.191.44-.387.816-.587 1.128a3.19 3.19 0 01-.648.756 2.256 2.256 0 01-.768.42c-.272.088-.58.132-.924.132zm7.649-7.14h-2.568v-1.584h7.02v1.584h-2.568V564h-1.884v-6.984zm8.524 7.176a4.58 4.58 0 01-1.5-.228 3.39 3.39 0 01-1.14-.648 3.497 3.497 0 01-.78-1.02c-.192-.4-.324-.84-.396-1.32h1.812c.232 1.104.896 1.656 1.992 1.656.64 0 1.152-.208 1.536-.624.392-.424.632-1 .72-1.728h-3.168v-1.476h3.108a3.458 3.458 0 00-.252-.768 2 2 0 00-1.08-1.08 2.198 2.198 0 00-.888-.168c-.48 0-.892.12-1.236.36a1.72 1.72 0 00-.684.972h-1.788c.056-.416.184-.8.384-1.152.208-.352.472-.656.792-.912.32-.264.692-.468 1.116-.612a4.265 4.265 0 011.38-.216c.656 0 1.244.116 1.764.348a3.8 3.8 0 011.32.96c.36.4.636.872.828 1.416.192.544.288 1.128.288 1.752 0 .672-.1 1.284-.3 1.836a4.012 4.012 0 01-.828 1.416c-.36.392-.796.696-1.308.912a4.254 4.254 0 01-1.692.324zm5.055-8.76h7.128V564h-1.884v-6.984h-3.36V564h-1.884v-8.568z" fill="#fff"/></svg>