<?xml version="1.0" encoding="utf-8"?><svg viewBox="0 0 556 556" xmlns="http://www.w3.org/2000/svg" xmlns:xlink="http://www.w3.org/1999/xlink"><style>:root>svg{display:none}:root>svg:target{display:block}</style><svg fill="none" viewBox="0 0 60 162" id="1" xmlns="http://www.w3.org/2000/svg"><path d="M43.818.648h-.145l-.122.077L.77 27.803l-.232.147v31.453l.77-.492 35.865-22.946v124.966h31.947V.648H43.818z" stroke="#fff"/></svg><svg fill="none" viewBox="0 0 76 165" id="2" xmlns="http://www.w3.org/2000/svg"><path d="M74.967 138.354H.232l36.5-34.053.002-.001c12.791-11.726 21.732-21.728 26.79-30.004 5.22-8.291 7.835-17.131 7.835-26.51 0-15.036-5.07-26.605-15.253-34.628C45.96 5.01 33.137.952 17.68.952c-15.932 0-29.143 4.753-39.595 14.282-10.471 9.547-16.36 23.913-17.736 43.014l-.036.497.496.038 29.672 2.282.497.038.04-.497c.909-11.517 3.708-19.914 8.325-25.276 4.771-5.517 10.87-8.271 18.337-8.271 6.596 0 11.787 1.87 15.63 5.566l.007.007.008.007c3.978 3.536 5.994 8.56 5.994 15.146 0 3.742-.673 7.409-2.02 11.005-1.342 3.425-3.889 7.332-7.673 11.721v.001c-3.646 4.253-6.83 7.662-9.55 10.233l-.006.005-.005.005c-2.58 2.58-6.986 6.758-13.224 12.54l-.002.002-50.441 47.246-.159.148v23.769h119.23v-26.106h-.5z" stroke="#fff"/></svg><svg fill="none" viewBox="0 0 89 166" id="3" xmlns="http://www.w3.org/2000/svg"><path d="M109.868 76.22l-.328.377.003.003.325-.38zm-3.45 75.21l.303.397.001-.001-.304-.396zm-86.25.69l-.309.393.003.002.306-.395zm-18.63-37.26l-.034-.499-.516.035.053.515.497-.051zm30.13-2.07l.495-.069-.063-.462-.466.032.034.499zm52.9 19.55l.326.378h.001l-.327-.378zm.92-40.25l-.348.358.348-.358zm-47.15-4.37h-.5v.615l.603-.126-.103-.49zm0-21.39l-.349-.359-.151.147v.212h.5zm41.17-40.02l.349.358.883-.858h-1.232v.5zm-69.69 0h-.5v.5h.5v-.5zm0-25.3v-.5h-.5v.5h.5zm109.71 0h.5v-.5h-.5v.5zm0 22.54l.329.376.171-.15v-.227h-.5zm-46 40.25l-.33-.377-.907.794 1.203.081.034-.498zm36.015 12.8c9.369 8.008 14.085 19.736 14.085 35.27h1c0-15.747-4.79-27.786-14.435-36.03l-.65.76zm14.085 35.27c0 17.2-5.852 30.227-17.514 39.163l.608.793c11.952-9.157 17.906-22.503 17.906-39.956h-1zm-17.513 39.162c-11.548 8.813-26.231 13.238-44.087 13.238v1c18.024 0 32.935-4.469 44.693-13.443l-.606-.795zM62.028 164.27c-16.936 0-30.774-4.195-41.554-12.546l-.612.791c10.993 8.516 25.062 12.755 42.166 12.755v-1zm-41.551-12.544C9.872 143.394 3.71 131.11 2.035 114.808l-.994.103c1.697 16.511 7.956 29.068 18.818 37.602l.618-.787zM1.572 115.358l30.13-2.07-.068-.997-30.13 2.07.068.997zm29.6-2.5c1.238 8.972 4.42 15.768 9.596 20.317 5.177 4.55 12.285 6.795 21.26 6.795v-1c-8.811 0-15.657-2.202-20.6-6.546-4.944-4.344-8.049-10.888-9.265-19.703l-.99.137zm30.856 27.112c9.59 0 17.23-2.399 22.866-7.252l-.652-.757c-5.405 4.654-12.79 7.009-22.214 7.009v1zm22.867-7.252c5.802-5.018 8.683-11.99 8.683-20.848h-1c0 8.621-2.792 15.296-8.337 20.091l.654.757zm8.683-20.848c0-8.39-2.568-15.122-7.742-20.14l-.696.718c4.946 4.797 7.438 11.251 7.438 19.422h1zm-7.742-20.14c-5.187-5.03-12.925-7.5-23.118-7.5v1c10.047 0 17.49 2.435 22.422 7.218l.696-.717zm-23.118-7.5c-6.793 0-14.956 1.003-24.483 3l.206.979c9.486-1.99 17.576-2.98 24.277-2.98v-1zm-23.88 3.49V66.33h-1v21.39h1zm-.151-21.032l41.17-40.02-.698-.717-41.17 40.02.698.717zm40.821-40.879H9.818v1h69.69v-1zm-69.19.5V1.01h-1v25.3h1zm-.5-24.8h109.71v-1H9.818v1zm109.21-.5v22.54h1V1.01h-1zm.171 22.164l-46 40.25.658.753 46-40.25-.658-.753zM73.494 64.298c15.886 1.07 27.878 5.19 36.046 12.299l.656-.755c-8.392-7.304-20.627-11.464-36.634-12.541l-.068.997z" fill="#fff"/></svg><svg fill="none" viewBox="0 0 98 105" id="anchor" xmlns="http://www.w3.org/2000/svg"><path d="M90.179 65.48c-2.371 21.4-20.095 38.026-41.607 38.026-21.513 0-39.237-16.626-41.608-38.026m41.872-43.497v81.523M29.707 43.138h38.257M1 81.444l5.448-17.337 13.92 12.254m75.812 5.083l-5.448-17.337-13.92 12.254M59.238 11.664c0 5.889-4.658 10.663-10.403 10.663-5.746 0-10.404-4.774-10.404-10.663C38.432 5.774 43.09 1 48.836 1c5.745 0 10.403 4.774 10.403 10.664z" stroke="#fff" stroke-width="2"/></svg><svg viewBox="0 0 52 20" id="bottles" xmlns="http://www.w3.org/2000/svg"><path d="M.07 19.5h51.633M11.594 5.697v2.696" stroke="#fff"/><path fill-rule="evenodd" clip-rule="evenodd" d="M.074 19.475V3.662L8.012.964l7.939 2.698v15.813H.074zM2.348 5.697v12h1v-12h-1zm3.443 0v12h1v-12h-1zm3.443 0v12h1v-12h-1zm3.444 0v12h1v-12h-1zM17.95 19.475V3.662L25.886.964l7.939 2.698v15.813H17.949zm2.273-13.778v12h1v-12h-1zm3.443 0v12h1v-12h-1zm3.443 0v12h1v-12h-1zm3.444 0v12h1v-12h-1zM35.828 19.475V3.662L43.766.964l7.939 2.698v15.813H35.828zm2.274-13.778v12h1v-12h-1zm3.443 0v12h1v-12h-1zm3.443 0v12h1v-12h-1zm3.444 0v12h1v-12h-1z"/></svg><svg fill="none" viewBox="0 0 36 56" id="char01" xmlns="http://www.w3.org/2000/svg"><path d="M18.176 54.67L33.3 27.23a17.08 17.08 0 002.117-8.223v-.611c0-9.783-8.305-17.681-18.298-17.144C7.88 1.752.734 9.513.734 18.67v.337c0 2.87.731 5.703 2.118 8.223L18.176 54.67zm.026-46.28c5.557 0 10.081 4.48 10.081 9.982 0 5.503-4.524 9.982-10.082 9.982-5.557 0-10.082-4.48-10.082-9.982 0-5.503 4.512-9.982 10.082-9.982z" stroke="#FFED00" stroke-miterlimit="10"/></svg><svg fill="none" viewBox="0 0 70 41" id="char02" xmlns="http://www.w3.org/2000/svg"><path d="M13.419 19.785v1.708h33.989V.96h-33.99v1.708m4.624 3.444H2.74m18.696 5.115H7.837m-1.696 0H2.739m6.995 6.85H6.333m-1.697 0H1.234M23.56 33.44h-2.417m36.789 0H32.78m-20.857 0H9.734v-8.476h41.121m0 0V7.847h9.576l8.892 6.658V33.44h-2.17m-16.298-8.476h18.468m-18.468-3.517h18.468M57.63 35.111c0 2.728 2.197 4.94 4.907 4.94s4.906-2.212 4.906-4.94-2.197-4.94-4.906-4.94c-2.71 0-4.907 2.212-4.907 4.94zm-34.372 0c0 2.728 2.196 4.94 4.906 4.94 2.71 0 4.907-2.212 4.907-4.94s-2.197-4.94-4.907-4.94-4.906 2.212-4.906 4.94zm-11.628 0c0 2.728 2.197 4.94 4.907 4.94s4.906-2.212 4.906-4.94-2.197-4.94-4.906-4.94c-2.71 0-4.907 2.212-4.907 4.94z" stroke="#FFED00" stroke-miterlimit="10" stroke-linecap="round" stroke-linejoin="round"/></svg><svg fill="none" viewBox="0 0 65 58" id="char03" xmlns="http://www.w3.org/2000/svg"><path d="M48.556 28.382l7.876-14.29a8.895 8.895 0 001.102-4.282v-.318c0-5.095-4.325-9.208-9.53-8.929-4.81.26-8.531 4.302-8.531 9.071v.176c0 1.495.38 2.97 1.102 4.282l7.981 14.29zM48.57 4.28c2.895 0 5.25 2.333 5.25 5.199 0 2.865-2.355 5.198-5.25 5.198-2.894 0-5.25-2.333-5.25-5.198 0-2.866 2.35-5.199 5.25-5.199z" stroke="#FFED00" stroke-miterlimit="10"/><path d="M49.709 26.712c1.986.234 3.457 1.077 3.457 2.082 0 1.186-2.048 2.147-4.575 2.147s-4.575-.961-4.575-2.147c0-1.005 1.47-1.848 3.457-2.082" stroke="#FFED00"/><circle cx="16.044" cy="41.172" r="2.693" stroke="#FFED00"/><circle cx="16.043" cy="41.172" r="6.316" stroke="#FFED00"/><path d="M22.295 41.291h3.319a2 2 0 012 2v7.311a2.321 2.321 0 002.321 2.321v0c1.282 0 2.32-1.04 2.32-2.32V32.033c0-1.281 1.04-2.32 2.322-2.32v0a2.321 2.321 0 012.32 2.32v4.963a2 2 0 002 2h7.681a2 2 0 002-2v-6.229" stroke="#FFED00" stroke-dasharray="2 2"/><path d="M41.49 15.788H1.34V56.55h62.395V15.788h-8.253M1.414 25.072h12.275v-9.13M1.49 29.713h12.199v5.812m4.642-.247V15.942m0 40.608v-9.202m-4.642 9.202v-9.202m37.135-3.068h9.284m-9.284 3.407h9.284" stroke="#FFED00"/><path d="M51.324 51.125h1.298v1.298h-1.298v-1.298zm6.986 0h1.298v1.298H58.31v-1.298zm-3.493 0h1.298v1.298h-1.298v-1.298z" fill="#fff" stroke="#FFED00"/></svg><svg fill="none" viewBox="0 0 57 53" id="char04" xmlns="http://www.w3.org/2000/svg"><path d="M55.968 33.774l.393.31.107-.137v-.172h-.5zm.016-21.461h.5v-.007l-.5.007zm-4.531.049l.5-.005v-.002l-.5.007zm.115 12.383l.353.353.148-.148-.002-.21-.5.005zm-12.4 12.4l-.353-.355-.147.147v.207h.5zm0 15.261h-.5v.5h.5v-.5zm8.588 0v.5h.5v-.5h-.5zm0-8.179l-.393-.309-.107.136v.173h.5zM51.34 28.23l.357-.35-.357.35zm-.032 3.206l-.35-.357.35.357zM1.25 33.775h-.5v.172l.107.136.393-.309zm-.017-21.462l-.5-.007v.007h.5zm4.532.049l-.5-.007v.002l.5.005zM5.65 24.745l-.5-.005-.002.21.148.148.354-.353zm12.4 12.4h.5v-.208l-.147-.146-.354.353zm0 15.261v.5h.5v-.5h-.5zm-8.589 0h-.5v.5h.5v-.5zm0-8.179h.5v-.173l-.106-.136-.394.31zM5.88 28.23l-.357-.35.357.35zm.033 3.206l.35-.356-.35.356zm22.704-15.343l.235-.442-.234-.124-.234.123.233.443zm-3.19 1.684l-.492-.084-.17 1 .896-.474-.233-.442zm.606-3.55l.493.085.044-.26-.188-.182-.35.358zm-2.568-2.502l-.073-.495-1 .148.724.705.349-.358zm3.55-.524l.072.495.258-.038.117-.233-.448-.223zm1.602-3.206l.448-.221-.445-.901-.45.899.447.223zm1.587 3.207l-.448.221.116.235.26.038.072-.495zm3.55.523l.349.358.724-.705-1-.148-.073.495zm-2.568 2.503l-.35-.358-.187.183.044.259.493-.084zm.605 3.55l-.235.441.899.477-.171-1.003-.493.084zM28.634 1.46a.5.5 0 000-1v1zm-2.126.204l-.233-.443-.008.005.24.438zm-.916.425l.108.488a.502.502 0 00.033-.008l-.141-.48zm-1.047.098l.012.5h.009l-.021-.5zm-2.143.442l-.248-.434-.003.002.251.432zM20.946 4.28l.429.257.003-.005-.432-.252zM19.49 5.737l.261.427.012-.008-.273-.42zm-1.652 1.472l-.432-.251-.002.003.434.248zm-.442 2.143l.5.02v-.008l-.5-.012zm-.098 1.063l.487.115.002-.006-.489-.109zm-.425.916l-.438-.24-.002.003.44.237zm0 4.253l-.44.238.002.003.438-.24zm.425.916l.482-.133a.555.555 0 00-.004-.016l-.478.15zm.099 1.064h-.5v.012l.5-.012zm.441 2.143l.434-.248-.434.248zm.23.327l.395-.306-.012-.014-.384.32zm1.422 1.145l-.267.422.01.007.257-.43zm.671.458l-.32.384a.5.5 0 00.02.016l.3-.4zm.687.867l-.42.271.004.006.416-.277zm.082.13l.427-.26a.497.497 0 00-.074-.093l-.353.354zm1.472 1.653l-.251.432.003.002.248-.434zm2.143.458l.02-.5h-.008l-.012.5zm1.047.13l.141-.48-.007-.001-.134.482zm.916.475l-.241.438.003.002.238-.44zm4.253 0l.238.44.003-.002-.241-.438zm.916-.474l-.134-.482-.007.002.141.48zm1.047-.131l-.012-.5h-.009l.021.5zm2.143-.458l.248.434.003-.002-.251-.432zm1.472-1.652l-.416-.278-.007.012.423.266zm.082-.131l.353.353a.497.497 0 00.067-.082l-.42-.271zm.687-.867l-.3-.4a.514.514 0 00-.054.046l.354.354zm.67-.458l-.257-.429a.523.523 0 00-.02.013l.278.416zm1.424-1.145l-.384-.32-.005.006.389.314zm.229-.327l-.434-.248.434.248zm.441-2.143l-.5-.021v.009l.5.012zm.099-1.064l.483.128.003-.013-.486-.115zm.425-.916l.438.241.002-.003-.44-.238zm0-4.253l.44-.237-.002-.004-.438.241zm-.425-.916l-.482.134.004.015.477-.149zm-.099-1.063h.5V9.34l-.5.012zm-.441-2.143l.434-.248-.002-.003-.432.251zm-1.652-1.472l.26-.427-.003-.002-.257.429zM36.323 4.28l-.427.26.008.012.419-.272zM34.85 2.629l-.252.431.001.001.252-.432zm-2.11-.442l-.02.5h.008l.012-.5zm-1.047-.098l-.114.487.006.001.108-.488zm-.916-.425l.241-.438-.003-.002-.238.44zM28.651.46a.5.5 0 000 1v-1zm-2.646 24.626a.5.5 0 10-.892-.453l.892.453zm-3.717 6.218l-.446-.226-.006.012.452.214zm-1.636-.049l-.457.203v.003l.457-.206zm-1.162-2.617l.457-.203a.5.5 0 00-.565-.285l.108.488zm-2.797.622l-.108-.489-.013.003.121.486zm-.949-1.39l.416.276a.517.517 0 00.03-.051l-.446-.226zm3.784-6.384a.5.5 0 10-.892-.45l.892.45zm12.578 3.147a.5.5 0 00-.891.453l.891-.453zm2.826 6.671l.452-.214-.006-.012-.446.226zm1.636-.049l.456.206.001-.003-.457-.203zm1.162-2.617l.107-.488a.5.5 0 00-.565.285l.458.203zm2.813.622l.121-.486-.013-.003-.108.489zm.949-1.39l-.446.225a.489.489 0 00.03.052l.416-.278zm-2.793-6.623a.5.5 0 00-.892.452l.892-.452zm17.769 12.528l.016-21.462h-1l-.016 21.461h1zm.016-21.469c-.02-1.516-1.274-2.754-2.797-2.734l.014 1a1.776 1.776 0 011.783 1.747l1-.013zm-2.797-2.734c-1.516.02-2.754 1.274-2.734 2.796l1-.013a1.776 1.776 0 011.748-1.783l-.014-1zm-2.734 2.794l.115 12.383 1-.009-.115-12.383-1 .01zm.261 12.025l-12.4 12.4.708.707 12.4-12.4-.708-.707zM38.668 37.144v15.262h1V37.144h-1zm.5 15.762h8.588v-1h-8.588v1zm9.088-.5v-8.179h-1v8.18h1zm-.107-7.87l8.212-10.453-.786-.617-8.212 10.452.786.618zm.334-15.983a1.771 1.771 0 012.5.026l.713-.7a2.771 2.771 0 00-3.913-.04l.7.714zm2.5.026c.675.688.675 1.811-.027 2.5l.7.713a2.771 2.771 0 00.04-3.913l-.713.7zm-.027 2.5L45.1 36.837l.701.713 5.856-5.758-.7-.713zM1.751 33.774l-.017-21.462-1 .001.017 21.462 1-.001zm-.017-21.455c.013-.97.82-1.76 1.784-1.747l.013-1C2.01 9.552.754 10.79.734 12.306l1 .013zm1.784-1.747c.97.012 1.76.82 1.748 1.783l1 .013c.02-1.522-1.219-2.776-2.735-2.796l-.013 1zm1.748 1.785L5.15 24.74l1 .01.115-12.384-1-.009zm.031 12.741l12.4 12.4.707-.707-12.4-12.4-.707.707zM17.55 37.144v15.262h1V37.144h-1zm.5 14.762H9.462v1h8.588v-1zm-8.088.5v-8.179h-1v8.18h1zm-.106-8.488L1.644 33.465l-.786.618 8.211 10.453.787-.618zm-.42-16.078a2.771 2.771 0 00-3.913.039l.714.7a1.771 1.771 0 012.499-.026l.7-.713zm-3.913.039a2.771 2.771 0 00.04 3.913l.7-.714a1.771 1.771 0 01-.026-2.499l-.714-.7zm.04 3.913l5.855 5.758.701-.713-5.856-5.758-.7.713zm22.82-16.143l-3.189 1.685.467.884 3.19-1.684-.467-.885zm-2.462 2.211l.605-3.55-.986-.167-.605 3.55.986.167zm.46-3.991l-2.567-2.503-.698.716 2.568 2.503.698-.716zm-2.843-1.65l3.55-.524-.147-.99-3.55.524.147.99zm3.924-.795l1.603-3.206-.895-.447-1.603 3.206.895.447zm.707-3.208l1.587 3.206.896-.443-1.587-3.206-.896.443zm1.962 3.48l3.55.523.146-.99-3.55-.523-.146.99zm3.274-.33l-2.568 2.503.698.716 2.568-2.503-.698-.716zm-2.712 2.945l.605 3.55.986-.169-.605-3.55-.986.169zm1.332 3.024l-3.173-1.685-.47.883 3.174 1.685.47-.883zM28.635.46c-.963 0-1.76.446-2.36.761l.466.885c.644-.339 1.22-.646 1.893-.646v-1zm-2.368.766c-.334.183-.599.32-.816.383l.282.96c.339-.1.696-.291 1.016-.467l-.482-.876zm-.784.375c-.242.054-.554.07-.959.087l.042.999c.38-.016.788-.033 1.134-.11l-.217-.976zm-.95.086c-.678.016-1.569.045-2.379.508l.496.868c.564-.322 1.21-.36 1.907-.376l-.024-1zm-2.382.51c-.829.481-1.294 1.244-1.637 1.832l.864.504c.344-.59.697-1.136 1.275-1.472l-.502-.864zm-1.634 1.827c-.2.334-.367.592-.53.754l.708.707c.262-.263.488-.627.68-.947l-.858-.514zm-.53.754c-.163.164-.403.301-.77.54l.546.838c.288-.187.67-.41.931-.67l-.707-.708zm-.757.532c-.58.354-1.343.82-1.824 1.648l.864.502c.338-.58.883-.93 1.481-1.297l-.521-.853zm-1.826 1.651c-.463.81-.491 1.7-.507 2.38l1 .023c.016-.696.053-1.343.375-1.907l-.868-.496zm-.507 2.37c-.017.407-.033.734-.087.976l.977.217c.077-.347.093-.773.11-1.151l-1-.042zm-.085.97c-.046.194-.18.43-.377.79l.876.481c.163-.295.389-.68.474-1.042l-.973-.23zm-.379.793c-.32.591-.763 1.401-.763 2.364h1c0-.674.308-1.27.643-1.889l-.88-.476zm-.763 2.364c0 .962.443 1.772.763 2.364l.88-.475c-.335-.62-.643-1.216-.643-1.89h-1zm.765 2.367c.18.326.32.615.386.825l.955-.299c-.098-.314-.284-.679-.465-1.008l-.876.482zm.382.81c.061.221.08.536.08.929h1c0-.393-.015-.83-.117-1.197l-.963.267zm.08.94c.016.679.044 1.57.507 2.38l.868-.496c-.322-.564-.359-1.211-.376-1.907l-1 .024zm.507 2.38c.082.143.181.282.28.399l.767-.64a1.84 1.84 0 01-.179-.255l-.868.496zm.268.385c.457.59 1.08.963 1.55 1.261l.536-.845c-.51-.323-.967-.604-1.295-1.028l-.791.612zm1.561 1.268c.24.144.442.275.608.413l.64-.768a5.81 5.81 0 00-.733-.503l-.515.858zm.628.429c.034.025.06.05.11.1l.707-.707c-.048-.047-.12-.12-.217-.193l-.6.8zm.11.1c.133.133.263.338.457.638l.84-.543c-.166-.256-.363-.575-.59-.802l-.707.708zm.461.644c-.002-.003-.002-.004 0 .001a.633.633 0 01.007.012l.011.02c.014.027.055.103.126.174l.707-.707c.021.021.035.04.04.049.007.008.009.013.005.006l-.008-.014-.012-.024a1.002 1.002 0 00-.044-.072l-.832.555zm.071.114c.354.58.82 1.343 1.648 1.824l.502-.864c-.58-.338-.93-.883-1.296-1.481l-.854.521zm1.651 1.826c.807.46 1.69.507 2.38.524l.023-1c-.685-.016-1.34-.068-1.907-.392l-.496.868zm2.37.523c.386.017.698.048.934.113l.268-.963c-.353-.098-.761-.132-1.16-.149l-.042 1zm.927.111c.082.025.19.075.336.157.072.04.145.084.226.131.08.047.166.097.254.145l.482-.876a9.833 9.833 0 01-.23-.132c-.078-.046-.161-.094-.243-.14a2.7 2.7 0 00-.543-.244l-.282.96zm.82.435c.542.294 1.37.845 2.363.845v-1c-.674 0-1.221-.364-1.888-.725l-.476.88zm2.363.845c.994 0 1.822-.552 2.365-.845l-.476-.88c-.667.36-1.214.725-1.889.725v1zm2.368-.847c.088-.048.174-.098.254-.145.08-.047.154-.09.226-.13a1.76 1.76 0 01.336-.158l-.282-.959a2.699 2.699 0 00-.543.244c-.082.046-.165.095-.242.14l-.231.132.482.876zm.809-.43c.236-.066.547-.098.934-.114l-.042-.999c-.399.017-.807.05-1.16.149l.268.963zm.925-.113c.689-.017 1.572-.063 2.379-.524l-.496-.868c-.568.324-1.222.376-1.907.392l.024 1zm2.382-.526c.828-.481 1.297-1.266 1.644-1.818l-.846-.532c-.372.592-.721 1.149-1.3 1.486l.502.864zm1.637-1.807a1.04 1.04 0 00.056-.096l.008-.014-.004.006a.33.33 0 01-.04.05l-.708-.708c-.07.071-.112.147-.126.174l-.011.02-.007.012c-.003.005-.002.005 0 .001l.832.555zm.086-.137c.194-.3.324-.505.457-.637l-.707-.708c-.227.227-.424.546-.59.802l.84.543zm.457-.637c.008-.009.021-.02.053-.048.026-.022.07-.059.11-.1l-.707-.707c-.008.009-.021.02-.053.048-.026.021-.07.059-.11.1l.707.707zm.11-.101c.181-.136.392-.271.648-.442l-.555-.832c-.234.156-.482.316-.693.474l.6.8zm.628-.43c.498-.298 1.087-.68 1.555-1.26l-.779-.627c-.35.434-.807.74-1.29 1.03l.514.858zm1.55-1.253c.098-.117.197-.256.279-.4l-.868-.495a1.846 1.846 0 01-.18.255l.769.64zm.279-.4c.463-.81.491-1.718.507-2.378l-1-.024c-.016.68-.053 1.343-.375 1.907l.868.496zm.507-2.37c.018-.43.018-.713.082-.956l-.967-.255c-.1.378-.1.815-.114 1.17l.999.041zm.085-.97c.046-.193.18-.43.377-.789l-.876-.482c-.163.296-.389.68-.474 1.043l.973.229zm.379-.792c.32-.591.763-1.402.763-2.364h-1c0 .673-.308 1.27-.643 1.889l.88.475zm.763-2.364c0-.98-.444-1.775-.763-2.364l-.88.475c.335.62.643 1.2.643 1.889h1zm-.765-2.368c-.18-.325-.32-.614-.386-.824l-.955.298c.098.314.284.68.465 1.008l.876-.482zm-.382-.809c-.061-.222-.08-.536-.08-.929h-1c0 .392.015.83.117 1.197l.963-.268zm-.08-.94c-.016-.68-.044-1.57-.507-2.38l-.868.496c.322.564.359 1.21.376 1.907l1-.024zm-.509-2.383c-.48-.827-1.244-1.294-1.824-1.648l-.521.853c.598.366 1.143.718 1.48 1.297l.865-.502zm-1.827-1.65c-.334-.2-.592-.367-.755-.53l-.707.707c.263.263.627.488.947.68l.515-.857zm-.755-.53c-.163-.164-.3-.403-.54-.77l-.837.545c.187.288.409.67.67.932l.708-.707zm-.532-.758c-.354-.58-.82-1.343-1.647-1.823l-.503.864c.58.337.931.882 1.297 1.48l.853-.52zm-1.646-1.823c-.796-.466-1.69-.494-2.35-.51l-.025 1c.681.017 1.325.054 1.87.373l.505-.863zm-2.342-.51c-.405-.016-.717-.032-.96-.086l-.216.976c.346.077.754.094 1.134.11l.042-1zm-.953-.085c-.194-.045-.43-.179-.79-.376l-.482.876c.296.162.68.389 1.043.474l.229-.974zm-.793-.378C30.425.905 29.63.46 28.651.46v1c.689 0 1.268.308 1.889.644l.475-.88zm-2.38 20.226c4.35 0 7.877-3.546 7.877-7.894h-1c0 3.798-3.082 6.894-6.878 6.894v1zm7.877-7.894c0-4.348-3.527-7.894-7.878-7.894v1c3.796 0 6.878 3.096 6.878 6.894h1zm-7.878-7.894c-4.35 0-7.877 3.546-7.877 7.894h1c0-3.798 3.082-6.894 6.877-6.894v-1zm-7.877 7.894c0 4.348 3.544 7.894 7.877 7.894v-1c-3.78 0-6.877-3.096-6.877-6.894h-1zm4.356 11.077l-3.271 6.445.891.453 3.272-6.445-.892-.453zm-3.277 6.457c-.05.107-.164.189-.35.189v1c.501 0 1.01-.245 1.253-.76l-.903-.429zm-.35.189h-.033v1h.033v-1zm-.033 0a.373.373 0 01-.345-.229l-.912.41c.228.507.717.819 1.257.819v-1zm-.344-.227l-1.162-2.617-.914.406 1.162 2.617.914-.405zm-1.727-2.902l-2.797.622.217.976 2.797-.622-.217-.976zm-2.81.625c.005-.002.004 0-.008 0l-.067.001v1c.056 0 .183.002.317-.031l-.242-.97zm-.075.001c-.225 0-.4-.18-.4-.4h-1c0 .761.61 1.4 1.4 1.4v-1zm-.4-.4a.42.42 0 01.063-.23l-.832-.554a1.417 1.417 0 00-.23.784h1zm.094-.281l3.337-6.609-.892-.45-3.338 6.608.893.45zm15.024-3.01l3.271 6.446.892-.453-3.272-6.445-.891.453zm3.265 6.433c.245.516.753.76 1.254.76v-1c-.186 0-.3-.081-.35-.188l-.904.428zm1.254.76h.032v-1h-.032v1zm.032 0c.541 0 1.03-.311 1.258-.817l-.912-.41a.373.373 0 01-.346.228v1zm1.26-.82l1.16-2.617-.913-.406-1.162 2.617.914.406zm.596-2.332l2.813.622.216-.977-2.814-.621-.215.976zm2.8.619c.135.033.261.031.317.031v-1l-.067-.001c-.012 0-.013-.002-.008 0l-.242.97zm.317.031c.767 0 1.4-.633 1.4-1.4h-1c0 .215-.185.4-.4.4v1zm1.4-1.4c0-.267-.072-.546-.231-.784l-.832.555a.42.42 0 01.063.23h1zm-.201-.733l-3.239-6.396-.892.452 3.239 6.396.892-.452z" fill="#FFED00"/></svg><svg fill="none" viewBox="0 0 50 58" id="char05" xmlns="http://www.w3.org/2000/svg"><path d="M12.588 37.213v20.193m2.398-20.194v20.194m19.41-20.194v20.194m2.399-20.194v20.194M5.028 37.217v4.919a1.694 1.694 0 003.387 0v-4.919M40.166 1.406h-8.749v16.887h8.75M31.284 5.385c-4.554.205-13.66 3.075-13.66 12.908V36.95m13.792-18.605c0 3.876-.056 8.016-3.099 10.563m-3.864-2.859v5.704a1.851 1.851 0 103.703 0v-5.704m-8.976-9.196v3.144a1.851 1.851 0 103.703 0v-3.144M19.18 31.185v2.684a1.58 1.58 0 103.162 0v-2.684M.734 36.96h47.914l-2.137 16.946a4 4 0 01-3.968 3.5H6.913a4 4 0 01-3.966-3.483L.734 36.96z" stroke="#FFED00"/></svg><svg fill="none" viewBox="0 0 37 58" id="char06" xmlns="http://www.w3.org/2000/svg"><path stroke="#FFED00" d="M3.748 5.145h9.53v23.57h-9.53z"/><path d="M3.248 8.155h13.91a5.265 5.265 0 015.265 5.265v0a5.265 5.265 0 01-5.265 5.265h-3.759M5.719 28.884v3.35h5.586v-3.35M11.305 4.645v-3.35H5.719v3.35M29.03 54.248v-3.35H8.793v3.35" stroke="#FFED00"/><path d="M18.872 13.42a1.715 1.715 0 11-3.429 0 1.715 1.715 0 013.43 0zM22.422 14.327c6.174 2.493 10.53 8.543 10.53 15.61 0 7.073-4.364 13.128-10.547 15.616m-6.67-26.868c6.215 0 11.253 5.037 11.253 11.252 0 6.214-5.038 11.252-11.252 11.252H1.362v2.761h14.022m.018-2.688v9.57m7.02-11.712v11.712m-21.06 2.952h35.1v3.51h-35.1v-3.51z" stroke="#FFED00"/></svg><svg fill="none" viewBox="0 0 64 63" id="char07" xmlns="http://www.w3.org/2000/svg"><path d="M41.655 19.948c-.874 0-1.573-.271-2.096-.816-.512-.544-.768-1.285-.768-2.224 0-.928.256-1.664.768-2.208.523-.543 1.222-.816 2.096-.816.864 0 1.552.272 2.064.816.523.545.784 1.28.784 2.209 0 .928-.261 1.669-.784 2.224-.512.544-1.2.816-2.064.816zm-6.064 4.448v-10.32h1.424v11.2h-2.48l-4.992-10.32v10.32H28.12v-11.2h2.48l4.992 10.32zm7.264-8.976c-.288-.383-.688-.575-1.2-.575s-.917.186-1.216.56c-.288.373-.432.874-.432 1.504 0 .629.144 1.136.432 1.52.299.373.704.56 1.216.56s.912-.187 1.2-.56c.299-.384.448-.891.448-1.52 0-.62-.15-1.115-.448-1.488zM39 21.885v-.944h5.296v.944H39zM52.714 21.5h1.696v1.152h-1.696v2.624h-1.408v-2.623h-5.568v-1.056l4.672-7.52h2.304V21.5zm-5.584 0h4.176v-6.655L47.13 21.5zM56.569 23.933c-.715-1.035-1.072-2.454-1.072-4.256 0-1.803.357-3.216 1.072-4.24.714-1.035 1.728-1.553 3.04-1.553 1.301 0 2.309.518 3.024 1.553.714 1.024 1.072 2.437 1.072 4.24 0 1.802-.358 3.22-1.072 4.256-.715 1.023-1.723 1.535-3.024 1.535-1.312 0-2.326-.512-3.04-1.535zm1.04-7.665c-.47.822-.704 1.958-.704 3.409 0 1.45.234 2.586.704 3.407.48.822 1.146 1.233 2 1.233.842 0 1.498-.411 1.968-1.233.48-.82.72-1.957.72-3.407 0-1.451-.24-2.587-.72-3.409-.47-.82-1.126-1.232-1.968-1.232-.854 0-1.52.411-2 1.232z" fill="#FFED00"/><path d="M6.553 36.825v11.08m5.95-11.08v12.264m43.503-12.264v11.24m-5.949-11.24v12.237M28.305 36.825v12.662m5.95-12.662V49.43M8.37 53.676l4.953 2.477a6 6 0 005.366 0l2.27-1.135a6 6 0 015.367 0l4.953 2.476m15.273 0l4.953-2.476a6 6 0 015.366 0l4.953 2.476m-40.077-41.12c-.555 5.01-4.704 8.903-9.741 8.903s-9.187-3.893-9.742-8.904M12.07 6.19v19.088M7.59 11.142h8.957M.734 19.67l1.276-4.06 3.26 2.87m18.133 1.19l-1.275-4.06-3.26 2.87M.734 29.777h61.091v7.464H.735v-7.464zM61.825 50.97v10.806H.735V50.97l5.034-2.517a5.818 5.818 0 015.204 0l2.432 1.216a5.818 5.818 0 005.204 0l2.432-1.216a5.818 5.818 0 015.204 0l2.433 1.216a5.818 5.818 0 005.204 0l2.432-1.216a5.818 5.818 0 015.204 0l2.433 1.216a5.818 5.818 0 005.203 0l2.433-1.216a5.818 5.818 0 015.204 0l5.034 2.517zM14.505 3.773c0 1.38-1.091 2.497-2.436 2.497-1.346 0-2.436-1.118-2.436-2.497 0-1.379 1.09-2.496 2.436-2.496 1.345 0 2.435 1.117 2.435 2.496z" stroke="#FFED00"/></svg><svg fill="none" viewBox="0 0 63 63" id="char08" xmlns="http://www.w3.org/2000/svg"><path d="M41.655 19.948c-.874 0-1.573-.271-2.096-.816-.512-.544-.768-1.285-.768-2.224 0-.928.256-1.664.768-2.208.523-.543 1.222-.816 2.096-.816.864 0 1.552.272 2.064.816.523.545.784 1.28.784 2.209 0 .928-.261 1.669-.784 2.224-.512.544-1.2.816-2.064.816zm-6.064 4.448v-10.32h1.424v11.2h-2.48l-4.992-10.32v10.32H28.12v-11.2h2.48l4.992 10.32zm7.264-8.976c-.288-.383-.688-.575-1.2-.575s-.917.186-1.216.56c-.288.373-.432.874-.432 1.504 0 .629.144 1.136.432 1.52.299.373.704.56 1.216.56s.912-.187 1.2-.56c.299-.384.448-.891.448-1.52 0-.62-.15-1.115-.448-1.488zM39 21.885v-.944h5.296v.944H39zM52.714 21.5h1.696v1.152h-1.696v2.624h-1.408v-2.623h-5.568v-1.056l4.672-7.52h2.304V21.5zm-5.584 0h4.176v-6.655L47.13 21.5zM57.694 14.076h1.12v11.2h-1.408V15.71l-2.368 1.648v-1.409l2.656-1.872z" fill="#FFED00"/><path d="M6.553 36.825v11.08m5.95-11.08v12.264m43.503-12.264v11.24m-5.949-11.24v12.237M28.305 36.825v12.662m5.95-12.662V49.43M8.37 53.676l4.953 2.477a6 6 0 005.366 0l2.27-1.135a6 6 0 015.367 0l4.953 2.476m15.273 0l4.953-2.476a6 6 0 015.366 0l4.953 2.476m-40.077-41.12c-.555 5.01-4.704 8.903-9.741 8.903s-9.187-3.893-9.742-8.904M12.07 6.19v19.088M7.59 11.142h8.957M.734 19.67l1.276-4.06 3.26 2.87m18.133 1.19l-1.275-4.06-3.26 2.87M.734 29.777h61.091v7.464H.735v-7.464zM61.825 50.97v10.806H.735V50.97l5.034-2.517a5.818 5.818 0 015.204 0l2.432 1.216a5.818 5.818 0 005.204 0l2.432-1.216a5.818 5.818 0 015.204 0l2.433 1.216a5.818 5.818 0 005.204 0l2.432-1.216a5.818 5.818 0 015.204 0l2.433 1.216a5.818 5.818 0 005.203 0l2.433-1.216a5.818 5.818 0 015.204 0l5.034 2.517zM14.505 3.773c0 1.38-1.091 2.497-2.436 2.497-1.346 0-2.436-1.118-2.436-2.497 0-1.379 1.09-2.496 2.436-2.496 1.345 0 2.435 1.117 2.435 2.496z" stroke="#FFED00"/></svg><svg fill="none" viewBox="0 0 53 42" id="char09" xmlns="http://www.w3.org/2000/svg"><path d="M28.35 13.004c-.656 0-1.18-.204-1.572-.612-.384-.408-.576-.964-.576-1.668 0-.696.192-1.248.576-1.656.392-.408.916-.612 1.572-.612.648 0 1.164.204 1.548.612.392.408.588.96.588 1.656s-.196 1.252-.588 1.668c-.384.408-.9.612-1.548.612zm-4.548 3.336V8.6h1.068V17h-1.86l-3.744-7.74V17h-1.068V8.6h1.86l3.744 7.74zm5.448-6.732c-.216-.288-.516-.432-.9-.432s-.688.14-.912.42c-.216.28-.324.656-.324 1.128 0 .472.108.852.324 1.14.224.28.528.42.912.42s.684-.14.9-.42c.224-.288.336-.668.336-1.14 0-.464-.112-.836-.336-1.116zm-2.892 4.848v-.708h3.972v.708h-3.972zm10.046-.288h1.272v.864h-1.272V17h-1.056v-1.968h-4.176v-.792l3.504-5.64h1.728v5.568zm-4.188 0h3.132V9.176l-3.132 4.992zm6.84 1.824c-.536-.776-.804-1.84-.804-3.192s.268-2.412.804-3.18c.536-.776 1.296-1.164 2.28-1.164.976 0 1.732.388 2.268 1.164.536.768.804 1.828.804 3.18s-.268 2.416-.804 3.192c-.536.768-1.292 1.152-2.268 1.152-.984 0-1.744-.384-2.28-1.152zm.78-5.748c-.352.616-.528 1.468-.528 2.556s.176 1.94.528 2.556c.36.616.86.924 1.5.924.632 0 1.124-.308 1.476-.924.36-.616.54-1.468.54-2.556s-.18-1.94-.54-2.556c-.352-.616-.844-.924-1.476-.924-.64 0-1.14.308-1.5.924zm5.416 5.112c0-1.128.823-1.772 2.471-1.932l1.873-.18v-.6c0-.392-.128-.708-.384-.948-.248-.248-.617-.368-1.105-.36-.447 0-.816.104-1.103.312-.288.2-.444.504-.468.912h-.973c.024-.68.268-1.18.732-1.5.465-.328 1.069-.492 1.813-.492.824 0 1.452.196 1.884.588.431.392.648.956.648 1.692V17h-.96v-1.296c-.2.456-.505.812-.913 1.068-.408.248-.904.372-1.488.372-.672 0-1.18-.164-1.524-.492-.336-.336-.504-.768-.504-1.296zm1.043-.036a1 1 0 00.325.768c.216.2.54.3.972.3.616 0 1.104-.192 1.464-.576.36-.392.54-.896.54-1.512v-.384l-1.752.18c-1.032.096-1.549.504-1.549 1.224z" fill="#FFED00"/><path d="M9.847 24.503v7.326m3.933-7.326v8.109m28.763-8.109v7.431m-3.933-7.43v8.09m-14.382-8.09v8.371m3.934-8.372v8.334M11.05 35.645l2.524 1.262c1.59.795 3.46.795 5.049 0a5.645 5.645 0 015.049 0l2.524 1.263m10.098 0l2.493-1.247a5.714 5.714 0 015.111 0l2.494 1.247M6 19.843h40.39v4.935H6v-4.935zm40.39 14.013V41H6v-7.144l3.329-1.664a3.847 3.847 0 013.44 0l1.608.804a3.847 3.847 0 003.44 0l1.61-.804a3.847 3.847 0 013.44 0l1.608.804a3.847 3.847 0 003.44 0l1.609-.804a3.847 3.847 0 013.44 0l1.609.804a3.847 3.847 0 003.44 0l1.608-.804a3.847 3.847 0 013.441 0l3.329 1.664zM14.894 10.981c-.367 3.313-3.11 5.887-6.44 5.887-3.33 0-6.074-2.574-6.442-5.887m6.482-6.733v12.62m-2.96-9.345h5.921M1 13.16l.843-2.684 2.155 1.897m11.99.787l-.843-2.684-2.155 1.897M10.105 2.65c0 .911-.721 1.65-1.61 1.65-.89 0-1.611-.739-1.611-1.65 0-.912.72-1.651 1.61-1.651.89 0 1.61.739 1.61 1.65z" stroke="#FFED00"/></svg><svg viewBox="0 -46 417.813 417" id="check" xmlns="http://www.w3.org/2000/svg"><path d="M159.988 318.582c-3.988 4.012-9.43 6.25-15.082 6.25s-11.094-2.238-15.082-6.25L9.375 198.113c-12.5-12.5-12.5-32.77 0-45.246l15.082-15.086c12.504-12.5 32.75-12.5 45.25 0l75.2 75.203L348.104 9.781c12.504-12.5 32.77-12.5 45.25 0l15.082 15.086c12.5 12.5 12.5 32.766 0 45.246zm0 0"/></svg><svg viewBox="0 0 18 18" id="close" xmlns="http://www.w3.org/2000/svg"><defs><path id="apa" d="M691.485 160.07l-1.414 1.415-7.071-7.071-7.071 7.071-1.414-1.414 7.07-7.071-7.07-7.071 1.414-1.415 7.07 7.071 7.072-7.07 1.414 1.414-7.07 7.07z"/></defs><use fill="#2e2e2e" xlink:href="#apa" transform="translate(-674 -144)"/></svg><svg fill="none" viewBox="0 0 38 10" id="close-eays" xmlns="http://www.w3.org/2000/svg"><path d="M37.035.627c-1.53 1.436-9.065 8.045-18 8.045-8.927 0-16.468-6.61-18-8.045" stroke="#fff"/></svg><svg fill="none" viewBox="0 0 28 28" id="close-form" xmlns="http://www.w3.org/2000/svg"><path d="M2.133 2.118l11.985 12m0 0l11.985 12m-11.985-12l11.985-12m-11.985 12l-11.985 12" stroke="#000" stroke-width="4"/></svg><svg fill="none" viewBox="0 0 32 15" id="down" xmlns="http://www.w3.org/2000/svg"><path d="M.43 1.114L15.58 13.99 30.82 1.114" stroke="#fff"/></svg><svg viewBox="0 0 479.058 479.058" id="envelope" xmlns="http://www.w3.org/2000/svg"><path d="M434.146 59.882H44.912C20.146 59.882 0 80.028 0 104.794v269.47c0 24.766 20.146 44.912 44.912 44.912h389.234c24.766 0 44.912-20.146 44.912-44.912v-269.47c0-24.766-20.146-44.912-44.912-44.912zm0 29.941c2.034 0 3.969.422 5.738 1.159L239.529 264.631 39.173 90.982a14.902 14.902 0 015.738-1.159zm0 299.411H44.912c-8.26 0-14.971-6.71-14.971-14.971V122.615l199.778 173.141c2.822 2.441 6.316 3.655 9.81 3.655s6.988-1.213 9.81-3.655l199.778-173.141v251.649c-.001 8.26-6.711 14.97-14.971 14.97z"/></svg><svg viewBox="0 0 12 24" id="fb" xmlns="http://www.w3.org/2000/svg"><path d="M7.772 23.928V13.045h3.33l.521-4.252H7.772V6.054c0-1.225.326-2.09 1.893-2.09h2.024V.144C11.362.072 10.122 0 8.686 0 5.748 0 3.724 2.018 3.724 5.622v3.17H.394v4.253h3.33V24h4.048v-.072z"/></svg><svg fill="none" viewBox="0 0 38 38" id="header-fig1" xmlns="http://www.w3.org/2000/svg"><path d="M1.273 4.8l36-3.967v36h-36V4.8z"/></svg><svg fill="none" viewBox="0 0 38 38" id="header-fig2" xmlns="http://www.w3.org/2000/svg"><path d="M37.273 4.8l-36-3.967v36h36V4.8z"/></svg><svg fill="none" viewBox="0 0 139 50" id="hover-line" xmlns="http://www.w3.org/2000/svg"><path d="M6.965 15H1.023V.5h136.942V49h-7.5" stroke="#004687"/></svg><svg viewBox="0 0 25 25" id="insta" xmlns="http://www.w3.org/2000/svg"><path d="M12.879 3.123c3.2 0 3.58.01 4.85.07 3.25.15 4.77 1.69 4.92 4.92.06 1.27.07 1.65.07 4.85 0 3.2-.01 3.58-.07 4.85-.15 3.23-1.66 4.77-4.92 4.92-1.27.06-1.64.07-4.85.07-3.2 0-3.58-.01-4.85-.07-3.26-.15-4.77-1.7-4.92-4.92-.06-1.27-.07-1.64-.07-4.85 0-3.2.01-3.58.07-4.85.15-3.23 1.67-4.77 4.92-4.92 1.27-.05 1.65-.07 4.85-.07zm0-2.16c-3.26 0-3.67.01-4.95.07-4.35.2-6.78 2.62-6.98 6.98-.06 1.28-.07 1.69-.07 4.95 0 3.26.01 3.67.07 4.95.2 4.36 2.62 6.78 6.98 6.98 1.28.06 1.69.07 4.95.07 3.26 0 3.67-.01 4.95-.07 4.35-.2 6.78-2.62 6.98-6.98.06-1.28.07-1.69.07-4.95 0-3.26-.01-3.67-.07-4.95-.2-4.35-2.62-6.78-6.98-6.98-1.28-.06-1.69-.07-4.95-.07zm0 5.84c-3.4 0-6.16 2.76-6.16 6.16 0 3.4 2.76 6.16 6.16 6.16 3.4 0 6.16-2.76 6.16-6.16 0-3.4-2.76-6.16-6.16-6.16zm0 10.16c-2.21 0-4-1.79-4-4s1.79-4 4-4 4 1.79 4 4-1.79 4-4 4zm6.41-11.85a1.44 1.44 0 100 2.88 1.44 1.44 0 000-2.88z"/></svg><svg fill="none" viewBox="0 0 38 38" id="lang1" xmlns="http://www.w3.org/2000/svg"><path d="M1.273 5.358l36-3.965v36h-36V5.358z" stroke="#000"/></svg><svg viewBox="0 0 84 48" id="logo" xmlns="http://www.w3.org/2000/svg"><path d="M.274.51h7.617v15.398h.102c.753-1.346 1.558-2.587 2.373-3.829L18.023.51h9.47L16.292 15.334l11.761 19.988h-8.92l-8.37-15.033-2.872 3.704v11.329H.274V.51z"/><path d="M52.35 34.426a21.922 21.922 0 01-8.676 1.502c-11.74 0-17.79-7.542-17.79-17.453C25.885 6.562 34.155 0 44.439 0c3.982 0 7.006.772 8.36 1.544L51.19 7.75a15.785 15.785 0 00-6.456-1.294c-6.048 0-10.783 3.766-10.783 11.476 0 6.968 4.073 11.36 10.834 11.36 2.201.028 4.389-.353 6.456-1.126l1.11 6.259zM56.17.511h7.616V15.91h.102c.753-1.346 1.558-2.587 2.362-3.829L73.918.511h9.48l-11.2 14.824 11.75 19.988h-8.92l-8.37-15.033-2.872 3.704v11.33H56.17V.51zM.224 43.2c.2-.185.431-.33.682-.428.324-.134.67-.198 1.019-.188.49-.03.974.138 1.344.47.133.135.237.298.303.478.067.18.096.373.084.565.01.24-.062.475-.203.667-.118.176-.285.31-.48.386.233.064.447.186.622.355.226.249.347.579.336.918.004.39-.143.764-.407 1.044-.21.191-.455.336-.721.426a1.99 1.99 0 01-.827.096 2.832 2.832 0 01-1.202-.23A2.829 2.829 0 010 47.227l.652-.866c.143.172.316.317.51.428.211.107.445.16.681.156a1 1 0 00.581-.156.549.549 0 00.244-.48.554.554 0 00-.183-.407 1.577 1.577 0 00-.957-.188h-.184v-.96h.174c.289.032.58-.038.824-.198a.491.491 0 00.136-.385.498.498 0 00-.197-.356.86.86 0 00-.519-.136c-.197 0-.391.043-.57.125a1.934 1.934 0 00-.449.313L.224 43.2zM7.678 43.732h-1.68v1.001h1.599v1.002H5.998v1.148h1.68v1.001H4.837V42.73h2.841v1.002zM10.468 42.772c.476-.035.946.118 1.314.428.17.157.302.351.389.568.086.216.124.45.11.684a1.664 1.664 0 01-.438 1.21 1.653 1.653 0 01-1.273.449h-.713v1.774h-1.16v-5.113h1.771zm-.61 2.369h.417a.851.851 0 00.621-.188.773.773 0 00.183-.512.682.682 0 00-.183-.5.892.892 0 00-.642-.199h-.397v1.399zM14.236 44.691h2.006V42.73h1.161v5.154h-1.16v-2.19h-2.007v2.19h-1.161V42.73h1.16v1.962zM23.024 43.366c.249.254.446.555.58.888a2.79 2.79 0 01-.58 2.983 2.65 2.65 0 01-.892.582 2.6 2.6 0 01-1.043.18 2.712 2.712 0 01-1.965-.762 2.632 2.632 0 01-.59-.871 2.684 2.684 0 01-.205-1.039c.007-.73.288-1.428.784-1.95a2.64 2.64 0 01.906-.59 2.59 2.59 0 011.06-.172c.355-.013.709.047 1.041.176.332.129.636.324.894.575h.01zm-3.065.782c-.291.314-.453.73-.453 1.164 0 .433.162.849.453 1.163.298.28.689.437 1.095.437.405 0 .796-.156 1.094-.437.149-.148.265-.327.34-.525.076-.198.11-.41.098-.623a1.623 1.623 0 00-.438-1.158c-.3-.282-.692-.439-1.1-.438a1.538 1.538 0 00-1.1.438M26.293 42.772c.457-.03.909.111 1.273.396a1.328 1.328 0 01.366.97 1.18 1.18 0 01-.173.658.852.852 0 01-.418.375c.26.045.502.169.693.355a1.257 1.257 0 01.326.918 1.395 1.395 0 01-.397 1.044c-.37.317-.843.478-1.324.448h-1.884v-5.164h1.538zm-.398 2.086h.194a.999.999 0 00.58-.146.582.582 0 00.204-.459.52.52 0 00-.194-.438.909.909 0 00-.6-.136h-.184v1.18zm0 2.087h.275c.304.036.61-.038.866-.209a.596.596 0 00.163-.438.568.568 0 00-.153-.407 1.279 1.279 0 00-.835-.198h-.316v1.252zM33.747 43.366c.248.254.446.555.58.888a2.79 2.79 0 01-.58 2.983 2.65 2.65 0 01-.892.582 2.6 2.6 0 01-1.043.18 2.712 2.712 0 01-1.966-.762 2.633 2.633 0 01-.583-.873 2.685 2.685 0 01-.2-1.037c.006-.73.287-1.428.783-1.95a2.64 2.64 0 01.906-.59 2.59 2.59 0 011.06-.172c.355-.013.709.047 1.041.176.332.129.636.324.894.575zm-3.055.782c-.291.314-.453.73-.453 1.164 0 .433.162.849.453 1.163.298.28.689.437 1.095.437.405 0 .796-.156 1.094-.437.149-.148.265-.327.34-.525.076-.198.11-.41.098-.623a1.623 1.623 0 00-.438-1.158c-.3-.282-.692-.439-1.1-.438a1.538 1.538 0 00-1.1.438M36.659 42.771v3.37l2.322-3.432h1.018v5.216h-1.171v-3.422l-2.332 3.484h-1.018v-5.216h1.181zm2.586-1.346c-.121.281-.32.52-.57.689-.283.16-.604.236-.926.219a1.658 1.658 0 01-.917-.22 1.544 1.544 0 01-.58-.688l.804-.344a.846.846 0 00.245.365.79.79 0 00.458.125.73.73 0 00.448-.125.92.92 0 00.244-.365l.794.344zM46.577 43.732v4.152h-1.161v-4.152h-1.09V42.73h3.34v1.002h-1.09zM51.2 43.732h-1.68v1.001h1.589v1.002H49.52v1.148h1.68v1.001H48.36V42.73H51.2v1.002zM53.97 42.772c.478-.033.95.12 1.324.428.165.159.293.354.376.57.083.217.118.45.102.681a1.707 1.707 0 01-.417 1.21 1.673 1.673 0 01-1.283.449h-.713v1.774h-1.151v-5.112h1.762zm-.611 2.368h.417a.852.852 0 00.621-.188.73.73 0 00.194-.51.682.682 0 00-.194-.502.891.891 0 00-.641-.198h-.397v1.398zM56.362 47.884l.805-5.154h.967l1.243 3.078 1.252-3.078h.968l.805 5.154H61.24l-.398-3.078-1.263 3.078h-.407l-1.253-3.078-.397 3.078h-1.16zM64.499 42.73v3.37l2.332-3.432h1.018v5.217h-1.16v-3.38l-2.323 3.442h-1.029V42.73H64.5zM70.181 44.691h2.007V42.73h1.16v5.154h-1.16v-2.19H70.18v2.19h-1.15V42.73h1.15v1.962zM77.472 46.946h-1.894l-.387.97h-1.202l2.037-5.154h1.018l2.037 5.154H77.85l-.377-.97zm-.316-.918l-.62-1.732-.622 1.732h1.242zM84 42.772v5.113h-1.161V43.71h-1.375v1.774a2.976 2.976 0 01-.499 2.024 1.51 1.51 0 01-1.13.417c-.137 0-.274-.015-.408-.041V46.84c.09.04.188.057.285.052a.662.662 0 00.459-.167c.189-.311.271-.678.234-1.043v-2.911H84z"/></svg><svg fill="none" viewBox="0 0 24 36" id="lok" xmlns="http://www.w3.org/2000/svg"><path d="M1.191 12.18c0-6.057 4.892-10.95 10.95-10.95 6.061 0 11.074 4.897 11.193 10.955-.001 1.443-.633 3.52-1.642 5.887-1.002 2.35-2.347 4.92-3.713 7.32a131.466 131.466 0 01-3.814 6.275c-.535.827-.99 1.509-1.327 1.999-.169.245-.306.44-.408.58-.09.123-.136.182-.15.2l-.005.007-.012.012-.012-.012-.354.353.354-.353-.005-.006a5.97 5.97 0 01-.15-.2c-.102-.14-.24-.336-.408-.581a88.82 88.82 0 01-1.327-1.999 131.509 131.509 0 01-3.815-6.274c-1.365-2.401-2.71-4.971-3.712-7.321-1.01-2.37-1.643-4.448-1.643-5.892z" stroke="#000"/><circle cx="12.262" cy="12.258" r="4.883" stroke="#000" stroke-width="3.5"/></svg><svg fill="none" viewBox="0 0 32 24" id="mess" xmlns="http://www.w3.org/2000/svg"><path d="M2 2h27.714v20H2z"/><path d="M1.715 2.572l14.15 11.142L30.002 2.572"/></svg><svg fill="none" viewBox="0 0 22 56" id="mob3" xmlns="http://www.w3.org/2000/svg"><mask id="bda" maskUnits="userSpaceOnUse" x="0" y="0" width="22" height="56"><path fill="#C4C4C4" d="M.943 0h21v56h-21z"/></mask><g mask="url(#bda)"><path d="M32.303 26.128l-.657.754.007.006.65-.76zm-.96 20.928l.607.795.001-.001-.608-.794zm-24 .192l-.618.786.005.005.613-.791zM2.159 36.88l-.069-.998-1.032.071.106 1.03.995-.103zm8.384-.576l.99-.137-.127-.925-.932.064.069.998zm14.72 5.44l.652.758.002-.002-.654-.756zm.256-11.2l-.696.718.696-.718zm-13.12-1.216h-1v1.231l1.205-.252-.205-.979zm0-5.952l-.697-.717-.303.294v.423h1zM23.855 12.24l.697.717 1.766-1.717h-2.463v1zm-19.392 0h-1v1h1v-1zm0-7.04v-1h-1v1h1zm30.528 0h1v-1h-1v1zm0 6.272l.658.753.342-.3v-.453h-1zm-12.8 11.2l-.659-.753-1.815 1.589 2.407.162.067-.998zm9.462 4.216c2.37 2.025 3.618 5.021 3.618 9.16h2c0-4.565-1.397-8.183-4.318-10.68l-1.3 1.52zm3.618 9.16c0 4.568-1.54 7.919-4.536 10.214l1.216 1.588c3.575-2.74 5.32-6.727 5.32-11.802h-2zm-4.535 10.213c-3.032 2.314-6.922 3.507-11.745 3.507v2c5.16 0 9.506-1.282 12.959-3.917l-1.214-1.59zm-11.745 3.507c-4.568 0-8.22-1.13-11.036-3.31l-1.225 1.58c3.243 2.513 7.357 3.73 12.26 3.73v-2zM7.96 46.462c-2.73-2.145-4.36-5.328-4.807-9.684l-1.99.204c.491 4.775 2.318 8.504 5.561 11.052l1.236-1.572zm-5.734-8.584l8.384-.576-.137-1.996-8.384.576.137 1.996zm7.325-1.437c.363 2.632 1.314 4.74 2.955 6.182 1.642 1.443 3.845 2.105 6.484 2.105v-2c-2.311 0-3.99-.576-5.164-1.607-1.175-1.033-1.974-2.637-2.293-4.954l-1.982.274zm9.439 8.287c2.81 0 5.157-.705 6.924-2.226l-1.305-1.516c-1.305 1.124-3.139 1.742-5.62 1.742v2zm6.926-2.228c1.835-1.587 2.714-3.783 2.714-6.452h-2c0 2.195-.7 3.796-2.022 4.94l1.308 1.512zm2.714-6.452c0-2.523-.78-4.635-2.416-6.222l-1.392 1.436c1.18 1.144 1.808 2.701 1.808 4.786h2zm-2.416-6.222c-1.663-1.612-4.07-2.33-7.032-2.33v2c2.67 0 4.486.647 5.64 1.766l1.392-1.436zm-7.032-2.33c-1.97 0-4.303.29-6.99.853l.411 1.958c2.605-.546 4.793-.811 6.579-.811v-2zm-5.784 1.832v-5.952h-2v5.952h2zm-.303-5.235l11.456-11.136-1.394-1.434-11.456 11.136 1.394 1.434zM23.855 11.24H4.463v2h19.392v-2zm-18.392 1V5.2h-2v7.04h2zm-1-6.04H34.99v-2H4.463v2zm29.528-1v6.272h2V5.2h-2zm.341 5.52l-12.8 11.2 1.317 1.505 12.8-11.2-1.317-1.506zM22.124 23.67c4.315.29 7.443 1.402 9.522 3.212l1.313-1.508c-2.528-2.201-6.142-3.393-10.701-3.7l-.134 1.996z" fill="#fff"/></g></svg><svg fill="none" viewBox="0 0 35 30" id="more" xmlns="http://www.w3.org/2000/svg"><path d="M32.576 15H.523m18.834 12.724l12.664-12.665L19.238 2.277" stroke="#000" stroke-width="4"/></svg><svg fill="none" viewBox="0 0 35 30" id="next" xmlns="http://www.w3.org/2000/svg"><path d="M32.255 15H.203m18.834 12.724l12.664-12.665L18.918 2.276" stroke="#fff" stroke-width="4"/></svg><svg fill="none" viewBox="0 0 33 28" id="next-thin" xmlns="http://www.w3.org/2000/svg"><path d="M32.102 14.39h-32m32 0L19.434 27.33m12.668-12.94L19.314 1.33" stroke="#fff"/></svg><svg fill="none" viewBox="0 0 35 30" id="prev" xmlns="http://www.w3.org/2000/svg"><path d="M2.645 15h32.052M15.863 2.277L3.199 14.941l12.783 12.783" stroke="#fff" stroke-width="4"/></svg><svg fill="none" viewBox="0 0 33 28" id="prev-thin" xmlns="http://www.w3.org/2000/svg"><path d="M.727 14.27h32m-32 0L13.394 1.33M.727 14.27l12.787 13.06" stroke="#fff"/></svg><svg fill="none" viewBox="0 0 30 30" id="prichal" xmlns="http://www.w3.org/2000/svg"><circle cx="15.106" cy="3.645" r="2.445" stroke="#fff"/><path d="M26.808 18.505c-.671 5.91-5.688 10.5-11.777 10.5-6.088 0-11.105-4.59-11.776-10.5M15.106 6.494v22.512M9.692 12.336h10.829" stroke="#fff"/><path d="M1.405 22.392l1.542-4.787 3.94 3.384M28.808 22.392l-1.542-4.787-3.94 3.384" stroke="#fff"/></svg><svg fill="none" viewBox="0 0 41 23" id="ship" xmlns="http://www.w3.org/2000/svg"><path fill-rule="evenodd" clip-rule="evenodd" d="M7.7 22.3h26.411a6.298 6.298 0 005.541-3.305l1.313-2.43h-40l1.077 2.203A6.298 6.298 0 007.7 22.3zm-2.037-1.591a1.276 1.276 0 100-2.553 1.276 1.276 0 000 2.553zm3.306 0a1.276 1.276 0 100-2.553 1.276 1.276 0 000 2.553zm4.581-1.276a1.276 1.276 0 11-2.552 0 1.276 1.276 0 012.552 0zm16.107 1.276a1.276 1.276 0 100-2.553 1.276 1.276 0 000 2.553zm4.58-1.276a1.276 1.276 0 11-2.552 0 1.276 1.276 0 012.553 0zm2.03 1.276a1.276 1.276 0 100-2.553 1.276 1.276 0 000 2.553z" fill="#0296dd"/><path d="M3.965 9.8v7h16v-3.5l-5-.5v-3h-11zM32.965 12.6a4 4 0 00-4 4h8a4 4 0 00-4-4zM15.964 5.8h-7.9l.9 4h6l1-4z" fill="#0296dd"/><path d="M12.164 5.8V0M10.666 2.6h3" stroke="#0296dd"/></svg><svg fill="none" viewBox="0 0 11 20" id="soc1" xmlns="http://www.w3.org/2000/svg"><path d="M6.737 19.94v-9.07h2.775l.435-3.543h-3.21V5.045c0-1.021.272-1.742 1.578-1.742h1.687V.12C9.73.06 8.696 0 7.499 0 5.051 0 3.364 1.682 3.364 4.685v2.642H.59v3.544h2.774V20h3.373v-.06z" fill="#fff"/></svg><svg fill="none" viewBox="0 0 21 21" id="soc2" xmlns="http://www.w3.org/2000/svg"><path d="M10.264 2.77c2.666 0 2.983.008 4.041.058 2.709.125 3.975 1.408 4.1 4.1.05 1.058.059 1.375.059 4.041 0 2.667-.009 2.984-.059 4.042-.125 2.692-1.383 3.975-4.1 4.1-1.058.05-1.366.058-4.041.058-2.667 0-2.984-.008-4.042-.058-2.717-.125-3.975-1.417-4.1-4.1-.05-1.058-.058-1.367-.058-4.042 0-2.666.008-2.983.058-4.041.125-2.692 1.392-3.975 4.1-4.1 1.058-.042 1.375-.059 4.042-.059zm0-1.8c-2.717 0-3.059.008-4.125.058C2.514 1.194.489 3.21.322 6.844.272 7.911.264 8.253.264 10.97c0 2.717.008 3.059.058 4.125.167 3.634 2.183 5.65 5.817 5.817 1.066.05 1.408.058 4.125.058 2.716 0 3.058-.008 4.125-.058 3.625-.167 5.65-2.183 5.816-5.817.05-1.066.059-1.408.059-4.125 0-2.716-.009-3.058-.059-4.125-.166-3.625-2.183-5.65-5.816-5.816-1.067-.05-1.409-.059-4.125-.059zm0 4.866a5.136 5.136 0 00-5.134 5.133c0 2.834 2.3 5.134 5.134 5.134 2.833 0 5.133-2.3 5.133-5.134 0-2.833-2.3-5.133-5.133-5.133zm0 8.467a3.332 3.332 0 110-6.667 3.332 3.332 0 110 6.667zm5.341-9.875a1.2 1.2 0 100 2.4 1.2 1.2 0 000-2.4z" fill="#fff"/></svg><svg fill="none" viewBox="0 0 25 16" id="soc3" xmlns="http://www.w3.org/2000/svg"><path d="M13.47 15.077c.617 0 .87-.415.86-.931-.03-1.944.719-2.986 2.085-1.62 1.508 1.508 1.822 2.55 3.644 2.55h3.239c.82 0 1.143-.263 1.143-.677 0-.87-1.437-2.42-2.651-3.543-1.711-1.59-1.782-1.62-.314-3.532 1.812-2.359 4.2-5.395 2.095-5.395h-4.029c-.779 0-.84.435-1.113 1.093-1.012 2.378-2.925 5.455-3.644 4.98-.769-.486-.425-2.43-.364-5.324.02-.76.01-1.286-1.154-1.56a8.457 8.457 0 00-1.832-.201c-2.298 0-3.887.961-2.986 1.133 1.59.294 1.437 3.735 1.063 5.223-.648 2.591-3.077-2.045-4.08-4.352-.242-.557-.323-.992-1.193-.992H.949c-.506 0-.8.162-.8.526 0 .607 2.996 6.802 5.86 9.889 2.784 3.006 5.547 2.733 7.46 2.733z" fill="#fff"/></svg><svg fill="none" viewBox="0 0 18 16" id="soc4" xmlns="http://www.w3.org/2000/svg"><path d="M17.867 2.244c-.655.29-1.31.523-2.02.582.71-.466 1.31-1.221 1.53-2.093-.71.407-1.42.755-2.24.93A3.366 3.366 0 0012.573.5c-1.966 0-3.549 1.686-3.549 3.78 0 .29.055.58.11.871-2.949-.174-5.57-1.628-7.316-3.953a3.841 3.841 0 00-.492 1.918c0 1.28.6 2.442 1.583 3.14a2.85 2.85 0 01-1.583-.465v.058c0 1.802 1.201 3.372 2.84 3.72-.274.059-.601.117-.929.117-.218 0-.437 0-.655-.058.437 1.511 1.747 2.558 3.33 2.616-1.2.989-2.73 1.628-4.367 1.628-.273 0-.546 0-.82-.058C2.309 14.86 4.165 15.5 6.13 15.5c6.496 0 10.045-5.756 10.045-10.698v-.465c.6-.64 1.201-1.337 1.692-2.093z" fill="#fff"/></svg><svg viewBox="0 0 24 24" id="telegram" xmlns="http://www.w3.org/2000/svg"><circle cx="12" cy="12" fill="#039be5" r="12"/><path d="M5.491 11.74l11.57-4.461c.537-.194 1.006.131.832.943l.001-.001-1.97 9.281c-.146.658-.537.818-1.084.508l-3-2.211-1.447 1.394c-.16.16-.295.295-.605.295l.213-3.053 5.56-5.023c.242-.213-.054-.333-.373-.121l-6.871 4.326-2.962-.924c-.643-.204-.657-.643.136-.953z" fill="#fff"/></svg><svg viewBox="0 0 22 18" id="twit" xmlns="http://www.w3.org/2000/svg"><path d="M21.228 2.093c-.787.349-1.573.628-2.424.698.851-.558 1.572-1.465 1.834-2.512-.852.488-1.703.907-2.686 1.116A4.04 4.04 0 0014.872 0c-2.358 0-4.258 2.023-4.258 4.535 0 .349.066.698.131 1.046C7.208 5.372 4.063 3.628 1.967.837a4.61 4.61 0 00-.59 2.303c0 1.534.72 2.93 1.9 3.767a3.42 3.42 0 01-1.9-.558v.07c0 2.162 1.441 4.046 3.407 4.465-.328.07-.721.14-1.114.14-.262 0-.524 0-.786-.07.524 1.813 2.096 3.07 3.996 3.139-1.441 1.186-3.276 1.954-5.241 1.954-.328 0-.655 0-.983-.07C2.556 17.233 4.784 18 7.142 18c7.796 0 12.055-6.907 12.055-12.837v-.558c.72-.768 1.441-1.605 2.03-2.512z"/></svg><svg fill="none" viewBox="0 0 30 36" id="up" xmlns="http://www.w3.org/2000/svg"><path d="M15.06 3.5v32m0-32L28 16.143M15.06 3.5L2 16.262" stroke="#000" stroke-width="4"/></svg><svg fill="none" viewBox="0 0 39 18" id="view" xmlns="http://www.w3.org/2000/svg"><path d="M37.278 9c-1.532-1.435-9.073-8.044-18-8.044-8.935 0-16.47 6.608-18 8.044 1.531 1.435 9.072 8.045 18 8.045 8.934 0 16.468-6.609 18-8.045z" stroke="#fff"/><ellipse cx="19.279" cy="9.016" rx="6.314" ry="6.331" stroke="#fff" stroke-width="4"/></svg><svg viewBox="0 0 30 18" id="vk" xmlns="http://www.w3.org/2000/svg"><path d="M16.367 17.492c.74 0 1.044-.498 1.032-1.117-.036-2.332.863-3.583 2.502-1.944 1.81 1.81 2.187 3.061 4.373 3.061h3.887c.983 0 1.372-.316 1.372-.814 0-1.044-1.725-2.902-3.182-4.25-2.053-1.908-2.138-1.944-.377-4.24 2.174-2.83 5.041-6.473 2.515-6.473h-4.835c-.935 0-1.008.522-1.335 1.311-1.215 2.855-3.51 6.547-4.373 5.976-.923-.583-.51-2.915-.437-6.389.024-.91.012-1.542-1.385-1.87A10.148 10.148 0 0013.926.5c-2.758 0-4.664 1.154-3.584 1.36 1.907.353 1.725 4.482 1.276 6.268-.777 3.11-3.693-2.454-4.895-5.223-.291-.668-.389-1.19-1.433-1.19H1.342c-.607 0-.96.194-.96.631 0 .729 3.596 8.162 7.033 11.867 3.34 3.607 6.656 3.28 8.952 3.28z"/></svg><svg viewBox="-1 0 512 512" id="whatsapp" xmlns="http://www.w3.org/2000/svg"><path d="M10.895 512A10.895 10.895 0 01.387 498.23l33.285-121.546C12.949 339.21 2.023 296.82 2.039 253.789 2.098 113.848 115.98 0 255.91 0c67.871.027 131.645 26.465 179.578 74.434 47.926 47.972 74.309 111.742 74.29 179.558-.063 139.945-113.946 253.801-253.868 253.801h-.11c-40.87-.016-81.39-9.977-117.468-28.844L13.656 511.645c-.914.238-1.843.355-2.761.355zm0 0" fill="#e5e5e5"/><path d="M10.895 501.105l34.468-125.87c-21.261-36.84-32.445-78.63-32.43-121.442C12.989 119.859 121.98 10.895 255.91 10.895c64.992.027 125.996 25.324 171.871 71.238 45.871 45.914 71.125 106.945 71.102 171.855-.059 133.93-109.067 242.91-242.973 242.91-.008 0 .004 0 0 0h-.105c-40.664-.015-80.618-10.214-116.106-29.57zm134.77-77.75l7.378 4.372c31 18.398 66.543 28.128 102.789 28.148h.078c111.305 0 201.899-90.578 201.945-201.902.02-53.95-20.964-104.68-59.093-142.84-38.133-38.16-88.832-59.188-142.778-59.211C144.59 51.922 54 142.488 53.957 253.809c-.016 38.148 10.656 75.296 30.875 107.445l4.805 7.64-20.407 74.5zm0 0" fill="#fff"/><path d="M19.344 492.625l33.277-121.52c-20.531-35.562-31.324-75.91-31.312-117.234.05-129.297 105.273-234.488 234.558-234.488 62.75.027 121.645 24.449 165.922 68.773 44.29 44.324 68.664 103.242 68.64 165.899-.054 129.3-105.28 234.504-234.55 234.504-.012 0 .004 0 0 0h-.106c-39.253-.016-77.828-9.868-112.085-28.54zm0 0" fill="#64b161"/><g fill="#fff"><path d="M10.895 501.105l34.468-125.87c-21.261-36.84-32.445-78.63-32.43-121.442C12.989 119.859 121.98 10.895 255.91 10.895c64.992.027 125.996 25.324 171.871 71.238 45.871 45.914 71.125 106.945 71.102 171.855-.059 133.93-109.067 242.91-242.973 242.91-.008 0 .004 0 0 0h-.105c-40.664-.015-80.618-10.214-116.106-29.57zm134.77-77.75l7.378 4.372c31 18.398 66.543 28.128 102.789 28.148h.078c111.305 0 201.899-90.578 201.945-201.902.02-53.95-20.964-104.68-59.093-142.84-38.133-38.16-88.832-59.188-142.778-59.211C144.59 51.922 54 142.488 53.957 253.809c-.016 38.148 10.656 75.296 30.875 107.445l4.805 7.64-20.407 74.5zm0 0"/><path d="M195.184 152.246c-4.547-10.11-9.336-10.312-13.664-10.488-3.54-.153-7.59-.145-11.633-.145-4.047 0-10.625 1.524-16.188 7.598-5.566 6.074-21.254 20.762-21.254 50.633 0 29.875 21.758 58.738 24.793 62.793 3.035 4.05 42 67.308 103.707 91.644 51.285 20.227 61.72 16.203 72.852 15.192 11.133-1.012 35.918-14.688 40.976-28.864 5.063-14.175 5.063-26.324 3.543-28.867-1.52-2.527-5.566-4.047-11.636-7.082-6.07-3.035-35.918-17.726-41.485-19.75-5.566-2.027-9.613-3.035-13.66 3.043-4.05 6.07-15.676 19.742-19.219 23.79-3.543 4.058-7.086 4.566-13.156 1.527-6.07-3.043-25.625-9.45-48.82-30.133-18.047-16.09-30.235-35.965-33.777-42.043-3.54-6.07-.06-9.07 2.667-12.387 4.91-5.973 13.149-16.71 15.172-20.758 2.024-4.054 1.012-7.597-.504-10.637-1.52-3.035-13.32-33.058-18.714-45.066zm0 0" fill-rule="evenodd"/></g></svg></svg>