 <svg width="317" height="756" viewBox="0 0 317 756" fill="none" xmlns="http://www.w3.org/2000/svg"
     xmlns:xlink="http://www.w3.org/1999/xlink">

    <circle class="line_cikle" cx="121.422" cy="462.687" r="16.187" transform="rotate(-180 121.422 462.687)"
            stroke="white"/>
    <path d="M113.234 462.465C113.234 458.046 116.816 454.465 121.234 454.465C125.653 454.465 129.234 458.046 129.234 462.465C129.234 466.883 125.653 470.465 121.234 470.465C116.816 470.465 113.234 466.883 113.234 462.465Z"
          fill="white" stroke="white"/>
    <path class="line_line" d="M122.047 479.374L122.047 564L118.734 564" stroke="white"/>
    <path d="M31.3153 523.432H33.1993V526.864L36.5473 523.432H38.8993L35.2033 527.02L39.2233 532H36.8593L33.8353 528.196L33.1993 528.88V532H31.3153V523.432ZM42.4475 532.156C41.9595 532.156 41.5195 532.08 41.1275 531.928C40.7355 531.776 40.3995 531.56 40.1195 531.28C39.8395 530.992 39.6235 530.648 39.4715 530.248C39.3195 529.848 39.2435 529.4 39.2435 528.904C39.2435 528.408 39.3195 527.96 39.4715 527.56C39.6235 527.152 39.8395 526.808 40.1195 526.528C40.3995 526.24 40.7355 526.02 41.1275 525.868C41.5195 525.708 41.9595 525.628 42.4475 525.628C42.9355 525.628 43.3755 525.708 43.7675 525.868C44.1675 526.02 44.5075 526.24 44.7875 526.528C45.0675 526.808 45.2835 527.152 45.4355 527.56C45.5875 527.96 45.6635 528.408 45.6635 528.904C45.6635 529.4 45.5875 529.848 45.4355 530.248C45.2835 530.648 45.0675 530.992 44.7875 531.28C44.5075 531.56 44.1675 531.776 43.7675 531.928C43.3755 532.08 42.9355 532.156 42.4475 532.156ZM42.4475 530.884C42.7355 530.884 42.9755 530.828 43.1675 530.716C43.3675 530.604 43.5235 530.456 43.6355 530.272C43.7555 530.08 43.8395 529.868 43.8875 529.636C43.9355 529.396 43.9595 529.152 43.9595 528.904C43.9595 528.656 43.9355 528.412 43.8875 528.172C43.8395 527.932 43.7555 527.72 43.6355 527.536C43.5235 527.352 43.3675 527.204 43.1675 527.092C42.9755 526.972 42.7355 526.912 42.4475 526.912C42.1595 526.912 41.9195 526.972 41.7275 527.092C41.5355 527.204 41.3795 527.352 41.2595 527.536C41.1475 527.72 41.0675 527.932 41.0195 528.172C40.9715 528.412 40.9475 528.656 40.9475 528.904C40.9475 529.152 40.9715 529.396 41.0195 529.636C41.0675 529.868 41.1475 530.08 41.2595 530.272C41.3795 530.456 41.5355 530.604 41.7275 530.716C41.9195 530.828 42.1595 530.884 42.4475 530.884ZM46.4114 525.796H48.1154V528.052H50.5274V525.796H52.2314V532H50.5274V529.396H48.1154V532H46.4114V525.796ZM54.6767 527.08H52.6367V525.796H58.4207V527.08H56.3807V532H54.6767V527.08ZM61.6962 532.156C61.2082 532.156 60.7682 532.08 60.3762 531.928C59.9842 531.768 59.6522 531.544 59.3802 531.256C59.1082 530.968 58.8962 530.624 58.7442 530.224C58.6002 529.824 58.5282 529.384 58.5282 528.904C58.5282 528.44 58.6042 528.008 58.7562 527.608C58.9082 527.208 59.1242 526.864 59.4042 526.576C59.6842 526.28 60.0162 526.048 60.4002 525.88C60.7922 525.712 61.2242 525.628 61.6962 525.628C62.1922 525.628 62.6282 525.72 63.0042 525.904C63.3882 526.088 63.7042 526.336 63.9522 526.648C64.2082 526.952 64.4002 527.308 64.5282 527.716C64.6562 528.124 64.7202 528.548 64.7202 528.988C64.7202 529.044 64.7202 529.1 64.7202 529.156C64.7202 529.204 64.7162 529.256 64.7082 529.312H60.2322C60.2562 529.864 60.3962 530.264 60.6522 530.512C60.9082 530.76 61.2762 530.884 61.7562 530.884C62.1002 530.884 62.3962 530.8 62.6442 530.632C62.8922 530.456 63.0442 530.272 63.1002 530.08H64.6002C64.3602 530.824 63.9922 531.356 63.4962 531.676C63.0002 531.996 62.4002 532.156 61.6962 532.156ZM63.0042 528.232C62.9242 527.8 62.7802 527.472 62.5722 527.248C62.3722 527.024 62.0642 526.912 61.6482 526.912C61.3682 526.912 61.1402 526.96 60.9642 527.056C60.7882 527.144 60.6442 527.256 60.5322 527.392C60.4282 527.528 60.3522 527.672 60.3042 527.824C60.2642 527.976 60.2402 528.112 60.2322 528.232H63.0042ZM65.3588 525.796H66.9908V529.996L69.3308 525.796H71.2628V532H69.6308V527.8L67.2908 532H65.3588V525.796ZM68.2988 525.052C68.0188 525.052 67.7548 525.02 67.5068 524.956C67.2668 524.892 67.0548 524.792 66.8708 524.656C66.6868 524.512 66.5388 524.332 66.4268 524.116C66.3228 523.9 66.2708 523.636 66.2708 523.324H67.5428C67.5588 523.596 67.6228 523.796 67.7348 523.924C67.8468 524.052 68.0348 524.116 68.2988 524.116C68.5548 524.116 68.7428 524.056 68.8628 523.936C68.9828 523.808 69.0468 523.604 69.0548 523.324H70.3268C70.3268 523.636 70.2708 523.9 70.1588 524.116C70.0548 524.332 69.9108 524.512 69.7268 524.656C69.5428 524.792 69.3268 524.892 69.0788 524.956C68.8308 525.02 68.5708 525.052 68.2988 525.052ZM72.1941 525.796H73.8981V528.052H76.3101V525.796H78.0141V532H76.3101V529.396H73.8981V532H72.1941V525.796ZM81.8154 532.156C81.3274 532.156 80.8874 532.08 80.4954 531.928C80.1034 531.768 79.7714 531.544 79.4994 531.256C79.2274 530.968 79.0154 530.624 78.8634 530.224C78.7194 529.824 78.6474 529.384 78.6474 528.904C78.6474 528.44 78.7234 528.008 78.8754 527.608C79.0274 527.208 79.2434 526.864 79.5234 526.576C79.8034 526.28 80.1354 526.048 80.5194 525.88C80.9114 525.712 81.3434 525.628 81.8154 525.628C82.3114 525.628 82.7474 525.72 83.1234 525.904C83.5074 526.088 83.8234 526.336 84.0714 526.648C84.3274 526.952 84.5194 527.308 84.6474 527.716C84.7754 528.124 84.8394 528.548 84.8394 528.988C84.8394 529.044 84.8394 529.1 84.8394 529.156C84.8394 529.204 84.8354 529.256 84.8274 529.312H80.3514C80.3754 529.864 80.5154 530.264 80.7714 530.512C81.0274 530.76 81.3954 530.884 81.8754 530.884C82.2194 530.884 82.5154 530.8 82.7634 530.632C83.0114 530.456 83.1634 530.272 83.2194 530.08H84.7194C84.4794 530.824 84.1114 531.356 83.6154 531.676C83.1194 531.996 82.5194 532.156 81.8154 532.156ZM83.1234 528.232C83.0434 527.8 82.8994 527.472 82.6914 527.248C82.4914 527.024 82.1834 526.912 81.7674 526.912C81.4874 526.912 81.2594 526.96 81.0834 527.056C80.9074 527.144 80.7634 527.256 80.6514 527.392C80.5474 527.528 80.4714 527.672 80.4234 527.824C80.3834 527.976 80.3594 528.112 80.3514 528.232H83.1234ZM85.478 525.796H87.098V526.588H87.122C87.33 526.252 87.594 526.008 87.914 525.856C88.234 525.704 88.586 525.628 88.97 525.628C89.458 525.628 89.878 525.72 90.23 525.904C90.582 526.088 90.874 526.332 91.106 526.636C91.338 526.94 91.51 527.296 91.622 527.704C91.734 528.104 91.79 528.524 91.79 528.964C91.79 529.38 91.734 529.78 91.622 530.164C91.51 530.548 91.338 530.888 91.106 531.184C90.882 531.48 90.598 531.716 90.254 531.892C89.918 532.068 89.522 532.156 89.066 532.156C88.682 532.156 88.326 532.08 87.998 531.928C87.678 531.768 87.414 531.536 87.206 531.232H87.182V534.172H85.478V525.796ZM88.61 530.884C88.89 530.884 89.122 530.828 89.306 530.716C89.498 530.604 89.65 530.46 89.762 530.284C89.882 530.1 89.966 529.892 90.014 529.66C90.062 529.42 90.086 529.172 90.086 528.916C90.086 528.668 90.058 528.424 90.002 528.184C89.954 527.944 89.87 527.732 89.75 527.548C89.63 527.356 89.474 527.204 89.282 527.092C89.098 526.972 88.87 526.912 88.598 526.912C88.318 526.912 88.082 526.972 87.89 527.092C87.706 527.204 87.554 527.352 87.434 527.536C87.322 527.72 87.242 527.936 87.194 528.184C87.146 528.424 87.122 528.668 87.122 528.916C87.122 529.172 87.146 529.42 87.194 529.66C87.25 529.892 87.334 530.1 87.446 530.284C87.566 530.46 87.718 530.604 87.902 530.716C88.094 530.828 88.33 530.884 88.61 530.884ZM92.4539 525.796H94.1579V528.052H96.5699V525.796H98.2739V532H96.5699V529.396H94.1579V532H92.4539V525.796ZM99.2072 525.796H100.911V527.932H102.555C102.867 527.932 103.159 527.976 103.431 528.064C103.711 528.144 103.951 528.272 104.151 528.448C104.359 528.616 104.523 528.828 104.643 529.084C104.763 529.332 104.823 529.624 104.823 529.96C104.823 530.304 104.763 530.604 104.643 530.86C104.531 531.116 104.367 531.328 104.151 531.496C103.943 531.664 103.695 531.792 103.407 531.88C103.127 531.96 102.819 532 102.483 532H99.2072V525.796ZM102.075 530.824C102.387 530.824 102.635 530.756 102.819 530.62C103.011 530.484 103.107 530.264 103.107 529.96C103.107 529.656 103.007 529.436 102.807 529.3C102.607 529.156 102.359 529.084 102.063 529.084H100.911V530.824H102.075ZM105.555 525.796H107.247V532H105.555V525.796ZM108.187 525.796H109.819V529.996L112.159 525.796H114.091V532H112.459V527.8L110.119 532H108.187V525.796ZM111.127 525.052C110.847 525.052 110.583 525.02 110.335 524.956C110.095 524.892 109.883 524.792 109.699 524.656C109.515 524.512 109.367 524.332 109.255 524.116C109.151 523.9 109.099 523.636 109.099 523.324H110.371C110.387 523.596 110.451 523.796 110.563 523.924C110.675 524.052 110.863 524.116 111.127 524.116C111.383 524.116 111.571 524.056 111.691 523.936C111.811 523.808 111.875 523.604 111.883 523.324H113.155C113.155 523.636 113.099 523.9 112.987 524.116C112.883 524.332 112.739 524.512 112.555 524.656C112.371 524.792 112.155 524.892 111.907 524.956C111.659 525.02 111.399 525.052 111.127 525.052ZM61.9222 543.08H59.8822V541.796H65.6662V543.08H63.6262V548H61.9222V543.08ZM68.9416 548.156C68.4536 548.156 68.0136 548.08 67.6216 547.928C67.2296 547.768 66.8976 547.544 66.6256 547.256C66.3536 546.968 66.1416 546.624 65.9896 546.224C65.8456 545.824 65.7736 545.384 65.7736 544.904C65.7736 544.44 65.8496 544.008 66.0016 543.608C66.1536 543.208 66.3696 542.864 66.6496 542.576C66.9296 542.28 67.2616 542.048 67.6456 541.88C68.0376 541.712 68.4696 541.628 68.9416 541.628C69.4376 541.628 69.8736 541.72 70.2496 541.904C70.6336 542.088 70.9496 542.336 71.1976 542.648C71.4536 542.952 71.6456 543.308 71.7736 543.716C71.9016 544.124 71.9656 544.548 71.9656 544.988C71.9656 545.044 71.9656 545.1 71.9656 545.156C71.9656 545.204 71.9616 545.256 71.9536 545.312H67.4776C67.5016 545.864 67.6416 546.264 67.8976 546.512C68.1536 546.76 68.5216 546.884 69.0016 546.884C69.3456 546.884 69.6416 546.8 69.8896 546.632C70.1376 546.456 70.2896 546.272 70.3456 546.08H71.8456C71.6056 546.824 71.2376 547.356 70.7416 547.676C70.2456 547.996 69.6456 548.156 68.9416 548.156ZM70.2496 544.232C70.1696 543.8 70.0256 543.472 69.8176 543.248C69.6176 543.024 69.3096 542.912 68.8936 542.912C68.6136 542.912 68.3856 542.96 68.2096 543.056C68.0336 543.144 67.8896 543.256 67.7776 543.392C67.6736 543.528 67.5976 543.672 67.5496 543.824C67.5096 543.976 67.4856 544.112 67.4776 544.232H70.2496ZM72.6042 541.796H74.2242V542.588H74.2482C74.4562 542.252 74.7202 542.008 75.0402 541.856C75.3602 541.704 75.7122 541.628 76.0962 541.628C76.5842 541.628 77.0042 541.72 77.3562 541.904C77.7082 542.088 78.0002 542.332 78.2322 542.636C78.4642 542.94 78.6362 543.296 78.7482 543.704C78.8602 544.104 78.9162 544.524 78.9162 544.964C78.9162 545.38 78.8602 545.78 78.7482 546.164C78.6362 546.548 78.4642 546.888 78.2322 547.184C78.0082 547.48 77.7242 547.716 77.3802 547.892C77.0442 548.068 76.6482 548.156 76.1922 548.156C75.8082 548.156 75.4522 548.08 75.1242 547.928C74.8042 547.768 74.5402 547.536 74.3322 547.232H74.3082V550.172H72.6042V541.796ZM75.7362 546.884C76.0162 546.884 76.2482 546.828 76.4322 546.716C76.6242 546.604 76.7762 546.46 76.8882 546.284C77.0082 546.1 77.0922 545.892 77.1402 545.66C77.1882 545.42 77.2122 545.172 77.2122 544.916C77.2122 544.668 77.1842 544.424 77.1282 544.184C77.0802 543.944 76.9962 543.732 76.8762 543.548C76.7562 543.356 76.6002 543.204 76.4082 543.092C76.2242 542.972 75.9962 542.912 75.7242 542.912C75.4442 542.912 75.2082 542.972 75.0162 543.092C74.8322 543.204 74.6802 543.352 74.5602 543.536C74.4482 543.72 74.3682 543.936 74.3202 544.184C74.2722 544.424 74.2482 544.668 74.2482 544.916C74.2482 545.172 74.2722 545.42 74.3202 545.66C74.3762 545.892 74.4602 546.1 74.5722 546.284C74.6922 546.46 74.8442 546.604 75.0282 546.716C75.2202 546.828 75.4562 546.884 75.7362 546.884ZM79.5802 541.796H82.0522L83.3362 546.308H83.3842L84.6682 541.796H87.1402V548H85.5322V543.284H85.4962L84.1642 548H82.5562L81.2242 543.284H81.1882V548H79.5802V541.796ZM88.0796 541.796H89.7116V545.996L92.0516 541.796H93.9836V548H92.3516V543.8L90.0116 548H88.0796V541.796ZM94.9149 541.796H96.6189V544.052H99.0309V541.796H100.735V548H99.0309V545.396H96.6189V548H94.9149V541.796ZM103.516 548.156C103.22 548.156 102.944 548.12 102.688 548.048C102.432 547.976 102.208 547.864 102.016 547.712C101.824 547.56 101.672 547.368 101.56 547.136C101.456 546.904 101.404 546.628 101.404 546.308C101.404 545.956 101.464 545.668 101.584 545.444C101.712 545.212 101.872 545.028 102.064 544.892C102.264 544.756 102.488 544.656 102.736 544.592C102.992 544.52 103.248 544.464 103.504 544.424C103.76 544.384 104.012 544.352 104.26 544.328C104.508 544.304 104.728 544.268 104.92 544.22C105.112 544.172 105.264 544.104 105.376 544.016C105.488 543.92 105.54 543.784 105.532 543.608C105.532 543.432 105.5 543.288 105.436 543.176C105.38 543.064 105.3 542.98 105.196 542.924C105.1 542.86 104.984 542.82 104.848 542.804C104.72 542.78 104.58 542.768 104.428 542.768C104.092 542.768 103.828 542.84 103.636 542.984C103.444 543.128 103.332 543.368 103.3 543.704H101.596C101.62 543.312 101.72 542.984 101.896 542.72C102.072 542.448 102.296 542.232 102.568 542.072C102.84 541.912 103.144 541.8 103.48 541.736C103.816 541.664 104.16 541.628 104.512 541.628C104.824 541.628 105.14 541.652 105.46 541.7C105.78 541.74 106.072 541.824 106.336 541.952C106.6 542.08 106.816 542.26 106.984 542.492C107.152 542.724 107.236 543.024 107.236 543.392V546.62C107.236 546.9 107.252 547.168 107.284 547.424C107.316 547.68 107.372 547.872 107.452 548H105.724C105.692 547.904 105.664 547.808 105.64 547.712C105.624 547.608 105.612 547.504 105.604 547.4C105.332 547.68 105.012 547.876 104.644 547.988C104.276 548.1 103.9 548.156 103.516 548.156ZM104.152 547.028C104.488 547.028 104.748 546.972 104.932 546.86C105.116 546.748 105.252 546.616 105.34 546.464C105.428 546.304 105.48 546.144 105.496 545.984C105.52 545.824 105.532 545.696 105.532 545.6V544.964C105.46 545.028 105.372 545.08 105.268 545.12C105.164 545.152 105.048 545.18 104.92 545.204C104.792 545.228 104.66 545.248 104.524 545.264C104.388 545.28 104.252 545.3 104.116 545.324C103.98 545.348 103.852 545.38 103.732 545.42C103.612 545.46 103.504 545.516 103.408 545.588C103.32 545.652 103.248 545.736 103.192 545.84C103.136 545.944 103.108 546.076 103.108 546.236C103.108 546.396 103.136 546.528 103.192 546.632C103.248 546.728 103.324 546.808 103.42 546.872C103.516 546.928 103.628 546.968 103.756 546.992C103.884 547.016 104.016 547.028 104.152 547.028ZM108.463 548.096C108.391 548.096 108.279 548.084 108.127 548.06C107.975 548.036 107.855 548.008 107.767 547.976V546.692C107.815 546.708 107.871 546.72 107.935 546.728C107.999 546.728 108.063 546.728 108.127 546.728C108.271 546.728 108.399 546.684 108.511 546.596C108.631 546.5 108.727 546.32 108.799 546.056C108.879 545.792 108.939 545.416 108.979 544.928C109.027 544.44 109.051 543.8 109.051 543.008V541.796H114.091V548H112.387V543.08H110.635C110.603 543.96 110.551 544.716 110.479 545.348C110.407 545.98 110.291 546.5 110.131 546.908C109.979 547.316 109.767 547.616 109.495 547.808C109.231 548 108.887 548.096 108.463 548.096ZM75.3539 555.432H77.2379V558.72H80.7059V555.432H82.5899V564H80.7059V560.304H77.2379V564H75.3539V555.432ZM85.5445 564.156C85.3365 564.156 85.1485 564.128 84.9805 564.072C84.8205 564.016 84.7005 563.964 84.6205 563.916V562.392C84.7085 562.44 84.8125 562.484 84.9325 562.524C85.0605 562.556 85.2165 562.572 85.4005 562.572C85.9685 562.572 86.3125 562.336 86.4325 561.864L83.0005 555.432H85.1125L87.4405 559.896L89.1805 555.432H91.1485L88.4725 561.72C88.2805 562.16 88.0845 562.536 87.8845 562.848C87.6925 563.152 87.4765 563.404 87.2365 563.604C87.0045 563.796 86.7485 563.936 86.4685 564.024C86.1965 564.112 85.8885 564.156 85.5445 564.156ZM93.194 557.016H90.626V555.432H97.646V557.016H95.078V564H93.194V557.016ZM101.718 564.192C101.158 564.192 100.658 564.116 100.218 563.964C99.7779 563.812 99.3979 563.596 99.0779 563.316C98.7579 563.028 98.4979 562.688 98.2979 562.296C98.1059 561.896 97.9739 561.456 97.9019 560.976H99.7139C99.9459 562.08 100.61 562.632 101.706 562.632C102.346 562.632 102.858 562.424 103.242 562.008C103.634 561.584 103.874 561.008 103.962 560.28H100.794V558.804H103.902C103.846 558.532 103.762 558.276 103.65 558.036C103.546 557.788 103.402 557.572 103.218 557.388C103.042 557.204 102.826 557.06 102.57 556.956C102.314 556.844 102.018 556.788 101.682 556.788C101.202 556.788 100.79 556.908 100.446 557.148C100.11 557.38 99.8819 557.704 99.7619 558.12H97.9739C98.0299 557.704 98.1579 557.32 98.3579 556.968C98.5659 556.616 98.8299 556.312 99.1499 556.056C99.4699 555.792 99.8419 555.588 100.266 555.444C100.69 555.3 101.15 555.228 101.646 555.228C102.302 555.228 102.89 555.344 103.41 555.576C103.93 555.808 104.37 556.128 104.73 556.536C105.09 556.936 105.366 557.408 105.558 557.952C105.75 558.496 105.846 559.08 105.846 559.704C105.846 560.376 105.746 560.988 105.546 561.54C105.354 562.092 105.078 562.564 104.718 562.956C104.358 563.348 103.922 563.652 103.41 563.868C102.906 564.084 102.342 564.192 101.718 564.192ZM106.773 555.432H113.901V564H112.017V557.016H108.657V564H106.773V555.432Z"
          fill="white"/>
</svg>