<svg width="76" height="165" viewBox="0 0 76 165" fill="none" xmlns="http://www.w3.org/2000/svg">
<path d="M74.9674 138.354H0.231873L36.7324 104.301C36.733 104.301 36.7336 104.3 36.7341 104.3C49.525 92.5744 58.4659 82.5719 63.5238 74.2963C68.7438 66.0046 71.359 57.1646 71.359 47.7852C71.359 32.7497 66.2889 21.1812 56.1063 13.1576C45.9589 5.00968 33.1371 0.952148 17.6787 0.952148C1.74681 0.952148 -11.4645 5.70464 -21.9157 15.2336C-32.3872 24.7812 -38.2768 39.1475 -39.6521 58.2484L-39.6878 58.7446L-39.1917 58.7828L-9.52033 61.0652L-9.0228 61.1035L-8.98353 60.606C-8.07428 49.0888 -5.27527 40.6919 -0.658348 35.3301C4.11337 29.8131 10.2125 27.0587 17.6787 27.0587C24.2747 27.0587 29.4657 28.9296 33.3091 32.6252L33.3162 32.6319L33.3235 32.6385C37.3022 36.1751 39.3182 41.1991 39.3182 47.7852C39.3182 51.5265 38.6452 55.1939 37.2971 58.79C35.9561 62.2155 33.409 66.1217 29.6251 70.5111L29.6242 70.5122C25.9788 74.7651 22.7959 78.1745 20.0743 80.7449L20.0692 80.7498L20.0641 80.7549C17.4847 83.3343 13.0782 87.5131 6.83976 93.295L6.83784 93.2968L-43.6035 140.543L-43.7617 140.691V140.908V163.96V164.46H-43.2617H74.9674H75.4674V163.96V138.854V138.354H74.9674Z" stroke="white"/>
</svg>
