<svg width="89" height="166" viewBox="0 0 89 166" fill="none" xmlns="http://www.w3.org/2000/svg">
<path d="M109.868 76.2195L109.54 76.5967L109.543 76.5996L109.868 76.2195ZM106.418 151.43L106.721 151.827L106.722 151.826L106.418 151.43ZM20.168 152.12L19.8591 152.513L19.8618 152.515L20.168 152.12ZM1.53797 114.86L1.5037 114.361L0.987697 114.396L1.04059 114.911L1.53797 114.86ZM31.668 112.79L32.1633 112.721L32.0995 112.259L31.6337 112.291L31.668 112.79ZM84.568 132.34L84.8942 132.718L84.8951 132.718L84.568 132.34ZM85.488 92.0895L85.1399 92.4485L85.488 92.0895ZM38.338 87.7195H37.838V88.3352L38.4406 88.2089L38.338 87.7195ZM38.338 66.3295L37.9895 65.971L37.838 66.1183V66.3295H38.338ZM79.508 26.3095L79.8565 26.668L80.7397 25.8095H79.508V26.3095ZM9.81797 26.3095H9.31797V26.8095H9.81797V26.3095ZM9.81797 1.00951V0.509514H9.31797V1.00951H9.81797ZM119.528 1.00951H120.028V0.509514H119.528V1.00951ZM119.528 23.5495L119.857 23.9258L120.028 23.7764V23.5495H119.528ZM73.528 63.7995L73.1987 63.4232L72.2911 64.2174L73.4944 64.2984L73.528 63.7995ZM109.543 76.5996C118.912 84.6082 123.628 96.336 123.628 111.87H124.628C124.628 96.123 119.838 84.0842 110.193 75.8395L109.543 76.5996ZM123.628 111.87C123.628 129.07 117.776 142.097 106.114 151.033L106.722 151.826C118.674 142.669 124.628 129.323 124.628 111.87H123.628ZM106.115 151.032C94.5665 159.845 79.8835 164.27 62.028 164.27V165.27C80.0525 165.27 94.9628 160.801 106.721 151.827L106.115 151.032ZM62.028 164.27C45.0921 164.27 31.2542 160.075 20.4742 151.724L19.8618 152.515C30.8551 161.031 44.9239 165.27 62.028 165.27V164.27ZM20.4769 151.726C9.87183 143.394 3.71125 131.11 2.03535 114.808L1.04059 114.911C2.73802 131.422 8.99745 143.979 19.8591 152.513L20.4769 151.726ZM1.57224 115.358L31.7022 113.288L31.6337 112.291L1.5037 114.361L1.57224 115.358ZM31.1727 112.858C32.4102 121.83 35.5914 128.626 40.7679 133.175C45.9451 137.725 53.0527 139.97 62.028 139.97V138.97C53.2165 138.97 46.3709 136.768 41.428 132.424C36.4845 128.08 33.3791 121.536 32.1633 112.721L31.1727 112.858ZM62.028 139.97C71.6172 139.97 79.2588 137.571 84.8942 132.718L84.2417 131.961C78.8371 136.615 71.4521 138.97 62.028 138.97V139.97ZM84.8951 132.718C90.6968 127.7 93.578 120.728 93.578 111.87H92.578C92.578 120.491 89.7858 127.166 84.2409 131.961L84.8951 132.718ZM93.578 111.87C93.578 103.48 91.0101 96.7478 85.836 91.7306L85.1399 92.4485C90.0858 97.2445 92.578 103.699 92.578 111.87H93.578ZM85.836 91.7306C80.6488 86.7005 72.9113 84.2295 62.718 84.2295V85.2295C72.7647 85.2295 80.2072 87.6652 85.1399 92.4485L85.836 91.7306ZM62.718 84.2295C55.9254 84.2295 47.7624 85.2326 38.2354 87.2302L38.4406 88.2089C47.9269 86.2198 56.0172 85.2295 62.718 85.2295V84.2295ZM38.838 87.7195V66.3295H37.838V87.7195H38.838ZM38.6865 66.688L79.8565 26.668L79.1595 25.951L37.9895 65.971L38.6865 66.688ZM79.508 25.8095H9.81797V26.8095H79.508V25.8095ZM10.318 26.3095V1.00951H9.31797V26.3095H10.318ZM9.81797 1.50951H119.528V0.509514H9.81797V1.50951ZM119.028 1.00951V23.5495H120.028V1.00951H119.028ZM119.199 23.1732L73.1987 63.4232L73.8572 64.1758L119.857 23.9258L119.199 23.1732ZM73.4944 64.2984C89.38 65.3676 101.372 69.4878 109.54 76.5967L110.196 75.8424C101.804 68.5379 89.5693 64.3781 73.5616 63.3006L73.4944 64.2984Z" fill="white"/>
</svg>
