<svg width="52" height="20" viewBox="0 0 52 20" xmlns="http://www.w3.org/2000/svg">
<path d="M0.0703125 19.5H51.7035" stroke="white"/>
<path d="M11.5938 5.69693V8.39325" stroke="white"/>
<path fill-rule="evenodd" clip-rule="evenodd" d="M0.0742188 19.4749V3.66241L8.01241 0.964386L15.9506 3.66241V19.4749H0.0742188ZM2.34766 5.69693L2.34766 17.6969H3.34766L3.34766 5.69693H2.34766ZM5.79102 5.69693L5.79102 17.6969H6.79102L6.79102 5.69693H5.79102ZM9.23438 5.69693L9.23438 17.6969H10.2344L10.2344 5.69693H9.23438ZM12.6777 5.69693L12.6777 17.6969H13.6777L13.6777 5.69693H12.6777Z"  />
<path fill-rule="evenodd" clip-rule="evenodd" d="M17.9492 19.4749V3.66241L25.8874 0.964386L33.8256 3.66241V19.4749H17.9492ZM20.2227 5.69693L20.2227 17.6969H21.2227L21.2227 5.69693H20.2227ZM23.666 5.69693L23.666 17.6969H24.666L24.666 5.69693H23.666ZM27.1094 5.69693V17.6969H28.1094V5.69693H27.1094ZM30.5527 5.69693L30.5527 17.6969H31.5527L31.5527 5.69693H30.5527Z"  />
<path fill-rule="evenodd" clip-rule="evenodd" d="M35.8281 19.4749V3.66241L43.7663 0.964386L51.7045 3.66241V19.4749H35.8281ZM38.1016 5.69693L38.1016 17.6969H39.1016L39.1016 5.69693H38.1016ZM41.5449 5.69693L41.5449 17.6969H42.5449L42.5449 5.69693H41.5449ZM44.9883 5.69693V17.6969H45.9883V5.69693H44.9883ZM48.4316 5.69693L48.4316 17.6969H49.4316L49.4316 5.69693H48.4316Z"  />
</svg>
