<svg width="70" height="41" viewBox="0 0 70 41" fill="none" xmlns="http://www.w3.org/2000/svg">
<path d="M13.4187 19.7849V21.4929H47.408V0.960327H13.4187V2.66832M18.0423 6.11182H2.73936M21.4349 11.2267H7.83733M6.14093 11.2267H2.73926M9.73419 18.077H6.33252M4.63605 18.077H1.23438M23.5599 33.4397H21.1431M57.9319 33.4397H32.7797M11.9229 33.4397H9.73415V24.964H50.8551M50.8551 24.964V7.84741H60.4308L69.3226 14.5049V33.4397H67.1521M50.8551 24.964L69.3226 24.964M50.8551 21.447H69.3226M57.6313 35.111C57.6313 37.8394 59.828 40.0513 62.5377 40.0513C65.2475 40.0513 67.4442 37.8394 67.4442 35.111C67.4442 32.3825 65.2475 30.1707 62.5377 30.1707C59.828 30.1707 57.6313 32.3825 57.6313 35.111ZM23.2588 35.111C23.2588 37.8394 25.4554 40.0513 28.1652 40.0513C30.8749 40.0513 33.0716 37.8394 33.0716 35.111C33.0716 32.3825 30.8749 30.1707 28.1652 30.1707C25.4554 30.1707 23.2588 32.3825 23.2588 35.111ZM11.6313 35.111C11.6313 37.8394 13.828 40.0513 16.5377 40.0513C19.2475 40.0513 21.4442 37.8394 21.4442 35.111C21.4442 32.3825 19.2475 30.1707 16.5377 30.1707C13.828 30.1707 11.6313 32.3825 11.6313 35.111Z" stroke="#FFED00" stroke-miterlimit="10" stroke-linecap="round" stroke-linejoin="round"/>
</svg>
