<svg width="57" height="53" viewBox="0 0 57 53" fill="none" xmlns="http://www.w3.org/2000/svg">
<path d="M55.9678 33.7744L56.361 34.0832L56.4677 33.9474L56.4678 33.7747L55.9678 33.7744ZM55.9842 12.3127L56.4843 12.3131L56.4842 12.3061L55.9842 12.3127ZM51.453 12.3618L51.953 12.3572L51.953 12.3552L51.453 12.3618ZM51.5676 24.7448L51.9211 25.0983L52.0695 24.9499L52.0675 24.7401L51.5676 24.7448ZM39.1682 37.1441L38.8147 36.7905L38.6682 36.937V37.1441H39.1682ZM39.1682 52.4061H38.6682V52.9061H39.1682V52.4061ZM47.7561 52.4061V52.9061H48.2561V52.4061H47.7561ZM47.7561 44.2271L47.363 43.9182L47.2561 44.0542V44.2271H47.7561ZM51.3393 28.2291L51.6962 27.8788L51.6961 27.8788L51.3393 28.2291ZM51.3066 31.4352L50.9563 31.0784L50.9561 31.0787L51.3066 31.4352ZM1.25073 33.7744L0.750733 33.7747L0.750865 33.9474L0.857552 34.0832L1.25073 33.7744ZM1.23438 12.3127L0.73437 12.3061L0.734375 12.3131L1.23438 12.3127ZM5.76553 12.3618L5.26557 12.3552L5.26555 12.3572L5.76553 12.3618ZM5.65102 24.7448L5.15105 24.7401L5.14911 24.9499L5.29747 25.0983L5.65102 24.7448ZM18.0504 37.1441H18.5504V36.937L18.4039 36.7905L18.0504 37.1441ZM18.0504 52.4061V52.9061H18.5504V52.4061H18.0504ZM9.46243 52.4061H8.96243V52.9061H9.46243V52.4061ZM9.46243 44.2271H9.96243V44.0542L9.85561 43.9182L9.46243 44.2271ZM5.88003 28.2291L5.52325 27.8788L5.52319 27.8788L5.88003 28.2291ZM5.91275 31.4352L6.2633 31.0787L6.26304 31.0784L5.91275 31.4352ZM28.6174 16.0916L28.8519 15.6499L28.618 15.5258L28.3839 15.6494L28.6174 16.0916ZM25.4276 17.7764L24.9347 17.6924L24.7642 18.6923L25.6611 18.2185L25.4276 17.7764ZM26.0329 14.2267L26.5257 14.3108L26.5699 14.0519L26.3818 13.8687L26.0329 14.2267ZM23.4647 11.724L23.3917 11.2293L22.3919 11.3768L23.1157 12.0821L23.4647 11.724ZM27.0143 11.2005L27.0873 11.6952L27.345 11.6572L27.4615 11.4241L27.0143 11.2005ZM28.6174 7.99437L29.0655 7.77259L28.6197 6.87174L28.1702 7.77076L28.6174 7.99437ZM30.2041 11.2005L29.756 11.4223L29.8721 11.657L30.1312 11.6952L30.2041 11.2005ZM33.7538 11.724L34.1028 12.0821L34.8265 11.3768L33.8268 11.2293L33.7538 11.724ZM31.1856 14.2267L30.8366 13.8687L30.6486 14.0519L30.6927 14.3108L31.1856 14.2267ZM31.7909 17.7764L31.5564 18.218L32.4547 18.695L32.2837 17.6924L31.7909 17.7764ZM28.6345 1.46033C28.9106 1.46033 29.1345 1.23647 29.1345 0.960327C29.1345 0.684185 28.9106 0.460327 28.6345 0.460327V1.46033ZM26.5079 1.66372L26.275 1.22119L26.267 1.22561L26.5079 1.66372ZM25.5919 2.08903L25.7003 2.57712C25.7113 2.57468 25.7222 2.57188 25.733 2.56871L25.5919 2.08903ZM24.545 2.18717L24.5569 2.68711L24.5658 2.68674L24.545 2.18717ZM22.4021 2.62884L22.154 2.19471L22.1508 2.19659L22.4021 2.62884ZM20.9462 4.28099L21.375 4.53826L21.3781 4.53293L20.9462 4.28099ZM19.4904 5.73685L19.7512 6.16366L19.7629 6.15607L19.4904 5.73685ZM17.8382 7.20907L17.4059 6.95775L17.4041 6.961L17.8382 7.20907ZM17.3965 9.35196L17.8962 9.37278L17.8964 9.36386L17.3965 9.35196ZM17.2984 10.4152L17.7851 10.5298L17.7865 10.5237L17.2984 10.4152ZM16.8731 11.3313L16.435 11.0903L16.4332 11.0935L16.8731 11.3313ZM16.8731 15.5843L16.4332 15.8221L16.435 15.8253L16.8731 15.5843ZM17.2984 16.5004L17.7802 16.3666C17.7787 16.3614 17.7772 16.3563 17.7756 16.3513L17.2984 16.5004ZM17.3965 17.5637H16.8964L16.8967 17.5756L17.3965 17.5637ZM17.8382 19.7066L18.2723 19.4585L17.8382 19.7066ZM18.0672 20.0337L18.4626 19.7276C18.4589 19.7229 18.4552 19.7182 18.4513 19.7136L18.0672 20.0337ZM19.4904 21.1788L19.2228 21.6013L19.2331 21.6075L19.4904 21.1788ZM20.161 21.6368L19.8409 22.0209C19.8475 22.0264 19.8542 22.0317 19.861 22.0368L20.161 21.6368ZM20.8481 22.5038L20.4282 22.7754L20.432 22.7811L20.8481 22.5038ZM20.9299 22.6346L21.3565 22.3739C21.3359 22.3402 21.3114 22.309 21.2834 22.2811L20.9299 22.6346ZM22.4021 24.2868L22.1508 24.719L22.154 24.7209L22.4021 24.2868ZM24.545 24.7448L24.5658 24.2452L24.5569 24.2449L24.545 24.7448ZM25.5919 24.8757L25.733 24.3959L25.7257 24.3939L25.5919 24.8757ZM26.5079 25.35L26.267 25.7882L26.2702 25.7899L26.5079 25.35ZM30.761 25.35L30.9988 25.7899L31.002 25.7882L30.761 25.35ZM31.677 24.8757L31.5432 24.3939L31.536 24.396L31.677 24.8757ZM32.724 24.7448L32.712 24.2449L32.7031 24.2452L32.724 24.7448ZM34.8668 24.2868L35.1149 24.7209L35.1182 24.719L34.8668 24.2868ZM36.3391 22.6346L35.9229 22.3572L35.9157 22.3685L36.3391 22.6346ZM36.4209 22.5038L36.7744 22.8573C36.7993 22.8324 36.8215 22.805 36.8406 22.7754L36.4209 22.5038ZM37.1079 21.6368L36.8079 21.2368C36.789 21.251 36.7711 21.2665 36.7543 21.2832L37.1079 21.6368ZM37.7786 21.1788L37.5213 20.75C37.5145 20.7541 37.5078 20.7583 37.5012 20.7627L37.7786 21.1788ZM39.2017 20.0337L38.8175 19.7136L38.8125 19.7198L39.2017 20.0337ZM39.4307 19.7066L38.9966 19.4585L39.4307 19.7066ZM39.8724 17.5637L39.3727 17.5428L39.3725 17.5515L39.8724 17.5637ZM39.9705 16.5004L40.4542 16.6277L40.4572 16.6149L39.9705 16.5004ZM40.3958 15.5843L40.834 15.8253L40.8357 15.8221L40.3958 15.5843ZM40.3958 11.3313L40.8357 11.0935L40.8339 11.0903L40.3958 11.3313ZM39.9705 10.4152L39.4888 10.5491C39.4902 10.5542 39.4917 10.5593 39.4933 10.5644L39.9705 10.4152ZM39.8724 9.35196H40.3725L40.3722 9.34006L39.8724 9.35196ZM39.4307 7.20907L39.8649 6.96099L39.863 6.95776L39.4307 7.20907ZM37.7786 5.73685L38.0393 5.3102L38.0358 5.30811L37.7786 5.73685ZM36.3227 4.28099L35.8959 4.54182L35.9035 4.55349L36.3227 4.28099ZM34.8505 2.62884L34.5979 3.06035L34.5992 3.06109L34.8505 2.62884ZM32.7403 2.18717L32.7195 2.68682L32.7281 2.68703L32.7403 2.18717ZM31.6934 2.08903L31.5789 2.57577L31.5849 2.57712L31.6934 2.08903ZM30.7774 1.66372L31.0183 1.2256L31.0151 1.22387L30.7774 1.66372ZM28.6508 0.460327C28.3747 0.460327 28.1508 0.684185 28.1508 0.960327C28.1508 1.23647 28.3747 1.46033 28.6508 1.46033V0.460327ZM26.005 25.0856C26.13 24.8394 26.0317 24.5385 25.7855 24.4135C25.5392 24.2885 25.2383 24.3868 25.1133 24.633L26.005 25.0856ZM22.2876 31.3043L21.8416 31.0779L21.8357 31.0903L22.2876 31.3043ZM20.6518 31.2553L20.1947 31.4581L20.1958 31.4605L20.6518 31.2553ZM19.4904 28.638L19.9474 28.4352C19.8508 28.2176 19.6143 28.0983 19.3819 28.1499L19.4904 28.638ZM16.6931 29.2596L16.5846 28.7713L16.5719 28.7745L16.6931 29.2596ZM15.7444 27.8692L16.1604 28.1465C16.1715 28.1298 16.1816 28.1125 16.1907 28.0946L15.7444 27.8692ZM19.5284 21.4864C19.6529 21.2399 19.554 20.9392 19.3075 20.8147C19.061 20.6902 18.7603 20.7891 18.6358 21.0356L19.5284 21.4864ZM32.1065 24.633C31.9815 24.3868 31.6806 24.2885 31.4344 24.4135C31.1881 24.5385 31.0898 24.8394 31.2148 25.0856L32.1065 24.633ZM34.9323 31.3043L35.3843 31.0902L35.3781 31.078L34.9323 31.3043ZM36.5681 31.2553L37.024 31.4605L37.0251 31.4581L36.5681 31.2553ZM37.7295 28.638L37.8374 28.1498C37.6051 28.0985 37.3689 28.2178 37.2725 28.4352L37.7295 28.638ZM40.5431 29.2596L40.6644 28.7743L40.6509 28.7714L40.5431 29.2596ZM41.4918 27.8692L41.0458 28.0951C41.0547 28.1128 41.0648 28.13 41.0758 28.1465L41.4918 27.8692ZM38.699 21.2473C38.5743 21.001 38.2734 20.9024 38.0271 21.0271C37.7807 21.1519 37.6821 21.4527 37.8069 21.6991L38.699 21.2473ZM56.4678 33.7747L56.4842 12.3131L55.4842 12.3123L55.4678 33.774L56.4678 33.7747ZM56.4842 12.3061C56.4642 10.7898 55.2099 9.55168 53.6875 9.57171L53.7007 10.5716C54.6647 10.5589 55.4715 11.3492 55.4842 12.3193L56.4842 12.3061ZM53.6875 9.57171C52.1712 9.59166 50.9331 10.846 50.9531 12.3684L51.953 12.3552C51.9403 11.3911 52.7306 10.5844 53.7007 10.5716L53.6875 9.57171ZM50.9531 12.3664L51.0676 24.7494L52.0675 24.7401L51.953 12.3572L50.9531 12.3664ZM51.214 24.3912L38.8147 36.7905L39.5218 37.4977L51.9211 25.0983L51.214 24.3912ZM38.6682 37.1441V52.4061H39.6682V37.1441H38.6682ZM39.1682 52.9061H47.7561V51.9061H39.1682V52.9061ZM48.2561 52.4061V44.2271H47.2561V52.4061H48.2561ZM48.1493 44.536L56.361 34.0832L55.5747 33.4655L47.363 43.9182L48.1493 44.536ZM48.4834 28.5532C49.1712 27.8782 50.2941 27.8782 50.9825 28.5794L51.6961 27.8788C50.6179 26.7806 48.8618 26.7806 47.7829 27.8395L48.4834 28.5532ZM50.9825 28.5793C51.6575 29.2671 51.6575 30.39 50.9563 31.0784L51.6569 31.792C52.7551 30.7138 52.7551 28.9577 51.6962 27.8788L50.9825 28.5793ZM50.9561 31.0787L45.0999 36.8367L45.801 37.5498L51.6572 31.7918L50.9561 31.0787ZM1.75073 33.774L1.73437 12.3123L0.734375 12.3131L0.750733 33.7747L1.75073 33.774ZM1.73433 12.3193C1.7471 11.3492 2.55384 10.5589 3.51791 10.5716L3.53107 9.57171C2.00873 9.55168 0.75437 10.7898 0.734418 12.3061L1.73433 12.3193ZM3.51791 10.5716C4.48803 10.5844 5.27826 11.3911 5.26557 12.3552L6.26549 12.3684C6.28552 10.846 5.04736 9.59166 3.53107 9.57171L3.51791 10.5716ZM5.26555 12.3572L5.15105 24.7401L6.151 24.7494L6.26551 12.3664L5.26555 12.3572ZM5.29747 25.0983L17.6968 37.4977L18.4039 36.7905L6.00458 24.3912L5.29747 25.0983ZM17.5504 37.1441V52.4061H18.5504V37.1441H17.5504ZM18.0504 51.9061H9.46243V52.9061H18.0504V51.9061ZM9.96243 52.4061V44.2271H8.96243V52.4061H9.96243ZM9.85561 43.9182L1.64391 33.4655L0.857552 34.0832L9.06925 44.536L9.85561 43.9182ZM9.43642 27.8395C8.35753 26.7806 6.60148 26.7806 5.52325 27.8788L6.23681 28.5794C6.92524 27.8782 8.04819 27.8782 8.73596 28.5532L9.43642 27.8395ZM5.52319 27.8788C4.46428 28.9577 4.46425 30.7138 5.56245 31.792L6.26304 31.0784C5.56186 30.39 5.56184 29.2671 6.23687 28.5793L5.52319 27.8788ZM5.56219 31.7918L11.4183 37.5498L12.1194 36.8367L6.2633 31.0787L5.56219 31.7918ZM28.3839 15.6494L25.1941 17.3343L25.6611 18.2185L28.8509 16.5337L28.3839 15.6494ZM25.9205 17.8605L26.5257 14.3108L25.54 14.1427L24.9347 17.6924L25.9205 17.8605ZM26.3818 13.8687L23.8136 11.3659L23.1157 12.0821L25.6839 14.5848L26.3818 13.8687ZM23.5376 12.2186L27.0873 11.6952L26.9414 10.7059L23.3917 11.2293L23.5376 12.2186ZM27.4615 11.4241L29.0646 8.21797L28.1702 7.77076L26.5671 10.9769L27.4615 11.4241ZM28.1693 8.21614L29.756 11.4223L30.6523 10.9788L29.0655 7.77259L28.1693 8.21614ZM30.1312 11.6952L33.6809 12.2186L33.8268 11.2293L30.2771 10.7059L30.1312 11.6952ZM33.4048 11.3659L30.8366 13.8687L31.5346 14.5848L34.1028 12.0821L33.4048 11.3659ZM30.6927 14.3108L31.298 17.8605L32.2837 17.6924L31.6785 14.1427L30.6927 14.3108ZM32.0253 17.3348L28.8519 15.6499L28.3829 16.5332L31.5564 18.218L32.0253 17.3348ZM28.6345 0.460327C27.6718 0.460327 26.8743 0.90588 26.2751 1.22126L26.7408 2.10618C27.3848 1.76724 27.9614 1.46033 28.6345 1.46033V0.460327ZM26.267 1.22561C25.9327 1.40945 25.6684 1.54535 25.4508 1.60934L25.733 2.56871C26.0716 2.46912 26.4288 2.27787 26.7489 2.10183L26.267 1.22561ZM25.4834 1.60093C25.2409 1.65482 24.929 1.67074 24.5242 1.68761L24.5658 2.68674C24.9461 2.67089 25.3539 2.6541 25.7003 2.57712L25.4834 1.60093ZM24.5331 1.68732C23.8549 1.70346 22.9644 1.73166 22.154 2.19472L22.6501 3.06296C23.2139 2.74083 23.8609 2.7036 24.5569 2.68703L24.5331 1.68732ZM22.1508 2.19659C21.3221 2.67835 20.8572 3.44131 20.5143 4.02906L21.3781 4.53293C21.7223 3.9429 22.0752 3.39723 22.6534 3.06109L22.1508 2.19659ZM20.5175 4.02375C20.317 4.35781 20.1499 4.61556 19.9874 4.77805L20.6945 5.48516C20.9573 5.22235 21.1828 4.85849 21.375 4.53824L20.5175 4.02375ZM19.9874 4.77805C19.8235 4.942 19.5843 5.07946 19.2179 5.31763L19.7629 6.15607C20.0508 5.96894 20.4332 5.74652 20.6945 5.48516L19.9874 4.77805ZM19.2296 5.31021C18.6502 5.66433 17.8867 6.13081 17.406 6.95776L18.2705 7.46038C18.6076 6.88055 19.1528 6.52912 19.7511 6.16349L19.2296 5.31021ZM17.4041 6.961C16.941 7.77134 16.9128 8.66194 16.8967 9.34006L17.8964 9.36386C17.913 8.66791 17.9502 8.02086 18.2723 7.45714L17.4041 6.961ZM16.897 9.33115C16.88 9.73789 16.8641 10.0648 16.8103 10.3068L17.7865 10.5237C17.8636 10.1768 17.8803 9.75121 17.8961 9.37278L16.897 9.33115ZM16.8117 10.3007C16.766 10.4949 16.6325 10.7312 16.435 11.0903L17.3112 11.5722C17.4735 11.2771 17.6999 10.8918 17.7851 10.5297L16.8117 10.3007ZM16.4332 11.0935C16.1135 11.6851 15.6697 12.4953 15.6697 13.4578H16.6697C16.6697 12.7845 16.9784 12.1879 17.3129 11.569L16.4332 11.0935ZM15.6697 13.4578C15.6697 14.4203 16.1135 15.2305 16.4332 15.8221L17.3129 15.3466C16.9784 14.7277 16.6697 14.1311 16.6697 13.4578H15.6697ZM16.435 15.8253C16.6141 16.151 16.7557 16.4399 16.8212 16.6495L17.7756 16.3513C17.6776 16.0374 17.4919 15.672 17.3112 15.3434L16.435 15.8253ZM16.8166 16.6342C16.8783 16.8562 16.8965 17.1708 16.8965 17.5637H17.8965C17.8965 17.1713 17.8821 16.7335 17.7802 16.3666L16.8166 16.6342ZM16.8967 17.5756C16.9128 18.2537 16.941 19.1443 17.4041 19.9546L18.2723 19.4585C17.9502 18.8948 17.913 18.2477 17.8964 17.5518L16.8967 17.5756ZM17.4041 19.9546C17.4861 20.0981 17.5854 20.2365 17.6831 20.3538L18.4513 19.7136C18.3855 19.6346 18.3212 19.5441 18.2723 19.4585L17.4041 19.9546ZM17.6719 20.3398C18.1286 20.9298 18.7518 21.3029 19.2228 21.6012L19.7579 20.7564C19.2474 20.4331 18.791 20.1519 18.4626 19.7276L17.6719 20.3398ZM19.2331 21.6075C19.4734 21.7517 19.6753 21.8829 19.8409 22.0209L20.4811 21.2527C20.2542 21.0635 19.9981 20.9003 19.7476 20.75L19.2331 21.6075ZM19.861 22.0368C19.8946 22.062 19.9209 22.0874 19.9711 22.1376L20.6782 21.4305C20.6302 21.3825 20.5583 21.3098 20.461 21.2368L19.861 22.0368ZM19.9711 22.1376C20.104 22.2705 20.2341 22.4753 20.4283 22.7754L21.2679 22.2321C21.1022 21.9761 20.9051 21.6574 20.6782 21.4305L19.9711 22.1376ZM20.432 22.7811C20.4297 22.7777 20.4295 22.7769 20.4325 22.7823C20.4341 22.7852 20.4359 22.7885 20.4389 22.7942C20.4415 22.7989 20.4458 22.807 20.45 22.8148C20.4643 22.841 20.5052 22.9171 20.5763 22.9882L21.2834 22.2811C21.3045 22.3022 21.3177 22.3206 21.3239 22.3299C21.3296 22.3384 21.3317 22.3429 21.3279 22.3359C21.326 22.3324 21.3242 22.329 21.3205 22.3221C21.3172 22.316 21.3127 22.3075 21.3076 22.2983C21.2973 22.2797 21.2828 22.2544 21.2641 22.2264L20.432 22.7811ZM20.5032 22.8954C20.8573 23.4748 21.3238 24.2382 22.1508 24.719L22.6534 23.8545C22.0736 23.5174 21.7221 22.9722 21.3565 22.3739L20.5032 22.8954ZM22.154 24.7209C22.9606 25.1818 23.8444 25.2283 24.5331 25.2447L24.5569 24.2449C23.8715 24.2286 23.2177 24.177 22.6501 23.8527L22.154 24.7209ZM24.5242 25.2444C24.9105 25.2605 25.2221 25.2919 25.4581 25.3574L25.7257 24.3939C25.3728 24.2959 24.9646 24.2619 24.5658 24.2452L24.5242 25.2444ZM25.4508 25.3554C25.5334 25.3796 25.6401 25.4299 25.7872 25.5123C25.8587 25.5524 25.932 25.5955 26.0133 25.6431C26.0928 25.6896 26.1787 25.7396 26.267 25.7882L26.7489 24.9119C26.6735 24.8705 26.5979 24.8265 26.5184 24.78C26.4408 24.7345 26.3576 24.6856 26.2758 24.6398C26.1162 24.5504 25.9285 24.4535 25.733 24.396L25.4508 25.3554ZM26.2702 25.7899C26.8133 26.0835 27.6404 26.6352 28.6345 26.6352V25.6352C27.96 25.6352 27.413 25.2709 26.7457 24.9102L26.2702 25.7899ZM28.6345 26.6352C29.6285 26.6352 30.4556 26.0835 30.9988 25.7899L30.5232 24.9102C29.8559 25.2709 29.3089 25.6352 28.6345 25.6352V26.6352ZM31.002 25.7882C31.0902 25.7396 31.1761 25.6896 31.2556 25.6431C31.3369 25.5955 31.4102 25.5524 31.4817 25.5123C31.6288 25.4299 31.7356 25.3796 31.8181 25.3554L31.536 24.396C31.3404 24.4535 31.1527 24.5504 30.9931 24.6398C30.9113 24.6856 30.8282 24.7345 30.7505 24.78C30.671 24.8265 30.5954 24.8705 30.52 24.9119L31.002 25.7882ZM31.8109 25.3574C32.0469 25.2919 32.3584 25.2605 32.7448 25.2444L32.7031 24.2452C32.3043 24.2619 31.8961 24.2959 31.5432 24.3939L31.8109 25.3574ZM32.7359 25.2447C33.4245 25.2283 34.3084 25.1818 35.1149 24.7209L34.6188 23.8527C34.0513 24.177 33.3974 24.2286 32.7121 24.2449L32.7359 25.2447ZM35.1182 24.719C35.9458 24.2379 36.4149 23.4535 36.7624 22.9007L35.9157 22.3685C35.5435 22.9608 35.1947 23.5178 34.6155 23.8545L35.1182 24.719ZM36.7551 22.912C36.7737 22.884 36.7883 22.8587 36.7986 22.8401C36.8036 22.8309 36.8082 22.8224 36.8115 22.8163C36.8152 22.8094 36.817 22.8059 36.8189 22.8025C36.8227 22.7955 36.8206 22.8 36.8149 22.8085C36.8087 22.8177 36.7955 22.8362 36.7744 22.8573L36.0673 22.1502C35.9962 22.2213 35.9553 22.2974 35.941 22.3236C35.9368 22.3314 35.9324 22.3395 35.9299 22.3442C35.9269 22.3498 35.9251 22.3532 35.9235 22.356C35.9205 22.3615 35.9207 22.3607 35.923 22.3573L36.7551 22.912ZM36.8406 22.7754C37.0348 22.4753 37.1649 22.2705 37.2979 22.1376L36.5908 21.4305C36.3639 21.6574 36.1668 21.9761 36.0011 22.2321L36.8406 22.7754ZM37.2979 22.1376C37.3063 22.1291 37.3195 22.1174 37.3515 22.09C37.3768 22.0684 37.4208 22.031 37.4614 21.9903L36.7543 21.2832C36.7459 21.2917 36.7327 21.3034 36.7007 21.3308C36.6754 21.3524 36.6314 21.3898 36.5908 21.4305L37.2979 22.1376ZM37.4079 22.0368C37.5895 21.9005 37.7996 21.7657 38.0559 21.5948L37.5012 20.7627C37.2668 20.919 37.0188 21.0786 36.8079 21.2368L37.4079 22.0368ZM38.0358 21.6075C38.5336 21.3089 39.1229 20.9279 39.5909 20.3476L38.8125 19.7198C38.4626 20.1537 38.005 20.4598 37.5213 20.75L38.0358 21.6075ZM39.5858 20.3538C39.6836 20.2365 39.7829 20.0981 39.8648 19.9546L38.9966 19.4585C38.9477 19.544 38.8834 19.6346 38.8176 19.7136L39.5858 20.3538ZM39.8648 19.9546C40.3281 19.144 40.3561 18.2363 40.3722 17.5758L39.3725 17.5515C39.3559 18.2323 39.3186 18.895 38.9966 19.4585L39.8648 19.9546ZM40.3719 17.5845C40.3899 17.1538 40.3901 16.8709 40.4541 16.6276L39.487 16.3731C39.3874 16.7515 39.3876 17.1884 39.3728 17.5428L40.3719 17.5845ZM40.4572 16.6149C40.5029 16.4208 40.6364 16.1845 40.8339 15.8253L39.9577 15.3434C39.7954 15.6385 39.569 16.0239 39.4838 16.3859L40.4572 16.6149ZM40.8357 15.8221C41.1555 15.2305 41.5992 14.4203 41.5992 13.4578H40.5992C40.5992 14.1311 40.2905 14.7277 39.956 15.3466L40.8357 15.8221ZM41.5992 13.4578C41.5992 12.4783 41.1545 11.6834 40.8357 11.0935L39.956 11.569C40.2914 12.1896 40.5992 12.7688 40.5992 13.4578H41.5992ZM40.8339 11.0903C40.6548 10.7646 40.5133 10.4757 40.4478 10.2661L39.4933 10.5644C39.5914 10.8782 39.777 11.2436 39.9577 11.5722L40.8339 11.0903ZM40.4523 10.2814C40.3906 10.0594 40.3724 9.74481 40.3724 9.35196H39.3724C39.3724 9.74429 39.3869 10.1822 39.4888 10.5491L40.4523 10.2814ZM40.3722 9.34006C40.3561 8.66194 40.3279 7.77134 39.8648 6.961L38.9966 7.45714C39.3187 8.02086 39.356 8.66791 39.3725 9.36386L40.3722 9.34006ZM39.863 6.95776C39.3822 6.13081 38.6188 5.66433 38.0393 5.31021L37.5178 6.16349C38.1161 6.52912 38.6614 6.88055 38.9985 7.46038L39.863 6.95776ZM38.0358 5.30811C37.7017 5.10767 37.444 4.94055 37.2815 4.77805L36.5744 5.48516C36.8372 5.74797 37.2011 5.97345 37.5213 6.1656L38.0358 5.30811ZM37.2815 4.77805C37.1175 4.6141 36.9801 4.37492 36.7419 4.0085L35.9035 4.55349C36.0906 4.84138 36.313 5.2238 36.5744 5.48516L37.2815 4.77805ZM36.7493 4.02027C36.3952 3.4408 35.9287 2.67737 35.1018 2.19659L34.5992 3.06109C35.179 3.39821 35.5304 3.94342 35.8961 4.54172L36.7493 4.02027ZM35.1031 2.19733C34.3068 1.73122 33.4125 1.70342 32.7525 1.68732L32.7281 2.68703C33.4095 2.70364 34.0528 2.74128 34.5979 3.06035L35.1031 2.19733ZM32.7611 1.68761C32.3563 1.67074 32.0443 1.65482 31.8019 1.60093L31.5849 2.57712C31.9313 2.6541 32.3391 2.67089 32.7195 2.68674L32.7611 1.68761ZM31.8079 1.60232C31.6138 1.55663 31.3775 1.42315 31.0183 1.22561L30.5364 2.10183C30.8316 2.26417 31.2169 2.49056 31.5789 2.57574L31.8079 1.60232ZM31.0151 1.22387C30.4252 0.905011 29.6304 0.460327 28.6508 0.460327V1.46033C29.3398 1.46033 29.919 1.76811 30.5396 2.10357L31.0151 1.22387ZM28.6345 21.4498C32.9852 21.4498 36.5119 17.9038 36.5119 13.556H35.5119C35.5119 17.3544 32.43 20.4498 28.6345 20.4498V21.4498ZM36.5119 13.556C36.5119 9.20813 32.9852 5.66216 28.6345 5.66216V6.66216C32.43 6.66216 35.5119 9.75752 35.5119 13.556H36.5119ZM28.6345 5.66216C24.2837 5.66216 20.757 9.20813 20.757 13.556H21.757C21.757 9.75753 24.8389 6.66216 28.6345 6.66216V5.66216ZM20.757 13.556C20.757 17.9045 24.3008 21.4498 28.6345 21.4498V20.4498C24.8545 20.4498 21.757 17.3537 21.757 13.556H20.757ZM25.1133 24.633L21.8417 31.078L22.7334 31.5307L26.005 25.0856L25.1133 24.633ZM21.8357 31.0903C21.7854 31.1966 21.6718 31.2787 21.486 31.2787V32.2787C21.9873 32.2787 22.4953 32.0337 22.7394 31.5184L21.8357 31.0903ZM21.486 31.2787H21.4533V32.2787H21.486V31.2787ZM21.4533 31.2787C21.3068 31.2787 21.1743 31.1981 21.1077 31.0501L20.1958 31.4605C20.4237 31.9668 20.9128 32.2787 21.4533 32.2787V31.2787ZM21.1088 31.0525L19.9474 28.4352L19.0333 28.8408L20.1948 31.4581L21.1088 31.0525ZM19.3819 28.1499L16.5847 28.7715L16.8016 29.7477L19.5988 29.1261L19.3819 28.1499ZM16.5719 28.7745C16.5771 28.7732 16.5762 28.7741 16.5638 28.7749C16.5493 28.7758 16.5322 28.776 16.4969 28.776V29.776C16.553 29.776 16.6798 29.7783 16.8144 29.7447L16.5719 28.7745ZM16.4969 28.776C16.2718 28.776 16.0972 28.5968 16.0972 28.3763H15.0972C15.0972 29.1372 15.7077 29.776 16.4969 29.776V28.776ZM16.0972 28.3763C16.0972 28.2838 16.1229 28.2027 16.1604 28.1465L15.3284 27.5918C15.1695 27.83 15.0972 28.1088 15.0972 28.3763H16.0972ZM16.1907 28.0946L19.5284 21.4864L18.6358 21.0356L15.2981 27.6438L16.1907 28.0946ZM31.2148 25.0856L34.4864 31.5307L35.3781 31.078L32.1065 24.633L31.2148 25.0856ZM34.4804 31.5184C34.7245 32.0337 35.2325 32.2787 35.7338 32.2787V31.2787C35.5481 31.2787 35.4345 31.1966 35.3841 31.0903L34.4804 31.5184ZM35.7338 32.2787H35.7665V31.2787H35.7338V32.2787ZM35.7665 32.2787C36.3071 32.2787 36.7962 31.9668 37.024 31.4605L36.1121 31.0501C36.0455 31.1981 35.913 31.2787 35.7665 31.2787V32.2787ZM37.0251 31.4581L38.1865 28.8408L37.2725 28.4352L36.111 31.0525L37.0251 31.4581ZM37.6216 29.1262L40.4352 29.7478L40.6509 28.7714L37.8374 28.1498L37.6216 29.1262ZM40.4218 29.7447C40.5565 29.7783 40.6832 29.776 40.7394 29.776V28.776C40.7041 28.776 40.6869 28.7758 40.6724 28.7749C40.66 28.7741 40.6591 28.7732 40.6643 28.7745L40.4218 29.7447ZM40.7394 29.776C41.5062 29.776 42.139 29.1432 42.139 28.3763H41.139C41.139 28.5909 40.954 28.776 40.7394 28.776V29.776ZM42.139 28.3763C42.139 28.1088 42.0667 27.83 41.9078 27.5918L41.0758 28.1465C41.1133 28.2027 41.139 28.2838 41.139 28.3763H42.139ZM41.9379 27.6433L38.699 21.2473L37.8069 21.6991L41.0458 28.0951L41.9379 27.6433Z" fill="#FFED00"/>
</svg>
