<svg width="36" height="56" viewBox="0 0 36 56" fill="none" xmlns="http://www.w3.org/2000/svg">
<path d="M18.1763 54.6697L33.2993 27.2312C34.6855 24.7107 35.4165 21.8782 35.4165 19.0083V18.3969C35.4165 8.61436 27.1114 0.715953 17.1176 1.2525C7.88 1.75161 0.734375 9.51276 0.734375 18.6714V19.0083C0.734375 21.8782 1.46532 24.7107 2.8516 27.2312L18.1763 54.6697ZM18.2015 8.38976C23.7592 8.38976 28.2835 12.8693 28.2835 18.372C28.2835 23.8746 23.7592 28.3542 18.2015 28.3542C12.6437 28.3542 8.11945 23.8746 8.11945 18.372C8.11945 12.8693 12.6311 8.38976 18.2015 8.38976Z" stroke="#FFED00" stroke-miterlimit="10"/>
</svg>
