<svg width="37" height="58" viewBox="0 0 37 58" fill="none" xmlns="http://www.w3.org/2000/svg">
<rect x="3.74805" y="5.14478" width="9.52993" height="23.5698" stroke="#FFED00"/>
<path d="M3.24805 8.15479H17.1577C20.0655 8.15479 22.4227 10.512 22.4227 13.4197V13.4197C22.4227 16.3275 20.0655 18.6847 17.1577 18.6847H13.3993" stroke="#FFED00"/>
<path d="M5.71875 28.8835V32.2339H11.3047V28.8835" stroke="#FFED00"/>
<path d="M11.3047 4.64478L11.3047 1.29442L5.71872 1.29442L5.71872 4.64477" stroke="#FFED00"/>
<path d="M29.0293 54.2478L29.0293 50.8974L8.79365 50.8974L8.79365 54.2478" stroke="#FFED00"/>
<path d="M18.8724 13.4198C18.8724 14.3667 18.1048 15.1344 17.1579 15.1344C16.211 15.1344 15.4434 14.3667 15.4434 13.4198C15.4434 12.4729 16.211 11.7053 17.1579 11.7053C18.1048 11.7053 18.8724 12.4729 18.8724 13.4198Z" stroke="#FFED00"/>
<path d="M22.422 14.3271C28.5957 16.8203 32.952 22.8698 32.952 29.9368C32.952 37.0104 28.5875 43.0647 22.4045 45.5535M15.7356 18.6846C21.95 18.6846 26.9877 23.7224 26.9877 29.9367C26.9877 36.1511 21.95 41.1888 15.7356 41.1888H1.36154L1.36133 43.9501H15.3845M15.4021 41.2617V50.832M22.422 39.1204V50.8319M1.36219 53.7844H36.4619V57.2944H1.36219V53.7844Z" stroke="#FFED00"/>
</svg>
