<svg width="50" height="58" viewBox="0 0 50 58" fill="none" xmlns="http://www.w3.org/2000/svg">
<path d="M12.5875 37.2126V57.406M14.9861 37.2125V57.406M34.3965 37.2125V57.406M36.795 37.2125V57.4059M5.02802 37.2173V42.136C5.02802 43.0713 5.78628 43.8296 6.72163 43.8296C7.65699 43.8296 8.41525 43.0713 8.41525 42.136V37.2173M40.1663 1.40601H31.4171V18.2927H40.1663M31.2847 5.38475C26.7312 5.59045 17.6242 8.46003 17.6242 18.2927V36.9495M31.4171 18.3446C31.4171 22.2211 31.3609 26.3611 28.318 28.9081M24.4545 26.0493V31.7528C24.4545 32.7752 25.2833 33.604 26.3057 33.604C27.3282 33.604 28.157 32.7752 28.157 31.7528V26.0493M19.1812 16.8532V19.9972C19.1812 21.0196 20.01 21.8485 21.0324 21.8485C22.0549 21.8485 22.8837 21.0196 22.8837 19.9972V16.8532M19.1812 31.1846V33.8694C19.1812 34.7426 19.889 35.4504 20.7621 35.4504C21.6352 35.4504 22.343 34.7426 22.343 33.8694V31.1846M0.734375 36.9604H48.6481L46.5115 53.9064C46.2594 55.9062 44.5586 57.406 42.5429 57.406H6.91333C4.90419 57.406 3.2068 55.9156 2.94693 53.9234L0.734375 36.9604Z" stroke="#FFED00"/>
</svg>
