<svg width="53" height="42" viewBox="0 0 53 42" fill="none" xmlns="http://www.w3.org/2000/svg">
<path d="M28.3504 13.004C27.6944 13.004 27.1704 12.8 26.7784 12.392C26.3944 11.984 26.2024 11.428 26.2024 10.724C26.2024 10.028 26.3944 9.476 26.7784 9.068C27.1704 8.66 27.6944 8.456 28.3504 8.456C28.9984 8.456 29.5144 8.66 29.8984 9.068C30.2904 9.476 30.4864 10.028 30.4864 10.724C30.4864 11.42 30.2904 11.976 29.8984 12.392C29.5144 12.8 28.9984 13.004 28.3504 13.004ZM23.8024 16.34V8.6H24.8704V17H23.0104L19.2664 9.26V17H18.1984V8.6H20.0584L23.8024 16.34ZM29.2504 9.608C29.0344 9.32 28.7344 9.176 28.3504 9.176C27.9664 9.176 27.6624 9.316 27.4384 9.596C27.2224 9.876 27.1144 10.252 27.1144 10.724C27.1144 11.196 27.2224 11.576 27.4384 11.864C27.6624 12.144 27.9664 12.284 28.3504 12.284C28.7344 12.284 29.0344 12.144 29.2504 11.864C29.4744 11.576 29.5864 11.196 29.5864 10.724C29.5864 10.26 29.4744 9.888 29.2504 9.608ZM26.3584 14.456V13.748H30.3304V14.456H26.3584ZM36.4043 14.168H37.6763V15.032H36.4043V17H35.3483V15.032H31.1723V14.24L34.6763 8.6H36.4043V14.168ZM32.2163 14.168H35.3483V9.176L32.2163 14.168ZM39.0556 15.992C38.5196 15.216 38.2516 14.152 38.2516 12.8C38.2516 11.448 38.5196 10.388 39.0556 9.62C39.5916 8.844 40.3516 8.456 41.3356 8.456C42.3116 8.456 43.0676 8.844 43.6036 9.62C44.1396 10.388 44.4076 11.448 44.4076 12.8C44.4076 14.152 44.1396 15.216 43.6036 15.992C43.0676 16.76 42.3116 17.144 41.3356 17.144C40.3516 17.144 39.5916 16.76 39.0556 15.992ZM39.8356 10.244C39.4836 10.86 39.3076 11.712 39.3076 12.8C39.3076 13.888 39.4836 14.74 39.8356 15.356C40.1956 15.972 40.6956 16.28 41.3356 16.28C41.9676 16.28 42.4596 15.972 42.8116 15.356C43.1716 14.74 43.3516 13.888 43.3516 12.8C43.3516 11.712 43.1716 10.86 42.8116 10.244C42.4596 9.628 41.9676 9.32 41.3356 9.32C40.6956 9.32 40.1956 9.628 39.8356 10.244ZM45.2515 15.356C45.2515 14.228 46.0755 13.584 47.7235 13.424L49.5955 13.244V12.644C49.5955 12.252 49.4675 11.936 49.2115 11.696C48.9635 11.448 48.5955 11.328 48.1075 11.336C47.6595 11.336 47.2915 11.44 47.0035 11.648C46.7155 11.848 46.5595 12.152 46.5355 12.56H45.5635C45.5875 11.88 45.8315 11.38 46.2955 11.06C46.7595 10.732 47.3635 10.568 48.1075 10.568C48.9315 10.568 49.5595 10.764 49.9915 11.156C50.4235 11.548 50.6395 12.112 50.6395 12.848V17H49.6795V15.704C49.4795 16.16 49.1755 16.516 48.7675 16.772C48.3595 17.02 47.8635 17.144 47.2795 17.144C46.6075 17.144 46.0995 16.98 45.7555 16.652C45.4195 16.316 45.2515 15.884 45.2515 15.356ZM46.2955 15.32C46.2955 15.632 46.4035 15.888 46.6195 16.088C46.8355 16.288 47.1595 16.388 47.5915 16.388C48.2075 16.388 48.6955 16.196 49.0555 15.812C49.4155 15.42 49.5955 14.916 49.5955 14.3V13.916L47.8435 14.096C46.8115 14.192 46.2955 14.6 46.2955 15.32Z" fill="#FFED00"/>
<path d="M9.84719 24.5031V31.829M13.7801 24.5031V32.6117M42.5431 24.5031V31.9341M38.6099 24.5031V32.594M24.228 24.5031V32.8752M28.1622 24.5031V32.8375M11.0488 35.6442L13.5732 36.9064C15.1624 37.701 17.0329 37.701 18.622 36.9064C20.2112 36.1119 22.0817 36.1119 23.6709 36.9064L26.1953 38.1686M36.2929 38.1686L38.7862 36.922C40.3949 36.1176 42.2885 36.1176 43.8972 36.922L46.3905 38.1686M6 19.843H46.3905V24.7784H6V19.843ZM46.3905 33.856V41.0001H6V33.856L9.32851 32.1918C10.4115 31.6503 11.6862 31.6503 12.7691 32.1918L14.3773 32.9959C15.4603 33.5374 16.735 33.5374 17.8179 32.9959L19.4261 32.1918C20.5091 31.6503 21.7838 31.6503 22.8667 32.1918L24.475 32.9959C25.5579 33.5374 26.8326 33.5374 27.9156 32.9959L29.5238 32.1918C30.6067 31.6503 31.8814 31.6503 32.9644 32.1918L34.5726 32.9959C35.6555 33.5374 36.9302 33.5374 38.0132 32.9959L39.6214 32.1918C40.7044 31.6503 41.9791 31.6503 43.062 32.1918L46.3905 33.856Z" stroke="#FFED00"/>
<path d="M14.8939 10.9812C14.5269 14.2939 11.7833 16.8677 8.45318 16.8677C5.12311 16.8677 2.37951 14.2939 2.01245 10.9812M8.49363 4.24804V16.8677M5.53305 7.5228H11.4552M1 13.1605L1.84334 10.4767L3.99824 12.3737M15.9882 13.1605L15.1448 10.4767L12.9899 12.3737M10.1046 2.65066C10.1046 3.5623 9.38358 4.30133 8.49418 4.30133C7.60477 4.30133 6.88377 3.5623 6.88377 2.65066C6.88377 1.73903 7.60477 1 8.49418 1C9.38358 1 10.1046 1.73903 10.1046 2.65066Z" stroke="#FFED00"/>
</svg>
