<svg width="63" height="63" viewBox="0 0 63 63" fill="none" xmlns="http://www.w3.org/2000/svg">
<path d="M41.6551 19.9485C40.7805 19.9485 40.0818 19.6765 39.5591 19.1325C39.0471 18.5885 38.7911 17.8472 38.7911 16.9085C38.7911 15.9805 39.0471 15.2445 39.5591 14.7005C40.0818 14.1565 40.7805 13.8845 41.6551 13.8845C42.5191 13.8845 43.2071 14.1565 43.7191 14.7005C44.2418 15.2445 44.5031 15.9805 44.5031 16.9085C44.5031 17.8365 44.2418 18.5779 43.7191 19.1325C43.2071 19.6765 42.5191 19.9485 41.6551 19.9485ZM35.5911 24.3965V14.0765H37.0151V25.2765H34.5351L29.5431 14.9565V25.2765H28.1191V14.0765H30.5991L35.5911 24.3965ZM42.8551 15.4205C42.5671 15.0365 42.1671 14.8445 41.6551 14.8445C41.1431 14.8445 40.7378 15.0312 40.4391 15.4045C40.1511 15.7779 40.0071 16.2792 40.0071 16.9085C40.0071 17.5379 40.1511 18.0445 40.4391 18.4285C40.7378 18.8019 41.1431 18.9885 41.6551 18.9885C42.1671 18.9885 42.5671 18.8019 42.8551 18.4285C43.1538 18.0445 43.3031 17.5379 43.3031 16.9085C43.3031 16.2899 43.1538 15.7939 42.8551 15.4205ZM38.9991 21.8845V20.9405H44.2951V21.8845H38.9991Z" fill="#FFED00"/>
<path d="M52.7136 21.5005H54.4096V22.6525H52.7136V25.2765H51.3056V22.6525H45.7376V21.5965L50.4096 14.0765H52.7136V21.5005ZM47.1296 21.5005H51.3056V14.8445L47.1296 21.5005Z" fill="#FFED00"/>
<path d="M57.6939 14.0765H58.8139V25.2765H57.4059V15.7085L55.0379 17.3565V15.9485L57.6939 14.0765Z" fill="#FFED00"/>
<path d="M6.55266 36.8247V47.9052M12.5025 36.8247V49.089M56.0064 36.8247V48.0642M50.057 36.8247V49.0622M28.3048 36.8247V49.4875M34.2549 36.8247V49.4306M8.37077 53.6763L13.3238 56.1528C15.013 56.9974 17.0012 56.9974 18.6904 56.1528L20.9602 55.0179C22.6494 54.1733 24.6376 54.1733 26.3268 55.0179L31.2798 57.4944M46.5525 57.4944L51.5056 55.0179C53.1948 54.1733 55.183 54.1733 56.8722 55.0179L61.8253 57.4944M21.7485 16.3733C21.1933 21.3838 17.0436 25.2766 12.0069 25.2766C6.97012 25.2766 2.82041 21.3838 2.26525 16.3733M12.0686 6.18933V25.2766M7.59004 11.1424H16.5473M0.734375 19.6692L2.00993 15.6099L5.26922 18.4791M23.403 19.6692L22.1275 15.6099L18.8682 18.4791M0.73441 29.7766H61.8253V37.2414H0.73441V29.7766ZM61.8252 50.9712V61.7766H0.73441V50.9712L5.7688 48.454C7.40677 47.635 9.33476 47.635 10.9727 48.454L13.4052 49.6702C15.0431 50.4892 16.9711 50.4892 18.6091 49.6702L21.0415 48.454C22.6795 47.635 24.6075 47.635 26.2454 48.454L28.6779 49.6702C30.3158 50.4892 32.2438 50.4892 33.8818 49.6702L36.3142 48.454C37.9522 47.635 39.8802 47.635 41.5182 48.454L43.9506 49.6702C45.5885 50.4892 47.5165 50.4892 49.1545 49.6702L51.5869 48.454C53.2249 47.635 55.1529 47.635 56.7909 48.454L61.8252 50.9712ZM14.5044 3.77325C14.5044 5.1521 13.4139 6.26988 12.0687 6.26988C10.7235 6.26988 9.63294 5.1521 9.63294 3.77325C9.63294 2.39439 10.7235 1.27661 12.0687 1.27661C13.4139 1.27661 14.5044 2.39439 14.5044 3.77325Z" stroke="#FFED00"/>
</svg>
