<svg width="65" height="58" viewBox="0 0 65 58" fill="none" xmlns="http://www.w3.org/2000/svg">
<path d="M48.5561 28.3818L56.4319 14.0922C57.1538 12.7796 57.5345 11.3045 57.5345 9.80993V9.49152C57.5345 4.39694 53.2094 0.28358 48.0048 0.563003C43.194 0.822931 39.4727 4.86481 39.4727 9.63448V9.80993C39.4727 11.3045 39.8533 12.7796 40.5753 14.0922L48.5561 28.3818ZM48.5692 4.27997C51.4636 4.27997 53.8198 6.61282 53.8198 9.47852C53.8198 12.3442 51.4636 14.6771 48.5692 14.6771C45.6749 14.6771 43.3187 12.3442 43.3187 9.47852C43.3187 6.61282 45.6683 4.27997 48.5692 4.27997Z" stroke="#FFED00" stroke-miterlimit="10"/>
<path d="M49.7087 26.7119C51.6954 26.9459 53.1665 27.7894 53.1665 28.794C53.1665 29.9795 51.118 30.9406 48.5911 30.9406C46.0641 30.9406 44.0156 29.9795 44.0156 28.794C44.0156 27.7894 45.4867 26.9459 47.4734 26.7119" stroke="#FFED00"/>
<circle cx="16.0445" cy="41.1716" r="2.69289" stroke="#FFED00"/>
<circle cx="16.0428" cy="41.1716" r="6.31628" stroke="#FFED00"/>
<path d="M22.2949 41.2912H25.614C26.7186 41.2912 27.614 42.1866 27.614 43.2912V50.6021C27.614 51.8839 28.6531 52.9231 29.935 52.9231V52.9231C31.2168 52.9231 32.2559 51.8839 32.2559 50.6021V32.0343C32.2559 30.7525 33.2951 29.7134 34.5769 29.7134V29.7134C35.8587 29.7134 36.8979 30.7525 36.8979 32.0343V36.9972C36.8979 38.1018 37.7933 38.9972 38.8979 38.9972H46.5785C47.6831 38.9972 48.5785 38.1018 48.5785 36.9972V30.7683" stroke="#FFED00" stroke-dasharray="2 2"/>
<path d="M41.4905 15.7876H1.33984V56.5496H63.7346V15.7876H55.4819M1.41352 25.0716L13.6887 25.0717V15.9424M1.49 29.7134H13.6886V35.5254M18.3306 35.2779V15.9424M18.3306 56.5496V47.3484M13.6887 56.5496V47.3484M50.8242 44.2802H60.108M50.8242 47.6866H60.108" stroke="#FFED00"/>
<path d="M51.3242 51.1249H52.6223V52.423H51.3242V51.1249ZM58.3097 51.1249H59.6078V52.423H58.3097V51.1249ZM54.8169 51.1249H56.115V52.423H54.8169V51.1249Z" fill="white" stroke="#FFED00"/>
</svg>
