<svg width="25" height="25" viewBox="0 0 25 25" xmlns="http://www.w3.org/2000/svg">
<path d="M12.8789 3.12289C16.0789 3.12289 16.4589 3.13289 17.7289 3.19289C20.9789 3.34289 22.4989 4.88289 22.6489 8.11289C22.7089 9.38289 22.7189 9.76289 22.7189 12.9629C22.7189 16.1629 22.7089 16.5429 22.6489 17.8129C22.4989 21.0429 20.9889 22.5829 17.7289 22.7329C16.4589 22.7929 16.0889 22.8029 12.8789 22.8029C9.67891 22.8029 9.29891 22.7929 8.02891 22.7329C4.76891 22.5829 3.25891 21.0329 3.10891 17.8129C3.04891 16.5429 3.03891 16.1729 3.03891 12.9629C3.03891 9.76289 3.04891 9.38289 3.10891 8.11289C3.25891 4.88289 4.77891 3.34289 8.02891 3.19289C9.29891 3.14289 9.67891 3.12289 12.8789 3.12289ZM12.8789 0.962891C9.61891 0.962891 9.20891 0.972891 7.92891 1.03289C3.57891 1.23289 1.14891 3.65289 0.948906 8.01289C0.888906 9.29289 0.878906 9.70289 0.878906 12.9629C0.878906 16.2229 0.888906 16.6329 0.948906 17.9129C1.14891 22.2729 3.56891 24.6929 7.92891 24.8929C9.20891 24.9529 9.61891 24.9629 12.8789 24.9629C16.1389 24.9629 16.5489 24.9529 17.8289 24.8929C22.1789 24.6929 24.6089 22.2729 24.8089 17.9129C24.8689 16.6329 24.8789 16.2229 24.8789 12.9629C24.8789 9.70289 24.8689 9.29289 24.8089 8.01289C24.6089 3.66289 22.1889 1.23289 17.8289 1.03289C16.5489 0.972891 16.1389 0.962891 12.8789 0.962891ZM12.8789 6.80289C9.47891 6.80289 6.71891 9.56289 6.71891 12.9629C6.71891 16.3629 9.47891 19.1229 12.8789 19.1229C16.2789 19.1229 19.0389 16.3629 19.0389 12.9629C19.0389 9.56289 16.2789 6.80289 12.8789 6.80289ZM12.8789 16.9629C10.6689 16.9629 8.87891 15.1729 8.87891 12.9629C8.87891 10.7529 10.6689 8.96289 12.8789 8.96289C15.0889 8.96289 16.8789 10.7529 16.8789 12.9629C16.8789 15.1729 15.0889 16.9629 12.8789 16.9629ZM19.2889 5.11289C18.4889 5.11289 17.8489 5.75289 17.8489 6.55289C17.8489 7.35289 18.4989 7.99289 19.2889 7.99289C20.0889 7.99289 20.7289 7.35289 20.7289 6.55289C20.7289 5.75289 20.0789 5.11289 19.2889 5.11289Z" />
</svg>
