<svg width="84" height="48" viewBox="0 0 84 48"   xmlns="http://www.w3.org/2000/svg">
<path d="M0.274301 0.509964H7.89113V15.9078H7.99296C8.7465 14.562 9.55095 13.3206 10.3656 12.0792L18.0231 0.509964H27.4933L16.292 15.334L28.0533 35.3219H19.1331L10.7627 20.2892L7.89113 23.9926V35.3219H0.274301V0.509964Z"  />
<path d="M52.3502 34.4259C49.5836 35.5093 46.6348 36.0199 43.6743 35.9282C31.9334 35.9282 25.8847 28.3858 25.8847 18.4753C25.8847 6.56179 34.1533 0 44.438 0C48.4196 0 51.4439 0.771976 52.7982 1.54395L51.1893 7.75105C49.147 6.86981 46.9492 6.42945 44.7333 6.45747C38.6847 6.45747 33.9496 10.2235 33.9496 17.9328C33.9496 24.9014 38.0228 29.2934 44.7843 29.2934C46.9851 29.3213 49.1726 28.9396 51.2402 28.1667L52.3502 34.4259Z"  />
<path d="M56.1693 0.511148H63.7861V15.9089H63.8879C64.6415 14.5632 65.4459 13.3218 66.2504 12.0804L73.9181 0.511148H83.3984L72.1972 15.3352L83.9483 35.3231H75.028L66.6577 20.2904L63.7861 23.9938V35.3231H56.1693V0.511148Z"  />
<path d="M0.224064 43.1993C0.424227 43.0154 0.655473 42.8704 0.906439 42.7715C1.2298 42.6382 1.57645 42.5743 1.92491 42.5837C2.41582 42.5535 2.89866 42.7221 3.26929 43.0533C3.40236 43.1891 3.50569 43.3524 3.57242 43.5323C3.63915 43.7122 3.66774 43.9046 3.65631 44.0967C3.66545 44.3366 3.59351 44.5725 3.45262 44.7644C3.33524 44.9401 3.16821 45.0748 2.97394 45.1505C3.20646 45.2143 3.41992 45.3362 3.5952 45.5052C3.82146 45.7537 3.94232 46.0838 3.9313 46.4234C3.93451 46.8125 3.78818 47.1873 3.52391 47.4668C3.31482 47.6583 3.0694 47.8034 2.80302 47.8932C2.53664 47.983 2.25503 48.0154 1.97583 47.9885C1.56385 48.0006 1.1541 47.9223 0.774038 47.759C0.4891 47.6266 0.227544 47.4468 0 47.2268L0.651822 46.3608C0.795436 46.5332 0.967872 46.6781 1.16106 46.7886C1.37301 46.896 1.60702 46.9497 1.84343 46.9451C2.0479 46.9539 2.2502 46.8993 2.42396 46.7886C2.50145 46.7368 2.56462 46.6654 2.60743 46.5814C2.65023 46.4973 2.67123 46.4034 2.66839 46.3086C2.66789 46.2314 2.65128 46.1551 2.61966 46.0849C2.58804 46.0147 2.54216 45.9523 2.48507 45.9017C2.19258 45.7392 1.85811 45.6736 1.52771 45.7139H1.34438V44.754H1.51752C1.80654 44.7864 2.09766 44.7164 2.34248 44.5557C2.39074 44.5054 2.42781 44.4449 2.45117 44.3785C2.47452 44.3121 2.48361 44.2413 2.4778 44.171C2.472 44.1006 2.45145 44.0324 2.41755 43.971C2.38365 43.9095 2.3372 43.8563 2.28138 43.8149C2.12633 43.7152 1.94468 43.6678 1.76196 43.6793C1.56532 43.6791 1.3709 43.7218 1.19161 43.8045C1.02863 43.8868 0.877775 43.9921 0.743484 44.1175L0.224064 43.1993Z"  />
<path d="M7.67847 43.7316H5.99799V44.7333H7.59699V45.7349H5.99799V46.8826H7.67847V47.8843H4.83693V42.7299H7.67847V43.7316Z"  />
<path d="M10.4683 42.772C10.9436 42.7374 11.4137 42.8904 11.7822 43.1998C11.9514 43.357 12.0841 43.5511 12.1705 43.7678C12.2569 43.9845 12.2947 44.2183 12.2812 44.4519C12.2926 44.6736 12.2597 44.8953 12.1844 45.1034C12.1091 45.3116 11.993 45.5017 11.8433 45.6622C11.6724 45.8224 11.4712 45.9448 11.2522 46.022C11.0332 46.0992 10.8011 46.1294 10.5702 46.1109H9.85725V47.8847H8.6962V42.772H10.4683ZM9.85725 45.1405H10.2748C10.4978 45.1627 10.7205 45.0953 10.8961 44.9527C11.0166 44.8113 11.0819 44.6292 11.0794 44.4415C11.0842 44.3495 11.0704 44.2576 11.0388 44.1714C11.0073 44.0852 10.9587 44.0067 10.8961 43.9406C10.7148 43.793 10.4852 43.7221 10.2545 43.7424H9.85725V45.1405Z"  />
<path d="M14.2357 44.6915H16.2421V42.7299H17.4031V47.8843H16.2421V45.6932H14.2357V47.8843H13.0746V42.7299H14.2357V44.6915Z"  />
<path d="M23.0242 43.3658C23.2727 43.6197 23.4699 43.9214 23.6044 44.2535C23.739 44.5856 23.8082 44.9417 23.8082 45.3013C23.8082 45.6609 23.739 46.0169 23.6044 46.349C23.4699 46.6812 23.2727 46.9828 23.0242 47.2368C22.7679 47.49 22.4646 47.688 22.1321 47.8188C21.7997 47.9497 21.445 48.0107 21.0891 47.9984C20.3613 48.0212 19.6544 47.7473 19.1235 47.2368C18.8715 46.9904 18.6712 46.694 18.5346 46.3658C18.398 46.0375 18.3281 45.6842 18.3291 45.3274C18.336 44.5979 18.6168 43.8992 19.1133 43.3762C19.3728 43.1186 19.6811 42.918 20.0192 42.7871C20.3573 42.6561 20.7179 42.5973 21.0789 42.6145C21.434 42.602 21.7879 42.662 22.1202 42.791C22.4524 42.92 22.7562 43.1153 23.014 43.3658H23.0242ZM19.9586 44.1483C19.6678 44.4624 19.5056 44.8788 19.5056 45.3117C19.5056 45.7446 19.6678 46.161 19.9586 46.4751C20.2574 46.7559 20.648 46.9117 21.0535 46.9117C21.4589 46.9117 21.8496 46.7559 22.1483 46.4751C22.2969 46.3268 22.4128 46.1477 22.4884 45.9497C22.5639 45.7518 22.5973 45.5396 22.5863 45.3274C22.5931 45.1141 22.5578 44.9015 22.4826 44.7025C22.4073 44.5035 22.2936 44.3221 22.1483 44.1692C21.8485 43.8866 21.4558 43.7301 21.0484 43.731C20.6398 43.7236 20.2448 43.881 19.9484 44.1692"  />
<path d="M26.2925 42.7715C26.7496 42.7426 27.2016 42.8833 27.5656 43.168C27.6875 43.296 27.7828 43.448 27.8458 43.6148C27.9088 43.7815 27.9382 43.9596 27.9323 44.1384C27.9401 44.3703 27.8798 44.5993 27.7591 44.7957C27.6652 44.9655 27.5181 45.0979 27.3415 45.1713C27.6017 45.2162 27.8429 45.3398 28.0341 45.5261C28.1457 45.6489 28.2321 45.7935 28.2881 45.9513C28.3441 46.109 28.3685 46.2766 28.36 46.4443C28.3695 46.6371 28.339 46.8297 28.2705 47.0095C28.202 47.1894 28.0972 47.3523 27.9628 47.4877C27.5937 47.8052 27.1199 47.9657 26.6388 47.9363H24.7546V42.7715H26.2925ZM25.8953 44.8583H26.0888C26.2922 44.8702 26.4945 44.8193 26.6693 44.7122C26.7346 44.6561 26.7868 44.5858 26.822 44.5064C26.8573 44.4269 26.8747 44.3404 26.873 44.2531C26.8784 44.1694 26.8635 44.0857 26.8297 44.0093C26.796 43.9328 26.7444 43.8661 26.6795 43.8149C26.5002 43.7009 26.2882 43.6531 26.0786 43.6793H25.8953V44.8583ZM25.8953 46.9451H26.1703C26.4738 46.9807 26.7799 46.907 27.036 46.7364C27.0907 46.6785 27.1334 46.6098 27.1614 46.5344C27.1894 46.4591 27.2022 46.3787 27.199 46.2982C27.2017 46.2233 27.1896 46.1486 27.1634 46.0787C27.1371 46.0087 27.0972 45.9449 27.0462 45.8913C26.7976 45.7306 26.5033 45.6608 26.211 45.693H25.8953V46.9451Z"  />
<path d="M33.747 43.3658C33.9955 43.6197 34.1927 43.9214 34.3272 44.2535C34.4618 44.5856 34.531 44.9417 34.531 45.3013C34.531 45.6609 34.4618 46.0169 34.3272 46.349C34.1927 46.6812 33.9955 46.9828 33.747 47.2368C33.4907 47.49 33.1874 47.688 32.8549 47.8188C32.5225 47.9497 32.1678 48.0107 31.8119 47.9984C31.0841 48.0212 30.3772 47.7473 29.8463 47.2368C29.5962 46.9895 29.3977 46.6927 29.2629 46.3645C29.1281 46.0363 29.0598 45.6834 29.0621 45.3274C29.069 44.5979 29.3498 43.8992 29.8463 43.3762C30.1058 43.1186 30.4141 42.918 30.7522 42.7871C31.0902 42.6561 31.4509 42.5973 31.8119 42.6145C32.167 42.602 32.5209 42.662 32.8532 42.791C33.1854 42.92 33.4892 43.1153 33.747 43.3658ZM30.6916 44.1483C30.4008 44.4624 30.2386 44.8788 30.2386 45.3117C30.2386 45.7446 30.4008 46.161 30.6916 46.4751C30.9903 46.7559 31.381 46.9117 31.7865 46.9117C32.1919 46.9117 32.5826 46.7559 32.8813 46.4751C33.0299 46.3268 33.1458 46.1477 33.2214 45.9497C33.2969 45.7518 33.3303 45.5396 33.3193 45.3274C33.3261 45.1141 33.2908 44.9015 33.2156 44.7025C33.1403 44.5035 33.0266 44.3221 32.8813 44.1692C32.5815 43.8866 32.1888 43.7301 31.7814 43.731C31.3728 43.7236 30.9778 43.881 30.6814 44.1692"  />
<path d="M36.659 42.7711V46.1407L38.9807 42.7085H39.999V47.9246H38.8279V44.5029L36.496 47.9872H35.4778V42.7711H36.659ZM39.2454 41.4254C39.1235 41.706 38.9256 41.945 38.6752 42.1139C38.3921 42.2736 38.0713 42.3495 37.7485 42.333C37.429 42.3503 37.1112 42.2743 36.8321 42.1139C36.5759 41.9488 36.3738 41.7091 36.2517 41.4254L37.0561 41.0811C37.1045 41.2229 37.1888 41.349 37.3005 41.4462C37.4375 41.5342 37.5972 41.5778 37.7587 41.5714C37.9173 41.5798 38.0743 41.5359 38.2068 41.4462C38.3161 41.3468 38.4 41.2214 38.4512 41.0811L39.2454 41.4254Z"  />
<path d="M46.5767 43.7316V47.8843H45.4156V43.7316H44.3258V42.7299H47.6664V43.7316H46.5767Z"  />
<path d="M51.2004 43.7316H49.52V44.7333H51.1088V45.7349H49.52V46.8826H51.2004V47.8843H48.3589V42.7299H51.2004V43.7316Z"  />
<path d="M53.9697 42.7717C54.4479 42.7385 54.9207 42.8913 55.2938 43.1995C55.4588 43.359 55.5873 43.5541 55.67 43.7705C55.7528 43.987 55.7878 44.2196 55.7724 44.4515C55.7842 44.6715 55.7534 44.8917 55.6817 45.0995C55.6101 45.3072 55.499 45.4983 55.3549 45.6619C55.1821 45.8223 54.9791 45.9448 54.7585 46.022C54.5378 46.0991 54.304 46.1293 54.0716 46.1105H53.3587V47.8843H52.2078V42.7717H53.9697ZM53.3587 45.1402H53.7762C53.9992 45.1623 54.2219 45.095 54.3975 44.9524C54.5253 44.8148 54.5949 44.631 54.591 44.4411C54.5945 44.3484 54.579 44.256 54.5457 44.1698C54.5124 44.0836 54.4619 44.0054 54.3975 43.9403C54.2162 43.7926 53.9866 43.7217 53.7559 43.742H53.3587V45.1402Z"  />
<path d="M56.3621 47.8843L57.1667 42.7299H58.1343L59.3768 45.8079L60.6295 42.7299H61.5971L62.4017 47.8843H61.2406L60.8434 44.8063L59.5805 47.8843H59.1731L57.9204 44.8063L57.5232 47.8843H56.3621Z"  />
<path d="M64.4985 42.7304V46.1006L66.8308 42.6678H67.8493V47.8848H66.6882V44.5042L64.3661 47.9474H63.3375V42.7304H64.4985Z"  />
<path d="M70.1811 44.6915H72.1875V42.7299H73.3485V47.8843H72.1875V45.6932H70.1811V47.8843H69.0302V42.7299H70.1811V44.6915Z"  />
<path d="M77.4722 46.9459H75.5778L75.1908 47.9162H73.989L76.0259 42.7619H77.0444L79.0813 47.9162H77.849L77.4722 46.9459ZM77.1564 46.0277L76.5352 44.2957L75.9139 46.0277H77.1564Z"  />
<path d="M84 42.7719V47.8846H82.8389V43.711H81.464V45.4848C81.5467 46.1994 81.369 46.9202 80.965 47.5089C80.8142 47.6537 80.6361 47.7654 80.4417 47.8371C80.2474 47.9089 80.0407 47.9393 79.8345 47.9263C79.6977 47.9255 79.5613 47.9115 79.4271 47.8846V46.8412C79.5171 46.8803 79.6146 46.8981 79.7122 46.8933C79.88 46.8983 80.0435 46.8387 80.1706 46.7264C80.3598 46.415 80.4422 46.0478 80.4048 45.683V42.7719H84Z"  />
</svg>
