<svg width="24" height="36" viewBox="0 0 24 36" fill="none" xmlns="http://www.w3.org/2000/svg">
<path d="M1.19141 12.1802C1.19141 6.12251 6.08333 1.23059 12.141 1.23059C18.202 1.23059 23.2151 6.12693 23.3342 12.185C23.3328 13.6282 22.7009 15.7053 21.6919 18.0716C20.6897 20.4215 19.3448 22.9917 17.9793 25.3929C16.6147 27.7925 15.2343 30.0149 14.1649 31.6674C13.6303 32.4936 13.1742 33.176 12.8376 33.6658C12.6691 33.9109 12.5316 34.1062 12.4298 34.2464C12.3406 34.3692 12.2937 34.4284 12.2794 34.4466C12.2753 34.4517 12.2738 34.4536 12.2747 34.4528L12.2628 34.4646L12.251 34.4528L11.8974 34.8063L12.251 34.4528C12.2518 34.4536 12.2503 34.4517 12.2463 34.4466C12.2319 34.4284 12.1851 34.3692 12.0958 34.2464C11.994 34.1062 11.8565 33.9109 11.6881 33.6658C11.3514 33.176 10.8953 32.4936 10.3607 31.6674C9.29132 30.0149 7.91096 27.7925 6.54633 25.3929C5.18082 22.9917 3.83587 20.4215 2.83376 18.0716C1.82356 15.7026 1.19141 13.6236 1.19141 12.1802Z" stroke="black"/>
<circle cx="12.2616" cy="12.2575" r="4.88265" stroke="black" stroke-width="3.5"/>
</svg>
