<svg width="22" height="56" viewBox="0 0 22 56" fill="none" xmlns="http://www.w3.org/2000/svg">
<mask id="mask0" mask-type="alpha" maskUnits="userSpaceOnUse" x="0" y="0" width="22" height="56">
<rect x="0.942871" width="21" height="56" fill="#C4C4C4"/>
</mask>
<g mask="url(#mask0)">
<path d="M32.3029 26.128L31.6463 26.8823L31.6531 26.8881L32.3029 26.128ZM31.3429 47.056L31.9495 47.851L31.9511 47.8498L31.3429 47.056ZM7.34287 47.248L6.72504 48.0343L6.73047 48.0386L7.34287 47.248ZM2.15887 36.88L2.09033 35.8824L1.05833 35.9533L1.16411 36.9823L2.15887 36.88ZM10.5429 36.304L11.5335 36.1674L11.4059 35.2423L10.4743 35.3064L10.5429 36.304ZM25.2629 41.744L25.9154 42.5018L25.917 42.5004L25.2629 41.744ZM25.5189 30.544L24.8227 31.2619L25.5189 30.544ZM12.3989 29.328H11.3989V30.5594L12.6041 30.3067L12.3989 29.328ZM12.3989 23.376L11.7018 22.659L11.3989 22.9535V23.376H12.3989ZM23.8549 12.24L24.5519 12.957L26.3183 11.24H23.8549V12.24ZM4.46287 12.24H3.46287V13.24H4.46287V12.24ZM4.46287 5.2V4.2H3.46287V5.2H4.46287ZM34.9909 5.2H35.9909V4.2H34.9909V5.2ZM34.9909 11.472L35.6494 12.2246L35.9909 11.9258V11.472H34.9909ZM22.1909 22.672L21.5324 21.9194L19.7171 23.5078L22.1237 23.6697L22.1909 22.672ZM31.6531 26.8881C34.0222 28.9133 35.2709 31.909 35.2709 36.048H37.2709C37.2709 31.483 35.8742 27.8653 32.9527 25.3679L31.6531 26.8881ZM35.2709 36.048C35.2709 40.6162 33.7304 43.9668 30.7347 46.2622L31.9511 47.8498C35.526 45.1105 37.2709 41.1225 37.2709 36.048H35.2709ZM30.7362 46.261C27.7039 48.5751 23.8139 49.768 18.9909 49.768V51.768C24.1519 51.768 28.4965 50.4862 31.9495 47.851L30.7362 46.261ZM18.9909 49.768C14.4231 49.768 10.7713 48.6389 7.95527 46.4575L6.73047 48.0386C9.97313 50.5505 14.0867 51.768 18.9909 51.768V49.768ZM7.96069 46.4617C5.23058 44.3166 3.60144 41.1337 3.15363 36.7777L1.16411 36.9823C1.65497 41.757 3.48182 45.4861 6.72505 48.0343L7.96069 46.4617ZM2.22741 37.8776L10.6114 37.3016L10.4743 35.3064L2.09033 35.8824L2.22741 37.8776ZM9.55225 36.4406C9.91535 39.0731 10.8657 41.1811 12.5068 42.6232C14.149 44.0664 16.3524 44.728 18.9909 44.728V42.728C16.68 42.728 15.0007 42.1523 13.827 41.1208C12.652 40.0883 11.8531 38.4842 11.5335 36.1674L9.55225 36.4406ZM18.9909 44.728C21.8013 44.728 24.1485 44.0232 25.9154 42.5018L24.6103 40.9862C23.3052 42.1101 21.4711 42.728 18.9909 42.728V44.728ZM25.917 42.5004C27.7525 40.9129 28.6309 38.7173 28.6309 36.048H26.6309C26.6309 38.2427 25.9306 39.8444 24.6087 40.9876L25.917 42.5004ZM28.6309 36.048C28.6309 33.5246 27.8512 31.4127 26.215 29.8261L24.8227 31.2619C26.0026 32.406 26.6309 33.9634 26.6309 36.048H28.6309ZM26.215 29.8261C24.5524 28.2139 22.1454 27.496 19.1829 27.496V29.496C21.8523 29.496 23.6693 30.1434 24.8227 31.2619L26.215 29.8261ZM19.1829 27.496C17.2138 27.496 14.8797 27.7861 12.1937 28.3493L12.6041 30.3067C15.2087 29.7606 17.3973 29.496 19.1829 29.496V27.496ZM13.3989 29.328V23.376H11.3989V29.328H13.3989ZM13.0959 24.093L24.5519 12.957L23.1579 11.5229L11.7018 22.659L13.0959 24.093ZM23.8549 11.24H4.46287V13.24H23.8549V11.24ZM5.46287 12.24V5.2H3.46287V12.24H5.46287ZM4.46287 6.2H34.9909V4.2H4.46287V6.2ZM33.9909 5.2V11.472H35.9909V5.2H33.9909ZM34.3324 10.7194L21.5324 21.9194L22.8494 23.4246L35.6494 12.2246L34.3324 10.7194ZM22.1237 23.6697C26.4389 23.9602 29.567 25.0725 31.6463 26.8823L32.9594 25.3737C30.4308 23.1728 26.8175 21.9811 22.258 21.6743L22.1237 23.6697Z" fill="white"/>
</g>
</svg>
