<svg width="41" height="23" viewBox="0 0 41 23" fill="none" xmlns="http://www.w3.org/2000/svg">
<path fill-rule="evenodd" clip-rule="evenodd" d="M7.69996 22.3H34.111C36.4249 22.3 38.5525 21.0311 39.6522 18.9952L40.9648 16.5652H0.964844L2.04206 18.7684C3.09876 20.9295 5.29429 22.3 7.69996 22.3ZM5.66303 20.7089C6.36792 20.7089 6.93934 20.1375 6.93934 19.4326C6.93934 18.7277 6.36792 18.1563 5.66303 18.1563C4.95814 18.1563 4.38672 18.7277 4.38672 19.4326C4.38672 20.1375 4.95814 20.7089 5.66303 20.7089ZM8.96948 20.7089C9.67437 20.7089 10.2458 20.1375 10.2458 19.4326C10.2458 18.7277 9.67437 18.1563 8.96948 18.1563C8.26459 18.1563 7.69317 18.7277 7.69317 19.4326C7.69317 20.1375 8.26459 20.7089 8.96948 20.7089ZM13.5503 19.4326C13.5503 20.1375 12.9789 20.7089 12.274 20.7089C11.5691 20.7089 10.9977 20.1375 10.9977 19.4326C10.9977 18.7277 11.5691 18.1563 12.274 18.1563C12.9789 18.1563 13.5503 18.7277 13.5503 19.4326ZM29.6569 20.7089C30.3618 20.7089 30.9332 20.1375 30.9332 19.4326C30.9332 18.7277 30.3618 18.1563 29.6569 18.1563C28.952 18.1563 28.3806 18.7277 28.3806 19.4326C28.3806 20.1375 28.952 20.7089 29.6569 20.7089ZM34.2378 19.4326C34.2378 20.1375 33.6664 20.7089 32.9615 20.7089C32.2566 20.7089 31.6852 20.1375 31.6852 19.4326C31.6852 18.7277 32.2566 18.1563 32.9615 18.1563C33.6664 18.1563 34.2378 18.7277 34.2378 19.4326ZM36.2673 20.7089C36.9722 20.7089 37.5437 20.1375 37.5437 19.4326C37.5437 18.7277 36.9722 18.1563 36.2673 18.1563C35.5625 18.1563 34.991 18.7277 34.991 19.4326C34.991 20.1375 35.5625 20.7089 36.2673 20.7089Z" fill="#0296dd"/>
<path d="M3.96484 9.7998V16.7998H19.9648V13.2998L14.9648 12.7998V9.7998H3.96484Z" fill="#0296dd"/>
<path d="M32.9648 12.6C30.7557 12.6 28.9648 14.3908 28.9648 16.6H36.9648C36.9648 14.3908 35.174 12.6 32.9648 12.6Z" fill="#0296dd"/>
<path d="M15.9637 5.80002H8.06445L8.96445 9.80002H14.9637L15.9637 5.80002Z" fill="#0296dd"/>
<path d="M12.1641 5.79999V0" stroke="#0296dd"/>
<path d="M10.666 2.59998H13.666" stroke="#0296dd"/>
</svg>
