<svg width="21" height="21" viewBox="0 0 21 21" fill="none" xmlns="http://www.w3.org/2000/svg">
<path d="M10.2637 2.76924C12.9303 2.76924 13.247 2.77757 14.3053 2.82757C17.0137 2.95257 18.2803 4.2359 18.4053 6.92757C18.4553 7.9859 18.4637 8.30257 18.4637 10.9692C18.4637 13.6359 18.4553 13.9526 18.4053 15.0109C18.2803 17.7026 17.022 18.9859 14.3053 19.1109C13.247 19.1609 12.9387 19.1692 10.2637 19.1692C7.597 19.1692 7.28034 19.1609 6.22201 19.1109C3.50534 18.9859 2.24701 17.6942 2.12201 15.0109C2.07201 13.9526 2.06367 13.6442 2.06367 10.9692C2.06367 8.30257 2.07201 7.9859 2.12201 6.92757C2.24701 4.2359 3.51367 2.95257 6.22201 2.82757C7.28034 2.7859 7.597 2.76924 10.2637 2.76924ZM10.2637 0.969238C7.54701 0.969238 7.20534 0.977572 6.13867 1.02757C2.51367 1.19424 0.488672 3.2109 0.322005 6.84424C0.272005 7.9109 0.263672 8.25257 0.263672 10.9692C0.263672 13.6859 0.272005 14.0276 0.322005 15.0942C0.488672 18.7276 2.50534 20.7442 6.13867 20.9109C7.20534 20.9609 7.54701 20.9692 10.2637 20.9692C12.9803 20.9692 13.322 20.9609 14.3887 20.9109C18.0137 20.7442 20.0387 18.7276 20.2053 15.0942C20.2553 14.0276 20.2637 13.6859 20.2637 10.9692C20.2637 8.25257 20.2553 7.9109 20.2053 6.84424C20.0387 3.21924 18.022 1.19424 14.3887 1.02757C13.322 0.977572 12.9803 0.969238 10.2637 0.969238ZM10.2637 5.83591C7.43034 5.83591 5.13034 8.1359 5.13034 10.9692C5.13034 13.8026 7.43034 16.1026 10.2637 16.1026C13.097 16.1026 15.397 13.8026 15.397 10.9692C15.397 8.1359 13.097 5.83591 10.2637 5.83591ZM10.2637 14.3026C8.422 14.3026 6.93034 12.8109 6.93034 10.9692C6.93034 9.12757 8.422 7.6359 10.2637 7.6359C12.1053 7.6359 13.597 9.12757 13.597 10.9692C13.597 12.8109 12.1053 14.3026 10.2637 14.3026ZM15.6053 4.42757C14.9387 4.42757 14.4053 4.96091 14.4053 5.62757C14.4053 6.29424 14.947 6.82757 15.6053 6.82757C16.272 6.82757 16.8053 6.29424 16.8053 5.62757C16.8053 4.96091 16.2637 4.42757 15.6053 4.42757Z" fill="white"/>
</svg>
