<svg width="22" height="18" viewBox="0 0 22 18" xmlns="http://www.w3.org/2000/svg">
<path d="M21.2277 2.09302C20.4415 2.44186 19.6553 2.72093 18.8036 2.7907C19.6553 2.23256 20.376 1.32558 20.638 0.27907C19.7864 0.767442 18.9347 1.18605 17.952 1.39535C17.1658 0.488372 16.0521 0 14.8728 0C12.5143 0 10.6144 2.02326 10.6144 4.53488C10.6144 4.88372 10.6799 5.23256 10.7454 5.58139C7.20766 5.37209 4.06298 3.62791 1.96653 0.837209C1.57345 1.53488 1.37691 2.30233 1.37691 3.13953C1.37691 4.67442 2.09756 6.06977 3.27681 6.90698C2.55616 6.90698 1.90102 6.69767 1.37691 6.34884V6.4186C1.37691 8.58139 2.81822 10.4651 4.78364 10.8837C4.45607 10.9535 4.06299 11.0233 3.6699 11.0233C3.40785 11.0233 3.14579 11.0233 2.88373 10.9535C3.40785 12.7674 4.98018 14.0233 6.88009 14.093C5.43878 15.2791 3.60438 16.0465 1.63896 16.0465C1.31139 16.0465 0.98382 16.0465 0.65625 15.9767C2.55616 17.2326 4.78364 18 7.14215 18C14.9383 18 19.1967 11.093 19.1967 5.16279C19.1967 4.95349 19.1967 4.74418 19.1967 4.60465C19.9174 3.83721 20.6381 3 21.2277 2.09302Z"/>
</svg>
