<svg width="30" height="18" viewBox="0 0 30 18" xmlns="http://www.w3.org/2000/svg">
<path d="M16.3669 17.4922C17.1078 17.4922 17.4115 16.9943 17.3993 16.3748C17.3629 14.0428 18.2617 12.7917 19.9014 14.4314C21.7112 16.2412 22.0877 17.4922 24.274 17.4922H28.1607C29.1445 17.4922 29.5332 17.1764 29.5332 16.6785C29.5332 15.6339 27.8085 13.7756 26.3509 12.4274C24.2983 10.5204 24.2132 10.484 25.9744 8.18841C28.1485 5.3584 31.015 1.7146 28.4886 1.7146H23.6545C22.7193 1.7146 22.6464 2.23688 22.3185 3.02637C21.1039 5.88067 18.8083 9.57305 17.9459 9.00219C17.0228 8.41918 17.4358 6.08715 17.5087 2.6134C17.5329 1.70245 17.5208 1.07086 16.124 0.74292C15.3588 0.572876 14.6179 0.5 13.9256 0.5C11.1685 0.5 9.26153 1.65387 10.3425 1.86035C12.2494 2.21258 12.0673 6.34222 11.6179 8.12768C10.8405 11.2371 7.92547 5.67419 6.72302 2.90491C6.43151 2.23688 6.33435 1.7146 5.28979 1.7146H1.34235C0.735046 1.7146 0.382812 1.90893 0.382812 2.34619C0.382812 3.07495 3.97803 10.5083 7.41534 14.2128C10.7555 17.8202 14.0713 17.4922 16.3669 17.4922Z" />
</svg>
