<svg width="24" height="22" viewBox="0 0 24 22" fill="none" xmlns="http://www.w3.org/2000/svg">
<path d="M20.4697 3C20.4697 4.10457 19.5743 5 18.4697 5C17.3652 5 16.4697 4.10457 16.4697 3C16.4697 1.89543 17.3652 1 18.4697 1C19.5743 1 20.4697 1.89543 20.4697 3Z" fill="black"/>
<path d="M3.53027 19C3.53027 17.8954 4.4257 17 5.53027 17C6.63484 17 7.53027 17.8954 7.53027 19C7.53027 20.1046 6.63484 21 5.53027 21C4.4257 21 3.53027 20.1046 3.53027 19Z" fill="black"/>
<path d="M14 11C14 12.1046 13.1046 13 12 13C10.8954 13 10 12.1046 10 11C10 9.89543 10.8954 9 12 9C13.1046 9 14 9.89543 14 11Z" fill="black"/>
<path d="M0 3H16M20 3H24M24 19H8M4 19H0M0 11H10M10 11C10 12.1046 10.8954 13 12 13C13.1046 13 14 12.1046 14 11M10 11C10 9.89543 10.8954 9 12 9C13.1046 9 14 9.89543 14 11M14 11H24M20.4697 3C20.4697 4.10457 19.5743 5 18.4697 5C17.3652 5 16.4697 4.10457 16.4697 3C16.4697 1.89543 17.3652 1 18.4697 1C19.5743 1 20.4697 1.89543 20.4697 3ZM3.53027 19C3.53027 17.8954 4.4257 17 5.53027 17C6.63484 17 7.53027 17.8954 7.53027 19C7.53027 20.1046 6.63484 21 5.53027 21C4.4257 21 3.53027 20.1046 3.53027 19Z" stroke="black"/>
</svg>
