<svg width="87" height="28" viewBox="0 0 87 28" fill="none" xmlns="http://www.w3.org/2000/svg">
<path d="M32.6353 4.68C33.4833 4.728 34.1593 4.924 34.6633 5.268C35.1673 5.612 35.4193 6.128 35.4193 6.816C35.4193 7.584 35.1073 8.164 34.4833 8.556C33.8593 8.948 33.0433 9.144 32.0353 9.144C30.9553 9.144 30.1233 8.924 29.5393 8.484C28.9553 8.036 28.6113 7.348 28.5073 6.42L30.1153 6.336C30.2353 7.336 30.8753 7.836 32.0353 7.836C32.5953 7.836 33.0193 7.728 33.3073 7.512C33.5953 7.296 33.7393 6.984 33.7393 6.576C33.7393 5.76 33.1633 5.352 32.0113 5.352H31.0753V4.104H31.8913C32.9553 4.104 33.4873 3.712 33.4873 2.928C33.4873 2.56 33.3593 2.276 33.1033 2.076C32.8473 1.868 32.4913 1.764 32.0353 1.764C31.5713 1.764 31.1833 1.876 30.8713 2.1C30.5593 2.324 30.3713 2.672 30.3073 3.144L28.7113 3.024C28.8073 2.16 29.1433 1.516 29.7193 1.092C30.2953 0.668 31.0673 0.456 32.0353 0.456C32.6193 0.456 33.1393 0.528 33.5953 0.672C34.0513 0.816 34.4273 1.056 34.7233 1.392C35.0193 1.728 35.1673 2.148 35.1673 2.652C35.1673 3.9 34.3233 4.576 32.6353 4.68ZM36.2914 5.856C36.2914 4.768 36.5834 3.948 37.1674 3.396C37.7594 2.844 38.5474 2.568 39.5314 2.568C41.5794 2.568 42.6034 3.76 42.6034 6.144V6.324H37.9114C37.9674 6.884 38.1434 7.304 38.4394 7.584C38.7434 7.864 39.1354 8.004 39.6154 8.004C40.2714 8.004 40.7274 7.732 40.9834 7.188L42.5194 7.284C42.3594 7.876 42.0274 8.336 41.5234 8.664C41.0194 8.984 40.3834 9.144 39.6154 9.144C38.5914 9.144 37.7794 8.872 37.1794 8.328C36.5874 7.776 36.2914 6.952 36.2914 5.856ZM37.9114 5.304H41.0194C40.9874 4.8 40.8394 4.408 40.5754 4.128C40.3194 3.848 39.9714 3.708 39.5314 3.708C39.0914 3.708 38.7274 3.844 38.4394 4.116C38.1594 4.38 37.9834 4.776 37.9114 5.304ZM43.7515 11.4V2.712H45.2515V3.864C45.6995 3 46.4075 2.568 47.3755 2.568C48.1675 2.568 48.8115 2.864 49.3075 3.456C49.8115 4.04 50.0635 4.84 50.0635 5.856C50.0635 6.872 49.8115 7.676 49.3075 8.268C48.8115 8.852 48.1715 9.144 47.3875 9.144C46.4915 9.144 45.8155 8.764 45.3595 8.004V11.4H43.7515ZM45.7195 4.38C45.4315 4.756 45.2875 5.248 45.2875 5.856C45.2875 6.464 45.4315 6.956 45.7195 7.332C46.0075 7.708 46.3955 7.896 46.8835 7.896C47.3715 7.896 47.7595 7.708 48.0475 7.332C48.3355 6.956 48.4795 6.464 48.4795 5.856C48.4795 5.248 48.3355 4.756 48.0475 4.38C47.7595 4.004 47.3715 3.816 46.8835 3.816C46.3955 3.816 46.0075 4.004 45.7195 4.38ZM51.2398 9V2.712H52.8478V5.136H55.4998V2.712H57.1078V9H55.4998V6.456H52.8478V9H51.2398ZM59.1398 8.268C58.5638 7.676 58.2758 6.872 58.2758 5.856C58.2758 4.84 58.5638 4.04 59.1398 3.456C59.7238 2.864 60.5118 2.568 61.5038 2.568C62.4958 2.568 63.2798 2.864 63.8558 3.456C64.4398 4.04 64.7318 4.84 64.7318 5.856C64.7318 6.872 64.4398 7.676 63.8558 8.268C63.2798 8.852 62.4958 9.144 61.5038 9.144C60.5118 9.144 59.7238 8.852 59.1398 8.268ZM60.3158 4.38C60.0198 4.756 59.8718 5.248 59.8718 5.856C59.8718 6.464 60.0198 6.956 60.3158 7.332C60.6118 7.708 61.0078 7.896 61.5038 7.896C62.0078 7.896 62.4078 7.708 62.7038 7.332C62.9998 6.956 63.1478 6.464 63.1478 5.856C63.1478 5.248 62.9998 4.756 62.7038 4.38C62.4078 4.004 62.0078 3.816 61.5038 3.816C61.0078 3.816 60.6118 4.004 60.3158 4.38ZM69.7277 5.736C71.0077 5.872 71.6477 6.38 71.6477 7.26C71.6477 7.748 71.4517 8.16 71.0597 8.496C70.6757 8.832 70.0397 9 69.1517 9H65.9117V2.712H68.9837C69.8077 2.712 70.4197 2.856 70.8197 3.144C71.2277 3.432 71.4317 3.816 71.4317 4.296C71.4317 5.096 70.8637 5.576 69.7277 5.736ZM67.5197 3.9V5.28H68.8757C69.5077 5.28 69.8237 5.048 69.8237 4.584C69.8237 4.128 69.4837 3.9 68.8037 3.9H67.5197ZM69.0197 7.812C69.7077 7.812 70.0517 7.56 70.0517 7.056C70.0517 6.56 69.6877 6.312 68.9597 6.312H67.5197V7.812H69.0197ZM73.3429 8.268C72.7669 7.676 72.4789 6.872 72.4789 5.856C72.4789 4.84 72.7669 4.04 73.3429 3.456C73.9269 2.864 74.7149 2.568 75.7069 2.568C76.6989 2.568 77.4829 2.864 78.0589 3.456C78.6429 4.04 78.9349 4.84 78.9349 5.856C78.9349 6.872 78.6429 7.676 78.0589 8.268C77.4829 8.852 76.6989 9.144 75.7069 9.144C74.7149 9.144 73.9269 8.852 73.3429 8.268ZM74.5189 4.38C74.2229 4.756 74.0749 5.248 74.0749 5.856C74.0749 6.464 74.2229 6.956 74.5189 7.332C74.8149 7.708 75.2109 7.896 75.7069 7.896C76.2109 7.896 76.6109 7.708 76.9069 7.332C77.2029 6.956 77.3509 6.464 77.3509 5.856C77.3509 5.248 77.2029 4.756 76.9069 4.38C76.6109 4.004 76.2109 3.816 75.7069 3.816C75.2109 3.816 74.8149 4.004 74.5189 4.38ZM84.6028 1.464C84.2908 1.784 83.8228 1.944 83.1988 1.944C82.5748 1.944 82.1028 1.784 81.7828 1.464C81.4628 1.144 81.2948 0.707999 81.2788 0.155999H82.3228C82.3468 0.396 82.4268 0.604 82.5628 0.779999C82.6988 0.955999 82.9108 1.044 83.1988 1.044C83.4788 1.044 83.6868 0.955999 83.8228 0.779999C83.9588 0.604 84.0388 0.396 84.0628 0.155999H85.1068C85.0908 0.707999 84.9228 1.144 84.6028 1.464ZM83.8828 2.712H86.2708V9H84.7228V3.936L82.5028 9H80.1148V2.712H81.6628V7.776L83.8828 2.712ZM0.439219 20.032V18.712H6.24722V20.032H4.15922V25H2.55122V20.032H0.439219ZM6.76013 21.856C6.76013 20.768 7.05213 19.948 7.63613 19.396C8.22813 18.844 9.01613 18.568 10.0001 18.568C12.0481 18.568 13.0721 19.76 13.0721 22.144V22.324H8.38013C8.43613 22.884 8.61213 23.304 8.90813 23.584C9.21213 23.864 9.60413 24.004 10.0841 24.004C10.7401 24.004 11.1961 23.732 11.4521 23.188L12.9881 23.284C12.8281 23.876 12.4961 24.336 11.9921 24.664C11.4881 24.984 10.8521 25.144 10.0841 25.144C9.06013 25.144 8.24813 24.872 7.64813 24.328C7.05613 23.776 6.76013 22.952 6.76013 21.856ZM8.38013 21.304H11.4881C11.4561 20.8 11.3081 20.408 11.0441 20.128C10.7881 19.848 10.4401 19.708 10.0001 19.708C9.56013 19.708 9.19613 19.844 8.90813 20.116C8.62813 20.38 8.45213 20.776 8.38013 21.304ZM14.2203 27.4V18.712H15.7203V19.864C16.1683 19 16.8763 18.568 17.8443 18.568C18.6363 18.568 19.2803 18.864 19.7763 19.456C20.2803 20.04 20.5323 20.84 20.5323 21.856C20.5323 22.872 20.2803 23.676 19.7763 24.268C19.2803 24.852 18.6403 25.144 17.8563 25.144C16.9603 25.144 16.2843 24.764 15.8283 24.004V27.4H14.2203ZM16.1883 20.38C15.9003 20.756 15.7563 21.248 15.7563 21.856C15.7563 22.464 15.9003 22.956 16.1883 23.332C16.4763 23.708 16.8643 23.896 17.3523 23.896C17.8403 23.896 18.2283 23.708 18.5163 23.332C18.8043 22.956 18.9483 22.464 18.9483 21.856C18.9483 21.248 18.8043 20.756 18.5163 20.38C18.2283 20.004 17.8403 19.816 17.3523 19.816C16.8643 19.816 16.4763 20.004 16.1883 20.38ZM27.2526 18.712H29.8926V25H28.3566V19.852L26.7726 25H24.8406L23.2566 19.852V25H21.7086V18.712H24.3726L25.8246 24.04L27.2526 18.712ZM35.1328 18.712H37.5208V25H35.9728V19.936L33.7528 25H31.3648V18.712H32.9128V23.776L35.1328 18.712ZM38.982 25V18.712H40.59V21.136H43.242V18.712H44.85V25H43.242V22.456H40.59V25H38.982ZM46.0419 23.284C46.0419 22.124 46.9219 21.46 48.6819 21.292L50.3259 21.124V20.812C50.3259 20.476 50.2259 20.208 50.0259 20.008C49.8259 19.808 49.5219 19.708 49.1139 19.708C48.7539 19.708 48.4579 19.788 48.2259 19.948C48.0019 20.108 47.8779 20.344 47.8539 20.656H46.3899C46.4139 19.928 46.6779 19.4 47.1819 19.072C47.6859 18.736 48.3299 18.568 49.1139 18.568C50.0179 18.568 50.7139 18.784 51.2019 19.216C51.6899 19.648 51.9339 20.292 51.9339 21.148V25H50.4339V23.86C49.9939 24.716 49.2299 25.144 48.1419 25.144C47.4619 25.144 46.9419 24.972 46.5819 24.628C46.2219 24.284 46.0419 23.836 46.0419 23.284ZM47.6379 23.2C47.6379 23.448 47.7219 23.648 47.8899 23.8C48.0659 23.952 48.3219 24.028 48.6579 24.028C49.1539 24.028 49.5539 23.872 49.8579 23.56C50.1699 23.24 50.3259 22.848 50.3259 22.384V22.108L48.8859 22.252C48.0539 22.332 47.6379 22.648 47.6379 23.2ZM54.0812 18.712H59.0372V25H57.4292V20.032H55.4852C55.4692 20.24 55.4492 20.544 55.4252 20.944C55.3932 21.52 55.3652 21.94 55.3412 22.204C55.3172 22.468 55.2772 22.8 55.2212 23.2C55.1652 23.592 55.0972 23.876 55.0172 24.052C54.9452 24.22 54.8412 24.4 54.7052 24.592C54.5772 24.784 54.4132 24.916 54.2132 24.988C54.0212 25.052 53.7892 25.084 53.5172 25.084C53.2532 25.084 53.0292 25.068 52.8452 25.036V23.728C52.9332 23.744 53.0292 23.752 53.1332 23.752C53.2452 23.752 53.3452 23.712 53.4332 23.632C53.5212 23.552 53.5932 23.42 53.6492 23.236C53.7132 23.044 53.7612 22.852 53.7932 22.66C53.8332 22.468 53.8652 22.204 53.8892 21.868C53.9212 21.524 53.9452 21.22 53.9612 20.956C53.9772 20.684 53.9972 20.32 54.0212 19.864C54.0452 19.4 54.0652 19.016 54.0812 18.712ZM70.7618 25H68.7578L66.0818 21.412H65.2058V25H63.5258V16.6H65.2058V20.128H66.0458L68.5418 16.6H70.4978L67.3778 20.668L70.7618 25ZM70.7225 20.8C70.7225 19.488 71.0585 18.436 71.7305 17.644C72.4105 16.852 73.3545 16.456 74.5625 16.456C75.5625 16.456 76.3745 16.716 76.9985 17.236C77.6225 17.748 78.0025 18.444 78.1385 19.324L76.5305 19.468C76.4425 18.972 76.2185 18.576 75.8585 18.28C75.5065 17.976 75.0745 17.824 74.5625 17.824C73.8505 17.824 73.3105 18.112 72.9425 18.688C72.5825 19.256 72.4025 19.96 72.4025 20.8C72.4025 21.68 72.6025 22.396 73.0025 22.948C73.4105 23.5 73.9665 23.776 74.6705 23.776C75.2145 23.776 75.6585 23.612 76.0025 23.284C76.3465 22.948 76.5585 22.524 76.6385 22.012L78.2465 22.12C78.1265 23.064 77.7585 23.804 77.1425 24.34C76.5345 24.876 75.7105 25.144 74.6705 25.144C73.4225 25.144 72.4505 24.752 71.7545 23.968C71.0665 23.184 70.7225 22.128 70.7225 20.8ZM86.8048 25H84.8008L82.1248 21.412H81.2488V25H79.5688V16.6H81.2488V20.128H82.0888L84.5848 16.6H86.5408L83.4208 20.668L86.8048 25Z" fill="white"/>
</svg>
