<svg width="56" height="36" fill="none" xmlns="http://www.w3.org/2000/svg"><path d="M2.299 11.106l-.222-.448-.278.137v.31h.5zm18.436 0h.5v-.31l-.279-.138-.221.448zm-9.218-4.562l.222-.448-.222-.11-.222.11.222.448zm13.304 4.562l-.222-.448-.278.137v.31h.5zm18.436 0h.5v-.31l-.279-.138-.221.448zm-9.218-4.562l.222-.448-.222-.11-.222.11.222.448zM8.17 1.274v-.5h-.5v.5h.5zm0 2.755h-.5v.5h.5v-.5zm45.383-2.755h.5v-.5h-.5v.5zm.364.402A.5.5 0 0053.19.99l.728.686zM47.28 7.982l-.364-.343a.5.5 0 000 .686l.364-.343zm6.273 6.65l.364.342a.5.5 0 000-.686l-.364.343zM47.28 21.28l-.364-.343a.5.5 0 000 .686l.364-.343zm6.273 6.65l.364.342a.5.5 0 000-.686l-.364.343zm-6.637 6.305a.5.5 0 00.727.686l-.727-.686zM.01 35.078h55.833v-1H.01v1zm2.789-.5V11.106h-1v23.472h1zm17.436-23.472v23.472h1V11.106h-1zm-17.714.448l9.218-4.562-.444-.896-9.218 4.562.444.896zm8.774-4.562l9.218 4.562.443-.896-9.217-4.562-.444.896zm14.026 27.586V11.106h-1v23.472h1zm17.436-23.472v23.472h1V11.106h-1zm-17.714.448l9.218-4.562-.444-.896-9.218 4.562.444.896zm8.774-4.562l9.218 4.562.444-.896-9.218-4.562-.444.896zM8.171 1.774H47.1v-1H8.172v1zM47.1 3.529H8.172v1H47.1v-1zm-38.43.5V1.274h-1v2.755h1zM53.554.774h-6.453v1h6.453v-1zm-6.953.5v33.304h1V1.274h-1zm7.453 33.304V1.274h-1v33.304h1zM11.999 6.588v-2.56h-1v2.56h1zm0-2.755v-2.56h-1v2.56h1zm7.513 0v-2.56h-1v2.56h1zm7.514 0v-2.56h-1v2.56h1zm7.513 0v-2.56h-1v2.56h1zm7.05 0v-2.56h-1v2.56h1zm-7.05 2.755v-2.56h-1v2.56h1zM53.19.99l-6.273 6.65.727.685 6.274-6.649L53.19.99zm-6.273 7.335l6.273 6.65.728-.687-6.274-6.649-.727.686zm6.273 5.963l-6.273 6.649.727.686 6.274-6.649-.728-.686zm-6.273 7.335l6.273 6.65.728-.687-6.274-6.649-.727.686zm6.273 5.963l-6.273 6.649.727.686 6.274-6.649-.728-.686zM16.256 12.601v2.89h1V12.6h-1zm0 5.003v12.78h1v-12.78h-1zm22.524-4.69v13.765h1V12.914h-1z" fill="#000"/></svg>