<svg width="56" height="30" fill="none" xmlns="http://www.w3.org/2000/svg"><path d="M47.137 6.515l-.332-.373a.5.5 0 000 .747l.332-.374zm6.344 5.636l.332.374a.5.5 0 000-.748l-.332.374zm-6.344 5.635l-.332-.374a.5.5 0 000 .748l.332-.374zm6.344 5.636l.332.373a.5.5 0 000-.747l-.332.374zm-6.344 5.635v.5-.5zM8.171.676v-.5h-.5v.5h.5zM47.1 3.43h.5-.5zm-38.93 0h-.5v.5h.5v-.5zM53.554.676h.5v-.5h-.5v.5zM5.497 9.11l-.228-.444-.272.14v.304h.5zm5.726-2.95l.22-.449-.226-.11-.223.115.23.445zm6.045 2.95h.5v-.312l-.281-.137-.22.45zm2.144 0l-.229-.444-.27.14v.304h.5zm5.726-2.95l.22-.449-.226-.11-.223.115.23.445zm6.044 2.95h.5v-.312l-.28-.137-.22.45zm2.145 0l-.23-.444-.27.14v.304h.5zm5.726-2.95l.219-.449-.225-.11-.223.115.229.445zm6.044 2.95h.5v-.312l-.281-.137-.22.45zM53.149.507l-6.344 5.635.664.747 6.344-5.635-.664-.747zm-6.344 6.382l6.344 5.636.664-.748-6.344-5.635-.664.747zm6.344 4.888l-6.344 5.635.664.748 6.344-5.635-.664-.748zm-6.344 6.383l6.344 5.635.664-.747-6.344-5.636-.664.748zm6.344 4.888l-6.344 5.635.664.748 6.344-5.636-.664-.747zM47.1 29.557h.036v-1H47.1v1zm.036 0h6.417v-1h-6.417v1zm6.417 0h2.29v-1h-2.29v1zM8.171 1.176h3.08v-1h-3.08v1zm3.08 0h7.761v-1h-7.76v1zm7.761 0h7.514v-1h-7.514v1zm7.514 0h7.513v-1h-7.513v1zm7.513 0h7.05v-1h-7.05v1zm7.05 0h6.013v-1h-6.014v1zM8.67 3.43V.676h-1V3.43h1zM53.554.176h-6.453v1h6.453v-1zm-6.953.5V3.43h1V.676h-1zm0 2.755v25.626h1V3.431h-1zm7.453 25.626V.676h-1v28.381h1zM11.752 3.235V.675h-1v2.56h1zm7.76 0V.675h-1v2.56h1zm7.514 0V.675h-1v2.56h1zm7.513 0V.675h-1v2.56h1zm7.05 0V.675h-1v2.56h1zM5.996 29.175V9.11h-1v20.066h1zm-.27-19.62l5.725-2.95-.457-.889-5.726 2.95.457.889zm5.277-2.945l6.044 2.95.439-.899-6.044-2.95-.439.9zm5.764 2.5v19.566h1V9.11h-1zm3.144 20.066V9.11h-1v20.066h1zm-.27-19.621l5.725-2.95-.458-.889-5.726 2.95.458.889zm5.277-2.945l6.044 2.95.438-.899-6.044-2.95-.438.9zm5.763 2.5v19.566h1V9.11h-1zm3.145 20.066V9.11h-1v20.066h1zm-.271-19.621l5.726-2.95-.458-.889-5.726 2.95.458.889zm5.277-2.945l6.044 2.95.439-.899-6.044-2.95-.439.9zm5.764 2.5v19.566h1V9.11h-1zm-30.384 2.85v2.906h1V11.96h-1zm13.945 0v2.906h1V11.96h-1zm13.847 0v2.906h1V11.96h-1zm-31.27-8.705V6.16h1V3.255h-1zm13.908 0V6.16h1V3.255h-1zm13.907 0V6.16h1V3.255h-1zM14.213 17.002v7.792h1v-7.792h-1zm13.945 0v7.792h1v-7.792h-1zm13.847 0v7.792h1v-7.792h-1zM.01 29.557H47.1v-1H.01v1zM47.102 2.931H8.17v1H47.1v-1z" fill="#000"/></svg>