<svg width="60" height="42" fill="none" xmlns="http://www.w3.org/2000/svg"><path d="M34.168 33.449H13.477v-2.98l1.432-1.434h17.826l1.433 1.433v2.98zM25.666 29V10.28M29.651 29V.926h-2.25v9.298m-1.713 9.416l-24.499.047v3.94h24.498" stroke="#000"/><path d="M29.472 10.28h29.19L54.53 6.148H33.604l-4.132 4.132zm0 0h-5.104m0 0h-5.874V4.975h5.874v5.305zm-5.841-3.59h5.84m-5.84 1.89h5.84" stroke="#000"/><path d="M33.647 6.223l3.279 4.05 3.28-4.05 3.28 4.05 3.28-4.05 3.94 4.05 3.939-4.05" stroke="#000" stroke-linejoin="round"/><path d="M29.652 17.699h4.124l2.208-3.691-2.208-3.728" stroke="#000"/><path d="M34.68 11.873h-2.352v2.207h3.293" stroke="#000"/><path d="M25.914 28.812l3.739-2.631-3.739-2.631 3.739-2.631-3.739-2.631 3.739-2.631m0 0l-3.739-2.63 3.739-2.632m-3.987 13.232l-4.044-3.738-4.044 3.738-4.044-3.738-4.044 3.738-4.044-3.738-4.044 3.738" stroke="#000" stroke-linejoin="round"/><path d="M19.674 4.984l7.674-3.793m2.304-.007l10.835 4.98M7.594 38.3h5.426v2.625H7.594z" stroke="#000"/><path d="M8.77 38.336V36.7l4.597-4.598m-.422 6.315l6.34-4.948M39.951 38.3h-5.426v2.626h5.426z" stroke="#000"/><path d="M38.775 38.336V36.7l-4.597-4.598m.424 6.315l-6.34-4.948m28.263-23.108v16.53l1.708 1.708m-44.793-3.35h10.38v3.75H13.44z" stroke="#000"/></svg>