<svg width="47" height="47" fill="none" xmlns="http://www.w3.org/2000/svg"><path stroke="#000" d="M1.389 36.81h45.074v9.615H1.389zM6.471 1.426h9.615v4.361H6.471z"/><path d="M8.338 5.708v22.537a2.94 2.94 0 002.94 2.94v0a2.94 2.94 0 002.94-2.94V5.708m4.899-4.282h9.615v4.361h-9.615z" stroke="#000"/><path d="M20.984 5.708v22.537a2.94 2.94 0 002.94 2.94v0a2.94 2.94 0 002.94-2.94V5.708m4.9-4.282h9.615v4.361h-9.615z" stroke="#000"/><path d="M33.63 5.708v22.537a2.94 2.94 0 002.94 2.94v0a2.94 2.94 0 002.94-2.94V5.708M3.834 36.788V8.194h4.97m31.272 0h4.963v28.594M14.38 8.194h6.6m5.883 0h6.6m-6.6 6.79h6.6m-19.078 0h6.599m-17.15 0h4.492m12.658 5.93h5.88M8.502 25.256h5.88m19.248-6.81h5.88m0-3.462h5.759" stroke="#000"/></svg>