<svg width="54" height="58" fill="none" xmlns="http://www.w3.org/2000/svg"><path d="M44.755 26.835v25.12l-2.608 1.346v4.025H53V53.3l-3.05-1.346.055-25.12h-5.25z" stroke="#000"/><path d="M49.785 27.637l-4.797 2.73 4.797 2.73-4.797 2.729 4.797 2.73-4.797 2.729 4.797 2.73-4.797 2.729h4.797M44.99 26.835l4.798-2.73-4.797-2.73 4.797-2.729-4.797-2.73 4.797-2.729-4.797-2.73 4.797-2.729h-5.161l5.457-6.402" stroke="#000" stroke-linejoin="round"/><path d="M44.71 26.835V1.397H50V27.28M4.564 38.149h2.448v18.677H4.564z" stroke="#000"/><path d="M23.884 29.127l20.48 8.843H3.404l20.48-8.843z" stroke="#000" stroke-linejoin="round"/><path d="M11.893 42.003v-1.02a3 3 0 013-3h23.609a3 3 0 013 3v6.062a4 4 0 001.171 2.828l1.977 1.977" stroke="#000"/><path d="M11.162 44.881l-1.102-2.83h3.933l-1.073 2.83h-1.758zm10.518 0l-1.102-2.83h3.932l-1.072 2.83h-1.759zm10.696 0l-1.1-2.83h3.932l-1.073 2.83h-1.759z" stroke="#000"/><path d="M22.572 42.08v-.812a3 3 0 01.543-1.72l1.127-1.61m9.028 4.142v-.812a3 3 0 01.542-1.72l1.127-1.61" stroke="#000"/></svg>