<svg width="50" height="50" fill="none" xmlns="http://www.w3.org/2000/svg"><path d="M3.101 22.79v21.532L.865 45.476v3.45h9.304v-3.45l-2.614-1.154.047-21.531h-4.5z" stroke="#000"/><path d="M7.414 23.478l-4.111 2.34 4.111 2.34-4.111 2.339 4.111 2.34-4.111 2.34 4.111 2.339-4.111 2.34h4.111M48.73 20.451l-4.111-2.34 4.111-2.34-4.111-2.339 4.111-2.34-4.111-2.339 4.111-2.34h-4.423L48.984.926M3.302 22.79l4.112-2.339-4.112-2.34 4.112-2.34-4.112-2.339 4.112-2.34-4.112-2.339 4.112-2.34H2.99L7.668.926" stroke="#000" stroke-linejoin="round"/><path d="M44.379.986v19.74h4.532V.986H44.38zM3.064 22.79V.987h4.533v22.186" stroke="#000"/><path d="M26.703 26.045l17.554 7.58H9.15l17.554-7.58z" stroke="#000" stroke-linejoin="round"/><path d="M39.297 37.082v-.446a3 3 0 00-3-3H15.935a3 3 0 00-3 3v3.466a4 4 0 01-4 4H7.851" stroke="#000"/><path d="M39.923 39.548l.944-2.426h-3.37l.92 2.426h1.506zm-8.751 0l.943-2.426h-3.37l.92 2.426h1.507zm-8.512 0l.944-2.426h-3.371l.92 2.426h1.507z" stroke="#000"/><path d="M30.406 37.148v-.561a3 3 0 00-.542-1.72l-.889-1.27m-7.08 3.551v-.561a3 3 0 00-.543-1.72l-.888-1.27M7.752 20.765H44.3" stroke="#000"/><path d="M7.752 26.045h39.221v22.71h1.965v-27.99" stroke="#000"/><path d="M44.393 25.936v4.122a2.37 2.37 0 002.37 2.37v0" stroke="#000"/></svg>