<svg width="52" height="50" fill="none" xmlns="http://www.w3.org/2000/svg"><path d="M45.627 19.18h1.628l3.362-4.155V7.166l-6.535-1.722-4.413 2.784H8.236a7 7 0 00-7 7v3.923H6.02" stroke="#000"/><path d="M45.627 19.18h1.628l3.362-4.155V7.166l-6.535-1.722-4.413 2.784H8.236a7 7 0 00-7 7v3.923H6.02" stroke="#000"/><path d="M44.092 5.4c-1.813-1.37-7.349-4.11-14.989-4.11-3.486-.049-11.593 1.27-16.138 6.938M29.139 1.31v17.897" stroke="#000"/><circle cx="40.307" cy="19.152" r="1.469" stroke="#000"/><circle cx="11.264" cy="19.152" r="1.469" stroke="#000"/><circle cx="40.307" cy="19.152" r="5.114" stroke="#000"/><circle cx="11.264" cy="19.152" r="5.114" stroke="#000"/><path d="M16.408 19.152H34.96" stroke="#000"/><path d="M3.73 15.18v.5h.251l.15-.202-.4-.298zm2.773-3.723l.4.298a.5.5 0 00-.4-.798v.5zm-5.15 4.223H3.73v-1H1.354v1zm2.778-.202l2.773-3.723-.802-.597-2.773 3.723.802.597zm2.372-4.521h-4.12v1h4.12v-1z" fill="#000"/><path d="M50.616 10.88h-4.491m-19.614 0h-3.42M39.09 31.262h5.527a6 6 0 006-6v-.996H1.237v.996a6 6 0 006 6h14.707m17.656.039h10.15v10.978H39.6z" stroke="#000"/><path d="M28.143 36.216h-7.678a2.477 2.477 0 01-2.477-2.477v0a2.477 2.477 0 012.477-2.477h7.678c1.68-1.277 6.347-3.009 11.568.283" stroke="#000"/><path d="M19.963 36.197L9.601 31.78a3.011 3.011 0 00-3.98 1.663v0a3.011 3.011 0 001.645 3.888l11.212 4.658a4.19 4.19 0 001.607.32h19.57" stroke="#000"/></svg>