<svg width="66" height="50" fill="none" xmlns="http://www.w3.org/2000/svg"><rect x=".795" y="41.54" width="29.907" height="3.551" rx="1.776" stroke="#000"/><path d="M3.787 45.091V47a2 2 0 002 2h.486a2 2 0 002-2v-1.909m14.954 0V47a2 2 0 002 2h.486a2 2 0 002-2v-1.909M26.44 34.036h2.384c.843 0 1.526-.683 1.526-1.526v0c0-.842-.683-1.525-1.526-1.525h-2.383M5 34.036H2.618a1.525 1.525 0 01-1.525-1.526v0c0-.842.683-1.525 1.525-1.525h2.384m-3.318 10.46v-4.077l2.18-3.332h23.721l2.227 3.332v4.077" stroke="#000"/><path d="M3.787 34.26l2.035-4.816A4 4 0 019.506 27h12.539a4 4 0 013.698 2.477l1.97 4.783M9.766 37.786h11.963M1.682 37.41l5.095 1.573V41.5m23.036-4.09l-5.096 1.573V41.5" stroke="#000"/><rect x="35.148" y="41.54" width="29.907" height="3.551" rx="1.776" stroke="#000"/><path d="M38.14 45.091V47a2 2 0 002 2h.487a2 2 0 002-2v-1.909m14.953 0V47a2 2 0 002 2h.486a2 2 0 002-2v-1.909m-1.272-11.055h2.384c.842 0 1.525-.683 1.525-1.526v0c0-.842-.683-1.525-1.525-1.525h-2.384m-21.44 3.051h-2.383a1.525 1.525 0 01-1.526-1.526v0c0-.842.683-1.525 1.526-1.525h2.383" stroke="#000"/><path d="M36.037 41.445v-4.077l2.18-3.332h23.722l2.226 3.332v4.077" stroke="#000"/><path d="M38.14 34.26l2.035-4.816A4 4 0 0143.86 27h12.538a4 4 0 013.699 2.477l1.97 4.783M44.12 37.786h11.962m-20.047-.376l5.095 1.573V41.5m23.036-4.09l-5.095 1.573V41.5" stroke="#000"/><rect x="17.971" y="15.54" width="29.907" height="3.551" rx="1.776" stroke="#000"/><path d="M20.963 19.091V21a2 2 0 002 2h.486a2 2 0 002-2v-1.909m14.953 0V21a2 2 0 002 2h.486a2 2 0 002-2v-1.909M43.616 8.036H46c.842 0 1.525-.683 1.525-1.526v0c0-.842-.683-1.525-1.525-1.525h-2.384M22.177 8.036h-2.384a1.525 1.525 0 01-1.525-1.526v0c0-.842.683-1.525 1.525-1.525h2.384m-3.317 10.46v-4.077l2.179-3.332H44.76l2.227 3.332v4.077" stroke="#000"/><path d="M20.963 8.26l2.034-4.816A4 4 0 0126.682 1H39.22a4 4 0 013.7 2.477l1.969 4.783m-17.948 3.526h11.963m-20.047-.376l5.096 1.573V15.5m23.035-4.09l-5.095 1.573V15.5" stroke="#000"/></svg>