<svg width="33" height="62" fill="none" xmlns="http://www.w3.org/2000/svg"><path d="M32.447 2.714h.5v-.5h-.5v.5zM1.404 1.156v-.5h-.5v.5h.5zm31.034 0h.5v-.5h-.5v.5zm0 12.107v.5h.5v-.5h-.5zm-31.034 0h-.5v.5h.5v-.5zm10.33-10.55a.5.5 0 10-1 0h1zm-.5 8.992l-.437.242a.5.5 0 00.938-.242h-.5zM6.288 2.714l.438-.241a.5.5 0 00-.938.24h.5zm0 8.991l-.44.238a.5.5 0 00.94-.238h-.5zm-4.85-8.991l.44-.238a.5.5 0 00-.94.238h.5zm0 8.991h-.5a.5.5 0 00.5.5v-.5zm31.01 0v.5a.5.5 0 00.5-.5h-.5zm-4.859 0h-.5a.5.5 0 00.94.238l-.44-.238zm0-8.991h.5a.5.5 0 00-.938-.241l.439.24zm-4.94 8.991h-.5a.5.5 0 00.94.241l-.44-.24zm.5-8.991a.5.5 0 00-1 0h1zM11.236 6.709a.5.5 0 000 1v-1zm11.414 1a.5.5 0 000-1v1zM2.98 15.467c0 1.5 1.225 2.703 2.728 2.703v-1a1.714 1.714 0 01-1.729-1.703h-1zm2.728 2.703c1.504 0 2.73-1.203 2.73-2.703h-1c0 .937-.768 1.703-1.73 1.703v1zm2.73-2.703c0-1.491-1.225-2.704-2.73-2.704v1a1.72 1.72 0 011.73 1.704h1zm-2.73-2.704c-1.503 0-2.729 1.204-2.729 2.704h1c0-.938.767-1.704 1.73-1.704v-1zm19.716 2.704c0 1.5 1.226 2.703 2.73 2.703v-1a1.714 1.714 0 01-1.73-1.703h-1zm2.73 2.703c1.503 0 2.728-1.203 2.728-2.703h-1c0 .937-.767 1.703-1.729 1.703v1zm2.728-2.703c0-1.491-1.224-2.704-2.729-2.704v1a1.72 1.72 0 011.729 1.704h1zm-2.729-2.704c-1.504 0-2.729 1.203-2.729 2.704h1c0-.938.767-1.704 1.73-1.704v-1zM1.404 3.213h31.043v-1H1.404v1zm0-1.557h31.034v-1H1.404v1zm30.534-.5v12.107h1V1.156h-1zm.5 11.607H1.404v1h31.034v-1zm-30.534.5V1.156h-1v12.107h1zm8.83-10.55v8.992h1V2.714h-1zm.939 8.751L6.725 2.473l-.876.482 4.948 8.992.876-.483zm-5.886-8.75v8.991h1V2.714h-1zm.94 8.754l-4.85-8.992-.88.475 4.85 8.992.88-.475zM.937 2.714v8.991h1V2.714h-1zm.5 9.491h31.01v-1H1.436v1zm31.51-.5V2.714h-1v8.991h1zm-.94-9.23l-4.858 8.993.88.475 4.857-8.992-.88-.475zm-3.918 9.23V2.714h-1v8.991h1zm-.939-9.232l-4.94 8.992.877.481 4.94-8.992-.877-.481zm-4.001 9.232V2.714h-1v8.991h1zM11.235 7.71h11.414v-1H11.235v1zm21.212 16.516h.5v-.5h-.5v.5zM1.404 22.668v-.5h-.5v.5h.5zm31.034 0h.5v-.5h-.5v.5zm0 12.108v.5h.5v-.5h-.5zm-31.034 0h-.5v.5h.5v-.5zm10.33-10.55a.5.5 0 10-1 0h1zm-.5 8.992l-.437.241a.5.5 0 00.938-.24h-.5zm-4.947-8.992l.438-.24a.5.5 0 00-.938.24h.5zm0 8.992l-.44.237a.5.5 0 00.94-.237h-.5zm-4.85-8.992l.44-.237a.5.5 0 00-.94.237h.5zm0 8.992h-.5a.5.5 0 00.5.5v-.5zm31.01 0v.5a.5.5 0 00.5-.5h-.5zm-4.859 0h-.5a.5.5 0 00.94.238l-.44-.238zm0-8.992h.5a.5.5 0 00-.938-.24l.439.24zm-4.94 8.992h-.5a.5.5 0 00.94.24l-.44-.24zm.5-8.992a.5.5 0 00-1 0h1zm-11.913 3.996a.5.5 0 100 1v-1zm11.414 1a.5.5 0 000-1v1zM2.979 36.98c0 1.5 1.225 2.703 2.728 2.703v-1a1.714 1.714 0 01-1.729-1.703h-1zm2.728 2.703c1.504 0 2.73-1.203 2.73-2.703h-1c0 .937-.768 1.703-1.73 1.703v1zm2.73-2.703c0-1.491-1.225-2.704-2.73-2.704v1a1.72 1.72 0 011.73 1.704h1zm-2.73-2.704c-1.503 0-2.729 1.203-2.729 2.704h1c0-.938.767-1.704 1.73-1.704v-1zm19.716 2.703c0 1.5 1.226 2.704 2.73 2.704v-1a1.714 1.714 0 01-1.73-1.703h-1zm2.73 2.704c1.503 0 2.728-1.203 2.728-2.703h-1c0 .937-.767 1.703-1.729 1.703v1zm2.728-2.703c0-1.492-1.224-2.704-2.729-2.704v1c.961 0 1.729.773 1.729 1.703h1zm-2.729-2.704c-1.504 0-2.729 1.203-2.729 2.703h1c0-.937.767-1.703 1.73-1.703v-1zm-26.748-9.55h31.043v-1H1.404v1zm0-1.558h31.034v-1H1.404v1zm30.534-.5v12.108h1V22.668h-1zm.5 11.608H1.404v1h31.034v-1zm-30.534.5V22.668h-1v12.108h1zm8.83-10.55v8.992h1v-8.992h-1zm.939 8.751l-4.948-8.992-.876.482 4.948 8.992.876-.482zm-5.886-8.75v8.991h1v-8.992h-1zm.94 8.754l-4.85-8.992-.88.475 4.85 8.992.88-.475zm-5.79-8.755v8.992h1v-8.992h-1zm.5 9.492h31.01v-1H1.436v1zm31.51-.5v-8.992h-1v8.992h1zm-.94-9.23l-4.858 8.992.88.476 4.857-8.992-.88-.475zm-3.918 9.23v-8.992h-1v8.992h1zm-.939-9.232l-4.94 8.991.877.482 4.94-8.992-.877-.481zm-4.001 9.232v-8.992h-1v8.992h1zm-11.914-3.996h11.414v-1H11.235v1zM32.447 45.74h.5v-.5h-.5v.5zM1.404 44.18v-.5h-.5v.5h.5zm31.034 0h.5v-.5h-.5v.5zm0 12.108v.5h.5v-.5h-.5zm-31.034 0h-.5v.5h.5v-.5zm10.33-10.55a.5.5 0 10-1 0h1zm-.5 8.992l-.437.241a.5.5 0 00.938-.241h-.5zm-4.947-8.992l.438-.24a.5.5 0 00-.938.24h.5zm0 8.992l-.44.237a.5.5 0 00.94-.237h-.5zm-4.85-8.992l.44-.237a.5.5 0 00-.94.237h.5zm0 8.992h-.5a.5.5 0 00.5.5v-.5zm31.01 0v.5a.5.5 0 00.5-.5h-.5zm-4.859 0h-.5a.5.5 0 00.94.238l-.44-.238zm0-8.992h.5a.5.5 0 00-.938-.24l.439.24zm-4.94 8.992h-.5a.5.5 0 00.94.24l-.44-.24zm.5-8.992a.5.5 0 00-1 0h1zm-11.913 3.996a.5.5 0 100 1v-1zm11.414 1a.5.5 0 000-1v1zm-19.67 7.758c0 1.5 1.225 2.703 2.728 2.703v-1a1.714 1.714 0 01-1.729-1.703h-1zm2.728 2.703c1.504 0 2.73-1.203 2.73-2.703h-1c0 .937-.768 1.703-1.73 1.703v1zm2.73-2.703c0-1.492-1.225-2.704-2.73-2.704v1a1.72 1.72 0 011.73 1.703h1zm-2.73-2.704c-1.503 0-2.729 1.203-2.729 2.703h1c0-.937.767-1.703 1.73-1.703v-1zm19.716 2.703c0 1.5 1.226 2.704 2.73 2.704v-1a1.714 1.714 0 01-1.73-1.704h-1zm2.73 2.704c1.503 0 2.728-1.203 2.728-2.704h-1c0 .938-.767 1.704-1.729 1.704v1zm2.728-2.704c0-1.49-1.224-2.703-2.729-2.703v1c.961 0 1.729.773 1.729 1.703h1zm-2.729-2.703c-1.504 0-2.729 1.203-2.729 2.703h1c0-.937.767-1.703 1.73-1.703v-1zm-26.748-9.55h31.043v-1H1.404v1zm0-1.558h31.034v-1H1.404v1zm30.534-.5v12.11h1V44.18h-1zm.5 11.608H1.404v1h31.034v-1zm-30.534.5V44.18h-1v12.11h1zm8.83-10.55v8.992h1v-8.992h-1zm.939 8.751l-4.948-8.992-.876.482 4.948 8.992.876-.482zm-5.886-8.75v8.991h1v-8.992h-1zm.94 8.754l-4.85-8.992-.88.475 4.85 8.991.88-.474zm-5.79-8.755v8.992h1v-8.992h-1zm.5 9.492h31.01v-1H1.436v1zm31.51-.5v-8.992h-1v8.992h1zm-.94-9.23l-4.858 8.992.88.476 4.857-8.992-.88-.475zm-3.918 9.23v-8.992h-1v8.992h1zm-.939-9.233l-4.94 8.992.877.482 4.94-8.992-.877-.481zm-4.001 9.233v-8.992h-1v8.992h1zm-11.914-3.996h11.414v-1H11.235v1z" fill="#000"/></svg>