<svg width="60" height="34" fill="none" xmlns="http://www.w3.org/2000/svg"><path d="M.926 29.423v-.5h-.5v.5h.5zm58 0h.5v-.5h-.5v.5zM56.278 3.755h.5v-.5h-.5v.5zM3.574 1.109v-.5h-.5v.5h.5zm52.69 0h.5v-.5h-.5v.5zm0 20.557v.5h.5v-.5h-.5zm-52.69 0h-.5v.5h.5v-.5zm17.19-17.911a.5.5 0 10-1 0h1zm-.5 15.266l-.438.241a.5.5 0 00.938-.24h-.5zm-8.4-15.266l.438-.241a.5.5 0 00-.939.24h.5zm0 15.266l-.44.238a.5.5 0 00.94-.238h-.5zM3.628 3.755l.44-.238a.5.5 0 00-.94.238h.5zm0 15.266h-.5a.5.5 0 00.5.5v-.5zm52.65 0v.5a.5.5 0 00.5-.5h-.5zm-8.249 0h-.5a.5.5 0 00.94.238l-.44-.238zm0-15.266h.5a.5.5 0 00-.938-.241l.438.24zM39.644 19.02h-.5a.5.5 0 00.938.241l-.438-.24zm.5-15.266a.5.5 0 00-1 0h1zm-19.88 7.133a.5.5 0 100 1v-1zm19.38 1a.5.5 0 000-1v1zm-33.05 13.52c0 2.35 1.921 4.24 4.285 4.24v-1c-1.822 0-3.284-1.453-3.284-3.24h-1zm4.285 4.24c2.364 0 4.285-1.89 4.285-4.24h-1c0 1.787-1.462 3.24-3.285 3.24v1zm4.285-4.24c0-2.336-1.92-4.242-4.285-4.242v1c1.822 0 3.285 1.466 3.285 3.242h1zm-4.285-4.242c-2.364 0-4.284 1.89-4.284 4.242h1c0-1.788 1.462-3.242 3.284-3.242v-1zm33.824 4.241c0 2.351 1.92 4.242 4.284 4.242v-1c-1.822 0-3.284-1.454-3.284-3.242h-1zm4.284 4.242c2.364 0 4.285-1.89 4.285-4.242h-1c0 1.788-1.462 3.242-3.285 3.242v1zm4.285-4.242c0-2.336-1.92-4.24-4.285-4.24v1c1.821 0 3.285 1.465 3.285 3.24h1zm-4.285-4.24c-2.364 0-4.284 1.89-4.284 4.24h1c0-1.787 1.462-3.24 3.284-3.24v-1zM.426 29.422v3.686h1v-3.686h-1zm3.632 0v3.686h1v-3.686h-1zm3.618 0v3.686h1v-3.686h-1zm3.632 0v3.686h1v-3.686h-1zm3.618 0v3.686h1v-3.686h-1zm3.618 0v3.686h1v-3.686h-1zm3.632 0v3.686h1v-3.686h-1zm3.618 0v3.686h1v-3.686h-1zm3.632 0v3.686h1v-3.686h-1zm3.632 0v3.686h1v-3.686h-1zm3.618 0v3.686h1v-3.686h-1zm3.632 0v3.686h1v-3.686h-1zm3.618 0v3.686h1v-3.686h-1zm3.618 0v3.686h1v-3.686h-1zm3.632 0v3.686h1v-3.686h-1zm3.618 0v3.686h1v-3.686h-1zm-53.868.5h58v-1h-58v1zm57.5-.5v3.686h1v-3.686h-1zM3.574 4.255h52.704v-1H3.574v1zm0-2.646h52.69v-1H3.574v1zm52.19-.5v20.557h1V1.11h-1zm.5 20.057H3.574v1h52.69v-1zm-52.19.5V1.11h-1v20.556h1zm15.69-17.911V19.02h1V3.755h-1zm.938 15.025l-8.4-15.266-.877.482 8.401 15.266.876-.482zM11.363 3.755V19.02h1V3.755h-1zm.94 15.029L4.07 3.517l-.88.475 8.234 15.267.88-.475zM3.13 3.754v15.267h1V3.755h-1zm.5 15.767h52.65v-1H3.628v1zm53.15-.5V3.755h-1V19.02h1zm-.94-15.504l-8.25 15.267.88.475 8.248-15.267-.88-.475zM48.53 19.02V3.755h-1V19.02h1zm-.938-15.507L39.205 18.78l.877.481 8.386-15.267-.876-.481zM40.144 19.02V3.755h-1V19.02h1zm-19.88-7.133h19.38v-1h-19.38v1z" fill="#000"/></svg>