<svg width="52" height="48" fill="none" xmlns="http://www.w3.org/2000/svg"><path d="M39.09 29.262h5.527a6 6 0 006-6v-.996H1.237v.996a6 6 0 006 6h14.707m17.656.039h10.15v10.978H39.6z" stroke="#000"/><path d="M28.143 34.216h-7.678a2.477 2.477 0 01-2.477-2.477v0a2.477 2.477 0 012.477-2.477h7.678c1.68-1.277 6.347-3.01 11.568.283" stroke="#000"/><path d="M19.963 34.196L9.601 29.781a3.011 3.011 0 00-3.98 1.663v0a3.011 3.011 0 001.645 3.888l11.212 4.658a4.19 4.19 0 001.607.32h19.57" stroke="#000"/><path d="M46 2.846h.5v-.5H46v.5zM5.694.824v-.5h-.5v.5h.5zm40.294 0h.5v-.5h-.5v.5zm0 15.72v.5h.5v-.5h-.5zm-40.294 0h-.5v.5h.5v-.5zM18.96 2.846a.5.5 0 10-1 0h1zm-.5 11.675l-.438.241a.5.5 0 00.938-.24h-.5zM12.035 2.846l.438-.24a.5.5 0 00-.938.24h.5zm0 11.675l-.44.237a.5.5 0 00.94-.237h-.5zM5.738 2.846l.44-.237a.5.5 0 00-.94.237h.5zm0 11.675h-.5a.5.5 0 00.5.5v-.5zm40.261 0v.5a.5.5 0 00.5-.5H46zm-6.307 0h-.5a.5.5 0 00.94.238l-.44-.238zm0-11.675h.5a.5.5 0 00-.938-.24l.438.24zm-6.413 11.675h-.5a.5.5 0 00.938.24l-.438-.24zm.5-11.675a.5.5 0 00-1 0h1zm-15.32 5.338a.5.5 0 000 1v-1zm14.82 1a.5.5 0 000-1v1zM7.888 19.404c0 1.865 1.523 3.362 3.394 3.362v-1c-1.33 0-2.394-1.06-2.394-2.361h-1zm3.394 3.362c1.871 0 3.394-1.497 3.394-3.361h-1c0 1.3-1.064 2.36-2.394 2.36v1zm3.394-3.361c0-1.853-1.521-3.361-3.394-3.361v1c1.329 0 2.394 1.07 2.394 2.36h1zm-3.394-3.361c-1.871 0-3.394 1.497-3.394 3.36h1c0-1.3 1.064-2.36 2.394-2.36v-1zm25.748 3.36c0 1.865 1.522 3.362 3.394 3.362v-1c-1.33 0-2.394-1.06-2.394-2.361h-1zm3.394 3.362c1.871 0 3.394-1.497 3.394-3.361h-1c0 1.3-1.064 2.36-2.394 2.36v1zm3.394-3.361c0-1.853-1.522-3.361-3.394-3.361v1c1.328 0 2.394 1.07 2.394 2.36h1zm-3.394-3.361c-1.872 0-3.394 1.497-3.394 3.36h1c0-1.3 1.064-2.36 2.394-2.36v-1zM5.695 3.346H46v-1H5.695v1zm0-2.022H45.99v-1H5.695v1zm39.794-.5v15.72h1V.824h-1zm.5 15.22H5.695v1H45.99v-1zm-39.794.5V.824h-1v15.72h1zM17.96 2.846v11.675h1V2.846h-1zm.938 11.434L12.473 2.605l-.877.483 6.425 11.674.876-.482zM11.535 2.846v11.675h1V2.846h-1zm.94 11.438L6.178 2.609l-.88.475 6.296 11.675.88-.475zM5.238 2.846v11.675h1V2.846h-1zm.5 12.175h40.261v-1H5.738v1zm40.761-.5V2.846h-1v11.675h1zM45.56 2.61l-6.307 11.675.88.475L46.44 3.085l-.88-.475zm-5.368 11.91V2.846h-1v11.675h1zm-.938-11.915L32.84 14.28l.877.482L40.13 3.087l-.876-.481zM33.779 14.52V2.846h-1v11.675h1zm-15.32-5.337h14.82v-1h-14.82v1z" fill="#000"/></svg>