<svg width="50" height="50" fill="none" xmlns="http://www.w3.org/2000/svg"><path d="M26.552 16.245h-4.689v7.66h4.613c1.291 0 2.275-.237 2.95-.883.679-.645 1.017-1.513 1.017-2.69 0-1.29-.35-2.23-1.044-3.002-.696-.771-1.645-1.085-2.847-1.085z" stroke="#000"/><path d="M42.286.926H7.699C4.027.926.926 4.014.926 7.688v34.586c0 3.674 3.1 6.652 6.773 6.652h34.587a6.642 6.642 0 006.64-6.651V7.688c0-3.674-2.967-6.762-6.64-6.762zm-7.981 25.77c-1.93 1.613-4.58 2.315-7.944 2.315h-4.499v9.702h-6.638V11.138h11.25c2.113 0 3.985.3 5.609 1.08 1.627.777 2.885 1.84 3.778 3.276.89 1.437 1.336 2.99 1.336 4.813 0 2.695-.963 4.776-2.892 6.388z" stroke="#000"/></svg>