<svg width="62" height="35" fill="none" xmlns="http://www.w3.org/2000/svg"><path stroke="#000" d="M1.275 1.426h38.967v19.898H1.275z"/><path d="M6.717 5.23h3.988v12.29H6.717V5.23zm7.83 0h3.988v12.29h-3.989V5.23zm8.523 0h3.988v12.29H23.07V5.23zm7.616 0h3.988v12.29h-3.988V5.23z" stroke="#000"/><circle cx="14.289" cy="31.174" r="3.252" stroke="#000"/><circle cx="24.839" cy="31.174" r="3.252" stroke="#000"/><circle cx="51.082" cy="31.174" r="3.252" stroke="#000"/><path d="M5.063 21.458v4.434H1.117v4.947H6.64l3.244-4.947h19.112l3.858 4.947h11.66l3.244-4.947H36.273v-4.434m7.821-15.813V23.05h9.475a4 4 0 014 4v2.645h3.505V16.219l-4.433-7.998a5 5 0 00-4.373-2.576h-8.174z" stroke="#000"/><path d="M46.693 8.545h6.169a2 2 0 011.765 1.06l2.643 4.963a1 1 0 01-.883 1.47h-9.694V8.545z" stroke="#000"/></svg>