<svg width="56" height="30" fill="none" xmlns="http://www.w3.org/2000/svg"><path d="M47.137 6.575l-.332-.374a.5.5 0 000 .748l.332-.374zm6.344 5.635l.332.374a.5.5 0 000-.748l-.332.374zm-6.344 5.636l-.332-.374a.5.5 0 000 .747l.332-.373zm6.344 5.635l.332.374a.5.5 0 000-.748l-.332.374zM2.299 29.116v.5-.5zm40.958 0v.5-.5zM2.299 10.567l-.222-.448-.278.138v.31h.5zm18.436 0h.5v-.31l-.279-.138-.221.448zm-9.218-4.561l.222-.448-.222-.11-.222.11.222.448zm13.304 4.561l-.222-.448-.278.138v.31h.5zm18.436 0h.5v-.31l-.279-.138-.221.448zM8.17.735v-.5h-.5v.5h.5zM47.1 3.49h.5-.5zm-13.062 0v-.5.5zm-22.54 0v-.5.5zm-3.328 0h-.5v.5h.5v-.5zM53.554.735h.5v-.5h-.5v.5zm-.405-.169l-6.344 5.635.664.748 6.344-5.635-.664-.748zm-6.344 6.383l6.344 5.635.664-.748-6.344-5.635-.664.748zm6.344 4.887l-6.344 5.636.664.747 6.344-5.635-.664-.748zm-6.344 6.383l6.344 5.636.664-.748-6.344-5.635-.664.747zm6.344 4.888l-6.344 5.636.664.747 6.344-5.635-.664-.748zm-53.14 6.51H2.3v-1H.009v1zm2.29 0h18.436v-1H2.299v1zm18.436 0h4.086v-1h-4.086v1zm4.086 0h18.436v-1H24.82v1zm18.436 0H47.1v-1h-3.844v1zm3.844 0h6.453v-1h-6.453v1zm6.453 0h2.29v-1h-2.29v1zm-50.755-.5v-18.55h-1v18.55h1zm17.436-18.55v18.55h1v-18.55h-1zm-17.714.448l9.2-4.552-.444-.896-9.2 4.552.444.896zm9.2-4.552l.018-.009-.444-.896-.018.009.444.896zm-.426-.009l9.218 4.561.443-.896-9.217-4.561-.444.896zm14.026 22.663v-18.55h-1v18.55h1zm17.436-18.55v18.55h1v-18.55h-1zm-17.714.448l9.218-4.561-.444-.896-9.218 4.561.444.896zm8.774-4.561l9.218 4.561.444-.896-9.218-4.561-.444.896zM8.171 1.235h3.328v-1H8.171v1zm3.328 0h7.513v-1H11.5v1zm7.513 0h7.514v-1h-7.514v1zm7.514 0h7.513v-1h-7.513v1zm7.513 0h7.05v-1h-7.05v1zm7.05 0h6.013v-1h-6.014v1zm6.013 1.755H34.038v1h13.063v-1zm-13.063 0H11.5v1h22.54v-1zm-22.54 0H8.171v1h3.328v-1zm-2.828.5V.735h-1V3.49h1zM53.554.235h-6.453v1h6.453v-1zm-6.953.5V3.49h1V.735h-1zm0 2.755v25.626h1V3.49h-1zm7.453 25.627V.734h-1v28.381h1zM11.999 6.05v-.035h-1v.035h1zm0-.035V3.49h-1v2.525h1zm0-2.72V.735h-1v2.56h1zm7.513 0V.735h-1v2.56h1zm7.514 0V.735h-1v2.56h1zm7.513 0V.735h-1v2.56h1zm7.05 0V.735h-1v2.56h1zm-7.05 2.752v-.044l-1 .006v.044l1-.006zm0-.041V3.49h-1v2.516h1zm-18.284 6.056v2.89h1v-2.89h-1zm0 5.003v7.857h1v-7.857h-1zm22.525-4.69v8.842h1v-8.842h-1z" fill="#000"/></svg>