<svg width="76" height="165" fill="none" xmlns="http://www.w3.org/2000/svg"><path d="M74.967 138.354H.232l36.5-34.053.002-.001c12.791-11.726 21.732-21.728 26.79-30.004 5.22-8.291 7.835-17.131 7.835-26.51 0-15.036-5.07-26.605-15.253-34.628C45.96 5.01 33.137.952 17.68.952c-15.932 0-29.143 4.753-39.595 14.282-10.471 9.547-16.36 23.913-17.736 43.014l-.036.497.496.038 29.672 2.282.497.038.04-.497c.909-11.517 3.708-19.914 8.325-25.276 4.771-5.517 10.87-8.271 18.337-8.271 6.596 0 11.787 1.87 15.63 5.566l.007.007.008.007c3.978 3.536 5.994 8.56 5.994 15.146 0 3.742-.673 7.409-2.02 11.005-1.342 3.425-3.889 7.332-7.673 11.721v.001c-3.646 4.253-6.83 7.662-9.55 10.233l-.006.005-.005.005c-2.58 2.58-6.986 6.758-13.224 12.54l-.002.002-50.441 47.246-.159.148v23.769h119.23v-26.106h-.5z" stroke="#fff"/></svg>