<svg width="89" height="166" fill="none" xmlns="http://www.w3.org/2000/svg"><path d="M109.868 76.22l-.328.377.003.003.325-.38zm-3.45 75.21l.303.397.001-.001-.304-.396zm-86.25.69l-.309.393.003.002.306-.395zm-18.63-37.26l-.034-.499-.516.035.053.515.497-.051zm30.13-2.07l.495-.069-.063-.462-.466.032.034.499zm52.9 19.55l.326.378h.001l-.327-.378zm.92-40.25l-.348.358.348-.358zm-47.15-4.37h-.5v.615l.603-.126-.103-.49zm0-21.39l-.349-.359-.151.147v.212h.5zm41.17-40.02l.349.358.883-.858h-1.232v.5zm-69.69 0h-.5v.5h.5v-.5zm0-25.3v-.5h-.5v.5h.5zm109.71 0h.5v-.5h-.5v.5zm0 22.54l.329.376.171-.15v-.227h-.5zm-46 40.25l-.33-.377-.907.794 1.203.081.034-.498zm36.015 12.8c9.369 8.008 14.085 19.736 14.085 35.27h1c0-15.747-4.79-27.786-14.435-36.03l-.65.76zm14.085 35.27c0 17.2-5.852 30.227-17.514 39.163l.608.793c11.952-9.157 17.906-22.503 17.906-39.956h-1zm-17.513 39.162c-11.548 8.813-26.231 13.238-44.087 13.238v1c18.024 0 32.935-4.469 44.693-13.443l-.606-.795zM62.028 164.27c-16.936 0-30.774-4.195-41.554-12.546l-.612.791c10.993 8.516 25.062 12.755 42.166 12.755v-1zm-41.551-12.544C9.872 143.394 3.71 131.11 2.035 114.808l-.994.103c1.697 16.511 7.956 29.068 18.818 37.602l.618-.787zM1.572 115.358l30.13-2.07-.068-.997-30.13 2.07.068.997zm29.6-2.5c1.238 8.972 4.42 15.768 9.596 20.317 5.177 4.55 12.285 6.795 21.26 6.795v-1c-8.811 0-15.657-2.202-20.6-6.546-4.944-4.344-8.049-10.888-9.265-19.703l-.99.137zm30.856 27.112c9.59 0 17.23-2.399 22.866-7.252l-.652-.757c-5.405 4.654-12.79 7.009-22.214 7.009v1zm22.867-7.252c5.802-5.018 8.683-11.99 8.683-20.848h-1c0 8.621-2.792 15.296-8.337 20.091l.654.757zm8.683-20.848c0-8.39-2.568-15.122-7.742-20.14l-.696.718c4.946 4.797 7.438 11.251 7.438 19.422h1zm-7.742-20.14c-5.187-5.03-12.925-7.5-23.118-7.5v1c10.047 0 17.49 2.435 22.422 7.218l.696-.717zm-23.118-7.5c-6.793 0-14.956 1.003-24.483 3l.206.979c9.486-1.99 17.576-2.98 24.277-2.98v-1zm-23.88 3.49V66.33h-1v21.39h1zm-.151-21.032l41.17-40.02-.698-.717-41.17 40.02.698.717zm40.821-40.879H9.818v1h69.69v-1zm-69.19.5V1.01h-1v25.3h1zm-.5-24.8h109.71v-1H9.818v1zm109.21-.5v22.54h1V1.01h-1zm.171 22.164l-46 40.25.658.753 46-40.25-.658-.753zM73.494 64.298c15.886 1.07 27.878 5.19 36.046 12.299l.656-.755c-8.392-7.304-20.627-11.464-36.634-12.541l-.068.997z" fill="#fff"/></svg>