<svg width="52" height="20" xmlns="http://www.w3.org/2000/svg"><path d="M.07 19.5h51.633M11.594 5.697v2.696" stroke="#fff"/><path fill-rule="evenodd" clip-rule="evenodd" d="M.074 19.475V3.662L8.012.964l7.939 2.698v15.813H.074zM2.348 5.697v12h1v-12h-1zm3.443 0v12h1v-12h-1zm3.443 0v12h1v-12h-1zm3.444 0v12h1v-12h-1zm5.272 13.778V3.662L25.886.964l7.939 2.698v15.813H17.949zm2.273-13.778v12h1v-12h-1zm3.443 0v12h1v-12h-1zm3.443 0v12h1v-12h-1zm3.444 0v12h1v-12h-1zm5.275 13.778V3.662L43.766.964l7.939 2.698v15.813H35.828zm2.274-13.778v12h1v-12h-1zm3.443 0v12h1v-12h-1zm3.443 0v12h1v-12h-1zm3.444 0v12h1v-12h-1z"/></svg>