<svg width="57" height="53" fill="none" xmlns="http://www.w3.org/2000/svg"><path d="M55.968 33.774l.393.31.107-.137v-.172h-.5zm.016-21.461h.5v-.007l-.5.007zm-4.531.049l.5-.005v-.002l-.5.007zm.115 12.383l.353.353.148-.148-.002-.21-.5.005zm-12.4 12.4l-.353-.355-.147.147v.207h.5zm0 15.261h-.5v.5h.5v-.5zm8.588 0v.5h.5v-.5h-.5zm0-8.179l-.393-.309-.107.136v.173h.5zM51.34 28.23l.357-.35-.357.35zm-.032 3.206l-.35-.357.35.357zM1.25 33.775h-.5v.172l.107.136.393-.309zm-.017-21.462l-.5-.007v.007h.5zm4.532.049l-.5-.007v.002l.5.005zM5.65 24.745l-.5-.005-.002.21.148.148.354-.353zm12.4 12.4h.5v-.208l-.147-.146-.354.353zm0 15.261v.5h.5v-.5h-.5zm-8.589 0h-.5v.5h.5v-.5zm0-8.179h.5v-.173l-.106-.136-.394.31zM5.88 28.23l-.357-.35.357.35zm.033 3.206l.35-.356-.35.356zm22.704-15.343l.235-.442-.234-.124-.234.123.233.443zm-3.19 1.684l-.492-.084-.17 1 .896-.474-.233-.442zm.606-3.55l.493.085.044-.26-.188-.182-.35.358zm-2.568-2.502l-.073-.495-1 .148.724.705.349-.358zm3.55-.524l.072.495.258-.038.117-.233-.448-.223zm1.602-3.206l.448-.221-.445-.901-.45.899.447.223zm1.587 3.207l-.448.221.116.235.26.038.072-.495zm3.55.523l.349.358.724-.705-1-.148-.073.495zm-2.568 2.503l-.35-.358-.187.183.044.259.493-.084zm.605 3.55l-.235.441.899.477-.171-1.003-.493.084zM28.634 1.46a.5.5 0 000-1v1zm-2.126.204l-.233-.443-.008.005.24.438zm-.916.425l.108.488a.502.502 0 00.033-.008l-.141-.48zm-1.047.098l.012.5h.009l-.021-.5zm-2.143.442l-.248-.434-.003.002.251.432zM20.946 4.28l.429.257.003-.005-.432-.252zM19.49 5.737l.261.427.012-.008-.273-.42zm-1.652 1.472l-.432-.251-.002.003.434.248zm-.442 2.143l.5.02v-.008l-.5-.012zm-.098 1.063l.487.115.002-.006-.489-.109zm-.425.916l-.438-.24-.002.003.44.237zm0 4.253l-.44.238.002.003.438-.24zm.425.916l.482-.133a.555.555 0 00-.004-.016l-.478.15zm.099 1.064h-.5v.012l.5-.012zm.441 2.143l.434-.248-.434.248zm.23.327l.395-.306-.012-.014-.384.32zm1.422 1.145l-.267.422.01.007.257-.43zm.671.458l-.32.384a.5.5 0 00.02.016l.3-.4zm.687.867l-.42.271.004.006.416-.277zm.082.13l.427-.26a.497.497 0 00-.074-.093l-.353.354zm1.472 1.653l-.251.432.003.002.248-.434zm2.143.458l.02-.5h-.008l-.012.5zm1.047.13l.141-.48-.007-.001-.134.482zm.916.475l-.241.438.003.002.238-.44zm4.253 0l.238.44.003-.002-.241-.438zm.916-.474l-.134-.482-.007.002.141.48zm1.047-.131l-.012-.5h-.009l.021.5zm2.143-.458l.248.434.003-.002-.251-.432zm1.472-1.652l-.416-.278-.007.012.423.266zm.082-.131l.353.353a.497.497 0 00.067-.082l-.42-.271zm.687-.867l-.3-.4a.514.514 0 00-.054.046l.354.354zm.67-.458l-.257-.429a.523.523 0 00-.02.013l.278.416zm1.424-1.145l-.384-.32-.005.006.389.314zm.229-.327l-.434-.248.434.248zm.441-2.143l-.5-.021v.009l.5.012zm.099-1.064l.483.128.003-.013-.486-.115zm.425-.916l.438.241.002-.003-.44-.238zm0-4.253l.44-.237-.002-.004-.438.241zm-.425-.916l-.482.134.004.015.477-.149zm-.099-1.063h.5V9.34l-.5.012zm-.441-2.143l.434-.248-.002-.003-.432.251zm-1.652-1.472l.26-.427-.003-.002-.257.429zM36.323 4.28l-.427.26.008.012.419-.272zM34.85 2.629l-.252.431.001.001.252-.432zm-2.11-.442l-.02.5h.008l.012-.5zm-1.047-.098l-.114.487.006.001.108-.488zm-.916-.425l.241-.438-.003-.002-.238.44zM28.651.46a.5.5 0 000 1v-1zm-2.646 24.626a.5.5 0 10-.892-.453l.892.453zm-3.717 6.218l-.446-.226-.006.012.452.214zm-1.636-.049l-.457.203v.003l.457-.206zm-1.162-2.617l.457-.203a.5.5 0 00-.565-.285l.108.488zm-2.797.622l-.108-.489-.013.003.121.486zm-.949-1.39l.416.276a.517.517 0 00.03-.051l-.446-.226zm3.784-6.384a.5.5 0 10-.892-.45l.892.45zm12.578 3.147a.5.5 0 00-.891.453l.891-.453zm2.826 6.671l.452-.214-.006-.012-.446.226zm1.636-.049l.456.206.001-.003-.457-.203zm1.162-2.617l.107-.488a.5.5 0 00-.565.285l.458.203zm2.813.622l.121-.486-.013-.003-.108.489zm.949-1.39l-.446.225a.489.489 0 00.03.052l.416-.278zm-2.793-6.623a.5.5 0 00-.892.452l.892-.452zm17.769 12.528l.016-21.462h-1l-.016 21.461h1zm.016-21.469c-.02-1.516-1.274-2.754-2.797-2.734l.014 1a1.776 1.776 0 011.783 1.747l1-.013zm-2.797-2.734c-1.516.02-2.754 1.274-2.734 2.796l1-.013a1.776 1.776 0 011.748-1.783l-.014-1zm-2.734 2.794l.115 12.383 1-.009-.115-12.383-1 .01zm.261 12.025l-12.4 12.4.708.707 12.4-12.4-.708-.707zM38.668 37.144v15.262h1V37.144h-1zm.5 15.762h8.588v-1h-8.588v1zm9.088-.5v-8.179h-1v8.18h1zm-.107-7.87l8.212-10.453-.786-.617-8.212 10.452.786.618zm.334-15.983a1.771 1.771 0 012.5.026l.713-.7a2.771 2.771 0 00-3.913-.04l.7.714zm2.5.026a1.771 1.771 0 01-.027 2.5l.7.713a2.771 2.771 0 00.04-3.913l-.713.7zm-.027 2.5L45.1 36.837l.701.713 5.856-5.758-.7-.713zM1.751 33.774l-.017-21.462-1 .001.017 21.462 1-.001zm-.017-21.455c.013-.97.82-1.76 1.784-1.747l.013-1C2.01 9.552.754 10.79.734 12.306l1 .013zm1.784-1.747c.97.012 1.76.82 1.748 1.783l1 .013c.02-1.522-1.219-2.776-2.735-2.796l-.013 1zm1.748 1.785L5.15 24.74l1 .01.115-12.384-1-.009zm.031 12.741l12.4 12.4.707-.707-12.4-12.4-.707.707zM17.55 37.144v15.262h1V37.144h-1zm.5 14.762H9.462v1h8.588v-1zm-8.088.5v-8.179h-1v8.18h1zm-.106-8.488L1.644 33.465l-.786.618 8.211 10.453.787-.618zm-.42-16.078a2.771 2.771 0 00-3.913.039l.714.7a1.771 1.771 0 012.499-.026l.7-.713zm-3.913.039a2.771 2.771 0 00.04 3.913l.7-.714a1.771 1.771 0 01-.026-2.499l-.714-.7zm.04 3.913l5.855 5.758.701-.713-5.856-5.758-.7.713zm22.82-16.143l-3.189 1.685.467.884 3.19-1.684-.467-.885zm-2.462 2.211l.605-3.55-.986-.167-.605 3.55.986.167zm.46-3.991l-2.567-2.503-.698.716 2.568 2.503.698-.716zm-2.843-1.65l3.55-.524-.147-.99-3.55.524.147.99zm3.924-.795l1.603-3.206-.895-.447-1.603 3.206.895.447zm.707-3.208l1.587 3.206.896-.443-1.587-3.206-.896.443zm1.962 3.48l3.55.523.146-.99-3.55-.523-.146.99zm3.274-.33l-2.568 2.503.698.716 2.568-2.503-.698-.716zm-2.712 2.945l.605 3.55.986-.169-.605-3.55-.986.169zm1.332 3.024l-3.173-1.685-.47.883 3.174 1.685.47-.883zM28.635.46c-.963 0-1.76.446-2.36.761l.466.885c.644-.339 1.22-.646 1.893-.646v-1zm-2.368.766c-.334.183-.599.32-.816.383l.282.96c.339-.1.696-.291 1.016-.467l-.482-.876zm-.784.375c-.242.054-.554.07-.959.087l.042.999c.38-.016.788-.033 1.134-.11l-.217-.976zm-.95.086c-.678.016-1.569.045-2.379.508l.496.868c.564-.322 1.21-.36 1.907-.376l-.024-1zm-2.382.51c-.829.481-1.294 1.244-1.637 1.832l.864.504c.344-.59.697-1.136 1.275-1.472l-.502-.864zm-1.634 1.827c-.2.334-.367.592-.53.754l.708.707c.262-.263.488-.627.68-.947l-.858-.514zm-.53.754c-.163.164-.403.301-.77.54l.546.838c.288-.187.67-.41.931-.67l-.707-.708zm-.757.532c-.58.354-1.343.82-1.824 1.648l.864.502c.338-.58.883-.93 1.481-1.297l-.521-.853zm-1.826 1.651c-.463.81-.491 1.7-.507 2.38l1 .023c.016-.696.053-1.343.375-1.907l-.868-.496zm-.507 2.37c-.017.407-.033.734-.087.976l.977.217c.077-.347.093-.773.11-1.151l-1-.042zm-.085.97c-.046.194-.18.43-.377.79l.876.481c.163-.295.389-.68.474-1.042l-.973-.23zm-.379.793c-.32.591-.763 1.401-.763 2.364h1c0-.674.308-1.27.643-1.889l-.88-.476zm-.763 2.364c0 .962.443 1.772.763 2.364l.88-.475c-.335-.62-.643-1.216-.643-1.89h-1zm.765 2.367c.18.326.32.615.386.825l.955-.299c-.098-.314-.284-.679-.465-1.008l-.876.482zm.382.81c.061.221.08.536.08.929h1c0-.393-.015-.83-.117-1.197l-.963.267zm.08.94c.016.679.044 1.57.507 2.38l.868-.496c-.322-.564-.359-1.211-.376-1.907l-1 .024zm.507 2.38c.082.143.181.282.28.399l.767-.64a1.84 1.84 0 01-.179-.255l-.868.496zm.268.385c.457.59 1.08.963 1.55 1.261l.536-.845c-.51-.323-.967-.604-1.295-1.028l-.791.612zm1.561 1.268c.24.144.442.275.608.413l.64-.768a5.81 5.81 0 00-.733-.503l-.515.858zm.628.429c.034.025.06.05.11.1l.707-.707c-.048-.047-.12-.12-.217-.193l-.6.8zm.11.1c.133.133.263.338.457.638l.84-.543c-.166-.256-.363-.575-.59-.802l-.707.708zm.461.644c-.002-.003-.002-.004 0 .001a.633.633 0 01.007.012l.011.02a.716.716 0 00.126.174l.707-.707c.021.021.035.04.04.049.007.008.009.013.005.006l-.008-.014-.012-.024a1.002 1.002 0 00-.044-.072l-.832.555zm.071.114c.354.58.82 1.343 1.648 1.824l.502-.864c-.58-.338-.93-.883-1.296-1.481l-.854.521zm1.651 1.826c.807.46 1.69.507 2.38.524l.023-1c-.685-.016-1.34-.068-1.907-.392l-.496.868zm2.37.523c.386.017.698.048.934.113l.268-.963c-.353-.098-.761-.132-1.16-.149l-.042 1zm.927.111c.082.025.19.075.336.157.072.04.145.084.226.131.08.047.166.097.254.145l.482-.876a9.833 9.833 0 01-.23-.132 13.128 13.128 0 00-.243-.14 2.7 2.7 0 00-.543-.244l-.282.96zm.82.435c.542.294 1.37.845 2.363.845v-1c-.674 0-1.221-.364-1.888-.725l-.476.88zm2.363.845c.994 0 1.822-.552 2.365-.845l-.476-.88c-.667.36-1.214.725-1.889.725v1zm2.368-.847c.088-.048.174-.098.254-.145.08-.047.154-.09.226-.13a1.76 1.76 0 01.336-.158l-.282-.959a2.699 2.699 0 00-.543.244c-.082.046-.165.095-.242.14l-.231.132.482.876zm.809-.43c.236-.066.547-.098.934-.114l-.042-.999c-.399.017-.807.05-1.16.149l.268.963zm.925-.113c.689-.017 1.572-.063 2.379-.524l-.496-.868c-.568.324-1.222.376-1.907.392l.024 1zm2.382-.526c.828-.481 1.297-1.266 1.644-1.818l-.846-.532c-.372.592-.721 1.149-1.3 1.486l.502.864zm1.637-1.807a1.04 1.04 0 00.056-.096l.008-.014-.004.006a.33.33 0 01-.04.05l-.708-.708a.746.746 0 00-.126.174l-.011.02-.007.012c-.003.005-.002.005 0 .001l.832.555zm.086-.137c.194-.3.324-.505.457-.637l-.707-.708c-.227.227-.424.546-.59.802l.84.543zm.457-.637c.008-.009.021-.02.053-.048.026-.022.07-.059.11-.1l-.707-.707c-.008.009-.021.02-.053.048a1.35 1.35 0 00-.11.1l.707.707zm.11-.101c.181-.136.392-.271.648-.442l-.555-.832c-.234.156-.482.316-.693.474l.6.8zm.628-.43c.498-.298 1.087-.68 1.555-1.26l-.779-.627c-.35.434-.807.74-1.29 1.03l.514.858zm1.55-1.253a2.78 2.78 0 00.279-.4l-.868-.495a1.846 1.846 0 01-.18.255l.769.64zm.279-.4c.463-.81.491-1.718.507-2.378l-1-.024c-.016.68-.053 1.343-.375 1.907l.868.496zm.507-2.37c.018-.43.018-.713.082-.956l-.967-.255c-.1.378-.1.815-.114 1.17l.999.041zm.085-.97c.046-.193.18-.43.377-.789l-.876-.482c-.163.296-.389.68-.474 1.043l.973.229zm.379-.792c.32-.591.763-1.402.763-2.364h-1c0 .673-.308 1.27-.643 1.889l.88.475zm.763-2.364c0-.98-.444-1.775-.763-2.364l-.88.475c.335.62.643 1.2.643 1.889h1zm-.765-2.368c-.18-.325-.32-.614-.386-.824l-.955.298c.098.314.284.68.465 1.008l.876-.482zm-.382-.809c-.061-.222-.08-.536-.08-.929h-1c0 .392.015.83.117 1.197l.963-.268zm-.08-.94c-.016-.68-.044-1.57-.507-2.38l-.868.496c.322.564.359 1.21.376 1.907l1-.024zm-.509-2.383c-.48-.827-1.244-1.294-1.824-1.648l-.521.853c.598.366 1.143.718 1.48 1.297l.865-.502zm-1.827-1.65c-.334-.2-.592-.367-.755-.53l-.707.707c.263.263.627.488.947.68l.515-.857zm-.755-.53c-.163-.164-.3-.403-.54-.77l-.837.545c.187.288.409.67.67.932l.708-.707zm-.532-.758c-.354-.58-.82-1.343-1.647-1.823l-.503.864c.58.337.931.882 1.297 1.48l.853-.52zm-1.646-1.823c-.796-.466-1.69-.494-2.35-.51l-.025 1c.681.017 1.325.054 1.87.373l.505-.863zm-2.342-.51c-.405-.016-.717-.032-.96-.086l-.216.976c.346.077.754.094 1.134.11l.042-1zm-.953-.085c-.194-.045-.43-.179-.79-.376l-.482.876c.296.162.68.389 1.043.474l.229-.974zm-.793-.378C30.425.905 29.63.46 28.651.46v1c.689 0 1.268.308 1.889.644l.475-.88zm-2.38 20.226c4.35 0 7.877-3.546 7.877-7.894h-1c0 3.798-3.082 6.894-6.878 6.894v1zm7.877-7.894c0-4.348-3.527-7.894-7.878-7.894v1c3.796 0 6.878 3.096 6.878 6.894h1zm-7.878-7.894c-4.35 0-7.877 3.546-7.877 7.894h1c0-3.798 3.082-6.894 6.877-6.894v-1zm-7.877 7.894c0 4.348 3.544 7.894 7.877 7.894v-1c-3.78 0-6.877-3.096-6.877-6.894h-1zm4.356 11.077l-3.271 6.445.891.453 3.272-6.445-.892-.453zm-3.277 6.457c-.05.107-.164.189-.35.189v1c.501 0 1.01-.245 1.253-.76l-.903-.429zm-.35.189h-.033v1h.033v-1zm-.033 0a.373.373 0 01-.345-.229l-.912.41c.228.507.717.819 1.257.819v-1zm-.344-.227l-1.162-2.617-.914.406 1.162 2.617.914-.405zm-1.727-2.902l-2.797.622.217.976 2.797-.622-.217-.976zm-2.81.625c.005-.002.004 0-.008 0l-.067.001v1c.056 0 .183.002.317-.031l-.242-.97zm-.075.001c-.225 0-.4-.18-.4-.4h-1c0 .761.61 1.4 1.4 1.4v-1zm-.4-.4a.42.42 0 01.063-.23l-.832-.554a1.417 1.417 0 00-.23.784h1zm.094-.281l3.337-6.609-.892-.45-3.338 6.608.893.45zm15.024-3.01l3.271 6.446.892-.453-3.272-6.445-.891.453zm3.265 6.433c.245.516.753.76 1.254.76v-1c-.186 0-.3-.081-.35-.188l-.904.428zm1.254.76h.032v-1h-.032v1zm.032 0c.541 0 1.03-.311 1.258-.817l-.912-.41a.373.373 0 01-.346.228v1zm1.26-.82l1.16-2.617-.913-.406-1.162 2.617.914.406zm.596-2.332l2.813.622.216-.977-2.814-.621-.215.976zm2.8.619c.135.033.261.031.317.031v-1l-.067-.001c-.012 0-.013-.002-.008 0l-.242.97zm.317.031c.767 0 1.4-.633 1.4-1.4h-1c0 .215-.185.4-.4.4v1zm1.4-1.4c0-.267-.072-.546-.231-.784l-.832.555a.42.42 0 01.063.23h1zm-.201-.733l-3.239-6.396-.892.452 3.239 6.396.892-.452z" fill="#FFED00"/></svg>