<svg width="53" height="42" fill="none" xmlns="http://www.w3.org/2000/svg"><path d="M28.35 13.004c-.656 0-1.18-.204-1.572-.612-.384-.408-.576-.964-.576-1.668 0-.696.192-1.248.576-1.656.392-.408.916-.612 1.572-.612.648 0 1.164.204 1.548.612.392.408.588.96.588 1.656s-.196 1.252-.588 1.668c-.384.408-.9.612-1.548.612zm-4.548 3.336V8.6h1.068V17h-1.86l-3.744-7.74V17h-1.068V8.6h1.86l3.744 7.74zm5.448-6.732c-.216-.288-.516-.432-.9-.432s-.688.14-.912.42c-.216.28-.324.656-.324 1.128 0 .472.108.852.324 1.14.224.28.528.42.912.42s.684-.14.9-.42c.224-.288.336-.668.336-1.14 0-.464-.112-.836-.336-1.116zm-2.892 4.848v-.708h3.972v.708h-3.972zm10.046-.288h1.272v.864h-1.272V17h-1.056v-1.968h-4.176v-.792l3.504-5.64h1.728v5.568zm-4.188 0h3.132V9.176l-3.132 4.992zm6.84 1.824c-.536-.776-.804-1.84-.804-3.192s.268-2.412.804-3.18c.536-.776 1.296-1.164 2.28-1.164.976 0 1.732.388 2.268 1.164.536.768.804 1.828.804 3.18s-.268 2.416-.804 3.192c-.536.768-1.292 1.152-2.268 1.152-.984 0-1.744-.384-2.28-1.152zm.78-5.748c-.352.616-.528 1.468-.528 2.556s.176 1.94.528 2.556c.36.616.86.924 1.5.924.632 0 1.124-.308 1.476-.924.36-.616.54-1.468.54-2.556s-.18-1.94-.54-2.556c-.352-.616-.844-.924-1.476-.924-.64 0-1.14.308-1.5.924zm5.416 5.112c0-1.128.823-1.772 2.471-1.932l1.873-.18v-.6c0-.392-.128-.708-.384-.948-.248-.248-.617-.368-1.105-.36-.447 0-.816.104-1.103.312-.288.2-.444.504-.468.912h-.973c.024-.68.268-1.18.732-1.5.465-.328 1.069-.492 1.813-.492.824 0 1.452.196 1.884.588.431.392.648.956.648 1.692V17h-.96v-1.296c-.2.456-.505.812-.913 1.068-.408.248-.904.372-1.488.372-.672 0-1.18-.164-1.524-.492-.336-.336-.504-.768-.504-1.296zm1.043-.036a1 1 0 00.325.768c.216.2.54.3.972.3.616 0 1.104-.192 1.464-.576.36-.392.54-.896.54-1.512v-.384l-1.752.18c-1.032.096-1.549.504-1.549 1.224z" fill="#FFED00"/><path d="M9.847 24.503v7.326m3.933-7.326v8.109m28.763-8.109v7.431m-3.933-7.43v8.09m-14.382-8.09v8.371m3.934-8.372v8.334M11.05 35.645l2.524 1.262c1.59.795 3.46.795 5.049 0a5.645 5.645 0 015.049 0l2.524 1.263m10.098 0l2.493-1.247a5.714 5.714 0 015.111 0l2.494 1.247M6 19.843h40.39v4.935H6v-4.935zm40.39 14.013V41H6v-7.144l3.329-1.664a3.847 3.847 0 013.44 0l1.608.804a3.847 3.847 0 003.44 0l1.61-.804a3.847 3.847 0 013.44 0l1.608.804a3.847 3.847 0 003.44 0l1.609-.804a3.847 3.847 0 013.44 0l1.609.804a3.847 3.847 0 003.44 0l1.608-.804a3.847 3.847 0 013.441 0l3.329 1.664zM14.894 10.981c-.367 3.313-3.11 5.887-6.44 5.887-3.33 0-6.074-2.574-6.442-5.887m6.482-6.733v12.62m-2.96-9.345h5.921M1 13.16l.843-2.684 2.155 1.897m11.99.787l-.843-2.684-2.155 1.897M10.105 2.65c0 .911-.721 1.65-1.61 1.65-.89 0-1.611-.739-1.611-1.65 0-.912.72-1.651 1.61-1.651.89 0 1.61.739 1.61 1.65z" stroke="#FFED00"/></svg>