<svg width="37" height="58" fill="none" xmlns="http://www.w3.org/2000/svg"><path stroke="#FFED00" d="M3.748 5.145h9.53v23.57h-9.53z"/><path d="M3.248 8.155h13.91a5.265 5.265 0 015.265 5.265v0a5.265 5.265 0 01-5.265 5.265h-3.759m-7.68 10.199v3.35h5.586v-3.35m0-24.239v-3.35H5.719v3.35M29.03 54.248v-3.35H8.793v3.35" stroke="#FFED00"/><path d="M18.872 13.42a1.715 1.715 0 11-3.429 0 1.715 1.715 0 013.43 0zm3.55.907c6.174 2.493 10.53 8.543 10.53 15.61 0 7.073-4.364 13.128-10.547 15.616m-6.67-26.868c6.215 0 11.253 5.037 11.253 11.252 0 6.214-5.038 11.252-11.252 11.252H1.362v2.761h14.022m.018-2.688v9.57m7.02-11.712v11.712m-21.06 2.952h35.1v3.51h-35.1v-3.51z" stroke="#FFED00"/></svg>