<svg width="50" height="58" fill="none" xmlns="http://www.w3.org/2000/svg"><path d="M12.588 37.213v20.193m2.398-20.194v20.194m19.41-20.194v20.194m2.399-20.194v20.194M5.028 37.217v4.919a1.694 1.694 0 003.387 0v-4.919M40.166 1.406h-8.749v16.887h8.75M31.284 5.385c-4.554.205-13.66 3.075-13.66 12.908V36.95m13.792-18.605c0 3.876-.056 8.016-3.099 10.563m-3.864-2.859v5.704a1.851 1.851 0 103.703 0v-5.704m-8.976-9.196v3.144a1.851 1.851 0 103.703 0v-3.144M19.18 31.185v2.684a1.58 1.58 0 103.162 0v-2.684M.734 36.96h47.914l-2.137 16.946a4 4 0 01-3.968 3.5H6.913a4 4 0 01-3.966-3.483L.734 36.96z" stroke="#FFED00"/></svg>