<svg width="63" height="63" fill="none" xmlns="http://www.w3.org/2000/svg"><path d="M41.655 19.948c-.874 0-1.573-.271-2.096-.816-.512-.544-.768-1.285-.768-2.224 0-.928.256-1.664.768-2.208.523-.543 1.222-.816 2.096-.816.864 0 1.552.272 2.064.816.523.545.784 1.28.784 2.209 0 .928-.261 1.669-.784 2.224-.512.544-1.2.816-2.064.816zm-6.064 4.448v-10.32h1.424v11.2h-2.48l-4.992-10.32v10.32H28.12v-11.2h2.48l4.992 10.32zm7.264-8.976c-.288-.383-.688-.575-1.2-.575s-.917.186-1.216.56c-.288.373-.432.874-.432 1.504 0 .629.144 1.136.432 1.52.299.373.704.56 1.216.56s.912-.187 1.2-.56c.299-.384.448-.891.448-1.52 0-.62-.15-1.115-.448-1.488zM39 21.885v-.944h5.296v.944H39zm13.714-.385h1.696v1.152h-1.696v2.624h-1.408v-2.623h-5.568v-1.056l4.672-7.52h2.304V21.5zm-5.584 0h4.176v-6.655L47.13 21.5zm10.564-7.424h1.12v11.2h-1.408V15.71l-2.368 1.648v-1.409l2.656-1.872z" fill="#FFED00"/><path d="M6.553 36.825v11.08m5.95-11.08v12.264m43.503-12.264v11.24m-5.949-11.24v12.237M28.305 36.825v12.662m5.95-12.662V49.43M8.37 53.676l4.953 2.477a6 6 0 005.366 0l2.27-1.135a6 6 0 015.367 0l4.953 2.476m15.273 0l4.953-2.476a6 6 0 015.366 0l4.953 2.476m-40.077-41.12c-.555 5.01-4.704 8.903-9.741 8.903s-9.187-3.893-9.742-8.904M12.07 6.19v19.088M7.59 11.142h8.957M.734 19.67l1.276-4.06 3.26 2.87m18.133 1.19l-1.275-4.06-3.26 2.87M.734 29.777h61.091v7.464H.735v-7.464zM61.825 50.97v10.806H.735V50.97l5.034-2.517a5.818 5.818 0 015.204 0l2.432 1.216a5.818 5.818 0 005.204 0l2.432-1.216a5.818 5.818 0 015.204 0l2.433 1.216a5.818 5.818 0 005.204 0l2.432-1.216a5.818 5.818 0 015.204 0l2.433 1.216a5.818 5.818 0 005.203 0l2.433-1.216a5.818 5.818 0 015.204 0l5.034 2.517zM14.505 3.773c0 1.38-1.091 2.497-2.436 2.497-1.346 0-2.436-1.118-2.436-2.497 0-1.379 1.09-2.496 2.436-2.496 1.345 0 2.435 1.117 2.435 2.496z" stroke="#FFED00"/></svg>