<svg width="65" height="58" fill="none" xmlns="http://www.w3.org/2000/svg"><path d="M48.556 28.382l7.876-14.29a8.895 8.895 0 001.102-4.282v-.318c0-5.095-4.325-9.208-9.53-8.929-4.81.26-8.531 4.302-8.531 9.071v.176c0 1.495.38 2.97 1.102 4.282l7.981 14.29zM48.57 4.28c2.895 0 5.25 2.333 5.25 5.199 0 2.865-2.355 5.198-5.25 5.198-2.894 0-5.25-2.333-5.25-5.198 0-2.866 2.35-5.199 5.25-5.199z" stroke="#FFED00" stroke-miterlimit="10"/><path d="M49.709 26.712c1.986.234 3.457 1.077 3.457 2.082 0 1.186-2.048 2.147-4.575 2.147s-4.575-.961-4.575-2.147c0-1.005 1.47-1.848 3.457-2.082" stroke="#FFED00"/><circle cx="16.044" cy="41.172" r="2.693" stroke="#FFED00"/><circle cx="16.043" cy="41.172" r="6.316" stroke="#FFED00"/><path d="M22.295 41.291h3.319a2 2 0 012 2v7.311a2.321 2.321 0 002.321 2.321v0a2.32 2.32 0 002.32-2.32v-18.57c0-1.281 1.04-2.32 2.322-2.32v0a2.321 2.321 0 012.32 2.32v4.963a2 2 0 002 2h7.681a2 2 0 002-2v-6.229" stroke="#FFED00" stroke-dasharray="2 2"/><path d="M41.49 15.788H1.34V56.55h62.395V15.788h-8.253M1.414 25.072h12.275v-9.13M1.49 29.713h12.199v5.812m4.642-.247V15.942m0 40.608v-9.202m-4.642 9.202v-9.202m37.135-3.068h9.284m-9.284 3.407h9.284" stroke="#FFED00"/><path d="M51.324 51.125h1.298v1.298h-1.298v-1.298zm6.986 0h1.298v1.298H58.31v-1.298zm-3.493 0h1.298v1.298h-1.298v-1.298z" fill="#fff" stroke="#FFED00"/></svg>