<svg width="70" height="41" fill="none" xmlns="http://www.w3.org/2000/svg"><path d="M13.419 19.785v1.708h33.989V.96h-33.99v1.708m4.624 3.444H2.74m18.696 5.115H7.837m-1.696 0H2.739m6.995 6.85H6.333m-1.697 0H1.234M23.56 33.44h-2.417m36.789 0H32.78m-20.857 0H9.734v-8.476h41.121m0 0V7.847h9.576l8.892 6.658V33.44h-2.17m-16.298-8.476h18.468m-18.468-3.517h18.468M57.63 35.111c0 2.728 2.197 4.94 4.907 4.94s4.906-2.212 4.906-4.94-2.197-4.94-4.906-4.94c-2.71 0-4.907 2.212-4.907 4.94zm-34.372 0c0 2.728 2.196 4.94 4.906 4.94 2.71 0 4.907-2.212 4.907-4.94s-2.197-4.94-4.907-4.94-4.906 2.212-4.906 4.94zm-11.628 0c0 2.728 2.197 4.94 4.907 4.94s4.906-2.212 4.906-4.94-2.197-4.94-4.906-4.94c-2.71 0-4.907 2.212-4.907 4.94z" stroke="#FFED00" stroke-miterlimit="10" stroke-linecap="round" stroke-linejoin="round"/></svg>