<svg width="25" height="25" xmlns="http://www.w3.org/2000/svg"><path d="M12.879 3.123c3.2 0 3.58.01 4.85.07 3.25.15 4.77 1.69 4.92 4.92.06 1.27.07 1.65.07 4.85 0 3.2-.01 3.58-.07 4.85-.15 3.23-1.66 4.77-4.92 4.92-1.27.06-1.64.07-4.85.07-3.2 0-3.58-.01-4.85-.07-3.26-.15-4.77-1.7-4.92-4.92-.06-1.27-.07-1.64-.07-4.85 0-3.2.01-3.58.07-4.85.15-3.23 1.67-4.77 4.92-4.92 1.27-.05 1.65-.07 4.85-.07zm0-2.16c-3.26 0-3.67.01-4.95.07-4.35.2-6.78 2.62-6.98 6.98-.06 1.28-.07 1.69-.07 4.95 0 3.26.01 3.67.07 4.95.2 4.36 2.62 6.78 6.98 6.98 1.28.06 1.69.07 4.95.07 3.26 0 3.67-.01 4.95-.07 4.35-.2 6.78-2.62 6.98-6.98.06-1.28.07-1.69.07-4.95 0-3.26-.01-3.67-.07-4.95-.2-4.35-2.62-6.78-6.98-6.98-1.28-.06-1.69-.07-4.95-.07zm0 5.84c-3.4 0-6.16 2.76-6.16 6.16 0 3.4 2.76 6.16 6.16 6.16 3.4 0 6.16-2.76 6.16-6.16 0-3.4-2.76-6.16-6.16-6.16zm0 10.16c-2.21 0-4-1.79-4-4s1.79-4 4-4 4 1.79 4 4-1.79 4-4 4zm6.41-11.85a1.44 1.44 0 100 2.88 1.44 1.44 0 000-2.88z"/></svg>