<svg width="84" height="48" xmlns="http://www.w3.org/2000/svg"><path d="M.274.51h7.617v15.398h.102c.753-1.346 1.558-2.587 2.373-3.829L18.023.51h9.47L16.292 15.334l11.761 19.988h-8.92l-8.37-15.033-2.872 3.704v11.329H.274V.51z"/><path d="M52.35 34.426a21.922 21.922 0 01-8.676 1.502c-11.74 0-17.79-7.542-17.79-17.453C25.885 6.562 34.155 0 44.439 0c3.982 0 7.006.772 8.36 1.544L51.19 7.75a15.785 15.785 0 00-6.456-1.294c-6.048 0-10.783 3.766-10.783 11.476 0 6.968 4.073 11.36 10.834 11.36a17.78 17.78 0 006.456-1.126l1.11 6.259zM56.17.511h7.616V15.91h.102c.753-1.346 1.558-2.587 2.362-3.829L73.918.511h9.48l-11.2 14.824 11.75 19.988h-8.92l-8.37-15.033-2.872 3.704v11.33H56.17V.51zM.224 43.2c.2-.185.431-.33.682-.428.324-.134.67-.198 1.019-.188.49-.03.974.138 1.344.47a1.376 1.376 0 01.387 1.043c.01.24-.062.475-.203.667-.118.176-.285.31-.48.386.233.064.447.186.622.355.226.249.347.579.336.918a1.5 1.5 0 01-.407 1.044c-.21.191-.455.336-.721.426a1.99 1.99 0 01-.827.096 2.832 2.832 0 01-1.202-.23A2.829 2.829 0 010 47.227l.652-.866c.143.172.316.317.51.428.211.107.445.16.681.156a1 1 0 00.581-.156.549.549 0 00.244-.48.554.554 0 00-.183-.407 1.577 1.577 0 00-.957-.188h-.184v-.96h.174c.289.032.58-.038.824-.198a.491.491 0 00.136-.385.498.498 0 00-.197-.356.86.86 0 00-.519-.136c-.197 0-.391.043-.57.125a1.934 1.934 0 00-.449.313L.224 43.2zm7.454.532h-1.68v1.001h1.599v1.002H5.998v1.148h1.68v1.001H4.837V42.73h2.841v1.002zm2.79-.96c.476-.035.946.118 1.314.428.17.157.302.351.389.568.086.216.124.45.11.684a1.664 1.664 0 01-.438 1.21 1.653 1.653 0 01-1.273.449h-.713v1.774h-1.16v-5.113h1.771zm-.61 2.369h.417a.851.851 0 00.621-.188.773.773 0 00.183-.512.682.682 0 00-.183-.5.892.892 0 00-.642-.199h-.397v1.399zm4.378-.45h2.006V42.73h1.161v5.154h-1.16v-2.19h-2.007v2.19h-1.161V42.73h1.16v1.962zm8.788-1.325c.249.254.446.555.58.888a2.79 2.79 0 01-.58 2.983 2.65 2.65 0 01-.892.582 2.6 2.6 0 01-1.043.18 2.712 2.712 0 01-1.965-.762 2.632 2.632 0 01-.59-.871 2.684 2.684 0 01-.205-1.039 2.87 2.87 0 01.784-1.95 2.64 2.64 0 01.906-.59 2.59 2.59 0 011.06-.172 2.61 2.61 0 011.041.176c.332.129.636.324.894.575h.01zm-3.065.782c-.291.314-.453.73-.453 1.164 0 .433.162.849.453 1.163a1.6 1.6 0 001.095.437c.405 0 .796-.156 1.094-.437a1.502 1.502 0 00.438-1.148 1.623 1.623 0 00-.438-1.158 1.6 1.6 0 00-1.1-.438 1.538 1.538 0 00-1.1.438m6.345-1.397c.457-.03.909.111 1.273.396a1.328 1.328 0 01.366.97 1.18 1.18 0 01-.173.658.852.852 0 01-.418.375c.26.045.502.169.693.355a1.257 1.257 0 01.326.918 1.395 1.395 0 01-.397 1.044c-.37.317-.843.478-1.324.448h-1.884v-5.164h1.538zm-.398 2.086h.194a.999.999 0 00.58-.146.582.582 0 00.204-.459.52.52 0 00-.194-.438.909.909 0 00-.6-.136h-.184v1.18zm0 2.087h.275c.304.036.61-.038.866-.209a.596.596 0 00.163-.438.568.568 0 00-.153-.407 1.279 1.279 0 00-.835-.198h-.316v1.252zm7.852-3.579c.248.254.446.555.58.888a2.79 2.79 0 01-.58 2.983 2.65 2.65 0 01-.892.582 2.6 2.6 0 01-1.043.18 2.712 2.712 0 01-1.966-.762 2.633 2.633 0 01-.583-.873 2.685 2.685 0 01-.2-1.037c.006-.73.287-1.428.783-1.95a2.64 2.64 0 01.906-.59 2.59 2.59 0 011.06-.172 2.61 2.61 0 011.041.176c.332.129.636.324.894.575zm-3.055.782c-.291.314-.453.73-.453 1.164 0 .433.162.849.453 1.163a1.6 1.6 0 001.095.437c.405 0 .796-.156 1.094-.437a1.502 1.502 0 00.438-1.148 1.623 1.623 0 00-.438-1.158 1.6 1.6 0 00-1.1-.438 1.538 1.538 0 00-1.1.438m5.978-1.398v3.37l2.322-3.432h1.018v5.216h-1.171v-3.422l-2.332 3.484h-1.018v-5.216h1.181zm2.586-1.346c-.121.281-.32.52-.57.689a1.7 1.7 0 01-.926.219 1.658 1.658 0 01-.917-.22 1.544 1.544 0 01-.58-.688l.804-.344a.846.846 0 00.245.365.79.79 0 00.458.125.73.73 0 00.448-.125.92.92 0 00.244-.365l.794.344zm7.332 2.307v4.152h-1.161v-4.152h-1.09V42.73h3.34v1.002h-1.09zm4.623 0h-1.68v1.001h1.589v1.002H49.52v1.148h1.68v1.001h-2.84V42.73h2.84v1.002zm2.77-.96c.478-.033.95.12 1.324.428a1.6 1.6 0 01.478 1.251 1.707 1.707 0 01-.417 1.21 1.673 1.673 0 01-1.283.449h-.713v1.774h-1.151v-5.112h1.762zm-.611 2.368h.417a.852.852 0 00.621-.188.73.73 0 00.194-.51.682.682 0 00-.194-.502.891.891 0 00-.641-.198h-.397v1.398zm3.003 2.744l.805-5.154h.967l1.243 3.078 1.252-3.078h.968l.805 5.154H61.24l-.398-3.078-1.263 3.078h-.407l-1.253-3.078-.397 3.078h-1.16zm8.137-5.154v3.37l2.332-3.432h1.018v5.217h-1.16v-3.38l-2.323 3.442h-1.029V42.73H64.5zm5.682 1.961h2.007V42.73h1.16v5.154h-1.16v-2.19H70.18v2.19h-1.15V42.73h1.15v1.962zm7.291 2.255h-1.894l-.387.97h-1.202l2.037-5.154h1.018l2.037 5.154H77.85l-.377-.97zm-.316-.918l-.62-1.732-.622 1.732h1.242zM84 42.772v5.113h-1.161V43.71h-1.375v1.774a2.976 2.976 0 01-.499 2.024 1.51 1.51 0 01-1.13.417c-.137 0-.274-.015-.408-.041V46.84c.09.04.188.057.285.052a.662.662 0 00.459-.167c.189-.311.271-.678.234-1.043v-2.911H84z"/></svg>