<svg width="24" height="36" fill="none" xmlns="http://www.w3.org/2000/svg"><path d="M1.191 12.18c0-6.057 4.892-10.95 10.95-10.95 6.061 0 11.074 4.897 11.193 10.955-.001 1.443-.633 3.52-1.642 5.887-1.002 2.35-2.347 4.92-3.713 7.32a131.466 131.466 0 01-3.814 6.275c-.535.827-.99 1.509-1.327 1.999-.169.245-.306.44-.408.58-.09.123-.136.182-.15.2l-.005.007-.012.012-.012-.012-.354.353.354-.353-.005-.006a5.97 5.97 0 01-.15-.2c-.102-.14-.24-.336-.408-.581a88.82 88.82 0 01-1.327-1.999 131.509 131.509 0 01-3.815-6.274c-1.365-2.401-2.71-4.971-3.712-7.321-1.01-2.37-1.643-4.448-1.643-5.892z" stroke="#000"/><circle cx="12.262" cy="12.258" r="4.883" stroke="#000" stroke-width="3.5"/></svg>