<svg width="22" height="56" fill="none" xmlns="http://www.w3.org/2000/svg"><mask id="a" maskUnits="userSpaceOnUse" x="0" y="0" width="22" height="56"><path fill="#C4C4C4" d="M.943 0h21v56h-21z"/></mask><g mask="url(#a)"><path d="M32.303 26.128l-.657.754.007.006.65-.76zm-.96 20.928l.607.795.001-.001-.608-.794zm-24 .192l-.618.786.005.005.613-.791zM2.159 36.88l-.069-.998-1.032.071.106 1.03.995-.103zm8.384-.576l.99-.137-.127-.925-.932.064.069.998zm14.72 5.44l.652.758.002-.002-.654-.756zm.256-11.2l-.696.718.696-.718zm-13.12-1.216h-1v1.231l1.205-.252-.205-.979zm0-5.952l-.697-.717-.303.294v.423h1zM23.855 12.24l.697.717 1.766-1.717h-2.463v1zm-19.392 0h-1v1h1v-1zm0-7.04v-1h-1v1h1zm30.528 0h1v-1h-1v1zm0 6.272l.658.753.342-.3v-.453h-1zm-12.8 11.2l-.659-.753-1.815 1.589 2.407.162.067-.998zm9.462 4.216c2.37 2.025 3.618 5.021 3.618 9.16h2c0-4.565-1.397-8.183-4.318-10.68l-1.3 1.52zm3.618 9.16c0 4.568-1.54 7.919-4.536 10.214l1.216 1.588c3.575-2.74 5.32-6.727 5.32-11.802h-2zm-4.535 10.213c-3.032 2.314-6.922 3.507-11.745 3.507v2c5.16 0 9.506-1.282 12.959-3.917l-1.214-1.59zm-11.745 3.507c-4.568 0-8.22-1.13-11.036-3.31l-1.225 1.58c3.243 2.513 7.357 3.73 12.26 3.73v-2zM7.96 46.462c-2.73-2.145-4.36-5.328-4.807-9.684l-1.99.204c.491 4.775 2.318 8.504 5.561 11.052l1.236-1.572zm-5.734-8.584l8.384-.576-.137-1.996-8.384.576.137 1.996zm7.325-1.437c.363 2.632 1.314 4.74 2.955 6.182 1.642 1.443 3.845 2.105 6.484 2.105v-2c-2.311 0-3.99-.576-5.164-1.607-1.175-1.033-1.974-2.637-2.293-4.954l-1.982.274zm9.439 8.287c2.81 0 5.157-.705 6.924-2.226l-1.305-1.516c-1.305 1.124-3.139 1.742-5.62 1.742v2zm6.926-2.228c1.835-1.587 2.714-3.783 2.714-6.452h-2c0 2.195-.7 3.796-2.022 4.94l1.308 1.512zm2.714-6.452c0-2.523-.78-4.635-2.416-6.222l-1.392 1.436c1.18 1.144 1.808 2.701 1.808 4.786h2zm-2.416-6.222c-1.663-1.612-4.07-2.33-7.032-2.33v2c2.67 0 4.486.647 5.64 1.766l1.392-1.436zm-7.032-2.33c-1.97 0-4.303.29-6.99.853l.411 1.958c2.605-.546 4.793-.811 6.579-.811v-2zm-5.784 1.832v-5.952h-2v5.952h2zm-.303-5.235l11.456-11.136-1.394-1.434-11.456 11.136 1.394 1.434zm10.76-12.853H4.463v2h19.392v-2zm-18.392 1V5.2h-2v7.04h2zm-1-6.04H34.99v-2H4.463v2zm29.528-1v6.272h2V5.2h-2zm.341 5.52l-12.8 11.2 1.317 1.505 12.8-11.2-1.317-1.506zM22.124 23.67c4.315.29 7.443 1.402 9.522 3.212l1.313-1.508c-2.528-2.201-6.142-3.393-10.701-3.7l-.134 1.996z" fill="#fff"/></g></svg>