<svg width="41" height="23" fill="none" xmlns="http://www.w3.org/2000/svg"><path fill-rule="evenodd" clip-rule="evenodd" d="M7.7 22.3h26.411a6.298 6.298 0 005.541-3.305l1.313-2.43h-40l1.077 2.203A6.298 6.298 0 007.7 22.3zm-2.037-1.591a1.276 1.276 0 100-2.553 1.276 1.276 0 000 2.553zm3.306 0a1.276 1.276 0 100-2.553 1.276 1.276 0 000 2.553zm4.581-1.276a1.276 1.276 0 11-2.552 0 1.276 1.276 0 012.552 0zm16.107 1.276a1.276 1.276 0 100-2.553 1.276 1.276 0 000 2.553zm4.58-1.276a1.276 1.276 0 11-2.552 0 1.276 1.276 0 012.553 0zm2.03 1.276a1.276 1.276 0 100-2.553 1.276 1.276 0 000 2.553z" fill="#0296dd"/><path d="M3.965 9.8v7h16v-3.5l-5-.5v-3h-11zm29 2.8a4 4 0 00-4 4h8a4 4 0 00-4-4zM15.964 5.8h-7.9l.9 4h6l1-4z" fill="#0296dd"/><path d="M12.164 5.8V0m-1.498 2.6h3" stroke="#0296dd"/></svg>