<svg width="25" height="16" fill="none" xmlns="http://www.w3.org/2000/svg"><path d="M13.47 15.077c.617 0 .87-.415.86-.931-.03-1.944.719-2.986 2.085-1.62 1.508 1.508 1.822 2.55 3.644 2.55h3.239c.82 0 1.143-.263 1.143-.677 0-.87-1.437-2.42-2.651-3.543-1.711-1.59-1.782-1.62-.314-3.532 1.812-2.359 4.2-5.395 2.095-5.395h-4.029c-.779 0-.84.435-1.113 1.093-1.012 2.378-2.925 5.455-3.644 4.98-.769-.486-.425-2.43-.364-5.324.02-.76.01-1.286-1.154-1.56a8.457 8.457 0 00-1.832-.201c-2.298 0-3.887.961-2.986 1.133 1.59.294 1.437 3.735 1.063 5.223-.648 2.591-3.077-2.045-4.08-4.352-.242-.557-.323-.992-1.193-.992H.949c-.506 0-.8.162-.8.526 0 .607 2.996 6.802 5.86 9.889 2.784 3.006 5.547 2.733 7.46 2.733z" fill="#fff"/></svg>