<svg width="22" height="18" xmlns="http://www.w3.org/2000/svg"><path d="M21.228 2.093c-.787.349-1.573.628-2.424.698.851-.558 1.572-1.465 1.834-2.512-.852.488-1.703.907-2.686 1.116A4.04 4.04 0 0014.872 0c-2.358 0-4.258 2.023-4.258 4.535 0 .349.066.698.131 1.046C7.208 5.372 4.063 3.628 1.967.837a4.61 4.61 0 00-.59 2.303c0 1.534.72 2.93 1.9 3.767a3.42 3.42 0 01-1.9-.558v.07c0 2.162 1.441 4.046 3.407 4.465-.328.07-.721.14-1.114.14-.262 0-.524 0-.786-.07.524 1.813 2.096 3.07 3.996 3.139-1.441 1.186-3.276 1.954-5.241 1.954-.328 0-.655 0-.983-.07C2.556 17.233 4.784 18 7.142 18c7.796 0 12.055-6.907 12.055-12.837v-.558c.72-.768 1.441-1.605 2.03-2.512z"/></svg>