<svg width="30" height="18" xmlns="http://www.w3.org/2000/svg"><path d="M16.367 17.492c.74 0 1.044-.498 1.032-1.117-.036-2.332.863-3.583 2.502-1.944 1.81 1.81 2.187 3.061 4.373 3.061h3.887c.983 0 1.372-.316 1.372-.814 0-1.044-1.725-2.902-3.182-4.25-2.053-1.908-2.138-1.944-.377-4.24 2.174-2.83 5.041-6.473 2.515-6.473h-4.835c-.935 0-1.008.522-1.335 1.311-1.215 2.855-3.51 6.547-4.373 5.976-.923-.583-.51-2.915-.437-6.389.024-.91.012-1.542-1.385-1.87A10.148 10.148 0 0013.926.5c-2.758 0-4.664 1.154-3.584 1.36 1.907.353 1.725 4.482 1.276 6.268-.777 3.11-3.693-2.454-4.895-5.223-.291-.668-.389-1.19-1.433-1.19H1.342c-.607 0-.96.194-.96.631 0 .729 3.596 8.162 7.033 11.867 3.34 3.607 6.656 3.28 8.952 3.28z"/></svg>