<svg width="46" height="49" fill="none" xmlns="http://www.w3.org/2000/svg"><path d="M34.29 48.058H.766V6.027h8.702M34.29 48.058l-6.476-4.317a8.581 8.581 0 01-3.821-7.14V28.05h1.578c3.319 0 6.434-1.6 8.368-4.296l.351-.49.352.49a10.297 10.297 0 008.368 4.296h1.578v8.552a8.581 8.581 0 01-3.822 7.14l-6.476 4.317zM25.558 6.027h8.732v17.251M4.008 26.311h3.433m-3.433 4.79h3.433m1.372 0h12.008M4.008 35.89h3.433m1.372 0h12.008M4.008 40.68h3.433m1.372 0H21.49m7.652-4.342l3.432 3.433 6.865-6.865M15.812 13.087h3.433v3.454h3.453v3.432h-3.453v3.454h-3.433v-3.454h-3.454v-3.432h3.454v-3.454zm4.18-7.6a2.464 2.464 0 11-4.928 0 2.464 2.464 0 014.928 0zm5.812.59v3.996H9.252V6.077c0-.948.768-1.716 1.716-1.716h1.851A4.852 4.852 0 0117.528.644a4.852 4.852 0 014.709 3.717h1.851c.948 0 1.716.768 1.716 1.716z" stroke="#000"/></svg>