<svg width="50" height="56" fill="none" xmlns="http://www.w3.org/2000/svg"><path d="M16.744 25.512c.551-2.474 2.935-8.702 8.06-13.828 4.543 4.82 6.778 9.188 7.7 13.828" stroke="#000"/><path d="M24.914 43.297c10.345 0 18.73-8.386 18.73-18.73-6.243-.209-18.82 1.171-18.82 8.028 0-6.844-12.397-8.204-18.64-8.029 0 10.345 8.386 18.731 18.73 18.731zm-.098-31.651v31.705" stroke="#000"/><path d="M28.577 3.519a.5.5 0 00-.117.697l2.614 3.663a.5.5 0 10.814-.58l-2.323-3.257L32.82 1.72a.5.5 0 10-.581-.814L28.576 3.52zm.208.9C40.098 6.309 48.72 16.147 48.72 27.996h1c0-12.346-8.983-22.593-20.77-24.563l-.165.986zM48.72 27.996c0 11.586-8.243 21.248-19.184 23.44l.197.98c11.399-2.283 19.987-12.348 19.987-24.42h-1zM21.277 52.333a.5.5 0 00.116-.698l-2.614-3.663a.5.5 0 10-.814.581l2.324 3.256-3.256 2.324a.5.5 0 10.58.814l3.664-2.614zm-.208-.9C9.756 49.542 1.134 39.705 1.134 27.855h-1c0 12.347 8.983 22.594 20.77 24.564l.165-.986zM1.134 27.855c0-11.585 8.242-21.247 19.183-23.439l-.196-.98C8.721 5.719.134 15.784.134 27.856h1z" fill="#000"/></svg>