<svg width="78" height="55" fill="none" xmlns="http://www.w3.org/2000/svg"><path d="M52.246 0h-1.802v46.608h1.802V0zM27.568 35.907a9.758 9.758 0 002.646 6.156 9.935 9.935 0 006.017 3.043 9.979 9.979 0 006.587-1.489 9.817 9.817 0 004.09-5.326h1.87a11.61 11.61 0 01-5.067 6.912 11.812 11.812 0 01-8.47 1.605 11.73 11.73 0 01-7.286-4.571 11.52 11.52 0 01-2.153-8.27 11.573 11.573 0 014.147-7.49 11.792 11.792 0 018.199-2.65 11.764 11.764 0 017.809 3.626 11.543 11.543 0 013.188 7.936v.518H27.568zm9.88-10.317a9.951 9.951 0 00-6.531 2.438 9.77 9.77 0 00-3.281 6.101h19.632a9.777 9.777 0 00-3.285-6.101 9.957 9.957 0 00-6.534-2.438zm-24.787-1.784a11.763 11.763 0 015.648 1.431 11.637 11.637 0 014.247 3.956V0h1.802v35.389c0 2.29-.686 4.53-1.971 6.435a11.672 11.672 0 01-5.25 4.266 11.803 11.803 0 01-6.758.66 11.732 11.732 0 01-5.988-3.17 11.549 11.549 0 01-3.201-5.931 11.479 11.479 0 01.665-6.693 11.609 11.609 0 014.308-5.198 11.779 11.779 0 016.498-1.952zm0 1.784a9.97 9.97 0 00-5.503 1.65 9.827 9.827 0 00-3.65 4.4 9.717 9.717 0 00-.565 5.667 9.776 9.776 0 002.71 5.022 9.933 9.933 0 005.072 2.684 9.992 9.992 0 005.722-.56c1.81-.743 3.355-2 4.443-3.614a9.738 9.738 0 00.914-9.201 9.785 9.785 0 00-2.144-3.18 9.895 9.895 0 00-3.211-2.124 9.974 9.974 0 00-3.788-.744zm52.512 9.61h-5.501c.031-1.846.329-3.678.884-5.441 1.51.379 3.06.58 4.617.6V35.2zm0 5.448a20.4 20.4 0 00-4.617.606 19.193 19.193 0 01-.884-5.44h5.501v4.834zm.612-4.835h5.495a18.954 18.954 0 01-.877 5.441 20.4 20.4 0 00-4.618-.606v-4.835zm0-5.455c1.558-.02 3.108-.22 4.618-.599.556 1.762.851 3.595.877 5.441h-5.495v-4.842zm-9.683 12.594a11.784 11.784 0 01-2.639-7.139h5.597c.025 1.899.327 3.783.897 5.596-1.335.38-2.627.898-3.855 1.543zm6.745 4.188a12.034 12.034 0 01-6.337-3.697 19.35 19.35 0 013.617-1.448 20.04 20.04 0 002.72 5.145zm2.326.276c-.48-.007-.96-.045-1.435-.114a19.31 19.31 0 01-2.992-5.455 19.956 19.956 0 014.427-.572v6.141zm2.04-.114c-.473.069-.95.107-1.428.114v-6.155c1.49.024 2.974.217 4.42.573a18.98 18.98 0 01-2.992 5.454v.014zm7.236-3.872a12.06 12.06 0 01-6.338 3.71 19.92 19.92 0 002.72-5.131 19.43 19.43 0 013.645 1.434l-.027-.013zm3.073-7.603a11.783 11.783 0 01-2.638 7.138 20.181 20.181 0 00-3.876-1.556c.57-1.813.872-3.697.897-5.596l5.617.014zm-2.638-7.752a11.764 11.764 0 012.638 7.139h-5.596a19.603 19.603 0 00-.918-5.583 20.156 20.156 0 003.856-1.535l.02-.02zm-6.766-4.155a12.06 12.06 0 016.33 3.69 19.42 19.42 0 01-3.644 1.435 19.707 19.707 0 00-2.72-5.131l.034.006zm-2.36-.29c.478.014.955.054 1.428.122a18.982 18.982 0 012.992 5.455 19.84 19.84 0 01-4.42.572v-6.148zm-2.04.122c.475-.068.954-.108 1.435-.121v6.148a19.968 19.968 0 01-4.427-.572 19.31 19.31 0 012.992-5.455zm-7.208 3.859a12.033 12.033 0 016.337-3.724 19.932 19.932 0 00-2.72 5.131 19.353 19.353 0 01-3.617-1.407zm-3.047 7.59a11.76 11.76 0 012.639-7.139 20.158 20.158 0 003.855 1.569 19.602 19.602 0 00-.897 5.603l-5.597-.034zM1.414 54.864h1.333v-3.589H4.27v-1.131H1.414v4.72zm3.693 0h1.36V53.31h.68c.368.012.731-.082 1.047-.27a1.35 1.35 0 00.537-.612c.096-.212.147-.441.15-.674a1.65 1.65 0 00-.143-.673 1.499 1.499 0 00-.537-.62 1.96 1.96 0 00-1.054-.262h-2.04v4.666zm1.36-3.683h.38a.687.687 0 01.545.182.557.557 0 01.108.357.595.595 0 01-.102.35.681.681 0 01-.55.202h-.402l.02-1.091zm2.883-1.037l1.795 3.42-.646 1.3h1.428l2.149-4.72H12.62l-.762 1.986-.932-1.986H9.35zm5.413 0v4.72h1.34v-3.589h1.577v3.59h1.34v-4.721h-4.257zm5.419 0v4.72h1.333v-3.589H23.1v3.59h1.333v-4.721h-4.25zm4.938 4.72h1.428l.258-.815h1.632l.266.815h1.428l-1.694-4.714h-1.632l-1.686 4.714zm2.51-3.596l.543 1.744h-1.088l.544-1.744zm7.003 3.596h1.332v-2.027l1.38 2.027h1.674l-1.863-2.43 1.815-2.29h-1.57l-1.436 1.986v-1.986h-1.332v4.72zm7.419.135a2.74 2.74 0 001.442-.364c.365-.22.658-.54.843-.922a2.76 2.76 0 000-2.418c-.187-.38-.48-.7-.843-.922a3.023 3.023 0 00-2.877 0 2.31 2.31 0 00-.85.922 2.826 2.826 0 000 2.418c.19.38.485.7.85.922.436.25.932.377 1.435.364zm0-1.131a1.153 1.153 0 01-.823-.337 1.446 1.446 0 01-.36-1.003c-.02-.375.11-.743.36-1.024a1.156 1.156 0 01.827-.344 1.166 1.166 0 01.826.344c.25.281.38.649.36 1.024.018.374-.111.74-.36 1.023a1.143 1.143 0 01-.83.337m3.182.976h1.279l.36-2.734.803 2.734h.856l.803-2.734.36 2.734h1.279l-.694-4.72h-1.34l-.836 2.882-.836-2.882h-1.34l-.694 4.72zm6.576-4.72v4.72h1.333v-3.589h1.584v3.59h1.333v-4.721h-4.25zm4.917 4.72h1.428l.265-.815h1.625l.265.815h1.429l-1.694-4.714H58.44l-1.713 4.714zm2.51-3.596l.543 1.744h-1.074l.53-1.744zm3.216 3.596h1.333V52.98h1.625v1.885h1.333v-4.72h-1.333v1.697h-1.625v-1.697h-1.333v4.72zm5.461-4.72v4.72h1.312l1.843-2.828v2.828h1.292v-4.72h-1.313l-1.842 2.835v-2.835h-1.292zm5.603 0v4.714h1.313l1.843-2.829v2.829h1.292v-4.714h-1.313l-1.843 2.835v-2.835h-1.291zm2.89-1.293a.581.581 0 01-.285.316.94.94 0 01-.762 0 .558.558 0 01-.285-.316l-.769.282c.129.258.343.465.606.586.261.113.544.17.83.169.285.002.567-.056.829-.169.263-.12.474-.327.598-.586l-.761-.282z" fill="#fff"/></svg>