<svg width="126" height="34" fill="none" xmlns="http://www.w3.org/2000/svg"><path d="M0 1.887c1.708-.259 3.944-.397 6.296-.397 3.918 0 6.452.657 8.437 2.06 2.144 1.49 3.49 3.87 3.49 7.283 0 3.7-1.44 6.25-3.43 7.826-2.166 1.69-5.47 2.489-9.509 2.489-2.412 0-4.13-.142-5.288-.284V1.887H0zM4.675 17.65c.398.089 1.042.089 1.621.089 4.225.028 6.97-2.152 6.97-6.765.035-4.008-2.477-6.136-6.477-6.136-1.042 0-1.712.09-2.114.174V17.65zm19.235-2.318c.15 1.807 2.044 2.662 4.215 2.662 1.587 0 2.876-.202 4.125-.575l.614 2.954c-1.53.572-3.394.888-5.413.888-5.077 0-7.978-2.78-7.978-7.17 0-3.55 2.352-7.474 7.55-7.474 4.83 0 6.672 3.522 6.672 6.996 0 .742-.096 1.398-.156 1.719h-9.63zm5.474-2.98c0-1.065-.49-2.837-2.63-2.837-1.958 0-2.754 1.662-2.875 2.837h5.505zM39.8.599h-4.653v20.346h4.652V.599zm20.686 1.288c1.44-.227 3.46-.397 6.296-.397 2.876 0 4.925.515 6.3 1.548 1.315.973 2.201 2.582 2.201 4.475 0 1.889-.674 3.494-1.894 4.584-1.59 1.402-3.943 2.039-6.693 2.039a13.8 13.8 0 01-1.596-.085v6.894h-4.614V1.887zm4.614 8.771c.402.085.895.114 1.566.114 2.473 0 4.004-1.176 4.004-3.15 0-1.779-1.315-2.837-3.637-2.837-.947 0-1.591.085-1.933.17v5.703zm25.443 3.122c0 5.13-3.883 7.481-7.892 7.481-4.363 0-7.731-2.695-7.731-7.222 0-4.532 3.183-7.426 7.986-7.426 4.575.004 7.637 2.955 7.637 7.166zm-10.823.145c0 2.403 1.068 4.211 3.057 4.211 1.803 0 2.966-1.69 2.966-4.211 0-2.095-.856-4.211-2.966-4.211-2.231 0-3.057 2.148-3.057 4.211zm11.96-2.379c0-2.063-.06-3.409-.125-4.613h4.012l.152 2.582h.117c.765-2.038 2.598-2.894 4.038-2.894.428 0 .649 0 .982.057v4.126a4.783 4.783 0 00-1.25-.146c-1.716 0-2.875.864-3.182 2.205a4.626 4.626 0 00-.091.98v7.102h-4.649v-9.4h-.004zm17.335-8.426v3.81h3.334v3.21h-3.334v5.07c0 1.694.433 2.468 1.838 2.468.64 0 .917-.028 1.375-.117l.03 3.295c-.614.227-1.716.401-3.031.401-1.5 0-2.75-.519-3.485-1.236-.852-.827-1.28-2.177-1.28-4.155V10.14h-1.993V6.93h1.993V4.295l4.553-1.175zm5.993 14.015c.856.486 2.629 1.058 4.008 1.058 1.405 0 1.989-.458 1.989-1.18 0-.713-.458-1.057-2.201-1.605-3.092-.972-4.281-2.553-4.25-4.178 0-2.639 2.378-4.617 6.084-4.617 1.738 0 3.299.373 4.216.803l-.822 3.011c-.675-.344-1.959-.802-3.247-.802-1.125 0-1.769.43-1.769 1.147 0 .66.579 1 2.417 1.6 2.837.917 4.035 2.266 4.065 4.33 0 2.605-2.201 4.559-6.482 4.559-1.959 0-3.701-.43-4.834-1.005l.826-3.121zm-65.682-3.352h-3.654c.017-1.191.22-2.338.584-3.425.986.231 2.01.365 3.07.377v3.048zm0 3.43a14.172 14.172 0 00-3.07.376 11.261 11.261 0 01-.584-3.425h3.654v3.048zm.41-3.049h3.655a11.397 11.397 0 01-.588 3.425 13.858 13.858 0 00-3.07-.377v-3.048h.004zm0-3.429a14.36 14.36 0 003.07-.377c.364 1.083.567 2.234.589 3.425H49.74v-3.048h-.004zm-6.433 7.92c-1.06-1.236-1.709-2.793-1.756-4.495h3.719c.021 1.228.229 2.408.6 3.526-.899.244-1.76.568-2.563.97zm4.48 2.627a8.08 8.08 0 01-4.212-2.323 13.57 13.57 0 012.417-.904 12.405 12.405 0 001.794 3.227zm1.543.178a9.276 9.276 0 01-.951-.073 11.86 11.86 0 01-1.99-3.43 13.735 13.735 0 012.94-.36v3.863zm1.362-.077a7.382 7.382 0 01-.951.073v-3.867a13.7 13.7 0 012.94.36 11.874 11.874 0 01-1.989 3.434zm4.808-2.424a8.096 8.096 0 01-4.211 2.323 12.08 12.08 0 001.79-3.227c.843.223 1.652.527 2.421.904zm2.024-4.795a7.217 7.217 0 01-1.751 4.495c-.809-.401-1.67-.73-2.564-.969a11.77 11.77 0 00.6-3.526h3.715zm-1.756-4.876c1.056 1.237 1.708 2.793 1.752 4.495h-3.719a11.663 11.663 0 00-.601-3.526 13.59 13.59 0 002.569-.969zM51.28 6.666a8.095 8.095 0 014.212 2.323c-.765.372-1.578.676-2.421.903a11.964 11.964 0 00-1.79-3.226zm-1.543-.178c.32.008.64.032.951.073a11.862 11.862 0 011.99 3.429 13.7 13.7 0 01-2.941.36V6.488zm-1.358.073c.311-.045.631-.07.951-.073v3.866a13.992 13.992 0 01-2.94-.36 11.78 11.78 0 011.989-3.433zm-4.808 2.428a8.078 8.078 0 014.211-2.323 12.338 12.338 0 00-1.794 3.226 13.57 13.57 0 01-2.417-.903zm-2.024 4.794c.043-1.698.692-3.258 1.756-4.495.808.402 1.664.73 2.564.97a11.794 11.794 0 00-.601 3.525h-3.72zM3.31 27.928H1.367v4.43H.01v-5.5h3.3v1.07zm3.047-1.07c.51 0 1.077.065 1.544.454.501.413.575.957.575 1.338 0 .693-.281 1.078-.502 1.293-.467.445-1.085.486-1.5.486h-.83v1.93H4.28v-5.5h2.076zm-.718 2.533h.484c.186 0 .51-.008.731-.206a.743.743 0 00.22-.543c0-.232-.086-.422-.22-.535-.203-.183-.493-.207-.757-.207H5.64v1.491zm4.826-2.533l1.237 2.541 1.18-2.54h1.466l-2.693 5.503h-1.466l.856-1.585-2.102-3.919h1.522zm9.755 0v5.504h-1.358v-4.434h-2.23v4.43h-1.359v-5.5h4.947zm6.461 0v5.504h-1.358v-4.434h-2.23v4.43h-1.359v-5.5h4.947zm4.976 4.462h-2.223l-.45 1.038H27.57l2.374-5.504h1.241l2.322 5.504h-1.41l-.44-1.037zm-.372-.972l-.722-1.848-.731 1.848h1.453zm6.747-1.196l2.01-2.294h1.66l-2.382 2.606 2.569 2.898h-1.747l-2.11-2.444v2.444h-1.358v-5.504h1.358v2.294zm9.625-1.617c.558.503.917 1.228.917 2.08 0 .733-.282 1.483-.917 2.062-.55.495-1.289.807-2.275.807-1.102 0-1.85-.414-2.291-.807a2.715 2.715 0 01-.917-2.046c0-.79.38-1.593.908-2.088.398-.373 1.129-.806 2.3-.806.913-.004 1.682.263 2.275.798zm-3.576.84c-.255.23-.524.635-.524 1.247 0 .503.178.908.541 1.237.38.336.8.453 1.263.453.6 0 1.025-.206 1.306-.47.229-.206.51-.595.51-1.228a1.68 1.68 0 00-.51-1.236c-.29-.263-.761-.47-1.298-.47-.51-.004-.968.17-1.288.466zm5.46 3.987l.943-5.504h1.128l1.466 3.291 1.466-3.29h1.129l.942 5.503h-1.358l-.466-3.283-1.475 3.283h-.476l-1.474-3.283-.467 3.283H49.54zm13.269-5.504v5.504h-1.358v-4.434h-2.231v4.43h-1.358v-5.5h4.947zm4.972 4.462h-2.223l-.45 1.038h-1.414l2.374-5.504h1.241l2.322 5.504h-1.41l-.44-1.037zm-.372-.972l-.722-1.848-.731 1.848h1.453zm4.471-1.394h2.348v-2.096h1.358v5.504h-1.358v-2.338h-2.348v2.334h-1.358v-5.5h1.358v2.096zm6.582-2.096v3.595l2.724-3.664h1.198v5.57h-1.358V28.75l-2.724 3.672h-1.197v-5.565h1.357zm6.797 0v3.595l2.724-3.664h1.202v5.57h-1.358V28.75l-2.724 3.672h-1.198v-5.565h1.354zm3.035-1.443a1.695 1.695 0 01-.67.742c-.35.199-.73.231-1.085.231-.346 0-.723-.032-1.077-.23a1.695 1.695 0 01-.67-.743l.934-.372c.06.15.177.312.29.397.133.093.337.141.54.141.134 0 .346-.016.519-.141a.846.846 0 00.28-.398l.94.373zm6.472 6.408l-.713.47-1.367-1.783 1.367-1.775.696.454-1.025 1.321 1.042 1.313zm1.838 0l-.713.47-1.367-1.783 1.367-1.775.696.454-1.025 1.325 1.042 1.31zm6.103-4.965v4.446h.662v2.294h-1.22v-1.236h-3.61v1.236h-1.22v-2.294c.38-.064.61-.255.662-.304.493-.43.502-1.212.502-1.815v-2.327h4.224zm-2.914 2.286c0 .381-.018.949-.113 1.289a1.98 1.98 0 01-.527.875h2.214v-3.392h-1.57v1.228h-.004zm7.859-1.216h-1.967v1.066h1.868v1.074h-1.868v1.22h1.967v1.074h-3.325v-5.504h3.325v1.07zm6.189-1.07v5.504h-1.358v-4.434h-1.595v1.889c0 .94-.122 1.723-.593 2.168-.246.231-.653.438-1.323.438-.203 0-.381-.024-.549-.065V31.22c.099.033.212.049.337.049.229 0 .424-.073.536-.182.247-.231.264-.718.264-1.155v-3.077h4.281v.004zm6.727.677c.558.503.917 1.228.917 2.08 0 .733-.281 1.483-.917 2.062-.549.495-1.289.807-2.275.807-1.102 0-1.85-.414-2.291-.807a2.713 2.713 0 01-.917-2.046c0-.79.38-1.593.908-2.088.398-.373 1.129-.806 2.3-.806.917-.004 1.687.263 2.275.798zm-3.572.84c-.255.23-.523.635-.523 1.247 0 .503.177.908.54 1.237.381.336.8.453 1.263.453.601 0 1.025-.206 1.306-.47.229-.206.51-.595.51-1.228 0-.567-.246-.989-.51-1.236-.29-.263-.761-.47-1.297-.47-.515-.004-.973.17-1.289.466zm5.108.818l.696-.454 1.367 1.775-1.367 1.783-.713-.47 1.042-1.309-1.025-1.325zm1.834 0l.696-.454 1.366 1.775-1.366 1.783-.714-.47 1.042-1.309-1.024-1.325z" fill="#fff"/></svg>