<svg width="87" height="31" fill="none" xmlns="http://www.w3.org/2000/svg"><path d="M12.151.701v7.787H4.584V.7H0v20.256h4.584v-8.478h7.567v8.478h4.578V.7h-4.578zM22.89.67l2.956 7.303c.569 1.415.96 2.648 1.445 3.88h.091c.242-.873.602-2.223 1.086-3.971l2.21-7.213h4.853l-3.826 10.01c-1.236 3.124-2.472 6.196-4.009 8.054a6.535 6.535 0 01-5.395 2.68 6.368 6.368 0 01-2.263-.332l.334-3.671c.493.109.998.16 1.504.15a3.048 3.048 0 002.773-1.859 1.093 1.093 0 00-.085-.985L17.716.67h5.174zm18.73 3.88h-5.487V.701h15.61v3.847h-5.545v16.408H41.62V4.55zm13.014 4.356h8.711c-.3-2.707-2.204-4.84-5.578-4.84a11.237 11.237 0 00-4.14.868l-.922-3.424A14.03 14.03 0 0158.133.37c7.115 0 10.157 4.864 10.157 10.492 0 6.821-4.644 10.434-10.615 10.434-1.79.018-3.566-.31-5.232-.965l.818-3.515c1.29.483 2.657.728 4.035.724 3.466 0 5.67-2.106 5.997-5.048h-8.659V8.906zM87 .702v20.255h-4.578V4.458H75.19v16.5h-4.584V.701H87zM.974 27.83l1.44-1.753h1.19l-1.707 1.989 1.837 2.217H2.485l-1.51-1.865v1.865H0v-4.206h.974v1.754zm6.789-1.238a2.184 2.184 0 01.654 1.591 2.14 2.14 0 01-1.407 2.042c-.28.105-.577.153-.876.143a2.295 2.295 0 01-1.641-.62 2.145 2.145 0 01-.654-1.559 2.35 2.35 0 01.654-1.597 2.23 2.23 0 011.648-.62 2.256 2.256 0 011.628.613l-.006.007zm-2.531.645a1.304 1.304 0 00-.373.953 1.242 1.242 0 00.798 1.222c.162.062.336.09.51.082a1.246 1.246 0 001.228-.794c.062-.163.09-.337.08-.51a1.3 1.3 0 00-.366-.946 1.356 1.356 0 00-.929-.365 1.31 1.31 0 00-.948.358zm4.944.437h1.687v-1.597h.968v4.206h-.968v-1.787h-1.687v1.787h-.968v-4.206h.968v1.597zm5.121-.782v3.39h-.975v-3.39H13.4v-.815h2.812v.815h-.915zm3.865 0h-1.406v.815h1.334v.822h-1.334v.932h1.406v.822h-2.38v-4.206h2.38v.815zm1.824-.816v2.746l1.962-2.798h.857v4.259h-.98v-2.759l-1.963 2.804h-.85v-4.252h.974zm2.178-1.102c-.102.232-.27.43-.484.568a1.797 1.797 0 01-1.55 0 1.253 1.253 0 01-.477-.568l.654-.287a.823.823 0 00.21.307c.115.07.25.107.385.104a.656.656 0 00.373-.104.652.652 0 00.203-.307l.686.287zm2.59 2.7h1.68v-1.597h.975v4.206h-.974v-1.787h-1.68v1.787h-.975v-4.206h.974v1.597zm6.016-.782h-1.412v.815h1.34v.822h-1.34v.932h1.413v.822h-2.38v-4.206h2.38v.815zm2.335-.816c.4-.027.794.096 1.106.346a1.305 1.305 0 01.412 1.024c.01.356-.12.702-.36.965a1.446 1.446 0 01-1.08.372h-.588v1.474h-.974v-4.18h1.484zm-.51 1.957h.347a.76.76 0 00.523-.163.566.566 0 00.157-.41.54.54 0 00-.157-.412.767.767 0 00-.543-.156h-.327v1.14zm3.669-.359h1.688v-1.597h.974v4.206h-.974v-1.787h-1.688v1.787h-.968v-4.206h.968v1.597zm3.636-1.597h.955v1.636h.582c.417-.034.831.092 1.158.353a1.42 1.42 0 010 1.858 1.69 1.69 0 01-1.203.352H40.9v-4.2zm.955 3.417h.432a.872.872 0 00.503-.111.43.43 0 00.184-.385.45.45 0 00-.177-.398.826.826 0 00-.504-.104h-.438v.998zm3.46.782h-.955v-4.2h.974l-.02 4.2zm1.975-4.2v2.746l1.962-2.798h.863v4.259h-.987v-2.759l-1.962 2.804h-.85v-4.252h.974zm2.171-1.102c-.1.231-.267.428-.477.568a1.498 1.498 0 01-.779.176 1.455 1.455 0 01-.771-.176 1.305 1.305 0 01-.484-.568l.654-.287a.75.75 0 00.21.307.685.685 0 00.385.104.656.656 0 00.366-.104.653.653 0 00.21-.307l.686.287zm6.167 1.918v3.39h-.974v-3.39h-.916v-.815h2.806v.815h-.916zm3.872 0h-1.413v.815h1.34v.822h-1.34v.932H59.5v.822h-2.387v-4.206H59.5v.815zm2.335-.815c.398-.027.792.097 1.105.345a1.305 1.305 0 01.412 1.024c.01.356-.12.702-.36.965a1.452 1.452 0 01-1.079.372h-.595v1.474h-.968v-4.18h1.485zm-.517 1.956h.353a.76.76 0 00.523-.163.592.592 0 00.157-.41.566.566 0 00-.157-.412.78.78 0 00-.55-.156h-.326v1.141zm2.505 2.25l.673-4.206h.811l1.053 2.517 1.047-2.517h.81l.674 4.206h-.968l-.34-2.51-1.053 2.51h-.34l-1.053-2.51-.34 2.51h-.974zm6.827-4.206v2.745l1.956-2.798h.863v4.259h-.981v-2.759l-1.949 2.804h-.863v-4.251h.974zm4.768 1.597h1.68v-1.597h.975v4.206H77.1v-1.787h-1.681v1.787h-.975v-4.206h.975v1.597zm6.108 1.813h-1.59l-.32.796h-1.013l1.7-4.206h.89l1.667 4.206h-1.013l-.32-.796zm-.261-.743l-.517-1.415-.523 1.415h1.04zm5.715-2.667v4.2h-.968v-3.379h-1.124v1.442a2.381 2.381 0 01-.425 1.656 1.268 1.268 0 01-.949.332c-.132 0-.264-.017-.392-.052v-.867a.74.74 0 00.242.04.576.576 0 00.386-.138c.162-.263.228-.574.19-.88v-2.354h3.04z" fill="#fff"/></svg>