<svg width="54" height="30" fill="none" xmlns="http://www.w3.org/2000/svg"><path d="M.176.319h4.897v9.623h.065a39.91 39.91 0 011.526-2.393L11.586.32h6.088l-7.2 9.265 7.56 12.492H12.3l-5.381-9.395-1.846 2.314v7.081H.176V.32z" fill="#fff"/><path d="M33.654 21.516a14.454 14.454 0 01-5.578.94c-7.547 0-11.436-4.715-11.436-10.909C16.64 4.101 21.956 0 28.567 0c2.56 0 4.504.482 5.375.965l-1.035 3.88a10.399 10.399 0 00-4.15-.81c-3.888 0-6.932 2.355-6.932 7.173 0 4.355 2.618 7.1 6.965 7.1a11.728 11.728 0 004.15-.704l.714 3.912zM36.109.32h4.896v9.623h.066c.484-.841 1.001-1.617 1.519-2.393L47.519.32h6.094l-7.2 9.264 7.554 12.493h-5.735l-5.38-9.396-1.847 2.315v7.08H36.11V.32zM.144 27c.129-.115.277-.206.439-.268.208-.083.43-.123.654-.117.316-.02.626.086.865.293a.847.847 0 01.248.652.65.65 0 01-.13.418.655.655 0 01-.308.241c.15.04.287.116.4.222a.8.8 0 01.215.574.924.924 0 01-.262.652 1.311 1.311 0 01-.995.326 1.865 1.865 0 01-.772-.144A1.822 1.822 0 010 29.517l.419-.541c.092.107.203.198.327.267a.97.97 0 00.44.098.657.657 0 00.372-.098.346.346 0 00.157-.3.338.338 0 00-.117-.254 1.038 1.038 0 00-.616-.118H.864v-.6h.112a.82.82 0 00.53-.124.305.305 0 00-.04-.463.565.565 0 00-.333-.084.892.892 0 00-.367.078 1.243 1.243 0 00-.288.195L.144 27zm4.792.332h-1.08v.626h1.028v.626H3.856v.718h1.08v.626H3.11v-3.222h1.827v.626zm1.794-.599c.305-.022.607.073.844.267a.977.977 0 01.321.782 1.014 1.014 0 01-.281.757 1.087 1.087 0 01-.819.28h-.458v1.109H5.59v-3.195h1.14zm-.393 1.48h.268a.558.558 0 00.4-.117.475.475 0 00.117-.32.416.416 0 00-.117-.313.584.584 0 00-.413-.124h-.255v.874zm2.815-.281h1.29v-1.226h.746v3.222h-.747v-1.37h-1.29v1.37h-.746v-3.222h.747v1.226zm5.649-.828a1.71 1.71 0 01.504 1.21 1.703 1.703 0 01-.504 1.209 1.71 1.71 0 01-1.244.476 1.772 1.772 0 01-1.263-.476 1.643 1.643 0 01-.511-1.193 1.77 1.77 0 01.504-1.22 1.705 1.705 0 011.264-.476 1.729 1.729 0 011.244.47h.006zm-1.97.489a1.054 1.054 0 000 1.454 1.043 1.043 0 001.407 0 .932.932 0 00.282-.717.987.987 0 00-.282-.724 1.043 1.043 0 00-.707-.274 1.004 1.004 0 00-.707.274m4.078-.874c.294-.018.585.07.819.248a.827.827 0 01.235.607.721.721 0 01-.11.41.542.542 0 01-.27.235.852.852 0 01.446.222.782.782 0 01.21.574.851.851 0 01-.256.652 1.215 1.215 0 01-.851.28h-1.211v-3.228h.988zm-.255 1.304h.124a.662.662 0 00.374-.09.365.365 0 00.13-.288.318.318 0 00-.124-.274.599.599 0 00-.386-.085h-.118v.737zm0 1.305h.177a.848.848 0 00.556-.13.371.371 0 00.105-.275.345.345 0 00-.098-.254.841.841 0 00-.537-.124h-.203v.783zm5.048-2.237a1.708 1.708 0 01.372 1.864 1.708 1.708 0 01-.372.555 1.71 1.71 0 01-1.244.476 1.772 1.772 0 01-1.264-.476 1.642 1.642 0 01-.504-1.193 1.77 1.77 0 01.504-1.22 1.704 1.704 0 011.264-.476 1.729 1.729 0 011.244.47zm-1.965.489a1.054 1.054 0 000 1.454 1.043 1.043 0 001.408 0 .933.933 0 00.281-.717.989.989 0 00-.281-.724 1.043 1.043 0 00-.707-.274 1.004 1.004 0 00-.707.274m3.843-.874v2.106l1.492-2.145h.655v3.26h-.753v-2.139l-1.5 2.178h-.654v-3.26h.76zm1.662-.841a1.005 1.005 0 01-.366.43c-.182.1-.389.147-.596.137a1.09 1.09 0 01-.59-.137.973.973 0 01-.372-.43l.517-.215a.528.528 0 00.157.228c.088.055.19.082.294.078a.478.478 0 00.288-.078.574.574 0 00.158-.228l.51.215zm4.713 1.441v2.596h-.746v-2.596h-.7v-.626h2.147v.626h-.7zm2.973 0h-1.08v.626h1.02v.626h-1.02v.718h1.08v.626h-1.827v-3.222h1.827v.626zm1.78-.6c.307-.02.611.075.851.268a.984.984 0 01.308.782 1.04 1.04 0 01-.269.757 1.102 1.102 0 01-.825.28h-.458v1.109h-.74v-3.196h1.133zm-.393 1.48h.268a.558.558 0 00.4-.117.449.449 0 00.124-.32.417.417 0 00-.124-.312.584.584 0 00-.413-.124h-.255v.874zm1.931 1.716l.517-3.222h.622l.799 1.924.805-1.924h.622l.517 3.222h-.746l-.255-1.924-.812 1.924h-.262l-.806-1.924-.255 1.924h-.746zm5.23-3.222v2.107l1.5-2.146h.654v3.261h-.746v-2.113l-1.493 2.152h-.661v-3.26h.746zm3.653 1.226h1.29v-1.226h.747v3.222h-.747v-1.37h-1.29v1.37h-.74v-3.222h.74v1.226zm4.687 1.409h-1.217l-.25.607h-.772l1.31-3.222h.654l1.31 3.222h-.792l-.242-.607zm-.202-.574l-.4-1.082-.4 1.082h.8zM54 26.733v3.195h-.746v-2.609h-.884v1.109a1.82 1.82 0 01-.321 1.265.975.975 0 01-.727.26 1.36 1.36 0 01-.262-.025v-.652c.058.024.12.035.184.032a.433.433 0 00.294-.104c.122-.195.175-.424.15-.652v-1.82H54z" fill="#fff"/></svg>