<svg width="67" height="32" fill="none" xmlns="http://www.w3.org/2000/svg"><path d="M.03 2.373c2.4-.32 4.824-.47 7.25-.452 4.505 0 7.426.742 9.718 2.315 2.439 1.673 4.018 4.356 4.018 8.188 0 4.156-1.658 7.023-3.945 8.791-2.5 1.902-6.304 2.79-10.974 2.79A50.642 50.642 0 010 23.685L.03 2.373zm5.384 17.715c.617.09 1.242.123 1.866.1 4.877.029 8.023-2.42 8.023-7.608.043-4.507-2.847-6.894-7.456-6.894-.819-.016-1.636.05-2.44.195l.007 14.207zm22.15-2.604c.17 2.03 2.354 2.99 4.878 2.99a16.25 16.25 0 004.75-.647l.706 3.347a18.498 18.498 0 01-6.23.998c-5.848 0-9.189-3.123-9.189-8.06-.024-4.033 2.683-8.423 8.646-8.423 5.56 0 7.676 3.96 7.676 7.86.001.648-.058 1.296-.177 1.935h-11.06zm6.298-3.347c0-1.199-.56-3.19-3.048-3.19-2.25 0-3.17 1.868-3.31 3.19h6.358zM45.849.923h-5.353v22.87h5.353V.923zM56.83 15.738h-4.208a12.51 12.51 0 01.677-3.848c1.154.268 2.34.413 3.53.43v3.418zm0 3.855a16.58 16.58 0 00-3.53.43 12.474 12.474 0 01-.678-3.85h4.207v3.42zm.469-3.42h4.206a12.651 12.651 0 01-.67 3.85 16.702 16.702 0 00-3.536-.43v-3.42zm0-3.854a16.702 16.702 0 003.536-.43c.422 1.248.648 2.544.67 3.85H57.3v-3.42zm-7.408 8.925c-1.257-1.426-1.968-3.19-2.024-5.02h4.268a12.75 12.75 0 00.689 3.96 15.655 15.655 0 00-2.951 1.116l.018-.056zm5.146 3.006c-1.887-.378-3.595-1.294-4.878-2.616.89-.422 1.823-.762 2.786-1.015a13.57 13.57 0 002.067 3.631h.025zm1.75.196a8.907 8.907 0 01-1.098-.084 13.219 13.219 0 01-2.244-3.916 15.685 15.685 0 013.384-.401l-.043 4.4zm1.566-.084c-.363.05-.73.078-1.097.084v-4.418a15.59 15.59 0 013.384.402 13.125 13.125 0 01-2.287 3.854v.078zm5.579-2.8c-1.285 1.32-2.992 2.235-4.878 2.616a13.563 13.563 0 002.061-3.631 16.12 16.12 0 012.817 1.015zm2.33-5.383c-.049 1.84-.758 3.614-2.019 5.048a15.976 15.976 0 00-2.95-1.115c.431-1.284.663-2.618.688-3.96l4.28.027zm-2.019-5.483c1.255 1.426 1.964 3.19 2.018 5.02h-4.268a13.166 13.166 0 00-.689-3.96 16.01 16.01 0 002.951-1.088l-.012.028zm-5.152-2.979c1.885.384 3.59 1.299 4.878 2.616-.892.422-1.828.762-2.793 1.015a13.565 13.565 0 00-2.06-3.63h-.025zm-1.756-.2c.368.01.734.04 1.098.089a13.128 13.128 0 012.286 3.854c-1.108.25-2.243.387-3.384.407v-4.35zm-1.603.1c.363-.05.73-.08 1.097-.09v4.351a16.798 16.798 0 01-3.384-.407 13.273 13.273 0 012.287-3.854zm-5.53 2.728c1.284-1.32 2.991-2.236 4.877-2.617a13.567 13.567 0 00-2.066 3.632 15.864 15.864 0 01-2.787-1.015h-.024zm-2.31 5.382c.055-1.83.766-3.594 2.023-5.02a15.73 15.73 0 002.951 1.088 12.797 12.797 0 00-.689 3.96l-4.286-.028zM3.037 31.82c-.246.119-.52.18-.8.178a2.078 2.078 0 01-.76-.108 1.949 1.949 0 01-.654-.372 1.762 1.762 0 01-.42-.573 1.633 1.633 0 010-1.353c.098-.215.24-.41.42-.573a2.024 2.024 0 011.348-.474c.3.005.594.068.866.184v.881a1.159 1.159 0 00-.384-.257 1.25 1.25 0 00-.86-.034 1.056 1.056 0 00-.342.196c-.22.204-.342.479-.341.764a.897.897 0 00.073.39.967.967 0 00.237.33c.103.095.226.169.361.218.136.049.28.071.426.067a1.25 1.25 0 00.454-.091 1.15 1.15 0 00.376-.25v.876zm2.755-2.555H4.585v.642h1.152v.641H4.585v.73h1.207v.648H3.755v-3.302h2.037v.641zm2.006-.642c.34-.021.677.074.945.268.12.102.214.226.275.365a.938.938 0 01.079.438.988.988 0 01-.07.42 1.06 1.06 0 01-.241.361 1.247 1.247 0 01-.428.233c-.158.05-.326.07-.493.057h-.518v1.16h-.823v-3.302h1.274zm-.451 1.517h.299a.65.65 0 00.445-.122.445.445 0 00.107-.152.412.412 0 00.033-.177.376.376 0 00-.032-.174.408.408 0 00-.108-.144.663.663 0 00-.463-.128h-.281v.897zm3.426-1.517c.33-.023.658.066.92.251.088.083.156.18.201.288a.793.793 0 01.062.337.715.715 0 01-.122.418.636.636 0 01-.299.246.962.962 0 01.494.223.75.75 0 01.238.558.813.813 0 01-.065.362.879.879 0 01-.222.307 1.45 1.45 0 01-.95.284H9.67v-3.274h1.103zm-.28 1.339h.134a.805.805 0 00.427-.095.354.354 0 00.112-.129.32.32 0 00.034-.161.32.32 0 00-.034-.155.352.352 0 00-.106-.124.762.762 0 00-.433-.084h-.134v.748zm0 1.366h.2a.982.982 0 00.61-.133.347.347 0 00.095-.125.322.322 0 00.028-.149.325.325 0 00-.027-.145.352.352 0 00-.09-.122.97.97 0 00-.609-.129h-.232l.025.803zm3.28-2.705v2.159l1.67-2.198h.738v3.341h-.829v-2.164l-1.677 2.203h-.737v-3.341h.835zm5.859 3.197a1.78 1.78 0 01-.792.178c-.26.011-.52-.026-.764-.108a1.974 1.974 0 01-.657-.372 1.705 1.705 0 01-.56-1.25c0-.467.201-.916.56-1.249a2.05 2.05 0 011.347-.474c.3.005.595.067.866.184v.881a1.132 1.132 0 00-.38-.257 1.223 1.223 0 00-.461-.094 1.105 1.105 0 00-.397.06 1.011 1.011 0 00-.596.547.982.982 0 00-.086.414.897.897 0 00.073.39.967.967 0 00.237.33c.103.094.226.168.361.217.136.049.28.072.426.067a1.2 1.2 0 00.45-.09c.143-.06.27-.144.373-.25v.875zm1.555-1.941h1.439v-1.255h.835v3.302h-.835V30.52h-1.44v1.406h-.834v-3.302h.835v1.255zm5.237 1.422h-1.366l-.274.625h-.866l1.457-3.302h.762l1.427 3.302h-.872l-.268-.625zm-.226-.586l-.445-1.115-.45 1.115h.895zm4.317 1.21h-.86V30.72h-.11l-.859 1.205h-.957l1.042-1.294a1.012 1.012 0 01-.512-.234.928.928 0 01-.24-.335.859.859 0 01-.065-.396.912.912 0 01.066-.39.979.979 0 01.227-.335c.134-.113.292-.2.464-.254.172-.055.354-.077.536-.064h1.22l.048 3.302zm-.83-2.677h-.194a.85.85 0 00-.494.117.453.453 0 00-.11.148.42.42 0 00.11.499c.15.095.33.139.512.123h.195l-.018-.887zm5.11.754l1.232-1.378h1.018l-1.463 1.562 1.579 1.74h-1.073l-1.293-1.467v1.467h-.835v-3.302h.835v1.378zm5.816-.978c.18.163.324.358.42.573.096.215.144.445.141.677.003.23-.045.459-.141.672-.097.213-.24.405-.42.566a1.973 1.973 0 01-.645.37c-.24.084-.495.123-.751.116a2.082 2.082 0 01-1.384-.486 1.676 1.676 0 01-.42-.56 1.55 1.55 0 01-.14-.667c.006-.468.206-.916.56-1.255a2.252 2.252 0 011.405-.483c.517 0 1.017.172 1.406.483l-.03-.006zm-2.164.514a1.02 1.02 0 00-.242.344.948.948 0 00-.075.403.91.91 0 00.066.41.982.982 0 00.601.558c.133.047.275.07.418.064.147.005.294-.017.432-.066.137-.049.262-.123.367-.218a.963.963 0 00.245-.338.892.892 0 00.072-.399.907.907 0 00-.07-.397.978.978 0 00-.24-.338 1.086 1.086 0 00-.366-.222 1.163 1.163 0 00-.434-.07 1.18 1.18 0 00-.792.285m3.25 2.372l.579-3.302h.695l.896 1.974.903-1.974h.688l.58 3.302h-.83l-.286-1.975-.909 1.975h-.292L42.8 29.95l-.286 1.975h-.835zm8.053-3.302v3.302h-.835v-2.66h-1.366v2.66h-.835v-3.302h3.036zm2.97 2.677h-1.366l-.28.625h-.86l1.45-3.302h.763l1.427 3.302h-.866l-.268-.625zm-.238-.586l-.445-1.115-.445 1.115h.89zm2.664-.836h1.439v-1.255h.835v3.302h-.835V30.52h-1.439v1.406h-.835v-3.302h.835v1.255zm3.951-1.256v2.159l1.67-2.198h.738v3.341h-.835v-2.164l-1.67 2.203h-.738v-3.341h.835zm5.719 3.302h-.836V30.72h-.11l-.847 1.205h-.963l1.036-1.294a1.013 1.013 0 01-.512-.234.93.93 0 01-.24-.335.86.86 0 01-.065-.396.967.967 0 01.293-.725c.134-.113.292-.2.464-.254.172-.055.354-.077.536-.064h1.22l.024 3.302zm-.836-2.677h-.195a.856.856 0 00-.493.117.426.426 0 00-.116.15.392.392 0 00-.037.18.376.376 0 00.032.172.407.407 0 00.108.145.802.802 0 00.506.123h.195v-.887z" fill="#fff"/></svg>