<svg width="75" height="37" fill="none" xmlns="http://www.w3.org/2000/svg"><g clip-path="url(#clip0)" fill="#fff"><path d="M29.111 26.416l-.008.032C7.967 34.484-8.679 14.472 15.441 0h16.986c-8.445 1.99-18.793 7.65-21.842 14.279C7.55 20.884 12.23 29.45 29.111 26.416z"/><path d="M11.43 14.66c-1.697 3.687-.482 7.654 3.057 9.684h.912V9.558c-1.753 1.589-3.15 3.31-3.97 5.101zM0 1.516v4.877h6.341c1.491-1.85 3.269-3.455 5.177-4.877H0zm2.618 14.337c-.014-2.807 1.004-5.5 2.53-7.826H0v16.316h6.322c-2.288-2.246-3.69-5.276-3.704-8.49zM30.312 1.517c-4.559 1.388-9.476 3.751-13.256 6.661v8.015h6.617V6.394h17.702V1.517H30.312zm42.26 20.784c-.107.188-.343.46-.838.46h-.982v-2.527c0-.14.12-.256.262-.256h.79c.139 0 .607.026.8.51.091.238.099.531.099.87 0 .39-.008.702-.131.943zM74.344 19c-.562-.58-1.352-.622-1.748-.622h-2.953c-.655 0-1.137.516-1.137 1.081v7.082h2.243v-2.176h1.66c.626 0 1.544-.055 2.09-.827.471-.666.495-1.832.495-2.35.003-.573-.043-1.567-.65-2.188zm-10.586.927c.16-.09.514-.103.776-.103.112 0 .412.01.597.048.332.066.41.246.41.404 0 .111-.046.317-.37.317h-1.657c-.021-.304.014-.544.244-.666zm-.14 2.551a.857.857 0 01-.104-.484h3.306c.206 0 .402-.01.592-.169.342-.27.366-.713.366-1.097 0-.653-.067-1.546-.653-2.006-.479-.386-1.28-.407-2.5-.407-1.145 0-2.302.021-2.861.587-.55.552-.493 1.446-.493 2.537 0 1.084.048 1.716.31 2.147.482.777 1.245.777 2.15.777h3.833v-1.6h-2.936c-.402 0-.814.022-1.01-.285zm-3.068 1.885V18.38h-2.244v2.096h-1.991V18.38h-2.24v5.982h2.24v-2.281h1.991v2.28h2.243zm-18.961-4.436c.16-.09.516-.103.781-.103.11 0 .41.01.59.048.334.066.411.246.411.404 0 .111-.045.317-.364.317h-1.654c-.027-.304.008-.544.236-.666zm-.134 2.551a.866.866 0 01-.105-.484h3.3c.207 0 .402-.01.595-.169.343-.27.364-.713.364-1.097 0-.653-.064-1.546-.65-2.006-.48-.386-1.28-.407-2.503-.407-1.143 0-2.3.021-2.862.587-.546.552-.487 1.446-.487 2.537 0 1.084.046 1.716.308 2.147.482.777 1.245.777 2.15.777h3.83v-1.6h-2.936c-.4 0-.817.022-1.004-.285zm-5.115 1.885v-4.404h2.26v-1.578h-6.764v1.578h2.262v4.404h2.243zm-5.12 0V18.38h-2.245v2.096h-1.99V18.38h-2.237v5.982h2.238v-2.281h1.989v2.28h2.245zm-9.865-1.943c-.099.148-.38.407-.985.407-.688 0-.948-.341-.993-.407-.091-.12-.22-.394-.22-1.05 0-.7.137-.956.22-1.075.113-.143.378-.378.993-.378.616 0 .883.235.993.378.118.158.22.444.22 1.075.002.431-.046.804-.228 1.05zm1.716-3.5c-.664-.573-1.74-.608-2.698-.608-.961 0-2.035.035-2.701.608-.75.666-.795 1.853-.795 2.45 0 .603.048 1.785.795 2.448.67.579 1.74.613 2.7.613.96 0 2.035-.034 2.699-.613.752-.666.798-1.845.798-2.448 0-.597-.046-1.784-.798-2.45zm29.284-4.905V12.5h-2.221c-.343 0-.924.04-1.202-.407-.056-.103-.182-.352-.182-1.036 0-.304.021-.553.099-.788.128-.388.39-.724 1.156-.724h2.348V8.033h-3.386c-.723 0-1.365.135-1.834.618-.626.645-.68 1.584-.68 2.45 0 .915.075 1.663.54 2.203.552.644 1.34.713 1.856.713h3.506m-6.745-.002V8.03h-2.245v2.102h-1.99V8.03h-2.242v5.985h2.243v-2.282h1.989v2.282h2.245z"/><path d="M36.082 12.04c0 .1-.01.214-.115.29-.07.056-.22.078-.332.078h-1.17c-.254 0-.406-.149-.398-.402.013-.244.195-.341.42-.341h1.593v.375h.002zm1.668-3.492c-.263-.264-.752-.518-1.496-.518h-4.016v1.491h3.047c.224 0 .516.013.685.235a.632.632 0 01.115.397v.09h-2.653c-.358 0-.747.01-1.079.261-.484.363-.527.994-.527 1.51 0 .475.022 1.268.493 1.683.32.296.733.318 1.11.318h3.569c.342 0 .744-.022 1.03-.318.27-.282.3-.645.3-.96v-2.505c-.003-.489-.072-1.2-.578-1.684zm-8.94 3.402c-.104.19-.345.458-.838.458h-.982V9.883c0-.14.12-.248.26-.248h.792c.136 0 .605.02.798.507.09.233.104.529.104.87.003.383-.008.695-.134.938zm1.772-3.301c-.562-.574-1.349-.619-1.75-.619h-2.95c-.653 0-1.138.513-1.138 1.079v7.086h2.243v-2.18h1.66c.629 0 1.544-.056 2.096-.825.466-.666.49-1.832.49-2.35.002-.57-.046-1.57-.65-2.191zm19.188 9.507c1.454 0 2.584-.79 2.584-1.96h-1.475c0 .514-.487.803-1.108.803-.624 0-1.111-.288-1.111-.804h-1.475c0 1.171 1.13 1.961 2.585 1.961zm2.193.159c-.685 0-.867.225-1.052.452l-2.195 2.717c-.048.058-.115.175-.206.175-.089 0-.105-.07-.105-.175l.113-3.103h-2.24v4.922c0 1.036.789 1.131 1.279 1.131.492 0 .757-.056 1.132-.52l2.152-2.655c.08-.09.134-.182.204-.182.09 0 .09.093.09.182l-.112 3.104h2.243V19.51c0-.307-.018-1.195-1.303-1.195zM2.044 33.305H.845v2.889H.002v-3.59h2.042v.701zm1.75-.7c.316 0 .666.042.955.296.311.27.357.623.357.872 0 .452-.174.705-.311.846-.29.29-.672.317-.929.317h-.514v1.258h-.84v-3.59h1.282zm-.442 1.652h.3c.115 0 .316-.006.452-.135a.497.497 0 00.137-.355.462.462 0 00-.137-.348c-.125-.12-.305-.135-.468-.135h-.284v.973zm2.844-1.652l.766 1.657.73-1.657H8.6l-1.668 3.589h-.907l.53-1.034-1.301-2.555h.942zm5.898 0v3.589h-.841v-2.889H9.872v2.889h-.84v-3.59h3.062zm3.862 0v3.589h-.841v-2.889h-1.384v2.889h-.84v-3.59h3.065zm2.937 2.91h-1.376l-.278.676h-.876l1.47-3.59h.768l1.438 3.59h-.873l-.273-.676zm-.23-.635l-.447-1.205-.453 1.205h.9zm3.898-.78l1.245-1.495h1.028l-1.475 1.7 1.59 1.886h-1.082l-1.306-1.594v1.594h-.84v-3.59h.84v1.5zm5.817-1.054c.346.327.568.8.568 1.356 0 .478-.174.967-.568 1.345-.34.322-.797.526-1.407.526-.683 0-1.146-.27-1.42-.526a1.813 1.813 0 01-.567-1.335c0-.515.236-1.039.563-1.361.246-.24.698-.526 1.424-.526.567-.003 1.04.172 1.407.52zm-2.21.55c-.158.15-.324.414-.324.81a1.074 1.074 0 001.116 1.102c.372.001.634-.134.808-.306.142-.134.316-.388.316-.8a1.12 1.12 0 00-.316-.807 1.18 1.18 0 00-.803-.306 1.104 1.104 0 00-.797.306zm3.236 2.598l.584-3.59h.698l.908 2.147.907-2.146h.699l.583 3.589h-.84l-.29-2.141-.912 2.141h-.294l-.913-2.141-.29 2.141h-.84zm8.072-3.589v3.589h-.84v-2.889h-1.381v2.889h-.84v-3.59h3.061zm2.94 2.91H39.04l-.278.676h-.875l1.47-3.59h.767l1.438 3.59h-.873l-.273-.676zm-.23-.635l-.447-1.205-.452 1.205h.899zm2.625-.909h1.454v-1.366h.84v3.589h-.84v-1.523H42.81v1.523h-.84v-3.59h.84v1.367zm3.932-1.367v2.345l1.686-2.39h.742v3.632h-.84v-2.35l-1.687 2.395h-.742v-3.632h.84zm4.07 0v2.345l1.686-2.39h.742v3.632h-.84v-2.35l-1.687 2.395h-.741v-3.632h.84zm1.88-.94a1.072 1.072 0 01-.416.483c-.217.13-.452.15-.672.15-.214 0-.447-.02-.666-.15a1.087 1.087 0 01-.415-.484l.578-.24c.038.098.11.203.18.259.083.058.208.09.334.09.083 0 .214-.01.321-.09a.552.552 0 00.174-.26l.581.241zm3.537 4.178l-.44.307-.847-1.163.846-1.155.431.296-.634.861.645.854zm1.136 0l-.442.307-.846-1.163.846-1.155.431.296-.634.861.645.854zm3.637-3.237v2.9h.41V37h-.755v-.806h-2.235V37h-.755v-1.496a.807.807 0 00.41-.198c.305-.28.31-.79.31-1.184v-1.517h2.615zm-1.804 1.49c0 .249-.01.619-.07.84a1.295 1.295 0 01-.326.572h1.37v-2.21h-.971v.798h-.003zm4.725-.79h-1.218v.693h1.156v.7h-1.156v.796h1.218v.7h-2.059v-3.59h2.059v.701zm3.692-.7v3.589h-.84v-2.89h-.989v1.233c0 .613-.075 1.126-.366 1.414-.153.15-.404.285-.82.285a1.36 1.36 0 01-.34-.042v-.743a.642.642 0 00.21.032.466.466 0 00.331-.119c.153-.15.164-.468.164-.753v-2.006h2.65zm4.024.441c.346.327.568.8.568 1.356 0 .478-.174.967-.568 1.345-.34.322-.797.526-1.408.526-.682 0-1.145-.27-1.418-.526a1.813 1.813 0 01-.568-1.335c0-.515.236-1.039.562-1.361.246-.24.699-.526 1.424-.526.568-.003 1.044.172 1.408.52zm-2.21.55c-.159.15-.325.414-.325.81 0 .329.11.593.335.807.236.222.495.296.782.296.372 0 .634-.135.808-.306.142-.135.316-.389.316-.801a1.12 1.12 0 00-.316-.807 1.18 1.18 0 00-.803-.306 1.108 1.108 0 00-.798.306zm3.155.531l.43-.296.847 1.155-.846 1.163-.442-.307.645-.856-.634-.86zm1.135 0l.43-.296.847 1.155-.846 1.163-.442-.307.645-.856-.634-.86z"/></g><defs><clipPath id="clip0"><path fill="#fff" d="M0 0h75v37H0z"/></clipPath></defs></svg>