<svg width="121" height="35" fill="none" xmlns="http://www.w3.org/2000/svg"><path d="M17.882 18.552V7.919H7.967v3.761h5.142v2.856H4.771V8.824c0-.71 0-2.269.744-3.144.667-.774 1.785-.808 2.665-.808h9.49c.88 0 2.001.034 2.668.808.744.875.744 2.435.744 3.144v8.823c0 .71 0 2.265-.744 3.145-.663.773-1.789.807-2.669.807H8.18c-.798 0-1.941-.034-2.638-.778-.719-.777-.77-2.01-.77-3.017v-.455l3.2-.68v1.879h9.91v.004z" fill="#fff"/><path d="M3.2 3.848v10.637h9.915v-3.761H7.972V7.868h8.343v5.707c0 .714 0 2.266-.744 3.145-.667.778-1.79.812-2.665.812H3.413c-.884 0-2.002-.034-2.67-.812C0 15.84 0 14.294 0 13.575V4.757c0-.714 0-2.273.744-3.149C1.41.831 2.529.801 3.413.801h9.485c.799 0 1.946.03 2.639.777.714.778.77 2.015.77 3.014v.293h-3.175l-.022-1.037H3.2zm24.66 16.204h3.816V13.36h1.139c1.589.025 2.328.582 2.804 2.728.48 2.1.91 3.468 1.165 3.965h3.94c-.324-.65-.834-2.877-1.365-4.827-.43-1.569-1.088-2.678-2.273-3.158v-.077c1.466-.53 3.008-2.022 3.008-4.169 0-1.563-.556-2.779-1.59-3.59-1.215-.961-2.987-1.335-5.511-1.335-2.074 0-3.897.149-5.134.348v16.808zm3.816-14.151c.284-.077.811-.128 1.746-.128 1.772 0 2.83.808 2.83 2.346 0 1.496-1.138 2.456-3.055 2.456h-1.521V5.901zM42.72 3.019v9.507c0 5.405 2.503 7.807 6.8 7.807 4.449 0 7.105-2.495 7.105-7.756V3.019H52.78v9.783c0 3.034-1.114 4.45-3.132 4.45-1.947 0-3.086-1.492-3.086-4.45V3.02h-3.841zm16.586 16.226c.965.53 2.882 1.062 4.828 1.062 4.675 0 6.846-2.426 6.846-5.282 0-2.401-1.385-3.965-4.398-5.079-2.223-.837-3.162-1.317-3.162-2.4 0-.86.812-1.645 2.478-1.645a7.98 7.98 0 013.54.807l.858-3.085c-1.011-.48-2.397-.859-4.343-.859-3.995 0-6.447 2.197-6.447 5.104 0 2.478 1.87 4.046 4.705 5.057 2.044.706 2.86 1.318 2.86 2.38 0 1.11-.935 1.845-2.707 1.845-1.64 0-3.26-.532-4.276-1.063l-.782 3.158zm26.234-2.678c-.782.332-2.044.553-3.23.553-3.413 0-5.44-2.146-5.44-5.559 0-3.79 2.38-5.635 5.415-5.635 1.39 0 2.473.302 3.23.629l.811-3.03c-.68-.378-2.197-.76-4.199-.76-5.155 0-9.302 3.208-9.302 9.021 0 4.854 3.034 8.542 8.924 8.542 2.048 0 3.668-.403 4.347-.73l-.556-3.03zm9.86-13.85c-5.007 0-8.292 3.817-8.292 8.925 0 4.879 2.983 8.69 8.015 8.69 5.006 0 8.363-3.357 8.363-8.966.005-4.734-2.851-8.648-8.087-8.648zm-.077 3.056c2.656 0 4.1 2.626 4.1 5.712 0 3.31-1.491 5.788-4.1 5.788-2.576 0-4.144-2.354-4.144-5.716-.004-3.306 1.517-5.784 4.144-5.784zm14.232 14.28v-5.13c0-2.78-.051-5.18-.174-7.459h.097c.812 1.998 1.947 4.2 2.958 6.014l3.638 6.57h4.046V3.019h-3.54v4.955c0 2.58.076 4.88.301 7.127h-.046c-.782-1.92-1.768-4.046-2.775-5.839l-3.549-6.243h-4.492v17.033h3.536zM3.543 28.581H1.635v4.645H.301v-5.77h3.242v1.125zm2.78-1.126c.501 0 1.058.068 1.517.476.493.434.565 1.003.565 1.402 0 .727-.276 1.13-.493 1.36-.459.468-1.066.51-1.474.51h-.816v2.023H4.287v-5.77h2.036zm-.701 2.656h.476c.183 0 .501-.008.718-.216a.817.817 0 00.217-.574c0-.243-.085-.442-.217-.561-.2-.191-.484-.217-.744-.217h-.45v1.568zm4.521-2.656l1.216 2.665 1.16-2.665h1.44l-2.647 5.771h-1.44l.84-1.661-2.065-4.11h1.496zm9.371 0v5.771h-1.335v-4.645h-2.193v4.645h-1.334v-5.77h4.862zm6.136 0v5.771h-1.334v-4.645h-2.192v4.645h-1.335v-5.77h4.862zm4.675 4.679H28.14l-.442 1.088h-1.39l2.334-5.771h1.22l2.282 5.771h-1.386l-.433-1.088zm-.366-1.02l-.71-1.938-.718 1.938h1.428zm6.201-1.254l1.976-2.405h1.632l-2.342 2.733 2.52 3.038H38.23l-2.074-2.562v2.562H34.82v-5.77h1.335v2.404h.004zm9.239-1.695c.548.527.9 1.288.9 2.18 0 .77-.276 1.555-.9 2.163-.54.518-1.267.85-2.236.85-1.083 0-1.819-.433-2.252-.85-.557-.518-.901-1.296-.901-2.146 0-.829.374-1.67.892-2.189.391-.386 1.11-.845 2.261-.845.901 0 1.658.276 2.236.837zm-3.51.884c-.251.242-.515.667-.515 1.309 0 .527.174.952.531 1.296.374.357.79.476 1.241.476.59 0 1.007-.217 1.284-.493.225-.217.501-.625.501-1.288 0-.599-.242-1.037-.501-1.3a1.861 1.861 0 00-1.275-.493c-.502 0-.956.178-1.267.493zm5.151 4.177l.926-5.77h1.109l1.44 3.45 1.441-3.45h1.11l.926 5.77h-1.334l-.46-3.442-1.449 3.442h-.467l-1.45-3.442-.458 3.442h-1.335zm12.825-5.771v5.771h-1.334v-4.645h-2.193v4.645h-1.334v-5.77h4.861zm4.67 4.679h-2.184l-.442 1.088h-1.39l2.333-5.771h1.22l2.282 5.771h-1.386l-.433-1.088zm-.365-1.02l-.71-1.938-.718 1.938h1.428zm4.177-1.462h2.308v-2.197h1.335v5.771h-1.335v-2.448h-2.308v2.448h-1.334v-5.77h1.334v2.196zm6.251-2.197v3.77l2.678-3.842h1.177v5.843h-1.335v-3.782l-2.677 3.85h-1.177v-5.839h1.334zm6.469 0v3.77l2.677-3.842h1.181v5.843h-1.334v-3.782l-2.677 3.85h-1.177v-5.839h1.33zm2.979-1.513a1.74 1.74 0 01-.659.778c-.344.208-.718.242-1.067.242-.34 0-.71-.034-1.058-.242a1.74 1.74 0 01-.659-.778l.918-.39c.06.157.175.33.285.416.132.098.332.148.531.148.132 0 .34-.017.51-.148a.89.89 0 00.277-.417l.922.391zm5.937 6.723l-.701.493-1.343-1.87 1.343-1.86.684.475-1.007 1.385 1.024 1.377zm1.802 0l-.701.493-1.343-1.87 1.343-1.86.684.475-1.007 1.385 1.024 1.377zm5.779-5.21v4.662h.65v2.405h-1.198v-1.296h-3.549v1.296H92.27v-2.405c.374-.068.6-.268.65-.319.485-.45.493-1.27.493-1.903v-2.44h4.152zm-2.86 2.397c0 .4-.017.994-.11 1.351-.068.251-.209.6-.519.918h2.176v-3.557h-1.543v1.288h-.004zm7.505-1.271h-1.934v1.114h1.836v1.126h-1.836v1.28h1.934v1.125h-3.268v-5.77h3.268v1.125zm5.869-1.126v5.771h-1.334v-4.645h-1.569v1.98c0 .987-.119 1.807-.582 2.274-.242.242-.642.46-1.3.46-.2 0-.374-.026-.54-.069v-1.194c.098.034.208.051.332.051.225 0 .416-.076.526-.191.243-.242.26-.752.26-1.211v-3.226h4.207zm6.396.71c.548.527.901 1.288.901 2.18a2.98 2.98 0 01-.901 2.163c-.54.518-1.266.85-2.235.85-1.084 0-1.819-.433-2.253-.85-.556-.518-.901-1.296-.901-2.146 0-.829.374-1.67.893-2.189.391-.386 1.109-.845 2.261-.845.901 0 1.657.276 2.235.837zm-3.51.884c-.251.242-.515.667-.515 1.309 0 .527.175.952.532 1.296.374.357.79.476 1.241.476.59 0 1.007-.217 1.283-.493.225-.217.501-.625.501-1.288 0-.599-.242-1.037-.501-1.3a1.862 1.862 0 00-1.275-.493c-.506 0-.956.178-1.266.493zm5.235.854l.684-.476 1.343 1.861-1.343 1.87-.701-.493 1.024-1.377-1.007-1.385zm1.806 0l.684-.476 1.343 1.861-1.343 1.87-.701-.493 1.024-1.377-1.007-1.385z" fill="#fff"/></svg>