<svg width="21" height="21" fill="none" xmlns="http://www.w3.org/2000/svg"><path d="M10.264 2.77c2.666 0 2.983.008 4.041.058 2.709.125 3.975 1.408 4.1 4.1.05 1.058.059 1.375.059 4.041 0 2.667-.009 2.984-.059 4.042-.125 2.692-1.383 3.975-4.1 4.1-1.058.05-1.366.058-4.041.058-2.667 0-2.984-.008-4.042-.058-2.717-.125-3.975-1.417-4.1-4.1-.05-1.058-.058-1.367-.058-4.042 0-2.666.008-2.983.058-4.041.125-2.692 1.392-3.975 4.1-4.1 1.058-.042 1.375-.059 4.042-.059zm0-1.8c-2.717 0-3.059.008-4.125.058C2.514 1.194.489 3.21.322 6.844.272 7.911.264 8.253.264 10.97c0 2.717.008 3.059.058 4.125.167 3.634 2.183 5.65 5.817 5.817 1.066.05 1.408.058 4.125.058 2.716 0 3.058-.008 4.125-.058 3.625-.167 5.65-2.183 5.816-5.817.05-1.066.059-1.408.059-4.125 0-2.716-.009-3.058-.059-4.125-.166-3.625-2.183-5.65-5.816-5.816C13.322.979 12.98.97 10.264.97zm0 4.866a5.136 5.136 0 00-5.134 5.133c0 2.834 2.3 5.134 5.134 5.134 2.833 0 5.133-2.3 5.133-5.134 0-2.833-2.3-5.133-5.133-5.133zm0 8.467a3.332 3.332 0 110-6.667 3.332 3.332 0 110 6.667zm5.341-9.875a1.2 1.2 0 100 2.4 1.2 1.2 0 000-2.4z" fill="#fff"/></svg>