<svg width="18" height="16" fill="none" xmlns="http://www.w3.org/2000/svg"><path d="M17.867 2.244c-.655.29-1.31.523-2.02.582.71-.466 1.31-1.221 1.53-2.093-.71.407-1.42.755-2.24.93A3.366 3.366 0 0012.573.5c-1.966 0-3.549 1.686-3.549 3.78 0 .29.055.58.11.871-2.949-.174-5.57-1.628-7.316-3.953a3.841 3.841 0 00-.492 1.918c0 1.28.6 2.442 1.583 3.14a2.85 2.85 0 01-1.583-.465v.058c0 1.802 1.201 3.372 2.84 3.72a4.483 4.483 0 01-.929.117c-.218 0-.437 0-.655-.058.437 1.511 1.747 2.558 3.33 2.616-1.2.989-2.73 1.628-4.367 1.628-.273 0-.546 0-.82-.058C2.309 14.86 4.165 15.5 6.13 15.5c6.496 0 10.045-5.756 10.045-10.698v-.465c.6-.64 1.201-1.337 1.692-2.093z" fill="#fff"/></svg>