<svg width="78" height="55" viewBox="0 0 78 55" fill="none" xmlns="http://www.w3.org/2000/svg">
<path d="M52.2461 0H50.444V46.6081H52.2461V0Z" fill="white"/>
<path d="M27.5678 35.9071C27.6937 38.203 28.6303 40.382 30.2139 42.0634C31.7975 43.7448 33.9274 44.8216 36.2314 45.1056C38.5354 45.3896 40.8669 44.8627 42.8184 43.6171C44.7699 42.3715 46.2173 40.4863 46.9077 38.2911H48.7778C48.0377 41.1491 46.226 43.6206 43.7111 45.2028C41.1963 46.7849 38.1673 47.3589 35.2403 46.808C32.3133 46.257 29.7081 44.6225 27.9548 42.237C26.2016 39.8514 25.4318 36.894 25.8022 33.9664C26.1726 31.0387 27.6553 28.3608 29.9487 26.4773C32.2421 24.5939 35.1739 23.6464 38.1477 23.8276C41.1215 24.0087 43.9139 25.305 45.9568 27.4527C47.9998 29.6004 49.1398 32.4381 49.145 35.3886C49.145 35.5637 49.145 35.7388 49.145 35.9071H27.5678ZM37.4486 25.5902C35.0446 25.5901 32.7228 26.4567 30.9169 28.0281C29.1111 29.5996 27.9447 31.7684 27.6358 34.1293H47.2681C46.9576 31.7678 45.7899 29.5989 43.9829 28.0276C42.176 26.4563 39.8533 25.5899 37.4486 25.5902Z" fill="white"/>
<path d="M12.6613 23.8058C14.6359 23.8025 16.5791 24.295 18.3094 25.2371C20.0397 26.1793 21.5006 27.5403 22.5557 29.1932V0H24.3578V35.3888C24.3578 37.6796 23.6718 39.9191 22.3866 41.8239C21.1013 43.7287 19.2746 45.2134 17.1373 46.09C15.0001 46.9667 12.6483 47.1961 10.3794 46.7492C8.11055 46.3023 6.02644 45.1991 4.39066 43.5792C2.75488 41.9593 1.6409 39.8954 1.18959 37.6485C0.738283 35.4016 0.969912 33.0727 1.85519 30.9561C2.74047 28.8396 4.23963 27.0306 6.1631 25.7578C8.08657 24.4851 10.348 23.8058 12.6613 23.8058ZM12.6613 25.5903C10.7025 25.589 8.78723 26.1631 7.15794 27.24C5.52866 28.3169 4.25854 29.8482 3.50831 31.6401C2.75807 33.432 2.56142 35.4041 2.94324 37.3067C3.32506 39.2094 4.2682 40.9571 5.65331 42.3288C7.03843 43.7004 8.80327 44.6344 10.7245 45.0126C12.6458 45.3907 14.6372 45.1959 16.4467 44.453C18.2561 43.71 19.8024 42.4522 20.8899 40.8387C21.9773 39.2253 22.557 37.3286 22.5557 35.3888C22.5566 34.1018 22.3013 32.8272 21.8043 31.638C21.3074 30.4488 20.5786 29.3683 19.6597 28.4583C18.7407 27.5482 17.6496 26.8265 16.4488 26.3344C15.2479 25.8423 13.9609 25.5895 12.6613 25.5903Z" fill="white"/>
<path d="M65.1732 35.2003H59.6718C59.703 33.3541 60.0007 31.5218 60.5558 29.759C62.0658 30.1376 63.6156 30.3388 65.1732 30.3583V35.2003ZM65.1732 40.6484C63.6156 40.6735 62.0662 40.8769 60.5558 41.2544C60.0007 39.4917 59.703 37.6594 59.6718 35.8131H65.1732V40.6484ZM65.7852 35.8131H71.2798C71.2542 37.6593 70.9587 39.4921 70.4026 41.2544C68.8922 40.8769 67.3428 40.6735 65.7852 40.6484V35.8131ZM65.7852 30.3583C67.3428 30.3388 68.8925 30.1376 70.4026 29.759C70.9587 31.5213 71.2542 33.3541 71.2798 35.2003H65.7852V30.3583ZM56.1016 42.9515C54.4546 40.9235 53.5274 38.4149 53.4631 35.8131H59.0597C59.0849 37.7116 59.3873 39.5965 59.9574 41.4093C58.6217 41.7898 57.3295 42.3066 56.1016 42.9515ZM62.8475 47.1402C60.3964 46.5947 58.1798 45.3016 56.5096 43.4431C57.6629 42.8403 58.875 42.3552 60.1274 41.9952C60.7779 43.8315 61.6942 45.5646 62.8475 47.1402ZM65.1732 47.4163C64.6929 47.4091 64.2136 47.3709 63.7383 47.3018C62.4513 45.6547 61.4409 43.8128 60.7462 41.8471C62.1953 41.4914 63.6804 41.2994 65.1732 41.2747V47.4163ZM67.2132 47.3018C66.7403 47.3709 66.2632 47.4091 65.7852 47.4163V41.2612C67.2757 41.2855 68.7586 41.4776 70.2054 41.8336C69.5161 43.8017 68.5053 45.6445 67.2132 47.2884V47.3018ZM74.4487 43.4296C72.7794 45.2917 70.563 46.5893 68.1109 47.1402C69.2645 45.5697 70.1809 43.841 70.831 42.0087C72.092 42.363 73.3133 42.8436 74.4759 43.4431L74.4487 43.4296ZM77.5225 35.8266C77.4582 38.4284 76.531 40.9369 74.8839 42.965C73.6501 42.3141 72.351 41.7928 71.0078 41.4093C71.5779 39.5965 71.8802 37.7116 71.9054 35.8131L77.5225 35.8266ZM74.8839 28.0754C76.5323 30.1027 77.4597 32.6117 77.5225 35.2138H71.9258C71.8915 33.3189 71.5823 31.4388 71.0078 29.631C72.3433 29.2529 73.6355 28.7383 74.8635 28.0956L74.8839 28.0754ZM68.1177 23.9204C70.5648 24.4671 72.7783 25.7573 74.4487 27.6108C73.2861 28.2102 72.0648 28.6908 70.8038 29.0452C70.1565 27.2116 69.24 25.4825 68.0837 23.9136L68.1177 23.9204ZM65.758 23.6308C66.236 23.6435 66.7128 23.684 67.1861 23.752C68.4781 25.3959 69.4889 27.2387 70.1782 29.2068C68.7314 29.5628 67.2485 29.7549 65.758 29.7792V23.6308ZM63.7179 23.752C64.1934 23.684 64.6725 23.6436 65.1528 23.6308V29.7792C63.66 29.7544 62.1749 29.5624 60.7258 29.2068C61.4205 27.241 62.4309 25.3991 63.7179 23.752ZM56.5096 27.6108C58.1759 25.7423 60.393 24.4396 62.8475 23.8867C61.694 25.4573 60.7777 27.186 60.1274 29.0182C58.8766 28.6712 57.6645 28.1997 56.5096 27.6108ZM53.4631 35.2003C53.5258 32.5982 54.4532 30.0892 56.1016 28.062C57.3283 28.7163 58.6206 29.2421 59.9574 29.631C59.3878 31.4463 59.0855 33.3333 59.0597 35.234L53.4631 35.2003Z" fill="white"/>
<path d="M1.41392 54.8644H2.74678V51.275H4.27003V50.1436H1.41392V54.8644Z" fill="white"/>
<path d="M5.10665 54.8645H6.4667V53.3089H7.14673C7.51468 53.3205 7.87823 53.227 8.19397 53.0395C8.43241 52.8948 8.62 52.6808 8.73119 52.4267C8.8267 52.2146 8.87761 51.9855 8.8808 51.7533C8.88111 51.5214 8.83247 51.292 8.73799 51.0798C8.62045 50.8279 8.43443 50.6134 8.20077 50.4603C7.88177 50.2753 7.51614 50.1842 7.14673 50.1976H5.10665V54.8645ZM6.4667 51.1808H6.84752C6.9461 51.17 7.04588 51.1807 7.13986 51.2121C7.23383 51.2435 7.31974 51.2949 7.39154 51.3627C7.46798 51.4658 7.50639 51.5918 7.50034 51.7196C7.50387 51.844 7.46822 51.9664 7.39834 52.0698C7.32761 52.1421 7.24141 52.1977 7.14609 52.2327C7.05077 52.2677 6.94874 52.281 6.84752 52.2718H6.4463L6.4667 51.1808Z" fill="white"/>
<path d="M9.34965 50.1436L11.1449 53.5646L10.4989 54.8644H11.9269L14.0758 50.1436H12.6206L11.8589 52.1302L10.9273 50.1436H9.34965Z" fill="white"/>
<path d="M14.7628 50.1436V54.8644H16.1024V51.275H17.6801V54.8644H19.0197V50.1436H14.7628Z" fill="white"/>
<path d="M20.1822 50.1436V54.8644H21.5151V51.275H23.0995V54.8644H24.4324V50.1436H20.1822Z" fill="white"/>
<path d="M25.1199 54.8641H26.5479L26.8064 54.0493H28.4384L28.7036 54.8641H30.1317L28.4384 50.1501H26.8064L25.1199 54.8641ZM27.6292 51.268L28.1732 53.0122H27.0852L27.6292 51.268Z" fill="white"/>
<path d="M34.6326 54.8644H35.9655V52.8373L37.3459 54.8644H39.0188L37.1555 52.4333L38.9712 50.1436H37.4003L35.9655 52.1302V50.1436H34.6326V54.8644Z" fill="white"/>
<path d="M42.0522 54.999C42.5575 55.0128 43.0568 54.8869 43.4939 54.6353C43.8589 54.4148 44.1518 54.0944 44.3371 53.7127C44.5208 53.3357 44.6162 52.9225 44.6162 52.5039C44.6162 52.0853 44.5208 51.6721 44.3371 51.2951C44.1498 50.9148 43.8574 50.5948 43.4939 50.3725C43.0528 50.1338 42.5582 50.0087 42.0556 50.0087C41.553 50.0087 41.0584 50.1338 40.6174 50.3725C40.2536 50.5966 39.9594 50.9159 39.7673 51.2951C39.5883 51.6734 39.4955 52.0861 39.4955 52.5039C39.4955 52.9217 39.5883 53.3344 39.7673 53.7127C39.9577 54.0931 40.2522 54.4128 40.6174 54.6353C41.0525 54.8856 41.5492 55.0115 42.0522 54.999ZM42.0522 53.8676C41.8993 53.8689 41.7477 53.8397 41.6063 53.7819C41.465 53.7241 41.3368 53.6387 41.2294 53.5309C40.9855 53.2536 40.8567 52.8951 40.869 52.5275C40.8493 52.1527 40.9787 51.7853 41.2294 51.5039C41.337 51.3949 41.4656 51.3084 41.6074 51.2493C41.7493 51.1902 41.9017 51.1598 42.0556 51.1598C42.2095 51.1598 42.3619 51.1902 42.5038 51.2493C42.6456 51.3084 42.7742 51.3949 42.8818 51.5039C43.1326 51.7853 43.2619 52.1527 43.2423 52.5275C43.2598 52.9019 43.1307 53.2686 42.8818 53.5511C42.7736 53.6597 42.6443 53.7456 42.5018 53.8034C42.3592 53.8613 42.2063 53.89 42.0522 53.8878" fill="white"/>
<path d="M45.2343 54.8644H46.5128L46.8732 52.1302L47.6756 54.8644H48.5325L49.3349 52.1302L49.6953 54.8644H50.9738L50.2801 50.1436H48.9405L48.104 53.0259L47.2676 50.1436H45.928L45.2343 54.8644Z" fill="white"/>
<path d="M51.8102 50.1436V54.8644H53.143V51.275H54.7275V54.8644H56.0604V50.1436H51.8102Z" fill="white"/>
<path d="M56.7268 54.8641H58.1549L58.4201 54.0493H60.0453L60.3105 54.8641H61.7386L60.0453 50.1501H58.4405L56.7268 54.8641ZM59.2361 51.268L59.7801 53.0122H58.7057L59.2361 51.268Z" fill="white"/>
<path d="M62.453 54.8644H63.7859V52.9787H65.4111V54.8644H66.744V50.1436H65.4111V51.8407H63.7859V50.1436H62.453V54.8644Z" fill="white"/>
<path d="M67.9136 50.1436V54.8644H69.226L71.0689 52.0359V54.8644H72.3609V50.1436H71.0485L69.2056 52.9787V50.1436H67.9136Z" fill="white"/>
<path d="M73.5175 50.1437V54.8577H74.8299L76.6728 52.0293V54.8577H77.9648V50.1437H76.6524L74.8095 52.9788V50.1437H73.5175ZM76.4076 48.8507C76.3563 48.9882 76.2542 49.1013 76.122 49.1672C76.0022 49.2203 75.8724 49.2478 75.7412 49.2478C75.6099 49.2478 75.4801 49.2203 75.3603 49.1672C75.294 49.1357 75.2346 49.0915 75.1856 49.0372C75.1366 48.9829 75.0989 48.9195 75.0747 48.8507L74.3063 49.1335C74.435 49.3912 74.6485 49.5978 74.9115 49.7194C75.1731 49.8324 75.4558 49.8897 75.7412 49.8878C76.0266 49.8897 76.3092 49.8324 76.5708 49.7194C76.8336 49.5998 77.0454 49.3924 77.1692 49.1335L76.4076 48.8507Z" fill="white"/>
</svg>
