<svg width="126" height="34" viewBox="0 0 126 34" fill="none" xmlns="http://www.w3.org/2000/svg">
<path d="M0.000417852 1.88743C1.70844 1.62804 3.944 1.49023 6.29631 1.49023C10.2139 1.49023 12.7479 2.14683 14.7326 3.54919C16.8774 5.04071 18.2222 7.41986 18.2222 10.8325C18.2222 14.533 16.7823 17.0823 14.7932 18.659C12.6268 20.3491 9.32318 21.1476 5.28447 21.1476C2.87162 21.1476 1.15495 21.0057 -0.00390625 20.8638V1.88743H0.000417852ZM4.67477 17.6498C5.07259 17.7389 5.71688 17.7389 6.29631 17.7389C10.521 17.7673 13.2668 15.5868 13.2668 10.9744C13.3014 6.96592 10.7891 4.83806 6.78926 4.83806C5.74715 4.83806 5.07691 4.92723 4.67477 5.01234V17.6498Z" fill="white"/>
<path d="M23.9092 15.3315C24.0605 17.1392 25.9545 17.9944 28.1252 17.9944C29.7121 17.9944 31.0007 17.7917 32.2504 17.4188L32.8644 20.3735C31.3337 20.945 29.47 21.2611 27.4506 21.2611C22.3741 21.2611 19.4727 18.4807 19.4727 14.0913C19.4727 10.5408 21.825 6.61743 27.0225 6.61743C31.8526 6.61743 33.6946 10.1395 33.6946 13.613C33.6946 14.3547 33.5995 15.0113 33.539 15.3315H23.9092ZM29.3835 12.3525C29.3835 11.2866 28.8949 9.51537 26.7544 9.51537C24.7956 9.51537 24 11.1771 23.8789 12.3525H29.3835Z" fill="white"/>
<path d="M39.7992 0.598633H35.1465V20.945H39.7992V0.598633Z" fill="white"/>
<path d="M60.4863 1.88743C61.9263 1.66046 63.9456 1.49023 66.7822 1.49023C69.6578 1.49023 71.7074 2.00497 73.0825 3.0385C74.397 4.01124 75.2834 5.6203 75.2834 7.51308C75.2834 9.4018 74.6089 11.0068 73.3895 12.0971C71.7982 13.4994 69.4459 14.1358 66.6958 14.1358C66.0861 14.1358 65.5326 14.1033 65.1002 14.0507V20.9449H60.4863V1.88743ZM65.1002 10.6582C65.5023 10.7434 65.9952 10.7717 66.6655 10.7717C69.1389 10.7717 70.6696 9.59635 70.6696 7.62251C70.6696 5.84322 69.3551 4.78537 67.033 4.78537C66.0861 4.78537 65.4418 4.87048 65.1002 4.9556V10.6582Z" fill="white"/>
<path d="M90.5429 13.7791C90.5429 18.9103 86.6598 21.261 82.6514 21.261C78.2884 21.261 74.9199 18.5657 74.9199 14.0385C74.9199 9.50716 78.1025 6.61328 82.9065 6.61328C87.4814 6.61733 90.5429 9.56796 90.5429 13.7791ZM79.7197 13.925C79.7197 16.3285 80.7877 18.1361 82.7768 18.1361C84.58 18.1361 85.7431 16.446 85.7431 13.925C85.7431 11.8296 84.887 9.71387 82.7768 9.71387C80.5456 9.71387 79.7197 11.862 79.7197 13.925Z" fill="white"/>
<path d="M91.6801 11.5458C91.6801 9.4828 91.6195 8.13718 91.5547 6.93342H95.5675L95.7188 9.51522H95.8356C96.6009 7.47653 98.4343 6.62134 99.8743 6.62134C100.302 6.62134 100.523 6.62134 100.856 6.67808V10.8041C100.523 10.7149 100.121 10.6582 99.6062 10.6582C97.8895 10.6582 96.7306 11.5215 96.4236 12.863C96.3588 13.1549 96.3328 13.4953 96.3328 13.8439V20.9448H91.6844V11.5458H91.6801Z" fill="white"/>
<path d="M109.015 3.11963V6.9295H112.349V10.1395H109.015V15.2099C109.015 16.9041 109.448 17.6782 110.853 17.6782C111.493 17.6782 111.77 17.6498 112.228 17.5607L112.258 20.8558C111.644 21.0828 110.542 21.2571 109.227 21.2571C107.727 21.2571 106.477 20.7383 105.742 20.0209C104.89 19.1941 104.462 17.8444 104.462 15.8665V10.1395H102.469V6.9295H104.462V4.29502L109.015 3.11963Z" fill="white"/>
<path d="M115.008 17.135C115.864 17.6214 117.637 18.1929 119.016 18.1929C120.421 18.1929 121.005 17.7349 121.005 17.0134C121.005 16.3001 120.547 15.9556 118.804 15.4084C115.712 14.4357 114.523 12.855 114.554 11.2297C114.554 8.59117 116.932 6.61328 120.638 6.61328C122.376 6.61328 123.937 6.98616 124.854 7.41579L124.032 10.4272C123.357 10.0827 122.073 9.6247 120.785 9.6247C119.66 9.6247 119.016 10.0543 119.016 10.7717C119.016 11.4324 119.595 11.7728 121.433 12.3727C124.27 13.2887 125.468 14.6383 125.498 16.7013C125.498 19.3075 123.297 21.261 119.016 21.261C117.057 21.261 115.315 20.8314 114.182 20.2559L115.008 17.135Z" fill="white"/>
<path d="M49.3259 13.7833H45.6721C45.6894 12.5917 45.8926 11.4447 46.2558 10.3585C47.2417 10.5895 48.2665 10.7232 49.3259 10.7354V13.7833ZM49.3259 17.2122C48.2709 17.2284 47.2417 17.354 46.2558 17.5891C45.8926 16.507 45.6894 15.3559 45.6721 14.1643H49.3259V17.2122ZM49.7367 14.1643H53.3906C53.369 15.3559 53.1657 16.507 52.8025 17.5891C51.8209 17.354 50.7918 17.2243 49.7324 17.2122V14.1643H49.7367ZM49.7367 10.7354C50.7961 10.7192 51.8253 10.5895 52.8068 10.3585C53.1701 11.4406 53.3733 12.5917 53.3949 13.7833H49.741V10.7354H49.7367ZM43.3025 18.6551C42.2431 17.4189 41.5944 15.8625 41.5469 14.1602H45.2656C45.2872 15.3883 45.4948 16.5677 45.8667 17.6864C44.9672 17.9296 44.1067 18.2538 43.3025 18.6551ZM47.7822 21.2815C46.1261 20.9369 44.6602 20.1061 43.5706 18.9591C44.3359 18.5862 45.1445 18.2822 45.9877 18.0552C46.4201 19.2184 47.0298 20.3006 47.7822 21.2815ZM49.3259 21.4598C49.0059 21.4517 48.6903 21.4274 48.3746 21.3868C47.5271 20.3614 46.8482 19.2063 46.3855 17.9579C47.3282 17.735 48.3141 17.6134 49.3259 17.5972V21.4598ZM50.688 21.3828C50.3767 21.4274 50.0567 21.4517 49.7367 21.4557V17.5891C50.7529 17.6053 51.7345 17.7269 52.6771 17.9498C52.2101 19.2022 51.5355 20.3614 50.688 21.3828ZM55.4964 18.9591C54.4024 20.1061 52.9409 20.9369 51.2847 21.2815C52.0415 20.3047 52.6468 19.2184 53.0749 18.0552C53.9181 18.2781 54.7267 18.5821 55.4964 18.9591ZM57.5201 14.1643C57.4725 15.8625 56.8239 17.4229 55.7688 18.6591C54.9602 18.2579 54.0997 17.9296 53.2046 17.6904C53.5765 16.5759 53.7841 15.3924 53.8057 14.1643H57.5201ZM55.7645 9.28846C56.8196 10.5246 57.4725 12.081 57.5158 13.7833H53.7971C53.7754 12.5552 53.5722 11.3758 53.196 10.2571C54.0997 10.018 54.9559 9.68971 55.7645 9.28846ZM51.2804 6.66613C52.9366 7.01064 54.3981 7.84151 55.4921 8.98853C54.7267 9.36141 53.9138 9.66539 53.0706 9.89236C52.6468 8.72913 52.0371 7.64291 51.2804 6.66613ZM49.7367 6.48779C50.0567 6.4959 50.3767 6.52022 50.688 6.56075C51.5355 7.58617 52.2144 8.74129 52.6771 9.98963C51.7345 10.2126 50.7529 10.3341 49.7367 10.3504V6.48779ZM48.379 6.56075C48.6903 6.51616 49.0103 6.49185 49.3303 6.48779V10.3544C48.3184 10.3382 47.3325 10.2126 46.3899 9.99369C46.8525 8.74535 47.5271 7.58617 48.379 6.56075ZM43.5706 8.98853C44.6602 7.84151 46.1261 7.01064 47.7822 6.66613C47.0298 7.64291 46.4201 8.72913 45.9877 9.89236C45.1445 9.66539 44.3359 9.36141 43.5706 8.98853ZM41.5469 13.7833C41.5901 12.0851 42.2387 10.5246 43.3025 9.28846C44.1111 9.68971 44.9672 10.018 45.8667 10.2571C45.4948 11.3758 45.2872 12.5552 45.2656 13.7833H41.5469Z" fill="white"/>
<path d="M3.30906 27.9282H1.36753V32.3582H0.00976562V26.8582H3.30906V27.9282Z" fill="white"/>
<path d="M6.35682 26.8582C6.86706 26.8582 7.43352 26.923 7.90052 27.3121C8.40212 27.7255 8.47563 28.2686 8.47563 28.6496C8.47563 29.3427 8.19456 29.7277 7.97403 29.9425C7.50703 30.3884 6.88868 30.4289 6.47357 30.4289H5.64334V32.3582H4.28125V26.8582H6.35682ZM5.63902 29.3913H6.12332C6.30925 29.3913 6.63356 29.3832 6.85409 29.1846C6.97517 29.0711 7.07462 28.8806 7.07462 28.6415C7.07462 28.4105 6.98814 28.22 6.85409 28.1065C6.65086 27.9241 6.36114 27.8998 6.09737 27.8998H5.63902V29.3913Z" fill="white"/>
<path d="M10.4654 26.8582L11.7021 29.3994L12.8826 26.8582H14.3485L11.6546 32.3622H10.1887L11.0449 30.7775L8.94336 26.8582H10.4654Z" fill="white"/>
<path d="M20.2202 26.8582V32.3622H18.8624V27.9282H16.6312V32.3581H15.2734V26.8582H20.2202Z" fill="white"/>
<path d="M26.6812 26.8582V32.3622H25.3234V27.9282H23.0921V32.3581H21.7344V26.8582H26.6812Z" fill="white"/>
<path d="M31.6566 31.3207H29.434L28.9843 32.3583H27.5703L29.9442 26.8542H31.1853L33.5073 32.3583H32.0977L31.6566 31.3207ZM31.2847 30.348L30.5626 28.4998L29.8318 30.348H31.2847Z" fill="white"/>
<path d="M38.0316 29.1522L40.0423 26.8582H41.7028L39.3202 29.4643L41.8887 32.3622H40.1418L38.0316 29.9182V32.3622H36.6738V26.8582H38.0316V29.1522Z" fill="white"/>
<path d="M47.6568 27.5351C48.2146 28.0376 48.5735 28.7631 48.5735 29.6143C48.5735 30.3479 48.2924 31.0977 47.6568 31.6773C47.1076 32.1718 46.3682 32.4839 45.3823 32.4839C44.2797 32.4839 43.5316 32.0704 43.0905 31.6773C42.5241 31.1828 42.1738 30.4411 42.1738 29.6305C42.1738 28.8402 42.5543 28.0377 43.0819 27.5432C43.4797 27.1703 44.2105 26.7366 45.3823 26.7366C46.2947 26.7326 47.0644 27.0001 47.6568 27.5351ZM44.0808 28.3741C43.8256 28.6051 43.5575 29.0104 43.5575 29.6224C43.5575 30.125 43.7348 30.5303 44.0981 30.8586C44.4786 31.195 44.898 31.3125 45.3607 31.3125C45.9617 31.3125 46.3855 31.1058 46.6666 30.8424C46.8958 30.6357 47.1768 30.2466 47.1768 29.6143C47.1768 29.0469 46.9303 28.6253 46.6666 28.3781C46.3769 28.1147 45.9055 27.908 45.3693 27.908C44.8591 27.9039 44.4007 28.0782 44.0808 28.3741Z" fill="white"/>
<path d="M49.541 32.3622L50.4837 26.8582H51.6123L53.0781 30.1492L54.544 26.8582H55.6726L56.6153 32.3622H55.2575L54.7905 29.0792L53.316 32.3622H52.8403L51.3658 29.0792L50.8988 32.3622H49.541Z" fill="white"/>
<path d="M62.8101 26.8582V32.3622H61.4523V27.9282H59.221V32.3581H57.8633V26.8582H62.8101Z" fill="white"/>
<path d="M67.7816 31.3207H65.559L65.1093 32.3583H63.6953L66.0692 26.8542H67.3103L69.6323 32.3583H68.2226L67.7816 31.3207ZM67.4097 30.348L66.6876 28.4998L65.9568 30.348H67.4097Z" fill="white"/>
<path d="M71.8812 28.9536H74.2292V26.8582H75.587V32.3622H74.2292V30.0236H71.8812V32.3581H70.5234V26.8582H71.8812V28.9536Z" fill="white"/>
<path d="M78.4632 26.8582V30.4533L81.1874 26.7893H82.3852V32.3582H81.0274V28.751L78.3032 32.4231H77.1055V26.8582H78.4632Z" fill="white"/>
<path d="M85.2597 26.8583V30.4533L87.9839 26.7894H89.186V32.3583H87.8282V28.751L85.104 32.4231H83.9062V26.8583H85.2597ZM88.2952 25.4154C88.1482 25.7437 87.8888 25.999 87.625 26.1571C87.2748 26.3557 86.8942 26.3881 86.5397 26.3881C86.1937 26.3881 85.8175 26.3557 85.4629 26.1571C85.1992 25.999 84.9397 25.7437 84.7927 25.4154L85.7267 25.0425C85.7873 25.1924 85.904 25.3546 86.0164 25.4397C86.1505 25.5329 86.3537 25.5815 86.5569 25.5815C86.691 25.5815 86.9029 25.5653 87.0758 25.4397C87.2099 25.3424 87.3137 25.1762 87.3569 25.0425L88.2952 25.4154Z" fill="white"/>
<path d="M94.7674 31.8233L94.0539 32.2934L92.6875 30.5101L94.0539 28.7349L94.7501 29.1888L93.7253 30.5101L94.7674 31.8233ZM96.6051 31.8233L95.8917 32.2934L94.5252 30.5101L95.8917 28.7349L96.5878 29.1888L95.563 30.5142L96.6051 31.8233Z" fill="white"/>
<path d="M102.708 26.8582V31.3044H103.37V33.5984H102.15V32.3622H98.5397V33.5984H97.3203V31.3044C97.7008 31.2395 97.93 31.049 97.9819 31.0004C98.4748 30.5708 98.4835 29.7885 98.4835 29.1846V26.8582H102.708ZM99.7937 29.1441C99.7937 29.5251 99.7764 30.0925 99.6813 30.433C99.6121 30.6721 99.4694 31.0004 99.1537 31.3084H101.368V27.916H99.798V29.1441H99.7937Z" fill="white"/>
<path d="M107.653 27.9282H105.686V28.9941H107.554V30.0682H105.686V31.2881H107.653V32.3622H104.328V26.8582H107.653V27.9282Z" fill="white"/>
<path d="M113.842 26.8583V32.3624H112.484V27.9283H110.889V29.817C110.889 30.7573 110.767 31.5396 110.296 31.9854C110.05 32.2164 109.643 32.4231 108.973 32.4231C108.77 32.4231 108.592 32.3988 108.424 32.3583V31.2194C108.523 31.2518 108.636 31.268 108.761 31.268C108.99 31.268 109.185 31.1951 109.297 31.0856C109.544 30.8546 109.561 30.3683 109.561 29.9305V26.8542H113.842V26.8583Z" fill="white"/>
<path d="M120.569 27.5351C121.127 28.0376 121.486 28.7631 121.486 29.6143C121.486 30.3479 121.205 31.0977 120.569 31.6773C120.02 32.1718 119.28 32.4839 118.294 32.4839C117.192 32.4839 116.444 32.0704 116.003 31.6773C115.436 31.1828 115.086 30.4411 115.086 29.6305C115.086 28.8402 115.466 28.0377 115.994 27.5432C116.392 27.1703 117.123 26.7366 118.294 26.7366C119.211 26.7326 119.981 27.0001 120.569 27.5351ZM116.997 28.3741C116.742 28.6051 116.474 29.0104 116.474 29.6224C116.474 30.125 116.651 30.5303 117.014 30.8586C117.395 31.195 117.814 31.3125 118.277 31.3125C118.878 31.3125 119.302 31.1058 119.583 30.8424C119.812 30.6357 120.093 30.2466 120.093 29.6143C120.093 29.0469 119.847 28.6253 119.583 28.3781C119.293 28.1147 118.822 27.908 118.286 27.908C117.771 27.9039 117.313 28.0782 116.997 28.3741Z" fill="white"/>
<path d="M122.105 29.1927L122.801 28.7388L124.168 30.514L122.801 32.2974L122.088 31.8272L123.13 30.5181L122.105 29.1927ZM123.939 29.1927L124.635 28.7388L126.001 30.514L124.635 32.2974L123.921 31.8272L124.963 30.5181L123.939 29.1927Z" fill="white"/>
</svg>
