<svg width="87" height="31" viewBox="0 0 87 31" fill="none" xmlns="http://www.w3.org/2000/svg">
<path d="M12.1511 0.701213V8.48777H4.58446V0.701213H0V20.9567H4.58446V12.4789H12.1511V20.9567H16.729V0.701213H12.1511Z" fill="white"/>
<path d="M22.8895 0.669118L25.8455 7.9731C26.4145 9.38824 26.8069 10.6208 27.2908 11.8533H27.3824C27.6244 10.9795 27.9841 9.62953 28.468 7.8818L30.6785 0.669118H35.5311L31.7053 10.6795C30.4692 13.8032 29.2332 16.8748 27.6963 18.7334C27.0785 19.579 26.2658 20.2639 25.3268 20.7304C24.3877 21.1969 23.3499 21.4313 22.3009 21.4137C21.5327 21.4403 20.766 21.3276 20.0381 21.0811L20.3717 17.4096C20.8653 17.5188 21.3703 17.5692 21.8758 17.5596C22.4695 17.5535 23.0484 17.3743 23.5412 17.044C24.0339 16.7137 24.4189 16.2469 24.6487 15.701C24.7129 15.5417 24.7387 15.3695 24.7239 15.1985C24.7091 15.0274 24.6543 14.8623 24.5637 14.7162L17.7165 0.669118H22.8895Z" fill="white"/>
<path d="M41.6199 4.54937H36.1329V0.701742H51.7436V4.54937H46.1978V20.9572H41.6199V4.54937Z" fill="white"/>
<path d="M54.6342 8.90567H63.3453C63.0445 6.19928 61.1414 4.06678 57.7668 4.06678C56.3442 4.09128 54.9393 4.38564 53.627 4.93413L52.7049 1.51039C54.4198 0.772617 56.2654 0.38458 58.133 0.369141C65.2484 0.369141 68.2895 5.23411 68.2895 10.8621C68.2895 17.6835 63.6461 21.2963 57.6752 21.2963C55.8852 21.3135 54.1087 20.9857 52.4433 20.3312L53.2608 16.8161C54.5509 17.2986 55.9181 17.5439 57.2959 17.54C60.7621 17.54 62.966 15.4336 63.293 12.4924H54.6342V8.90567Z" fill="white"/>
<path d="M87 0.701742V20.9572H82.4221V4.45807H75.189V20.9572H70.6045V0.701742H87Z" fill="white"/>
<path d="M0.974442 27.8308L2.41322 26.0766H3.60347L1.89656 28.0656L3.73427 30.2829H2.48515L0.974442 28.4177V30.2829H0V26.0766H0.974442V27.8308Z" fill="white"/>
<path d="M7.76278 26.5918C7.97407 26.7991 8.14098 27.047 8.25339 27.3205C8.3658 27.594 8.42138 27.8874 8.41677 28.183C8.421 28.4756 8.36517 28.766 8.2527 29.0362C8.14024 29.3065 7.97351 29.551 7.76278 29.7547C7.54579 29.9596 7.29003 30.1193 7.01043 30.2246C6.73083 30.3298 6.43301 30.3785 6.13435 30.3677C5.83332 30.3772 5.53337 30.3273 5.25168 30.221C4.97 30.1147 4.71213 29.954 4.49284 29.7481C4.28372 29.546 4.11794 29.3036 4.00552 29.0357C3.89311 28.7678 3.83641 28.4799 3.83886 28.1895C3.84619 27.5936 4.0799 27.0226 4.49284 26.5918C4.71098 26.3823 4.9696 26.2194 5.25294 26.1129C5.53628 26.0064 5.8384 25.9585 6.14089 25.9722C6.43955 25.9614 6.73738 26.0101 7.01697 26.1153C7.29657 26.2206 7.55233 26.3803 7.76932 26.5852L7.76278 26.5918ZM5.23185 27.2374C5.10863 27.3629 5.01209 27.5119 4.94804 27.6755C4.88398 27.8391 4.85372 28.014 4.85908 28.1895C4.85067 28.363 4.87874 28.5364 4.9415 28.6984C5.00425 28.8604 5.1003 29.0076 5.22348 29.1304C5.34665 29.2533 5.49423 29.349 5.65673 29.4116C5.81923 29.4742 5.99306 29.5022 6.16705 29.4938C6.3413 29.5032 6.51558 29.4759 6.67855 29.4137C6.84152 29.3515 6.98951 29.2557 7.11291 29.1327C7.2363 29.0097 7.33232 28.8621 7.39471 28.6996C7.4571 28.5371 7.48447 28.3633 7.47503 28.1895C7.48036 28.0155 7.4507 27.8422 7.3878 27.6798C7.32491 27.5174 7.23004 27.3692 7.1088 27.2439C6.8572 27.0087 6.52504 26.878 6.18013 26.8787C6.00608 26.8725 5.83255 26.9011 5.66971 26.9627C5.50687 27.0243 5.35801 27.1177 5.23185 27.2374Z" fill="white"/>
<path d="M10.176 27.6743H11.8633V26.0766H12.8312V30.2829H11.8633V28.496H10.176V30.2829H9.20812V26.0766H10.176V27.6743Z" fill="white"/>
<path d="M15.2967 26.8917V30.2829H14.3223V26.8917H13.4002V26.0766H16.2123V26.8917H15.2967Z" fill="white"/>
<path d="M19.1618 26.8917H17.7557V27.7069H19.0899V28.5286H17.7557V29.4612H19.1618V30.2829H16.7813V26.0766H19.1618V26.8917Z" fill="white"/>
<path d="M20.9864 26.0764V28.8219L22.9484 26.0242H23.8051V30.2827H22.8241V27.5242L20.8621 30.3284H20.012V26.0764H20.9864ZM23.1642 24.9743C23.0616 25.2063 22.8934 25.4035 22.6802 25.5417C22.4384 25.6573 22.1735 25.7174 21.9053 25.7174C21.637 25.7174 21.3722 25.6573 21.1303 25.5417C20.9174 25.4049 20.751 25.2071 20.6529 24.9743L21.3069 24.6874C21.3523 24.8041 21.4239 24.9089 21.5161 24.9939C21.6323 25.0643 21.7661 25.1005 21.902 25.0982C22.034 25.1017 22.1639 25.0654 22.2748 24.9939C22.3704 24.9132 22.4408 24.8068 22.4775 24.6874L23.1642 24.9743Z" fill="white"/>
<path d="M25.7541 27.6743H27.4348V26.0766H28.4092V30.2829H27.4348V28.496H25.7541V30.2829H24.7796V26.0766H25.7541V27.6743Z" fill="white"/>
<path d="M31.7708 26.8917H30.3582V27.7069H31.6988V28.5286H30.3582V29.4612H31.7708V30.2829H29.3903V26.0766H31.7708V26.8917Z" fill="white"/>
<path d="M34.1054 26.0765C34.5043 26.049 34.899 26.1724 35.2107 26.4221C35.3502 26.5524 35.4594 26.7116 35.5306 26.8885C35.6018 27.0654 35.6332 27.2557 35.6227 27.446C35.6326 27.802 35.5036 28.148 35.263 28.4112C35.1179 28.543 34.9473 28.6439 34.7618 28.7078C34.5763 28.7717 34.3797 28.7973 34.1839 28.7829H33.5953V30.2567H32.6209V26.0765H34.1054ZM33.5953 28.0329H33.9419C34.1306 28.0455 34.3172 27.9874 34.4651 27.8699C34.5174 27.8153 34.5582 27.7508 34.5851 27.6803C34.6121 27.6097 34.6246 27.5345 34.6221 27.4591C34.6262 27.3834 34.6144 27.3078 34.5873 27.237C34.5603 27.1663 34.5187 27.1019 34.4651 27.0482C34.3108 26.9289 34.1166 26.8729 33.9223 26.8917H33.5953V28.0329Z" fill="white"/>
<path d="M37.2642 27.6743H38.9515V26.0766H39.926V30.2829H38.9515V28.496H37.2642V30.2829H36.2963V26.0766H37.2642V27.6743Z" fill="white"/>
<path d="M40.9004 26.0766H41.8552V27.7134H42.4373C42.854 27.6795 43.268 27.8055 43.5948 28.0656C43.8185 28.3238 43.9416 28.6537 43.9416 28.9949C43.9416 29.3361 43.8185 29.666 43.5948 29.9242C43.254 30.1914 42.8231 30.3175 42.3915 30.2764H40.9004V26.0766ZM41.8552 29.4938H42.2868C42.4621 29.5084 42.6377 29.4698 42.7904 29.3829C42.8518 29.3401 42.9009 29.2822 42.933 29.2147C42.9652 29.1472 42.9791 29.0726 42.9735 28.9982C42.9802 28.9224 42.9675 28.8461 42.9367 28.7766C42.9058 28.707 42.8577 28.6464 42.797 28.6004C42.6446 28.5129 42.4681 28.4763 42.2934 28.496H41.8552V29.4938ZM45.3148 30.2764H44.36V26.0766H45.3344L45.3148 30.2764Z" fill="white"/>
<path d="M47.2899 26.0764V28.8219L49.2519 26.0242H50.1152V30.2827H49.1276V27.5242L47.1657 30.3284H46.3155V26.0764H47.2899ZM49.4612 24.9743C49.3604 25.2054 49.1945 25.4025 48.9838 25.5417C48.7453 25.6701 48.4762 25.731 48.2055 25.7177C47.9369 25.7315 47.6697 25.6705 47.4338 25.5417C47.2206 25.4035 47.0525 25.2063 46.9499 24.9743L47.6039 24.6874C47.6468 24.8054 47.7187 24.9108 47.8131 24.9939C47.9285 25.066 48.0628 25.1024 48.199 25.0982C48.3287 25.1004 48.4562 25.0641 48.5652 24.9939C48.6632 24.914 48.7359 24.8076 48.7745 24.6874L49.4612 24.9743Z" fill="white"/>
<path d="M55.6282 26.8917V30.2829H54.6538V26.8917H53.7382V26.0766H56.5438V26.8917H55.6282Z" fill="white"/>
<path d="M59.4998 26.8917H58.0872V27.7069H59.4279V28.5286H58.0872V29.4612H59.4998V30.2829H57.1128V26.0766H59.4998V26.8917Z" fill="white"/>
<path d="M61.8346 26.0766C62.2333 26.0503 62.6275 26.1736 62.9398 26.4222C63.0793 26.5525 63.1885 26.7116 63.2597 26.8885C63.3309 27.0654 63.3623 27.2557 63.3518 27.446C63.3617 27.8021 63.2328 28.148 62.9921 28.4112C62.8468 28.5427 62.6762 28.6434 62.4908 28.7073C62.3053 28.7712 62.1088 28.7969 61.9131 28.7829H61.3179V30.2568H60.35V26.0766H61.8346ZM61.3179 28.033H61.6711C61.8598 28.0456 62.0463 27.9874 62.1943 27.8699C62.2974 27.7581 62.3536 27.611 62.3512 27.4591C62.3538 27.3836 62.3412 27.3084 62.3143 27.2379C62.2873 27.1673 62.2465 27.1029 62.1943 27.0482C62.0377 26.9285 61.8413 26.8726 61.6449 26.8917H61.3179V28.033Z" fill="white"/>
<path d="M63.8227 30.2829L64.4963 26.0766H65.3073L66.3602 28.5938L67.4066 26.0766H68.2175L68.8911 30.2829H67.9232L67.5831 27.7721L66.5302 30.2829H66.1901L65.1372 27.7721L64.7971 30.2829H63.8227Z" fill="white"/>
<path d="M70.6503 26.0766V28.8221L72.6057 26.0244H73.469V30.2829H72.488V27.5243L70.5391 30.3285H69.6758V26.0766H70.6503Z" fill="white"/>
<path d="M75.4179 27.6743H77.0987V26.0766H78.0731V30.2829H77.0987V28.496H75.4179V30.2829H74.4435V26.0766H75.4179V27.6743Z" fill="white"/>
<path d="M81.5261 29.4873H79.9369L79.6164 30.2829H78.6028L80.3031 26.0766H81.1925L82.8602 30.2829H81.8465L81.5261 29.4873ZM81.2645 28.7438L80.7478 27.3287L80.2246 28.7438H81.2645Z" fill="white"/>
<path d="M86.9804 26.0766V30.2763H86.0125V26.8983H84.8876V28.3395C84.9559 28.925 84.8045 29.5151 84.4625 29.9959C84.3355 30.1129 84.1859 30.2027 84.0228 30.2599C83.8597 30.3171 83.6867 30.3404 83.5142 30.3285C83.3817 30.3285 83.2497 30.311 83.1218 30.2763V29.409C83.1997 29.4357 83.2815 29.449 83.3638 29.4481C83.5049 29.4512 83.6423 29.4025 83.7497 29.3112C83.9116 29.0478 83.9785 28.7372 83.9393 28.4308V26.0766H86.9804Z" fill="white"/>
</svg>
