<svg width="54" height="30" viewBox="0 0 54 30" fill="none" xmlns="http://www.w3.org/2000/svg">
<path d="M0.176336 0.318728H5.07287V9.94235H5.13833C5.62275 9.10126 6.13989 8.32537 6.66359 7.54948L11.5863 0.318728H17.6742L10.4735 9.58374L18.0343 22.0762H12.2998L6.91889 12.6808L5.07287 14.9954V22.0762H0.176336V0.318728Z" fill="white"/>
<path d="M33.6537 21.5162C31.8752 22.1933 29.9795 22.5124 28.0763 22.4551C20.5286 22.4551 16.6402 17.7411 16.6402 11.547C16.6402 4.10112 21.9557 0 28.5673 0C31.1269 0 33.0711 0.482485 33.9417 0.96497L32.9074 4.84441C31.5945 4.29363 30.1817 4.01841 28.7571 4.03592C24.8687 4.03592 21.8248 6.38967 21.8248 11.208C21.8248 15.5634 24.4432 18.3083 28.7899 18.3083C30.2047 18.3258 31.6109 18.0872 32.9401 17.6042L33.6537 21.5162Z" fill="white"/>
<path d="M36.1088 0.319467H41.0053V9.94309H41.0708C41.5552 9.102 42.0724 8.32611 42.5895 7.55022L47.5188 0.319467H53.6133L46.4125 9.58448L53.9668 22.0769H48.2323L42.8514 12.6815L41.0053 14.9961V22.0769H36.1088V0.319467Z" fill="white"/>
<path d="M0.144041 26.9996C0.272717 26.8846 0.421375 26.794 0.582711 26.7322C0.790587 26.6489 1.01343 26.6089 1.23744 26.6148C1.55302 26.5959 1.86343 26.7013 2.10169 26.9083C2.18723 26.9932 2.25366 27.0952 2.29655 27.2077C2.33945 27.3201 2.35784 27.4404 2.35049 27.5604C2.35636 27.7104 2.31011 27.8578 2.21954 27.9778C2.14408 28.0876 2.03671 28.1718 1.91182 28.2191C2.0613 28.2589 2.19852 28.3351 2.3112 28.4408C2.45665 28.596 2.53435 28.8024 2.52726 29.0146C2.52933 29.2578 2.43526 29.4921 2.26537 29.6668C2.13096 29.7864 1.97319 29.8771 1.80194 29.9332C1.63069 29.9893 1.44966 30.0096 1.27018 29.9928C1.00533 30.0004 0.74192 29.9515 0.497596 29.8494C0.314422 29.7666 0.146278 29.6543 0 29.5168L0.419028 28.9755C0.511352 29.0833 0.622203 29.1738 0.746394 29.2429C0.882647 29.31 1.03309 29.3435 1.18506 29.3407C1.3165 29.3462 1.44655 29.3121 1.55826 29.2429C1.60807 29.2105 1.64869 29.1659 1.6762 29.1134C1.70372 29.0608 1.71722 29.0021 1.7154 28.9429C1.71507 28.8946 1.70439 28.8469 1.68407 28.8031C1.66374 28.7592 1.63424 28.7202 1.59755 28.6886C1.40951 28.587 1.1945 28.546 0.982097 28.5712H0.864246V27.9712H0.97555C1.16135 27.9915 1.3485 27.9477 1.50588 27.8473C1.5369 27.8159 1.56074 27.7781 1.57575 27.7366C1.59076 27.6951 1.5966 27.6508 1.59287 27.6069C1.58914 27.5629 1.57593 27.5203 1.55414 27.4819C1.53235 27.4435 1.50249 27.4102 1.4666 27.3843C1.36692 27.322 1.25015 27.2924 1.13269 27.2996C1.00628 27.2994 0.88129 27.3261 0.766036 27.3778C0.661264 27.4292 0.564284 27.4951 0.477954 27.5735L0.144041 26.9996Z" fill="white"/>
<path d="M4.93616 27.3322H3.85585V27.9583H4.88378V28.5843H3.85585V29.3017H4.93616V29.9277H3.10946V26.7062H4.93616V27.3322Z" fill="white"/>
<path d="M6.72965 26.7325C7.03514 26.7109 7.33737 26.8065 7.57425 26.9999C7.68307 27.0981 7.76838 27.2194 7.8239 27.3549C7.87943 27.4903 7.90374 27.6364 7.89507 27.7824C7.90241 27.921 7.88122 28.0596 7.83281 28.1897C7.78439 28.3197 7.70977 28.4386 7.61353 28.5389C7.50367 28.639 7.37434 28.7155 7.23356 28.7637C7.09278 28.812 6.94354 28.8309 6.79512 28.8193H6.33681V29.9279H5.59041V26.7325H6.72965ZM6.33681 28.2128H6.60525C6.74861 28.2267 6.89177 28.1846 7.00463 28.0955C7.08212 28.007 7.12409 27.8933 7.12248 27.7759C7.12556 27.7185 7.11668 27.661 7.0964 27.6071C7.07612 27.5533 7.04488 27.5042 7.00463 27.4629C6.88808 27.3706 6.74049 27.3263 6.59215 27.339H6.33681V28.2128Z" fill="white"/>
<path d="M9.1515 27.9322H10.4413V26.7062H11.1877V29.9277H10.4413V28.5582H9.1515V29.9277H8.40511V26.7062H9.1515V27.9322Z" fill="white"/>
<path d="M14.8013 27.1036C14.961 27.2623 15.0878 27.4509 15.1743 27.6584C15.2608 27.866 15.3053 28.0886 15.3053 28.3133C15.3053 28.538 15.2608 28.7606 15.1743 28.9682C15.0878 29.1757 14.961 29.3643 14.8013 29.523C14.6365 29.6813 14.4415 29.805 14.2278 29.8868C14.0141 29.9685 13.7861 30.0067 13.5573 29.999C13.0894 30.0132 12.635 29.842 12.2937 29.523C12.1317 29.369 12.0029 29.1838 11.9151 28.9786C11.8273 28.7734 11.7823 28.5526 11.783 28.3296C11.7874 27.8737 11.968 27.437 12.2871 27.1101C12.454 26.9491 12.6522 26.8238 12.8695 26.7419C13.0868 26.66 13.3187 26.6233 13.5507 26.6341C13.779 26.6263 14.0065 26.6638 14.2201 26.7444C14.4337 26.825 14.629 26.9471 14.7947 27.1036H14.8013ZM12.8305 27.5927C12.6436 27.789 12.5393 28.0492 12.5393 28.3198C12.5393 28.5904 12.6436 28.8506 12.8305 29.0469C13.0226 29.2225 13.2737 29.3198 13.5344 29.3198C13.795 29.3198 14.0462 29.2225 14.2382 29.0469C14.3337 28.9542 14.4083 28.8423 14.4568 28.7186C14.5054 28.5949 14.5268 28.4622 14.5197 28.3296C14.5241 28.1963 14.5015 28.0635 14.4531 27.9391C14.4047 27.8147 14.3316 27.7013 14.2382 27.6057C14.0455 27.4291 13.793 27.3313 13.5311 27.3319C13.2685 27.3273 13.0145 27.4256 12.824 27.6057" fill="white"/>
<path d="M16.9023 26.7322C17.1962 26.7141 17.4867 26.8021 17.7207 26.98C17.7991 27.06 17.8604 27.155 17.9009 27.2592C17.9414 27.3635 17.9603 27.4748 17.9564 27.5865C17.9615 27.7314 17.9227 27.8746 17.8451 27.9973C17.7848 28.1035 17.6902 28.1862 17.5767 28.2321C17.744 28.2601 17.899 28.3374 18.0219 28.4538C18.0937 28.5306 18.1492 28.621 18.1852 28.7195C18.2212 28.8181 18.2369 28.9229 18.2314 29.0277C18.2375 29.1482 18.2179 29.2686 18.1739 29.381C18.1299 29.4934 18.0625 29.5952 17.9761 29.6798C17.7388 29.8782 17.4342 29.9786 17.1249 29.9602H15.9137V26.7322H16.9023ZM16.647 28.0364H16.7714C16.9022 28.0439 17.0322 28.0121 17.1446 27.9451C17.1865 27.9101 17.2201 27.8661 17.2427 27.8165C17.2654 27.7668 17.2766 27.7127 17.2755 27.6582C17.2789 27.6059 17.2694 27.5535 17.2477 27.5058C17.226 27.458 17.1928 27.4163 17.1511 27.3843C17.0358 27.3131 16.8995 27.2832 16.7648 27.2995H16.647V28.0364ZM16.647 29.3407H16.8238C17.0189 29.363 17.2156 29.3168 17.3803 29.2103C17.4155 29.1741 17.4429 29.1311 17.4609 29.084C17.4789 29.0369 17.4871 28.9867 17.485 28.9364C17.4868 28.8896 17.479 28.8429 17.4622 28.7992C17.4453 28.7554 17.4197 28.7156 17.3868 28.682C17.227 28.5816 17.0378 28.538 16.85 28.5581H16.647V29.3407Z" fill="white"/>
<path d="M21.6945 27.1036C21.8543 27.2623 21.981 27.4509 22.0675 27.6584C22.154 27.866 22.1985 28.0886 22.1985 28.3133C22.1985 28.538 22.154 28.7606 22.0675 28.9682C21.981 29.1757 21.8543 29.3643 21.6945 29.523C21.5298 29.6813 21.3347 29.805 21.121 29.8868C20.9073 29.9685 20.6793 30.0067 20.4505 29.999C19.9827 30.0132 19.5282 29.842 19.1869 29.523C19.0261 29.3684 18.8985 29.183 18.8119 28.9778C18.7252 28.7727 18.6813 28.5522 18.6828 28.3296C18.6872 27.8737 18.8677 27.437 19.1869 27.1101C19.3538 26.9491 19.5519 26.8238 19.7693 26.7419C19.9866 26.66 20.2184 26.6233 20.4505 26.6341C20.6788 26.6263 20.9063 26.6638 21.1199 26.7444C21.3335 26.825 21.5288 26.9471 21.6945 27.1036ZM19.7303 27.5927C19.5434 27.789 19.4391 28.0492 19.4391 28.3198C19.4391 28.5904 19.5434 28.8506 19.7303 29.0469C19.9224 29.2225 20.1735 29.3198 20.4342 29.3198C20.6948 29.3198 20.946 29.2225 21.138 29.0469C21.2335 28.9542 21.308 28.8423 21.3566 28.7186C21.4051 28.5949 21.4266 28.4622 21.4195 28.3296C21.4239 28.1963 21.4012 28.0635 21.3529 27.9391C21.3045 27.8147 21.2314 27.7013 21.138 27.6057C20.9453 27.4291 20.6928 27.3313 20.4309 27.3319C20.1682 27.3273 19.9143 27.4256 19.7238 27.6057" fill="white"/>
<path d="M23.5665 26.732V28.8379L25.059 26.6928H25.7136V29.9529H24.9608V27.8143L23.4617 29.992H22.8071V26.732H23.5665ZM25.2292 25.8909C25.1508 26.0663 25.0236 26.2156 24.8626 26.3212C24.6807 26.421 24.4744 26.4684 24.2669 26.4581C24.0615 26.4689 23.8572 26.4215 23.6778 26.3212C23.5131 26.218 23.3831 26.0682 23.3046 25.8909L23.8218 25.6757C23.8529 25.7643 23.9071 25.8431 23.9789 25.9039C24.067 25.9589 24.1696 25.9861 24.2735 25.9821C24.3754 25.9874 24.4763 25.96 24.5615 25.9039C24.6318 25.8417 24.6857 25.7634 24.7186 25.6757L25.2292 25.8909Z" fill="white"/>
<path d="M29.9421 27.3322V29.9277H29.1957V27.3322H28.4952V26.7062H30.6427V27.3322H29.9421Z" fill="white"/>
<path d="M32.9146 27.3322H31.8343V27.9583H32.8556V28.5843H31.8343V29.3017H32.9146V29.9277H31.0879V26.7062H32.9146V27.3322Z" fill="white"/>
<path d="M34.6948 26.7323C35.0022 26.7116 35.3061 26.807 35.546 26.9997C35.6521 27.0994 35.7347 27.2213 35.7879 27.3566C35.8411 27.4919 35.8636 27.6372 35.8537 27.7822C35.8613 27.9197 35.8415 28.0573 35.7954 28.1872C35.7493 28.317 35.6779 28.4365 35.5853 28.5387C35.4742 28.6389 35.3437 28.7155 35.2019 28.7637C35.06 28.812 34.9097 28.8308 34.7603 28.8191H34.302V29.9277H33.5621V26.7323H34.6948ZM34.302 28.2126H34.5704C34.7138 28.2264 34.857 28.1843 34.9698 28.0952C35.052 28.0092 35.0967 27.8944 35.0942 27.7757C35.0964 27.7178 35.0865 27.66 35.0651 27.6061C35.0437 27.5522 35.0112 27.5034 34.9698 27.4627C34.8533 27.3704 34.7057 27.3261 34.5573 27.3388H34.302V28.2126Z" fill="white"/>
<path d="M36.2328 29.9277L36.75 26.7062H37.372L38.1708 28.63L38.9761 26.7062H39.5981L40.1154 29.9277H39.369L39.1136 28.0039L38.3018 29.9277H38.0399L37.2345 28.0039L36.9792 29.9277H36.2328Z" fill="white"/>
<path d="M41.4633 26.7065V28.8129L42.9627 26.6674H43.6174V29.928H42.871V27.8151L41.3782 29.9671H40.7169V26.7065H41.4633Z" fill="white"/>
<path d="M45.1164 27.9322H46.4062V26.7062H47.1526V29.9277H46.4062V28.5582H45.1164V29.9277H44.3766V26.7062H45.1164V27.9322Z" fill="white"/>
<path d="M49.8035 29.3412H48.5857L48.3369 29.9477H47.5644L48.8738 26.7262H49.5285L50.838 29.9477H50.0458L49.8035 29.3412ZM49.6006 28.7673L49.2012 27.6848L48.8018 28.7673H49.6006Z" fill="white"/>
<path d="M54 26.7325V29.9279H53.2536V27.3194H52.3697V28.428C52.4229 28.8746 52.3086 29.3251 52.0489 29.6931C51.952 29.7836 51.8375 29.8534 51.7126 29.8982C51.5876 29.9431 51.4547 29.962 51.3222 29.9539C51.2342 29.9534 51.1465 29.9447 51.0603 29.9279V29.2757C51.1181 29.3002 51.1808 29.3113 51.2436 29.3083C51.3514 29.3114 51.4565 29.2742 51.5382 29.204C51.6599 29.0094 51.7128 28.7799 51.6888 28.5519V26.7325H54Z" fill="white"/>
</svg>
