<svg width="67" height="32" viewBox="0 0 67 32" fill="none" xmlns="http://www.w3.org/2000/svg">
<path d="M0.0304845 2.37262C2.43085 2.05388 4.85425 1.90283 7.27969 1.9208C11.7853 1.9208 14.7057 2.66268 16.9981 4.23568C19.4369 5.90908 21.016 8.5921 21.016 12.4242C21.016 16.5798 19.3576 19.4469 17.0713 21.2151C14.5716 23.1172 10.7671 24.0041 6.09689 24.0041C4.05917 24.0208 2.02246 23.9146 0 23.6862L0.0304845 2.37262ZM5.41404 20.0884C6.03082 20.1777 6.65571 20.2113 7.27969 20.1888C12.1572 20.2167 15.3032 17.7679 15.3032 12.5804C15.3459 8.07334 12.4559 5.68596 7.8467 5.68596C7.02844 5.66971 6.21068 5.73518 5.40794 5.88119L5.41404 20.0884Z" fill="white"/>
<path d="M27.5642 17.4841C27.7349 19.5145 29.9176 20.4739 32.4417 20.4739C34.0526 20.4936 35.6564 20.2751 37.1912 19.8269L37.8984 23.1737C35.9076 23.8587 33.7943 24.1974 31.6674 24.1721C25.8205 24.1721 22.4794 21.0485 22.4794 16.1119C22.455 12.079 25.162 7.68913 31.1248 7.68913C36.6852 7.68913 38.8008 11.6495 38.8008 15.5485C38.802 16.1972 38.7429 16.8447 38.624 17.4841H27.5642ZM33.8623 14.1373C33.8623 12.938 33.3014 10.9467 30.8139 10.9467C28.5641 10.9467 27.6435 12.8153 27.5032 14.1373H33.8623Z" fill="white"/>
<path d="M45.8488 0.922852H40.4958V23.7927H45.8488V0.922852Z" fill="white"/>
<path d="M56.8292 15.7384H52.6223C52.6435 14.4323 52.8715 13.1359 53.2991 11.8896C54.4534 12.1584 55.6382 12.3026 56.8292 12.3191V15.7384ZM56.8292 19.5928C55.6382 19.6093 54.4534 19.7534 53.2991 20.0223C52.8715 18.776 52.6435 17.4796 52.6223 16.1735H56.8292V19.5928ZM57.2986 16.1735H61.5055C61.4833 17.4791 61.2575 18.7751 60.8348 20.0223C59.6783 19.7539 58.4916 19.6098 57.2986 19.5928V16.1735ZM57.2986 12.3191C58.4916 12.3021 59.6783 12.158 60.8348 11.8896C61.2575 13.1368 61.4833 14.4328 61.5055 15.7384H57.2986V12.3191ZM49.8909 21.2439C48.6337 19.8183 47.9226 18.0547 47.8667 16.2237H52.1346C52.1533 17.5674 52.3854 18.9014 52.8235 20.1841C51.7989 20.4579 50.8096 20.8319 49.8726 21.2997L49.8909 21.2439ZM55.0367 24.2504C53.1496 23.8716 51.4422 22.9558 50.1592 21.6343C51.0485 21.2117 51.982 20.8716 52.9454 20.6192C53.4354 21.916 54.1318 23.1396 55.0123 24.2504H55.0367ZM56.7865 24.4457C56.419 24.4404 56.0524 24.4125 55.689 24.362C54.7123 23.1777 53.9544 21.8549 53.4454 20.4462C54.552 20.1903 55.6878 20.0554 56.8292 20.0446L56.7865 24.4457ZM58.3534 24.362C57.9901 24.4125 57.6234 24.4404 57.2559 24.4457V20.0279C58.3973 20.038 59.5333 20.1728 60.6397 20.4295C60.1135 21.8202 59.3411 23.1223 58.3534 24.2839V24.362ZM63.932 21.5618C62.6472 22.8812 60.9405 23.7966 59.0545 24.1779C59.9329 23.0668 60.6272 21.8432 61.1153 20.5466C62.0887 20.7987 63.0323 21.1388 63.932 21.5618ZM66.2611 16.1791C66.2135 18.019 65.5042 19.7933 64.243 21.2272C63.305 20.7613 62.3159 20.3874 61.2921 20.1116C61.7243 18.8277 61.9562 17.4944 61.981 16.1512L66.2611 16.1791ZM64.243 10.6959C65.498 12.1222 66.2069 13.8857 66.2611 15.7161H61.9932C61.9684 14.3729 61.7365 13.0396 61.3043 11.7557C62.3269 11.4888 63.3159 11.1242 64.2552 10.668L64.243 10.6959ZM59.0911 7.71722C60.976 8.10102 62.6819 9.01599 63.9686 10.3333C63.0767 10.755 62.1413 11.0951 61.1762 11.3485C60.6882 10.052 59.9938 8.82837 59.1155 7.71722H59.0911ZM57.3352 7.51641C57.7026 7.52628 58.0691 7.55608 58.4326 7.60566C59.4203 8.76725 60.1927 10.0694 60.719 11.4601C59.6111 11.7105 58.4762 11.8471 57.3352 11.8673V7.51641ZM55.7317 7.61682C56.0953 7.56723 56.4617 7.53743 56.8292 7.52757V11.8784C55.6883 11.8575 54.5534 11.7209 53.4454 11.4712C53.9742 10.0816 54.7463 8.77978 55.7317 7.61682ZM50.2018 10.3445C51.4864 9.02478 53.1932 8.10933 55.0794 7.72838C54.1989 8.83918 53.5024 10.0628 53.0125 11.3597C52.049 11.1072 51.1156 10.7671 50.2262 10.3445H50.2018ZM47.8911 15.7272C47.947 13.8962 48.6581 12.1326 49.9153 10.707C50.8536 11.1651 51.8429 11.5298 52.8662 11.7947C52.4281 13.0774 52.196 14.4114 52.1772 15.7551L47.8911 15.7272Z" fill="white"/>
<path d="M3.03661 31.8191C2.79088 31.9387 2.51628 32.0001 2.23792 31.9976C1.97893 32.0094 1.72 31.973 1.47686 31.8905C1.23371 31.8081 1.01141 31.6813 0.82344 31.5179C0.643522 31.3541 0.500752 31.1594 0.403331 30.9449C0.30591 30.7305 0.255759 30.5006 0.255759 30.2684C0.255759 30.0362 0.30591 29.8062 0.403331 29.5918C0.500752 29.3774 0.643522 29.1827 0.82344 29.0189C1.18809 28.7066 1.67141 28.5365 2.17085 28.5448C2.47032 28.5502 2.76523 28.6129 3.03661 28.7289V29.6102C2.92958 29.5012 2.799 29.4137 2.65314 29.3532C2.50727 29.2927 2.34928 29.2606 2.18914 29.2588C2.05374 29.2548 1.91882 29.2754 1.79218 29.3194C1.66555 29.3635 1.54973 29.4301 1.45142 29.5153C1.2317 29.7188 1.10895 29.9935 1.10999 30.2795C1.10488 30.4126 1.12978 30.5453 1.18312 30.6692C1.23646 30.7932 1.31711 30.9057 1.42006 30.9999C1.523 31.0941 1.64603 31.1679 1.78149 31.2167C1.91695 31.2655 2.06194 31.2883 2.20743 31.2836C2.36382 31.2822 2.51821 31.2513 2.66091 31.1928C2.8036 31.1342 2.93152 31.0493 3.03661 30.9433V31.8191Z" fill="white"/>
<path d="M5.7918 29.2652H4.58461V29.9066H5.73693V30.5481H4.58461V31.2788H5.7918V31.9259H3.75544V28.6237H5.7918V29.2652Z" fill="white"/>
<path d="M7.79803 28.6232C8.13847 28.6018 8.4754 28.6972 8.74304 28.8909C8.86308 28.9926 8.95702 29.1174 9.01816 29.2563C9.07929 29.3952 9.1061 29.5447 9.09666 29.6941C9.10433 29.8367 9.08077 29.9792 9.02737 30.1133C8.97397 30.2474 8.89181 30.3704 8.78572 30.4751C8.66228 30.5787 8.51682 30.6579 8.35843 30.7078C8.20003 30.7577 8.03209 30.7772 7.86509 30.7651H7.34686V31.9253H6.52378V28.6232H7.79803ZM7.34686 30.1404H7.6456C7.80585 30.1548 7.96585 30.1107 8.09068 30.0177C8.1373 29.9744 8.17379 29.9229 8.1979 29.8663C8.22201 29.8098 8.23324 29.7493 8.23091 29.6886C8.23421 29.6294 8.22337 29.5703 8.19915 29.5154C8.17493 29.4605 8.13791 29.4111 8.09068 29.3706C8.02711 29.3214 7.9532 29.2846 7.87351 29.2626C7.79382 29.2405 7.71003 29.2336 7.62731 29.2423H7.34686V30.1404Z" fill="white"/>
<path d="M10.7732 28.6231C11.1034 28.5999 11.4313 28.6893 11.6938 28.8741C11.781 28.9569 11.8491 29.0549 11.8941 29.1622C11.9392 29.2695 11.9602 29.384 11.956 29.4989C11.9603 29.6461 11.9179 29.7914 11.834 29.9172C11.7651 30.0257 11.6606 30.1116 11.5353 30.1626C11.7208 30.1895 11.893 30.2673 12.0291 30.3858C12.1857 30.5357 12.2711 30.7362 12.2669 30.9436C12.2733 31.0673 12.251 31.1908 12.2016 31.3062C12.1523 31.4215 12.0769 31.526 11.9804 31.6129C11.7141 31.8144 11.3742 31.9161 11.0293 31.8974H9.66965V28.6231H10.7732ZM10.4927 29.9618H10.6269C10.7763 29.9699 10.9249 29.9369 11.0536 29.867C11.1017 29.833 11.1401 29.7888 11.1656 29.7384C11.1911 29.6879 11.2029 29.6325 11.2 29.5769C11.2016 29.5237 11.1899 29.4709 11.1655 29.4225C11.1412 29.3741 11.105 29.3315 11.0597 29.298C10.9289 29.2285 10.7772 29.1992 10.6269 29.2144H10.4927V29.9618ZM10.4927 31.3284H10.6939C10.908 31.3509 11.124 31.3035 11.3036 31.1946C11.3447 31.1601 11.377 31.1177 11.3981 31.0704C11.4191 31.0232 11.4285 30.9722 11.4256 30.9212C11.428 30.8717 11.419 30.8222 11.399 30.776C11.379 30.7299 11.3486 30.6881 11.3097 30.6535C11.1297 30.5456 10.9135 30.5001 10.7 30.5252H10.4683L10.4927 31.3284Z" fill="white"/>
<path d="M13.7729 28.623V30.7817L15.4435 28.5839H16.1812V31.9251H15.352V29.7609L13.6754 31.9642H12.9376V28.623H13.7729Z" fill="white"/>
<path d="M19.6322 31.8193C19.3885 31.9387 19.1159 32.0001 18.8396 31.9978C18.5797 32.0091 18.32 31.9725 18.076 31.8901C17.8319 31.8077 17.6085 31.6812 17.419 31.5181C17.06 31.1851 16.8588 30.7363 16.8588 30.2686C16.8588 29.801 17.06 29.3521 17.419 29.0191C17.7847 28.7083 18.2673 28.5385 18.7664 28.545C19.0659 28.5498 19.361 28.6125 19.6322 28.7291V29.6104C19.5268 29.501 19.3974 29.4132 19.2524 29.3527C19.1074 29.2921 18.9501 29.2602 18.7908 29.259C18.6553 29.2547 18.5203 29.2752 18.3936 29.3192C18.267 29.3633 18.1512 29.4301 18.0531 29.5156C17.9432 29.6156 17.8563 29.7348 17.7977 29.866C17.739 29.9973 17.7098 30.138 17.7116 30.2798C17.7065 30.4129 17.7314 30.5455 17.7848 30.6695C17.8381 30.7934 17.9188 30.906 18.0217 31.0001C18.1246 31.0943 18.2477 31.1681 18.3831 31.2169C18.5186 31.2657 18.6636 31.2885 18.8091 31.2838C18.9646 31.2827 19.1182 31.2519 19.2599 31.1933C19.4017 31.1347 19.5285 31.0496 19.6322 30.9436V31.8193Z" fill="white"/>
<path d="M21.1868 29.8787H22.6257V28.6237H23.4609V31.9259H22.6257V30.5202H21.1868V31.9259H20.3515V28.6237H21.1868V29.8787Z" fill="white"/>
<path d="M26.424 31.3011H25.0583L24.7839 31.9259H23.9182L25.3753 28.6237H26.1375L27.5641 31.9259H26.6923L26.424 31.3011ZM26.1984 30.7154L25.7534 29.5998L25.3022 30.7154H26.1984Z" fill="white"/>
<path d="M30.515 31.9253H29.6554V30.7204H29.5456L28.686 31.9253H27.7288L28.7713 30.6312C28.5788 30.6017 28.4004 30.5201 28.2592 30.3969C28.1535 30.3026 28.0715 30.1884 28.0189 30.0622C27.9662 29.9361 27.9442 29.8009 27.9543 29.6662C27.9473 29.5335 27.9696 29.4009 28.0199 29.2763C28.0702 29.1517 28.1474 29.0377 28.247 28.941C28.3808 28.8279 28.5386 28.7413 28.7107 28.6866C28.8827 28.6319 29.0653 28.6103 29.2469 28.6231H30.4663L30.515 31.9253ZM29.6859 29.2478H29.4908C29.3165 29.236 29.1429 29.2772 28.9969 29.365C28.9497 29.4071 28.9122 29.4574 28.8866 29.5129C28.861 29.5685 28.8478 29.6282 28.8478 29.6885C28.8478 29.7488 28.861 29.8085 28.8866 29.8641C28.9122 29.9196 28.9497 29.9699 28.9969 30.012C29.1463 30.1072 29.3278 30.1506 29.509 30.1347H29.7041L29.6859 29.2478Z" fill="white"/>
<path d="M34.7951 30.0015L36.0266 28.6237H37.0448L35.5816 30.1855L37.1607 31.9259H36.0876L34.7951 30.4589V31.9259H33.9598V28.6237H34.7951V30.0015Z" fill="white"/>
<path d="M40.6112 29.0245C40.7919 29.1875 40.9347 29.3822 41.0311 29.5969C41.1274 29.8116 41.1754 30.0419 41.1722 30.274C41.1752 30.5044 41.127 30.733 41.0306 30.9458C40.9342 31.1587 40.7915 31.3514 40.6112 31.5123C40.4251 31.6736 40.2059 31.7996 39.9663 31.8829C39.7266 31.9662 39.4713 32.0052 39.215 31.9976C38.7024 32.0063 38.2061 31.8323 37.8311 31.5123C37.6508 31.3537 37.5081 31.163 37.4116 30.9519C37.3151 30.7408 37.267 30.5139 37.2701 30.2851C37.277 29.817 37.4774 29.3685 37.8311 29.0301C38.2201 28.7186 38.7194 28.5469 39.2364 28.5469C39.7533 28.5469 40.2527 28.7186 40.6417 29.0301L40.6112 29.0245ZM38.4468 29.5377C38.3419 29.6364 38.2597 29.7535 38.2053 29.8819C38.1508 30.0103 38.1251 30.1475 38.1298 30.2851C38.12 30.4245 38.1427 30.5642 38.1963 30.695C38.2499 30.8257 38.3332 30.9446 38.4408 31.0438C38.5427 31.1351 38.6639 31.2065 38.7971 31.2535C38.9302 31.3005 39.0724 31.3221 39.215 31.3171C39.3624 31.3224 39.5094 31.2999 39.6468 31.251C39.7842 31.202 39.9091 31.1277 40.0137 31.0326C40.1205 30.9373 40.2039 30.8225 40.2586 30.6955C40.3132 30.5686 40.3378 30.4326 40.3308 30.2963C40.3376 30.1608 40.3137 30.0255 40.2605 29.8989C40.2073 29.7723 40.126 29.6571 40.0218 29.5607C39.9175 29.4643 39.7925 29.3886 39.6547 29.3386C39.5169 29.2885 39.3693 29.2652 39.2211 29.2699C38.9264 29.2658 38.6416 29.368 38.4286 29.5544" fill="white"/>
<path d="M41.6786 31.9259L42.2578 28.6237H42.9529L43.8491 30.5983L44.7515 28.6237H45.4404L46.0196 31.9259H45.1904L44.9039 29.9513L43.9954 31.9259H43.7028L42.8004 29.9513L42.5139 31.9259H41.6786Z" fill="white"/>
<path d="M49.7323 28.6237V31.9259H48.8971V29.2652H47.5314V31.9259H46.6961V28.6237H49.7323Z" fill="white"/>
<path d="M52.7016 31.3011H51.3359L51.0554 31.9259H50.1958L51.6468 28.6237H52.409L53.8356 31.9259H52.9699L52.7016 31.3011ZM52.4638 30.7154L52.0187 29.5998L51.5737 30.7154H52.4638Z" fill="white"/>
<path d="M55.1281 29.8787H56.567V28.6237H57.4022V31.9259H56.567V30.5202H55.1281V31.9259H54.2928V28.6237H55.1281V29.8787Z" fill="white"/>
<path d="M59.0789 28.623V30.7817L60.7495 28.5839H61.4872V31.9251H60.6519V29.7609L58.9814 31.9642H58.2436V28.623H59.0789Z" fill="white"/>
<path d="M64.7978 31.9253H63.9625V30.7204H63.8528L63.0053 31.9253H62.042L63.0785 30.6312C62.886 30.6017 62.7076 30.5201 62.5663 30.3969C62.4607 30.3026 62.3787 30.1884 62.326 30.0622C62.2734 29.9361 62.2514 29.8009 62.2615 29.6662C62.2507 29.3986 62.3559 29.138 62.5541 28.941C62.6879 28.8279 62.8458 28.7413 63.0178 28.6866C63.1899 28.6319 63.3724 28.6103 63.554 28.6231H64.7734L64.7978 31.9253ZM63.9625 29.2478H63.7674C63.5932 29.2364 63.4198 29.2776 63.2736 29.365C63.2235 29.4064 63.1839 29.4573 63.1576 29.5141C63.1313 29.571 63.1188 29.6324 63.1212 29.6941C63.1179 29.7532 63.1287 29.8123 63.1529 29.8672C63.1771 29.9221 63.2141 29.9715 63.2614 30.012C63.4085 30.1072 63.5881 30.1508 63.7674 30.1347H63.9625V29.2478Z" fill="white"/>
</svg>
