<svg width="75" height="37" viewBox="0 0 75 37" fill="none" xmlns="http://www.w3.org/2000/svg">
<g clip-path="url(#clip0)">
<path d="M29.111 26.4165L29.103 26.4482C7.96734 34.4837 -8.67939 14.4717 15.4408 0H32.4275C23.9824 1.99036 13.634 7.64952 10.5852 14.2788C7.54977 20.8842 12.2287 29.4509 29.111 26.4165Z" fill="white"/>
<path d="M11.4297 14.6595C9.73268 18.3468 10.9479 22.3143 14.4866 24.3443H15.3994V9.55805C13.6461 11.1466 12.2488 12.8674 11.4297 14.6595ZM0 1.51733V6.3941H6.34123C7.83218 4.54384 9.60955 2.93939 11.5181 1.51733H0ZM2.61787 15.8542C2.60448 13.0471 3.62165 10.3537 5.1474 8.02762H0V24.3443H6.3225C4.03387 22.0976 2.63125 19.0684 2.61787 15.8542ZM30.3116 1.51733C25.7531 2.90503 20.8359 5.26808 17.0563 8.17829V16.1926H23.6732V6.3941H41.3746V1.51733H30.3116Z" fill="white"/>
<path d="M72.5718 22.301C72.4648 22.4886 72.2292 22.7609 71.734 22.7609H70.7517V20.234C70.7517 20.0939 70.8721 19.9776 71.014 19.9776H71.8036C71.9428 19.9776 72.4112 20.004 72.604 20.4877C72.695 20.7256 72.703 21.019 72.703 21.3573C72.703 21.7485 72.695 22.0604 72.5718 22.301ZM74.3438 18.9996C73.7817 18.4207 72.9921 18.3784 72.5959 18.3784H69.6435C68.9877 18.3784 68.5059 18.8938 68.5059 19.4595V26.5407H70.749V24.3653H72.4086C73.0349 24.3653 73.953 24.3098 74.4991 23.538C74.9702 22.8719 74.9943 21.7063 74.9943 21.1882C74.997 20.6146 74.9515 19.6207 74.3438 18.9996Z" fill="white"/>
<path d="M63.7579 19.9273C63.9185 19.8374 64.2718 19.8242 64.5341 19.8242C64.6465 19.8242 64.9463 19.8348 65.131 19.8718C65.463 19.9379 65.5406 20.1176 65.5406 20.2762C65.5406 20.3872 65.4951 20.5934 65.1712 20.5934H63.5143C63.4929 20.2894 63.5277 20.0489 63.7579 19.9273ZM63.6187 22.478C63.5357 22.3512 63.5036 22.1556 63.5143 21.9943H66.8201C67.0262 21.9943 67.2216 21.9838 67.4116 21.8252C67.7542 21.5555 67.7783 21.1115 67.7783 20.7282C67.7783 20.0753 67.7114 19.1819 67.1252 18.722C66.6461 18.3361 65.8457 18.3149 64.6251 18.3149C63.4795 18.3149 62.3231 18.3361 61.7637 18.9017C61.2149 19.4542 61.2712 20.3476 61.2712 21.4392C61.2712 22.523 61.3193 23.1547 61.5817 23.5856C62.0635 24.3627 62.8263 24.3627 63.7311 24.3627H67.5642V22.7635H64.6278C64.2263 22.7635 63.8141 22.7847 63.6187 22.478Z" fill="white"/>
<path d="M60.5493 24.3627V18.3811H58.3062V20.4772H56.3147V18.3811H54.0742V24.3627H56.3147V22.0816H58.3062V24.3627H60.5493Z" fill="white"/>
<path d="M41.5887 19.9273C41.7493 19.8374 42.1053 19.8242 42.3703 19.8242C42.48 19.8242 42.7798 19.8348 42.9592 19.8718C43.2938 19.9379 43.3714 20.1176 43.3714 20.2762C43.3714 20.3872 43.3259 20.5934 43.0074 20.5934H41.3531C41.3264 20.2894 41.3611 20.0489 41.5887 19.9273ZM41.4548 22.478C41.3745 22.3512 41.3397 22.1556 41.3504 21.9943H44.6509C44.857 21.9943 45.0524 21.9838 45.2451 21.8252C45.5878 21.5555 45.6092 21.1115 45.6092 20.7282C45.6092 20.0753 45.5449 19.1819 44.9587 18.722C44.4796 18.3361 43.6792 18.3149 42.4559 18.3149C41.313 18.3149 40.1566 18.3361 39.5945 18.9017C39.0484 19.4542 39.1073 20.3476 39.1073 21.4392C39.1073 22.523 39.1528 23.1547 39.4151 23.5856C39.897 24.3627 40.6598 24.3627 41.5646 24.3627H45.395V22.7635H42.4586C42.0598 22.7635 41.6422 22.7847 41.4548 22.478Z" fill="white"/>
<path d="M36.3409 24.3627V19.9591H38.6001V18.3811H31.8359V19.9591H34.0978V24.3627H36.3409Z" fill="white"/>
<path d="M31.2204 24.3627V18.3811H28.9746V20.4772H26.9858V18.3811H24.748V24.3627H26.9858V22.0816H28.9746V24.3627H31.2204Z" fill="white"/>
<path d="M21.3552 22.4198C21.2561 22.5679 20.9751 22.8269 20.3701 22.8269C19.6822 22.8269 19.4225 22.4859 19.377 22.4198C19.286 22.3009 19.1575 22.026 19.1575 21.3705C19.1575 20.67 19.2941 20.4136 19.377 20.2947C19.4895 20.1519 19.7545 19.9167 20.3701 19.9167C20.9858 19.9167 21.2534 20.1519 21.3632 20.2947C21.481 20.4533 21.5827 20.7387 21.5827 21.3705C21.5854 21.8013 21.5372 22.174 21.3552 22.4198ZM23.071 18.9202C22.4071 18.3466 21.3311 18.3123 20.3728 18.3123C19.4118 18.3123 18.3385 18.3466 17.6719 18.9202C16.9225 19.5863 16.877 20.7731 16.877 21.3705C16.877 21.9731 16.9251 23.1547 17.6719 23.8181C18.3411 24.397 19.4118 24.4313 20.3728 24.4313C21.3311 24.4313 22.4071 24.397 23.071 23.8181C23.8231 23.152 23.8686 21.9731 23.8686 21.3705C23.8686 20.7731 23.8231 19.5863 23.071 18.9202Z" fill="white"/>
<path d="M52.3554 14.0146V12.5H50.1337C49.791 12.5 49.2102 12.5397 48.9318 12.093C48.8756 11.9899 48.7498 11.7414 48.7498 11.0568C48.7498 10.7528 48.7712 10.5044 48.8488 10.2691C48.9773 9.88058 49.2396 9.54489 50.0052 9.54489H52.3527V8.03296H48.9666C48.2439 8.03296 47.6015 8.16776 47.133 8.65148C46.5067 9.29643 46.4531 10.2348 46.4531 11.1018C46.4531 12.0163 46.5281 12.7643 46.9938 13.3036C47.5452 13.9485 48.3322 14.0172 48.8488 14.0172H52.3554" fill="white"/>
<path d="M45.6105 14.0146V8.03027H43.3648V10.1316H41.3759V8.03027H39.1328V14.0146H41.3759V11.7334H43.3648V14.0146H45.6105Z" fill="white"/>
<path d="M36.0822 12.0401C36.0822 12.1405 36.0715 12.2542 35.9671 12.3308C35.8975 12.3863 35.7476 12.4075 35.6352 12.4075H34.4654C34.2112 12.4075 34.0586 12.2594 34.0666 12.0057C34.08 11.7625 34.262 11.6647 34.4869 11.6647H36.0795V12.0401H36.0822ZM37.7498 8.54835C37.4875 8.28402 36.9977 8.03027 36.2535 8.03027H32.2384V9.52106H35.2845C35.5094 9.52106 35.8012 9.53427 35.9698 9.75631C36.0742 9.89111 36.0849 10.0497 36.0849 10.1528V10.2427H33.4322C33.0735 10.2427 32.6854 10.2532 32.3535 10.5043C31.869 10.8665 31.8262 11.4982 31.8262 12.0136C31.8262 12.4894 31.8476 13.2824 32.3187 13.6974C32.6399 13.9934 33.0521 14.0146 33.4295 14.0146H36.9977C37.3403 14.0146 37.7418 13.9934 38.0282 13.6974C38.2986 13.4145 38.328 13.0524 38.328 12.7379V10.2321C38.3253 9.74309 38.2557 9.03206 37.7498 8.54835Z" fill="white"/>
<path d="M28.8101 11.9502C28.7057 12.1405 28.4648 12.4075 27.9723 12.4075H26.9899V9.88318C26.9899 9.74309 27.1104 9.63472 27.2496 9.63472H28.0419C28.1784 9.63472 28.6469 9.65586 28.8396 10.1422C28.9306 10.3748 28.944 10.6709 28.944 11.0118C28.9466 11.3951 28.9359 11.707 28.8101 11.9502ZM30.5821 8.64879C30.02 8.07521 29.2331 8.03027 28.8315 8.03027H25.8818C25.2286 8.03027 24.7441 8.54306 24.7441 9.10871V16.1952H26.9873V14.0146H28.6469C29.2759 14.0146 30.1913 13.9591 30.7428 13.1899C31.2085 12.5238 31.2326 11.3581 31.2326 10.84C31.2353 10.2691 31.1871 9.26995 30.5821 8.64879Z" fill="white"/>
<path d="M49.7705 18.1563C51.224 18.1563 52.3536 17.366 52.3536 16.1951H50.8787C50.8787 16.7105 50.3915 16.9986 49.7705 16.9986C49.1468 16.9986 48.6597 16.7105 48.6597 16.1951H47.1848C47.1848 17.366 48.3144 18.1563 49.7705 18.1563ZM51.9628 18.3149C51.2775 18.3149 51.0955 18.5396 50.9108 18.7669L48.7159 21.4842C48.6677 21.5423 48.6008 21.6586 48.5098 21.6586C48.4214 21.6586 48.4054 21.5899 48.4054 21.4842L48.5178 18.381H46.2773V23.3027C46.2773 24.3389 47.067 24.434 47.5568 24.434C48.0494 24.434 48.3144 24.3785 48.6891 23.9133L50.8412 21.2595C50.9215 21.1696 50.975 21.0771 51.0446 21.0771C51.1357 21.0771 51.1357 21.1696 51.1357 21.2595L51.0232 24.3627H53.2664V19.5097C53.2664 19.2031 53.2476 18.3149 51.9628 18.3149Z" fill="white"/>
<path d="M2.04432 33.305H0.845131V36.194H0.00195312V32.6045H2.04432V33.305Z" fill="white"/>
<path d="M3.79389 32.6045C4.10974 32.6045 4.4604 32.6468 4.74949 32.9005C5.05999 33.1701 5.1055 33.5243 5.1055 33.7728C5.1055 34.2248 4.93151 34.4785 4.79499 34.6186C4.5059 34.9094 4.12313 34.9358 3.86616 34.9358H3.35222V36.194H2.51172V32.6045H3.79389ZM3.35222 34.2565H3.65202C3.76712 34.2565 3.96787 34.2512 4.10439 34.1217C4.17934 34.0477 4.2409 33.9235 4.2409 33.7675C4.2409 33.6169 4.18737 33.4926 4.10439 33.4186C3.97858 33.2997 3.79924 33.2838 3.63596 33.2838H3.35222V34.2565Z" fill="white"/>
<path d="M6.19612 32.6045L6.96168 34.2618L7.69243 32.6045H8.59985L6.93223 36.194H6.02481L6.55481 35.1605L5.25391 32.6045H6.19612Z" fill="white"/>
<path d="M12.0935 32.6045V36.194H11.253V33.305H9.87175V36.194H9.03125V32.6045H12.0935Z" fill="white"/>
<path d="M15.9555 32.6045V36.194H15.115V33.305H13.7311V36.194H12.8906V32.6045H15.9555Z" fill="white"/>
<path d="M18.8928 35.5147H17.517L17.2386 36.1913H16.3633L17.8328 32.6018H18.601L20.0385 36.1913H19.1658L18.8928 35.5147ZM18.6626 34.8803L18.2156 33.675L17.7632 34.8803H18.6626Z" fill="white"/>
<path d="M22.5612 34.1005L23.8059 32.6045H24.8338L23.3589 34.3041L24.9489 36.1913H23.8675L22.5612 34.5975V36.1913H21.7207V32.6018H22.5612V34.1005Z" fill="white"/>
<path d="M28.3785 33.0456C28.7238 33.3734 28.946 33.8466 28.946 34.4016C28.946 34.8801 28.772 35.3691 28.3785 35.747C28.0386 36.0695 27.5808 36.273 26.9705 36.273C26.288 36.273 25.8249 36.0034 25.5518 35.747C25.2012 35.4246 24.9844 34.9409 24.9844 34.4122C24.9844 33.8968 25.2199 33.3734 25.5465 33.0509C25.7928 32.8104 26.2451 32.5249 26.9705 32.5249C27.538 32.5223 28.0118 32.6967 28.3785 33.0456ZM26.1675 33.5954C26.0096 33.7461 25.8436 34.0104 25.8436 34.4069C25.8436 34.7347 25.9534 34.999 26.1782 35.2131C26.4138 35.4351 26.6734 35.5092 26.9598 35.5092C27.3319 35.5092 27.5942 35.3743 27.7682 35.2025C27.9101 35.0677 28.0841 34.814 28.0841 34.4016C28.0841 34.0289 27.9315 33.7567 27.7682 33.5954C27.5889 33.4236 27.2971 33.2888 26.9652 33.2888C26.6466 33.2862 26.3629 33.3998 26.1675 33.5954Z" fill="white"/>
<path d="M29.4043 36.194L29.9878 32.6045H30.6865L31.5939 34.7508L32.5013 32.6045H33.1999L33.7835 36.194H32.943L32.6539 34.053L31.7411 36.194H31.4467L30.5339 34.053L30.2448 36.194H29.4043Z" fill="white"/>
<path d="M37.4763 32.6045V36.194H36.6358V33.305H35.2546V36.194H34.4141V32.6045H37.4763Z" fill="white"/>
<path d="M40.4162 35.5147H39.0404L38.762 36.1913H37.8867L39.3563 32.6018H40.1245L41.5619 36.1913H40.6893L40.4162 35.5147ZM40.186 34.8803L39.739 33.675L39.2867 34.8803H40.186Z" fill="white"/>
<path d="M42.8112 33.971H44.2647V32.6045H45.1052V36.194H44.2647V34.6715H42.8112V36.194H41.9707V32.6045H42.8112V33.971Z" fill="white"/>
<path d="M46.7428 32.6043V34.9488L48.4292 32.5593H49.1707V36.1911H48.3302V33.8413L46.6438 36.2361H45.9023V32.6043H46.7428Z" fill="white"/>
<path d="M50.8132 32.6044V34.9489L52.4995 32.5594H53.241V36.1913H52.4005V33.8414L50.7141 36.2362H49.9727V32.6044H50.8132ZM52.6922 31.6634C52.6012 31.8775 52.4406 32.0467 52.2773 32.1471C52.0605 32.2766 51.825 32.2978 51.6055 32.2978C51.3913 32.2978 51.1585 32.2766 50.939 32.1471C50.7757 32.044 50.6151 31.8775 50.5241 31.6634L51.1022 31.4229C51.1397 31.5207 51.212 31.6264 51.2816 31.6819C51.3646 31.74 51.4904 31.7718 51.6162 31.7718C51.6992 31.7718 51.8303 31.7612 51.9374 31.6819C52.0204 31.6185 52.0846 31.5101 52.1114 31.4229L52.6922 31.6634Z" fill="white"/>
<path d="M56.2309 35.8423L55.7892 36.1489L54.9434 34.9859L55.7892 33.8308L56.2202 34.1269L55.5858 34.9885L56.2309 35.8423ZM57.3658 35.8423L56.9242 36.1489L56.0783 34.9859L56.9242 33.8308L57.3551 34.1269L56.7207 34.9885L57.3658 35.8423Z" fill="white"/>
<path d="M61.0032 32.6045V35.5041H61.4127V37.0002H60.6579V36.194H58.4228V37.0002H57.668V35.5041C57.9035 35.4618 58.0454 35.3376 58.0775 35.3059C58.3827 35.0257 58.388 34.5155 58.388 34.1217V32.6045H61.0032ZM59.1991 34.0953C59.1991 34.3437 59.1884 34.7138 59.1295 34.9358C59.0866 35.0918 58.9983 35.3085 58.8029 35.5068H60.1734V33.297H59.2017V34.0953H59.1991Z" fill="white"/>
<path d="M63.9237 33.305H62.7057V33.9975H63.8621V34.6979H62.7057V35.4936H63.9237V36.194H61.8652V32.6045H63.9237V33.305Z" fill="white"/>
<path d="M67.6157 32.6045V36.194H66.7752V33.3049H65.7875V34.5367C65.7875 35.1499 65.7125 35.6627 65.4208 35.9508C65.2682 36.1015 65.0166 36.2363 64.6017 36.2363C64.4759 36.2363 64.3661 36.2204 64.2617 36.194V35.4513C64.3233 35.4724 64.3929 35.483 64.4705 35.483C64.6124 35.483 64.7328 35.4354 64.8024 35.364C64.955 35.2134 64.9657 34.8962 64.9657 34.6107V32.6045H67.6157Z" fill="white"/>
<path d="M71.6402 33.0456C71.9855 33.3734 72.2077 33.8466 72.2077 34.4016C72.2077 34.8801 72.0337 35.3691 71.6402 35.747C71.3003 36.0695 70.8425 36.273 70.2322 36.273C69.5497 36.273 69.0866 36.0034 68.8136 35.747C68.4629 35.4246 68.2461 34.9409 68.2461 34.4122C68.2461 33.8968 68.4816 33.3734 68.8082 33.0509C69.0545 32.8104 69.5068 32.5249 70.2322 32.5249C70.7997 32.5223 71.2762 32.6967 71.6402 33.0456ZM69.4292 33.5954C69.2713 33.7461 69.1053 34.0104 69.1053 34.4069C69.1053 34.7347 69.2151 34.999 69.4399 35.2131C69.6755 35.4351 69.9351 35.5092 70.2215 35.5092C70.5936 35.5092 70.8559 35.3743 71.0299 35.2025C71.1718 35.0677 71.3458 34.814 71.3458 34.4016C71.3458 34.0289 71.1932 33.7567 71.0299 33.5954C70.8506 33.4236 70.5588 33.2888 70.2269 33.2888C69.911 33.2862 69.6246 33.3998 69.4292 33.5954Z" fill="white"/>
<path d="M72.5849 34.1269L73.0159 33.8308L73.8617 34.9859L73.0159 36.1489L72.5742 35.8423L73.2193 34.9859L72.5849 34.1269ZM73.7199 34.1269L74.1508 33.8308L74.9967 34.9859L74.1508 36.1489L73.7092 35.8423L74.3543 34.9859L73.7199 34.1269Z" fill="white"/>
</g>
<defs>
<clipPath id="clip0">
<rect width="75" height="37" fill="white"/>
</clipPath>
</defs>
</svg>
