<svg width="121" height="35" viewBox="0 0 121 35" fill="none" xmlns="http://www.w3.org/2000/svg">
<path d="M17.8819 18.5519V7.91912H7.96727V11.6801H13.1094V14.5359H4.77148V8.82431C4.77148 8.11461 4.77148 6.55496 5.51519 5.67952C6.18239 4.90607 7.30007 4.87207 8.17976 4.87207H17.6694C18.5491 4.87207 19.671 4.90607 20.3382 5.67952C21.0819 6.55496 21.0819 8.11461 21.0819 8.82431V17.6467C21.0819 18.3564 21.0819 19.9118 20.3382 20.7915C19.6753 21.565 18.5491 21.599 17.6694 21.599H8.17976C7.38081 21.599 6.23764 21.565 5.54068 20.8213C4.82248 20.0436 4.77148 18.8111 4.77148 17.804V17.3492L7.97152 16.6693V18.5477H17.8819V18.5519Z" fill="white"/>
<path d="M3.20004 3.84783V14.4849H13.1146V10.7239H7.97247V7.86806H16.3147V13.5754C16.3147 14.2894 16.3147 15.8405 15.571 16.7202C14.9038 17.4979 13.7818 17.5319 12.9064 17.5319H3.41252C2.52858 17.5319 1.41091 17.4979 0.743701 16.7202C0 15.8405 0 14.2936 0 13.5754V4.75727C0 4.04332 0 2.48367 0.743701 1.60823C1.41091 0.830529 2.52858 0.800781 3.41252 0.800781H12.8979C13.6968 0.800781 14.8443 0.830529 15.537 1.57848C16.2509 2.35618 16.3062 3.59285 16.3062 4.59153V4.88476H13.1316L13.1104 3.84783H3.20004Z" fill="white"/>
<path d="M27.8594 20.0521H31.6756V13.3588H32.8145C34.4039 13.3843 35.1434 13.941 35.6194 16.0871C36.0996 18.1865 36.5288 19.5549 36.7838 20.0521H40.7233C40.4003 19.4019 39.8903 17.1751 39.3591 15.2245C38.9299 13.6563 38.2712 12.5471 37.0855 12.0669V11.9904C38.5517 11.4592 40.0943 9.96755 40.0943 7.82144C40.0943 6.25755 39.5376 5.04213 38.5049 4.23043C37.2895 3.26999 35.5174 2.89602 32.993 2.89602C30.9192 2.89602 29.096 3.04476 27.8594 3.24449V20.0521ZM31.6756 5.90057C31.9604 5.82407 32.4873 5.77308 33.4223 5.77308C35.1944 5.77308 36.2526 6.58052 36.2526 8.11892C36.2526 9.61482 35.1136 10.5753 33.197 10.5753H31.6756V5.90057ZM42.7206 3.01926V12.5259C42.7206 17.9315 45.2237 20.3326 49.5202 20.3326C53.9696 20.3326 56.6257 17.838 56.6257 12.5769V3.01926H52.7797V12.8021C52.7797 15.8364 51.6663 17.2516 49.6477 17.2516C47.7013 17.2516 46.5624 15.7599 46.5624 12.8021V3.01926H42.7206ZM59.3073 19.2447C60.272 19.7759 62.1886 20.3071 64.135 20.3071C68.8097 20.3071 70.9813 17.8805 70.9813 15.0247C70.9813 12.6236 69.5959 11.0597 66.5828 9.9463C64.3602 9.10911 63.421 8.62889 63.421 7.54521C63.421 6.68677 64.2327 5.90057 65.8986 5.90057C67.5433 5.90057 68.7842 6.38079 69.4386 6.70802L70.2971 3.62272C69.2856 3.1425 67.9002 2.76428 65.9539 2.76428C61.9591 2.76428 59.507 4.96138 59.507 7.86819C59.507 10.3458 61.3769 11.9139 64.2115 12.9254C66.2556 13.6308 67.0715 14.2428 67.0715 15.3052C67.0715 16.4144 66.1366 17.1496 64.3645 17.1496C62.7241 17.1496 61.1049 16.6184 60.0892 16.0871L59.3073 19.2447ZM85.5408 16.5674C84.7589 16.8988 83.4967 17.1198 82.311 17.1198C78.8985 17.1198 76.8714 14.9737 76.8714 11.5612C76.8714 7.77044 79.2512 5.92607 82.2855 5.92607C83.6752 5.92607 84.7589 6.2278 85.5153 6.55503L86.327 3.52498C85.6471 3.14675 84.1299 2.76428 82.1283 2.76428C76.9734 2.76428 72.8256 5.97281 72.8256 11.7864C72.8256 16.6396 75.8599 20.3284 81.7501 20.3284C83.7984 20.3284 85.4176 19.9246 86.0975 19.5974L85.5408 16.5674ZM95.4002 2.71753C90.394 2.71753 87.109 6.53378 87.109 11.6419C87.109 16.5206 90.0923 20.3326 95.1239 20.3326C100.13 20.3326 103.487 16.9753 103.487 11.3657C103.492 6.63152 100.636 2.71753 95.4002 2.71753ZM95.3237 5.77308C97.9797 5.77308 99.4246 8.3994 99.4246 11.4847C99.4246 14.7952 97.933 17.2728 95.3237 17.2728C92.7483 17.2728 91.1802 14.9185 91.1802 11.5569C91.1759 8.25066 92.6973 5.77308 95.3237 5.77308ZM109.556 20.0521V14.9227C109.556 12.1434 109.505 9.74231 109.382 7.46447H109.479C110.291 9.46183 111.426 11.6632 112.437 13.4778L116.075 20.0479H120.121V3.01926H116.581V7.97443C116.581 10.554 116.657 12.8531 116.882 15.1012H116.836C116.054 13.1803 115.068 11.0555 114.061 9.2621L110.512 3.01926H106.02V20.0521H109.556Z" fill="white"/>
<path d="M3.54332 28.5813H1.63519V33.2263H0.300781V27.4551H3.54332V28.5813Z" fill="white"/>
<path d="M6.323 27.4551C6.82446 27.4551 7.38118 27.5231 7.84015 27.9311C8.33312 28.3646 8.40536 28.934 8.40536 29.3335C8.40536 30.0602 8.12913 30.4639 7.91239 30.6934C7.45342 31.1609 6.84571 31.2034 6.43774 31.2034H5.62179V33.2263H4.28738V27.4551H6.323ZM5.62179 30.1112H6.09776C6.2805 30.1112 6.59923 30.1027 6.81597 29.8945C6.93496 29.7712 7.0327 29.5757 7.0327 29.3208C7.0327 29.0785 6.94771 28.8788 6.81597 28.7598C6.61623 28.5686 6.3315 28.5431 6.07226 28.5431H5.62179V30.1112Z" fill="white"/>
<path d="M10.1434 27.4551L11.3588 30.1197L12.519 27.4551H13.9596L11.3121 33.2263H9.87141L10.7129 31.5646L8.64749 27.4551H10.1434Z" fill="white"/>
<path d="M19.5136 27.4551V33.2263H18.1791V28.5813H15.9863V33.2263H14.6519V27.4551H19.5136Z" fill="white"/>
<path d="M25.6508 27.4551V33.2263H24.3163V28.5813H22.1235V33.2263H20.7891V27.4551H25.6508Z" fill="white"/>
<path d="M30.3247 32.1341H28.1404L27.6984 33.222H26.3087L28.6418 27.4509H29.8615L32.1436 33.222H30.7582L30.3247 32.1341ZM29.9592 31.1141L29.2495 29.1763L28.5313 31.1141H29.9592Z" fill="white"/>
<path d="M36.1601 29.8605L38.1362 27.4551H39.7681L37.4265 30.1877L39.9466 33.2263H38.2297L36.1559 30.6637V33.2263H34.8214V27.4551H36.1559V29.8605H36.1601Z" fill="white"/>
<path d="M45.3986 28.1648C45.9468 28.6918 46.2995 29.4525 46.2995 30.3449C46.2995 31.1141 46.0233 31.9003 45.3986 32.508C44.8588 33.0265 44.1321 33.358 43.1632 33.358C42.0795 33.358 41.3443 32.9245 40.9109 32.508C40.3541 31.9896 40.0099 31.2119 40.0099 30.3619C40.0099 29.5332 40.3839 28.6918 40.9024 28.1733C41.2933 27.7866 42.0115 27.3276 43.1632 27.3276C44.0642 27.3276 44.8206 27.6039 45.3986 28.1648ZM41.8883 29.0488C41.6376 29.291 41.3741 29.716 41.3741 30.3577C41.3741 30.8846 41.5483 31.3096 41.9053 31.6538C42.2793 32.0108 42.6957 32.1298 43.1462 32.1298C43.7369 32.1298 44.1534 31.9131 44.4296 31.6368C44.6549 31.4201 44.9311 31.0121 44.9311 30.3492C44.9311 29.75 44.6889 29.3122 44.4296 29.0488C44.1449 28.7725 43.6817 28.5558 43.1547 28.5558C42.6532 28.5558 42.1985 28.7343 41.8883 29.0488Z" fill="white"/>
<path d="M47.0394 33.2263L47.9658 27.4551H49.075L50.5157 30.9059L51.9563 27.4551H53.0655L53.9919 33.2263H52.6575L52.1985 29.784L50.7494 33.2263H50.2819L48.8328 29.784L48.3738 33.2263H47.0394Z" fill="white"/>
<path d="M59.8651 27.4551V33.2263H58.5307V28.5813H56.3379V33.2263H55.0035V27.4551H59.8651Z" fill="white"/>
<path d="M64.535 32.1341H62.3506L61.9086 33.222H60.519L62.8521 27.4509H64.0717L66.3538 33.222H64.9684L64.535 32.1341ZM64.1695 31.1141L63.4598 29.1763L62.7416 31.1141H64.1695Z" fill="white"/>
<path d="M68.3475 29.6522H70.6551V27.4551H71.9895V33.2263H70.6551V30.7784H68.3475V33.2263H67.0131V27.4551H68.3475V29.6522Z" fill="white"/>
<path d="M74.5984 27.4552V31.2247L77.2757 27.3829H78.4529V33.2263H77.1185V29.444L74.4411 33.2943H73.264V27.4552H74.5984Z" fill="white"/>
<path d="M81.0667 27.4551V31.2246L83.744 27.3829H84.9254V33.2263H83.591V29.444L80.9137 33.2943H79.7365V27.4551H81.0667ZM84.0457 25.9422C83.9012 26.2865 83.6462 26.5542 83.387 26.7199C83.0428 26.9282 82.6688 26.9622 82.3203 26.9622C81.9803 26.9622 81.6106 26.9282 81.2621 26.7199C81.0029 26.5542 80.7479 26.2865 80.6034 25.9422L81.5214 25.5513C81.5809 25.7085 81.6956 25.8827 81.8061 25.9677C81.9378 26.0655 82.1376 26.1165 82.3373 26.1165C82.4691 26.1165 82.6773 26.0995 82.8473 25.9677C82.979 25.8657 83.081 25.6915 83.1235 25.5513L84.0457 25.9422Z" fill="white"/>
<path d="M89.9829 32.6654L89.2817 33.1583L87.9388 31.2884L89.2817 29.4271L89.9659 29.903L88.9587 31.2884L89.9829 32.6654ZM91.7848 32.6654L91.0836 33.1583L89.7407 31.2884L91.0836 29.4271L91.7678 29.903L90.7606 31.2884L91.7848 32.6654Z" fill="white"/>
<path d="M97.5642 27.4551V32.1171H98.2144V34.5224H97.0159V33.2263H93.4674V34.5224H92.269V32.1171C92.643 32.0491 92.8682 31.8493 92.9192 31.7983C93.4037 31.3479 93.4122 30.5277 93.4122 29.8945V27.4551H97.5642ZM94.7041 29.852C94.7041 30.2515 94.6871 30.8464 94.5936 31.2034C94.5256 31.4541 94.3854 31.8026 94.0751 32.1213H96.251V28.5643H94.7084V29.852H94.7041Z" fill="white"/>
<path d="M102.209 28.5813H100.275V29.6947H102.111V30.8209H100.275V32.1001H102.209V33.2263H98.9407V27.4551H102.209V28.5813Z" fill="white"/>
<path d="M108.078 27.4551V33.2263H106.744V28.5813H105.175V30.5617C105.175 31.5476 105.056 32.3678 104.593 32.8353C104.351 33.0775 103.951 33.2942 103.293 33.2942C103.093 33.2942 102.919 33.2688 102.753 33.2263V32.0321C102.851 32.0661 102.961 32.0831 103.085 32.0831C103.31 32.0831 103.501 32.0066 103.611 31.8918C103.854 31.6496 103.871 31.1396 103.871 30.6807V27.4551H108.078Z" fill="white"/>
<path d="M114.474 28.1648C115.022 28.6918 115.375 29.4525 115.375 30.3449C115.375 31.1141 115.099 31.9003 114.474 32.508C113.934 33.0265 113.208 33.358 112.239 33.358C111.155 33.358 110.42 32.9245 109.986 32.508C109.43 31.9896 109.085 31.2119 109.085 30.3619C109.085 29.5332 109.459 28.6918 109.978 28.1733C110.369 27.7866 111.087 27.3276 112.239 27.3276C113.14 27.3276 113.896 27.6039 114.474 28.1648ZM110.964 29.0488C110.713 29.291 110.449 29.716 110.449 30.3577C110.449 30.8846 110.624 31.3096 110.981 31.6538C111.355 32.0108 111.771 32.1298 112.222 32.1298C112.812 32.1298 113.229 31.9131 113.505 31.6368C113.73 31.4201 114.006 31.0121 114.006 30.3492C114.006 29.75 113.764 29.3122 113.505 29.0488C113.22 28.7725 112.757 28.5558 112.23 28.5558C111.724 28.5558 111.274 28.7343 110.964 29.0488Z" fill="white"/>
<path d="M116.199 29.903L116.883 29.4271L118.226 31.2884L116.883 33.1583L116.182 32.6654L117.206 31.2884L116.199 29.903ZM118.005 29.903L118.689 29.4271L120.032 31.2884L118.689 33.1583L117.988 32.6654L119.012 31.2884L118.005 29.903Z" fill="white"/>
</svg>
