<svg width="25" height="16" viewBox="0 0 25 16" fill="none" xmlns="http://www.w3.org/2000/svg">
<path d="M13.4695 15.0767C14.0869 15.0767 14.34 14.6617 14.3299 14.1455C14.2995 12.2022 15.0485 11.1596 16.4149 12.526C17.923 14.0342 18.2368 15.0767 20.0587 15.0767H23.2976C24.1175 15.0767 24.4414 14.8135 24.4414 14.3986C24.4414 13.5281 23.0041 11.9795 21.7895 10.856C20.079 9.26687 20.0081 9.23651 21.4757 7.32351C23.2875 4.96517 25.6762 1.92867 23.5709 1.92867H19.5425C18.7631 1.92867 18.7024 2.3639 18.4291 3.02181C17.417 5.4004 15.504 8.47738 14.7853 8.00166C14.0161 7.51582 14.3602 5.57247 14.421 2.67767C14.4412 1.91855 14.4311 1.39222 13.2671 1.11894C12.6294 0.977234 12.012 0.916504 11.4351 0.916504C9.13745 0.916504 7.54835 1.87806 8.44917 2.05013C10.0383 2.34366 9.88645 5.78502 9.51195 7.27291C8.86416 9.86405 6.43496 5.22833 5.43292 2.92059C5.19 2.3639 5.10903 1.92867 4.23856 1.92867H0.949025C0.442942 1.92867 0.149414 2.09062 0.149414 2.455C0.149414 3.0623 3.14542 9.25675 6.00985 12.3439C8.79331 15.35 11.5565 15.0767 13.4695 15.0767Z" fill="white"/>
</svg>
