<svg width="18" height="16" viewBox="0 0 18 16" fill="none" xmlns="http://www.w3.org/2000/svg">
<path d="M17.8675 2.24419C17.2123 2.53488 16.5572 2.76744 15.8474 2.82558C16.5572 2.36046 17.1577 1.60465 17.3761 0.732558C16.6664 1.13953 15.9566 1.48837 15.1377 1.66279C14.4826 0.906977 13.5544 0.5 12.5717 0.5C10.6063 0.5 9.02306 2.18605 9.02306 4.27907C9.02306 4.56977 9.07766 4.86046 9.13225 5.15116C6.18412 4.97674 3.56355 3.52326 1.81651 1.19767C1.48894 1.77907 1.32516 2.4186 1.32516 3.11628C1.32516 4.39535 1.9257 5.55814 2.90841 6.25581C2.30787 6.25581 1.76192 6.08139 1.32516 5.7907V5.84884C1.32516 7.65116 2.52625 9.22093 4.1641 9.56977C3.89112 9.62791 3.56356 9.68605 3.23599 9.68605C3.01761 9.68605 2.79923 9.68604 2.58085 9.62791C3.01761 11.1395 4.32788 12.186 5.91114 12.2442C4.71005 13.2326 3.18139 13.8721 1.54354 13.8721C1.27056 13.8721 0.997585 13.8721 0.724609 13.814C2.30787 14.8605 4.1641 15.5 6.12953 15.5C12.6263 15.5 16.175 9.74419 16.175 4.80232C16.175 4.62791 16.175 4.45349 16.175 4.33721C16.7756 3.69767 17.3761 3 17.8675 2.24419Z" fill="white"/>
</svg>
