<svg width="48" height="64" fill="none" xmlns="http://www.w3.org/2000/svg"><path d="M5.344 28.035v8.272m4.442-8.273v9.157m32.48-9.157v8.392m-4.443-8.392v9.137m-16.24-9.136v9.453m4.443-9.453v9.41M6.7 40.616l3.698 1.85a4.48 4.48 0 004.007 0l1.694-.848a4.48 4.48 0 014.007 0l3.698 1.85m11.402 0l3.698-1.85a4.48 4.48 0 014.006 0l3.698 1.85M1 22.772h45.61v5.573H1v-5.573zm45.61 15.823v8.067H1v-8.067l3.759-1.88a4.343 4.343 0 013.885 0l1.816.909a4.344 4.344 0 003.885 0l1.816-.908a4.343 4.343 0 013.885 0l1.816.908a4.344 4.344 0 003.885 0l1.816-.908a4.343 4.343 0 013.885 0l1.816.908a4.344 4.344 0 003.886 0l1.816-.908a4.343 4.343 0 013.885 0l3.758 1.88z" stroke="#000"/><path d="M17.193 58.004c-.656 0-1.18-.204-1.572-.612-.384-.408-.576-.964-.576-1.668 0-.696.192-1.248.576-1.656.392-.408.916-.612 1.572-.612.648 0 1.164.204 1.548.612.392.408.588.96.588 1.656s-.196 1.252-.588 1.668c-.384.408-.9.612-1.548.612zm-4.548 3.336V53.6h1.068V62h-1.86L8.11 54.26V62H7.041v-8.4h1.86l3.744 7.74zm5.448-6.732c-.216-.288-.516-.432-.9-.432s-.688.14-.912.42c-.216.28-.324.656-.324 1.128 0 .472.108.852.324 1.14.224.28.528.42.912.42s.684-.14.9-.42c.224-.288.336-.668.336-1.14 0-.464-.112-.836-.336-1.116zm-2.892 4.848v-.708h3.972v.708h-3.972zm10.286-.288h1.272v.864h-1.272V62h-1.056v-1.968h-4.176v-.792l3.504-5.64h1.728v5.568zm-4.188 0h3.132v-4.992L21.3 59.168zm7.08 1.824c-.537-.776-.805-1.84-.805-3.192s.268-2.412.804-3.18c.536-.776 1.296-1.164 2.28-1.164.976 0 1.732.388 2.268 1.164.536.768.804 1.828.804 3.18s-.268 2.416-.804 3.192c-.536.768-1.292 1.152-2.268 1.152-.984 0-1.744-.384-2.28-1.152zm.78-5.748c-.353.616-.529 1.468-.529 2.556s.176 1.94.528 2.556c.36.616.86.924 1.5.924.632 0 1.124-.308 1.476-.924.36-.616.54-1.468.54-2.556s-.18-1.94-.54-2.556c-.352-.616-.844-.924-1.476-.924-.64 0-1.14.308-1.5.924zm5.655 5.112c0-1.128.824-1.772 2.472-1.932l1.872-.18v-.6c0-.392-.128-.708-.384-.948-.248-.248-.616-.368-1.104-.36-.448 0-.816.104-1.104.312-.288.2-.444.504-.468.912h-.972c.024-.68.268-1.18.732-1.5.464-.328 1.068-.492 1.812-.492.824 0 1.452.196 1.884.588.432.392.648.956.648 1.692V62h-.96v-1.296c-.2.456-.504.812-.912 1.068-.408.248-.904.372-1.488.372-.672 0-1.18-.164-1.524-.492-.336-.336-.504-.768-.504-1.296zm1.044-.036a1 1 0 00.324.768c.216.2.54.3.972.3.616 0 1.104-.192 1.464-.576.36-.392.54-.896.54-1.512v-.384l-1.752.18c-1.032.096-1.548.504-1.548 1.224z" fill="#000"/><path d="M30.689 12.589c-.415 3.74-3.513 6.647-7.273 6.647s-6.859-2.907-7.273-6.647m7.319-7.604v14.25M20.118 8.684h6.688M15 15.05l.952-3.03 2.434 2.142m13.538.888l-.952-3.03-2.434 2.142M25.28 3.18c0 1.03-.814 1.865-1.818 1.865s-1.819-.835-1.819-1.864c0-1.03.815-1.864 1.819-1.864s1.819.834 1.819 1.864z" stroke="#000"/></svg>