<svg width="54" height="34" fill="none" xmlns="http://www.w3.org/2000/svg"><path d="M2.214 10.447l-.22-.449-.28.138v.311h.5zm17.83 0h.5v-.311l-.279-.138-.22.449zM11.13 6.064l.22-.448-.22-.109-.22.109.22.448zm12.867 4.383l-.22-.449-.28.138v.311h.5zm17.83 0h.5v-.311l-.279-.138-.22.449zm-8.915-4.383l.221-.448-.22-.109-.221.109.22.448zM7.893 1V.5h-.5V1h.5zm0 2.647h-.5v.5h.5v-.5zM51.786 1h.5V.5h-.5V1zm.362.402a.5.5 0 00-.725-.69l.725.69zm-6.43 6.044l-.362-.344a.5.5 0 000 .688l.362-.344zm6.068 6.388l.362.345a.5.5 0 000-.689l-.362.344zm-6.068 6.389l-.362-.344a.5.5 0 000 .688l.362-.344zm6.068 6.389l.362.344a.5.5 0 000-.689l-.362.345zm-6.43 6.044a.5.5 0 00.725.688l-.725-.688zM0 33.5h54v-1H0v1zm2.714-.5V10.447h-1V33h1zm16.83-22.553V33h1V10.447h-1zm-17.11.449l8.916-4.383-.441-.897-8.916 4.382.442.898zm8.475-4.383l8.915 4.383.441-.898-8.915-4.382-.441.897zM24.496 33V10.447h-1V33h1zm16.83-22.553V33h1V10.447h-1zm-17.11.449l8.916-4.383-.441-.897-8.915 4.382.44.898zm8.475-4.383l8.915 4.383.441-.898-8.915-4.382-.441.897zM7.893 1.5h37.652v-1H7.893v1zm37.652 1.647H7.893v1h37.652v-1zm-37.152.5V1h-1v2.647h1zM51.786.5h-6.24v1h6.24v-1zm-6.74.5l-.001 32h1V1h-1zm7.24 32V1h-1v32h1zM11.612 6.106V3.647h-1v2.46h1zm0-2.647V1h-1v2.46h1zm7.267 0V1h-1v2.46h1zm7.266 0V1h-1v2.46h1zm7.267 0V1h-1v2.46h1zm6.818 0V1h-1v2.46h1zm-6.818 2.647V3.647h-1v2.46h1zM51.423.713l-6.067 6.389.725.688 6.067-6.388-.725-.69zM45.356 7.79l6.067 6.389.725-.689-6.067-6.388-.725.688zm6.067 5.7l-6.067 6.389.725.688 6.067-6.388-.725-.689zm-6.067 7.077l6.067 6.389.725-.689-6.067-6.388-.725.688zm6.067 5.7l-6.067 6.389.725.688 6.067-6.388-.725-.689zM15.696 11.884v2.776h1v-2.776h-1zm0 4.806v12.28h1V16.69h-1zm21.785-4.506V25.41h1V12.184h-1z" fill="#000"/></svg>