<svg width="59" height="33" fill="none" xmlns="http://www.w3.org/2000/svg"><path d="M.608 9.2v-.5h-.5v.5h.5zm4.56 0h.5v-.5h-.5v.5zM.607 32h-.5a.5.5 0 00.5.5V32zm4.56 0v.5h.5V32h-.5zm.358-22.41a.5.5 0 00-.717-.698l.717.697zM.734 13.792l-.358-.35a.5.5 0 000 .698l.358-.348zm4.433 4.551l.359.35a.5.5 0 000-.698l-.359.348zM.734 22.896l-.358-.349a.5.5 0 000 .698l.358-.349zm4.433 4.552l.354.354a.5.5 0 00.005-.703l-.359.35zm0-18.748H.607v1h4.56v-1zm-5.06.5V32h1V9.2h-1zM5.668 32V9.2h-1V32h1zM4.81 8.892L.376 13.444l.716.697L5.526 9.59l-.717-.697zm-4.433 5.25l4.433 4.551.717-.698-4.434-4.551-.716.697zm4.433 3.854L.376 22.547l.716.698 4.434-4.552-.717-.698zm-4.433 5.25l4.433 4.551.717-.698-4.434-4.552-.716.698zm4.438 3.848l-4.56 4.552.707.708 4.56-4.552-.707-.708zm.353 4.406H.607v1h4.56v-1zM57.727 9.129v-.5h.5v.5h-.5zm-4.56 0h-.5v-.5h.5v.5zm4.56 22.8h.5a.5.5 0 01-.5.5v-.5zm-4.56 0v.5h-.5v-.5h.5zm-.358-22.41a.5.5 0 01.717-.699l-.717.698zm4.792 4.202l.358-.349a.5.5 0 010 .698l-.358-.349zm-4.434 4.552l-.358.349a.5.5 0 010-.698l.358.35zm4.434 4.552l.358-.349a.5.5 0 010 .698l-.358-.349zm-4.434 4.552l-.353.354a.5.5 0 01-.005-.703l.358.349zm0-18.748h4.56v1h-4.56v-1zm5.06.5v22.8h-1v-22.8h1zm-5.56 22.8v-22.8h1v22.8h-1zm.859-23.109l4.433 4.552-.716.698-4.434-4.552.717-.698zm4.433 5.25l-4.433 4.552-.717-.698 4.434-4.552.716.698zm-4.433 3.854l4.433 4.552-.716.698-4.434-4.552.717-.698zm4.433 5.25l-4.433 4.552-.717-.698 4.434-4.552.716.698zm-4.438 3.849l4.56 4.552-.707.707-4.56-4.551.707-.708zm-.354 4.406h4.56v1h-4.56v-1z" fill="#000"/><path stroke="#000" d="M.5.5h57.403v8.734H.5z"/><path d="M20.521 3.65h-5.7v2.28h5.7m0-2.28v2.28m0-2.28h5.7v2.28h-5.7m15.96-2.28h-5.7v2.28h5.7m0-2.28v2.28m0-2.28h5.7v2.28h-5.7M5.701 3.65h5.7v2.28h-5.7V3.65zm40.918 0h5.7v2.28h-5.7V3.65z" stroke="#000"/></svg>