<svg width="60" height="33" fill="none" xmlns="http://www.w3.org/2000/svg"><path d="M1 29.314v-.5H.5v.5H1zm58 0h.5v-.5H59v.5zM56.353 3.645h.5v-.5h-.5v.5zM3.648 1V.5h-.5V1h.5zm52.69 0h.5V.5h-.5V1zm0 20.557v.5h.5v-.5h-.5zm-52.69 0h-.5v.5h.5v-.5zm17.19-17.912a.5.5 0 10-1 0h1zm-.5 15.267l-.438.24a.5.5 0 00.938-.24h-.5zm-8.4-15.267l.438-.24a.5.5 0 00-.938.24h.5zm0 15.267l-.44.237a.5.5 0 00.94-.237h-.5zM3.703 3.645l.44-.237a.5.5 0 00-.94.237h.5zm0 15.267h-.5a.5.5 0 00.5.5v-.5zm52.65 0v.5a.5.5 0 00.5-.5h-.5zm-8.248 0h-.5a.5.5 0 00.94.238l-.44-.238zm0-15.267h.5a.5.5 0 00-.939-.24l.439.24zm-8.387 15.267h-.5a.5.5 0 00.938.24l-.438-.24zm.5-15.267a.5.5 0 00-1 0h1zm-19.88 7.133a.5.5 0 100 1v-1zm19.38 1a.5.5 0 000-1v1zM6.669 25.298c0 2.351 1.92 4.241 4.284 4.241v-1c-1.822 0-3.284-1.453-3.284-3.24h-1zm4.284 4.241c2.364 0 4.285-1.89 4.285-4.24h-1c0 1.787-1.462 3.24-3.285 3.24v1zm4.285-4.24c0-2.337-1.92-4.242-4.285-4.242v1c1.822 0 3.285 1.466 3.285 3.241h1zm-4.285-4.242c-2.364 0-4.284 1.89-4.284 4.241h1c0-1.788 1.462-3.241 3.284-3.241v-1zm33.824 4.24c0 2.352 1.92 4.242 4.284 4.242v-1c-1.822 0-3.284-1.453-3.284-3.241h-1zm4.284 4.242c2.364 0 4.285-1.89 4.285-4.241h-1c0 1.788-1.462 3.241-3.285 3.241v1zm4.285-4.241c0-2.336-1.92-4.241-4.285-4.241v1c1.822 0 3.285 1.466 3.285 3.24h1zm-4.285-4.241c-2.364 0-4.284 1.89-4.284 4.24h1c0-1.787 1.462-3.24 3.284-3.24v-1zM.5 29.314V33h1v-3.686h-1zm3.632 0V33h1v-3.687h-1zm3.618 0V33h1v-3.687h-1zm3.632 0V33h1v-3.687h-1zm3.618 0V33h1v-3.687h-1zm3.618 0V33h1v-3.687h-1zm3.632 0V33h1v-3.687h-1zm3.618 0V33h1v-3.687h-1zm3.632 0V33h1v-3.687h-1zm3.632 0V33h1v-3.687h-1zm3.618 0V33h1v-3.687h-1zm3.632 0V33h1v-3.687h-1zm3.618 0V33h1v-3.687h-1zm3.618 0V33h1v-3.687h-1zm3.632 0V33h1v-3.687h-1zm3.618 0V33h1v-3.687h-1zM1 29.813h58v-1H1v1zm57.5-.5V33h1v-3.686h-1zM3.648 4.145h52.705v-1H3.648v1zm0-2.645h52.69v-1H3.649v1zm52.19-.5v20.557h1V1h-1zm.5 20.057H3.649v1h52.69v-1zm-52.19.5V1h-1v20.557h1zm15.69-17.912v15.267h1V3.645h-1zm.938 15.026l-8.4-15.267-.876.482 8.4 15.267.876-.482zM11.438 3.645v15.267h1V3.645h-1zm.94 15.03L4.144 3.407l-.88.474 8.234 15.267.88-.475zM3.203 3.644v15.267h1V3.645h-1zm.5 15.767h52.65v-1H3.703v1zm53.15-.5V3.645h-1v15.267h1zm-.94-15.505l-8.248 15.267.88.476 8.247-15.267-.88-.476zm-7.308 15.505V3.645h-1v15.267h1zm-.939-15.508L39.28 18.671l.876.482 8.387-15.267-.877-.482zm-7.448 15.508V3.645h-1v15.267h1zm-19.88-7.134h19.38v-1h-19.38v1z" fill="#000"/></svg>