<svg width="48" height="64" fill="none" xmlns="http://www.w3.org/2000/svg"><path d="M5.344 28.035v8.272m4.442-8.273v9.157m32.48-9.157v8.392m-4.443-8.392v9.137m-16.24-9.136v9.453m4.443-9.453v9.41M6.7 40.616l3.698 1.85a4.48 4.48 0 004.007 0l1.694-.848a4.48 4.48 0 014.007 0l3.698 1.85m11.402 0l3.698-1.85a4.48 4.48 0 014.006 0l3.698 1.85M1 22.772h45.61v5.573H1v-5.573zm45.61 15.823v8.067H1v-8.067l3.759-1.88a4.343 4.343 0 013.885 0l1.816.909a4.344 4.344 0 003.885 0l1.816-.908a4.343 4.343 0 013.885 0l1.816.908a4.344 4.344 0 003.885 0l1.816-.908a4.343 4.343 0 013.885 0l1.816.908a4.344 4.344 0 003.886 0l1.816-.908a4.343 4.343 0 013.885 0l3.758 1.88z" stroke="#000"/><path d="M21.015 58.004c-.655 0-1.18-.204-1.572-.612-.384-.408-.576-.964-.576-1.668 0-.696.192-1.248.576-1.656.392-.408.916-.612 1.572-.612.648 0 1.165.204 1.549.612.392.408.587.96.587 1.656s-.195 1.252-.587 1.668c-.384.408-.9.612-1.549.612zm-4.547 3.336V53.6h1.067V62h-1.86l-3.744-7.74V62h-1.067v-8.4h1.86l3.744 7.74zm5.448-6.732c-.216-.288-.517-.432-.9-.432-.384 0-.688.14-.912.42-.216.28-.325.656-.325 1.128 0 .472.108.852.325 1.14.224.28.527.42.912.42.384 0 .684-.14.9-.42.224-.288.335-.668.335-1.14 0-.464-.111-.836-.335-1.116zm-2.893 4.848v-.708h3.973v.708h-3.973zm10.286-.288h1.272v.864H29.31V62h-1.056v-1.968h-4.176v-.792l3.504-5.64h1.728v5.568zm-4.188 0h3.132v-4.992l-3.132 4.992zm7.08 1.824c-.536-.776-.804-1.84-.804-3.192s.268-2.412.804-3.18c.536-.776 1.296-1.164 2.28-1.164.976 0 1.732.388 2.268 1.164.536.768.804 1.828.804 3.18s-.268 2.416-.804 3.192c-.536.768-1.292 1.152-2.268 1.152-.984 0-1.744-.384-2.28-1.152zm.78-5.748c-.352.616-.528 1.468-.528 2.556s.176 1.94.528 2.556c.36.616.86.924 1.5.924.632 0 1.124-.308 1.476-.924.36-.616.54-1.468.54-2.556s-.18-1.94-.54-2.556c-.352-.616-.844-.924-1.476-.924-.64 0-1.14.308-1.5.924z" fill="#000"/><path d="M30.689 12.589c-.415 3.74-3.513 6.647-7.273 6.647s-6.859-2.907-7.273-6.647m7.319-7.604v14.25M20.118 8.684h6.688M15 15.05l.952-3.03 2.434 2.142m13.538.888l-.952-3.03-2.434 2.142M25.28 3.18c0 1.03-.814 1.865-1.818 1.865s-1.819-.835-1.819-1.864c0-1.03.815-1.864 1.819-1.864s1.819.834 1.819 1.864z" stroke="#000"/></svg>